%TF.GenerationSoftware,KiCad,Pcbnew,8.0.4*%
%TF.CreationDate,2024-11-06T13:18:38+05:30*%
%TF.ProjectId,PS_CARD,50535f43-4152-4442-9e6b-696361645f70,rev?*%
%TF.SameCoordinates,Original*%
%TF.FileFunction,Legend,Bot*%
%TF.FilePolarity,Positive*%
%FSLAX46Y46*%
G04 Gerber Fmt 4.6, Leading zero omitted, Abs format (unit mm)*
G04 Created by KiCad (PCBNEW 8.0.4) date 2024-11-06 13:18:38*
%MOMM*%
%LPD*%
G01*
G04 APERTURE LIST*
G04 Aperture macros list*
%AMRoundRect*
0 Rectangle with rounded corners*
0 $1 Rounding radius*
0 $2 $3 $4 $5 $6 $7 $8 $9 X,Y pos of 4 corners*
0 Add a 4 corners polygon primitive as box body*
4,1,4,$2,$3,$4,$5,$6,$7,$8,$9,$2,$3,0*
0 Add four circle primitives for the rounded corners*
1,1,$1+$1,$2,$3*
1,1,$1+$1,$4,$5*
1,1,$1+$1,$6,$7*
1,1,$1+$1,$8,$9*
0 Add four rect primitives between the rounded corners*
20,1,$1+$1,$2,$3,$4,$5,0*
20,1,$1+$1,$4,$5,$6,$7,0*
20,1,$1+$1,$6,$7,$8,$9,0*
20,1,$1+$1,$8,$9,$2,$3,0*%
G04 Aperture macros list end*
%ADD10C,0.150000*%
%ADD11C,0.120000*%
%ADD12R,1.800000X1.800000*%
%ADD13C,1.700000*%
%ADD14R,1.625600X1.625600*%
%ADD15C,1.625600*%
%ADD16C,3.900000*%
%ADD17C,7.000000*%
%ADD18C,4.000000*%
%ADD19C,2.700000*%
%ADD20R,1.422400X1.422400*%
%ADD21C,1.422400*%
%ADD22C,1.066800*%
%ADD23C,2.999999*%
%ADD24R,1.520000X1.520000*%
%ADD25C,1.520000*%
%ADD26R,1.574800X1.574800*%
%ADD27C,1.574800*%
%ADD28C,1.404000*%
%ADD29C,1.600000*%
%ADD30C,1.800000*%
%ADD31RoundRect,0.250000X-0.350000X-0.450000X0.350000X-0.450000X0.350000X0.450000X-0.350000X0.450000X0*%
G04 APERTURE END LIST*
D10*
G36*
X143913094Y-137403628D02*
G01*
X143624847Y-137403628D01*
X143556331Y-137369370D01*
X143525924Y-137338963D01*
X143491666Y-137270447D01*
X143491666Y-137163000D01*
X143525924Y-137094484D01*
X143556331Y-137064077D01*
X143624847Y-137029819D01*
X143913094Y-137029819D01*
X143913094Y-137403628D01*
G37*
G36*
X144174205Y-138140930D02*
G01*
X142278174Y-138140930D01*
X142278174Y-137526247D01*
X142389285Y-137526247D01*
X142389285Y-137764342D01*
X142390726Y-137778974D01*
X142391757Y-137781463D01*
X142391948Y-137784151D01*
X142397203Y-137797883D01*
X142444822Y-137893121D01*
X142448785Y-137899417D01*
X142449543Y-137901247D01*
X142451232Y-137903305D01*
X142452654Y-137905564D01*
X142454152Y-137906863D01*
X142458870Y-137912612D01*
X142506489Y-137960232D01*
X142512238Y-137964950D01*
X142513539Y-137966450D01*
X142515798Y-137967872D01*
X142517855Y-137969560D01*
X142519682Y-137970317D01*
X142525982Y-137974282D01*
X142621220Y-138021901D01*
X142634951Y-138027156D01*
X142637640Y-138027347D01*
X142640129Y-138028378D01*
X142654761Y-138029819D01*
X142940475Y-138029819D01*
X142955107Y-138028378D01*
X142957596Y-138027346D01*
X142960284Y-138027156D01*
X142974016Y-138021901D01*
X143069254Y-137974282D01*
X143075553Y-137970317D01*
X143077381Y-137969560D01*
X143079437Y-137967872D01*
X143081697Y-137966450D01*
X143082997Y-137964950D01*
X143088747Y-137960232D01*
X143136365Y-137912613D01*
X143145693Y-137901247D01*
X143156891Y-137874211D01*
X143156891Y-137844948D01*
X143145692Y-137817912D01*
X143124999Y-137797219D01*
X143097963Y-137786021D01*
X143068700Y-137786021D01*
X143041664Y-137797220D01*
X143030298Y-137806548D01*
X142991285Y-137845561D01*
X142922770Y-137879819D01*
X142672466Y-137879819D01*
X142603950Y-137845561D01*
X142573543Y-137815153D01*
X142539285Y-137746637D01*
X142539285Y-137543952D01*
X142573543Y-137475436D01*
X142603950Y-137445029D01*
X142672466Y-137410771D01*
X142797618Y-137410771D01*
X142805356Y-137410008D01*
X142807324Y-137410140D01*
X142808679Y-137409681D01*
X142812250Y-137409330D01*
X142823507Y-137404666D01*
X142835045Y-137400765D01*
X142836949Y-137399099D01*
X142839286Y-137398131D01*
X142847896Y-137389520D01*
X142857069Y-137381495D01*
X142858191Y-137379225D01*
X142859978Y-137377439D01*
X142864638Y-137366188D01*
X142870041Y-137355263D01*
X142870209Y-137352739D01*
X142871177Y-137350403D01*
X142871177Y-137338218D01*
X142871987Y-137326065D01*
X142871177Y-137323669D01*
X142871177Y-137321139D01*
X142866513Y-137309881D01*
X142862612Y-137298344D01*
X142860526Y-137295426D01*
X142859978Y-137294103D01*
X142858582Y-137292707D01*
X142854061Y-137286383D01*
X142730609Y-137145295D01*
X143341666Y-137145295D01*
X143341666Y-137288152D01*
X143343107Y-137302784D01*
X143344138Y-137305273D01*
X143344329Y-137307961D01*
X143349584Y-137321693D01*
X143397203Y-137416931D01*
X143401167Y-137423230D01*
X143401925Y-137425058D01*
X143403613Y-137427114D01*
X143405035Y-137429374D01*
X143406533Y-137430673D01*
X143411252Y-137436423D01*
X143458871Y-137484042D01*
X143464620Y-137488760D01*
X143465920Y-137490259D01*
X143468179Y-137491680D01*
X143470236Y-137493369D01*
X143472063Y-137494126D01*
X143478363Y-137498091D01*
X143573601Y-137545710D01*
X143587332Y-137550965D01*
X143590021Y-137551156D01*
X143592510Y-137552187D01*
X143606027Y-137553518D01*
X143355224Y-137911809D01*
X143348013Y-137924623D01*
X143341684Y-137953194D01*
X143346769Y-137982011D01*
X143362496Y-138006690D01*
X143386470Y-138023472D01*
X143415041Y-138029801D01*
X143443858Y-138024716D01*
X143468537Y-138008989D01*
X143478108Y-137997829D01*
X143789048Y-137553628D01*
X143913094Y-137553628D01*
X143913094Y-137954819D01*
X143914535Y-137969451D01*
X143925734Y-137996487D01*
X143946426Y-138017179D01*
X143973462Y-138028378D01*
X144002726Y-138028378D01*
X144029762Y-138017179D01*
X144050454Y-137996487D01*
X144061653Y-137969451D01*
X144063094Y-137954819D01*
X144063094Y-136954819D01*
X144061653Y-136940187D01*
X144050454Y-136913151D01*
X144029762Y-136892459D01*
X144002726Y-136881260D01*
X143988094Y-136879819D01*
X143607142Y-136879819D01*
X143592510Y-136881260D01*
X143590021Y-136882290D01*
X143587332Y-136882482D01*
X143573601Y-136887737D01*
X143478363Y-136935356D01*
X143472063Y-136939320D01*
X143470236Y-136940078D01*
X143468179Y-136941766D01*
X143465920Y-136943188D01*
X143464620Y-136944686D01*
X143458871Y-136949405D01*
X143411252Y-136997024D01*
X143406533Y-137002773D01*
X143405035Y-137004073D01*
X143403613Y-137006332D01*
X143401925Y-137008389D01*
X143401167Y-137010216D01*
X143397203Y-137016516D01*
X143349584Y-137111754D01*
X143344329Y-137125486D01*
X143344138Y-137128173D01*
X143343107Y-137130663D01*
X143341666Y-137145295D01*
X142730609Y-137145295D01*
X142629567Y-137029819D01*
X143083332Y-137029819D01*
X143097964Y-137028378D01*
X143125000Y-137017179D01*
X143145692Y-136996487D01*
X143156891Y-136969451D01*
X143156891Y-136940187D01*
X143145692Y-136913151D01*
X143125000Y-136892459D01*
X143097964Y-136881260D01*
X143083332Y-136879819D01*
X142464285Y-136879819D01*
X142456546Y-136880581D01*
X142454579Y-136880450D01*
X142453223Y-136880908D01*
X142449653Y-136881260D01*
X142438395Y-136885923D01*
X142426858Y-136889825D01*
X142424953Y-136891490D01*
X142422617Y-136892459D01*
X142414006Y-136901069D01*
X142404834Y-136909095D01*
X142403711Y-136911364D01*
X142401925Y-136913151D01*
X142397264Y-136924401D01*
X142391862Y-136935327D01*
X142391693Y-136937850D01*
X142390726Y-136940187D01*
X142390726Y-136952371D01*
X142389916Y-136964525D01*
X142390726Y-136966920D01*
X142390726Y-136969451D01*
X142395389Y-136980708D01*
X142399291Y-136992246D01*
X142401376Y-136995163D01*
X142401925Y-136996487D01*
X142403320Y-136997882D01*
X142407842Y-137004207D01*
X142634737Y-137263515D01*
X142621220Y-137268689D01*
X142525982Y-137316308D01*
X142519682Y-137320272D01*
X142517855Y-137321030D01*
X142515798Y-137322718D01*
X142513539Y-137324140D01*
X142512239Y-137325638D01*
X142506490Y-137330357D01*
X142458871Y-137377976D01*
X142454152Y-137383725D01*
X142452654Y-137385025D01*
X142451232Y-137387284D01*
X142449544Y-137389341D01*
X142448786Y-137391168D01*
X142444822Y-137397468D01*
X142397203Y-137492706D01*
X142391948Y-137506438D01*
X142391757Y-137509125D01*
X142390726Y-137511615D01*
X142389285Y-137526247D01*
X142278174Y-137526247D01*
X142278174Y-136768708D01*
X144174205Y-136768708D01*
X144174205Y-138140930D01*
G37*
G36*
X139413094Y-137403628D02*
G01*
X139124847Y-137403628D01*
X139056331Y-137369370D01*
X139025924Y-137338963D01*
X138991666Y-137270447D01*
X138991666Y-137163000D01*
X139025924Y-137094484D01*
X139056331Y-137064077D01*
X139124847Y-137029819D01*
X139413094Y-137029819D01*
X139413094Y-137403628D01*
G37*
G36*
X139674205Y-138140930D02*
G01*
X137778174Y-138140930D01*
X137778174Y-137145295D01*
X137889285Y-137145295D01*
X137889285Y-137240533D01*
X137890014Y-137247938D01*
X137889874Y-137249913D01*
X137890464Y-137252510D01*
X137890726Y-137255165D01*
X137891484Y-137256996D01*
X137893134Y-137264250D01*
X137940753Y-137407107D01*
X137946747Y-137420532D01*
X137948512Y-137422567D01*
X137949544Y-137425058D01*
X137958871Y-137436423D01*
X138402266Y-137879819D01*
X137964285Y-137879819D01*
X137949653Y-137881260D01*
X137922617Y-137892459D01*
X137901925Y-137913151D01*
X137890726Y-137940187D01*
X137890726Y-137969451D01*
X137901925Y-137996487D01*
X137922617Y-138017179D01*
X137949653Y-138028378D01*
X137964285Y-138029819D01*
X138583332Y-138029819D01*
X138597964Y-138028378D01*
X138609808Y-138023472D01*
X138625000Y-138017180D01*
X138645692Y-137996487D01*
X138656891Y-137969451D01*
X138656891Y-137940188D01*
X138645693Y-137913151D01*
X138636365Y-137901786D01*
X138077456Y-137342876D01*
X138039285Y-137228362D01*
X138039285Y-137163000D01*
X138048138Y-137145295D01*
X138841666Y-137145295D01*
X138841666Y-137288152D01*
X138843107Y-137302784D01*
X138844138Y-137305273D01*
X138844329Y-137307961D01*
X138849584Y-137321693D01*
X138897203Y-137416931D01*
X138901167Y-137423230D01*
X138901925Y-137425058D01*
X138903613Y-137427114D01*
X138905035Y-137429374D01*
X138906533Y-137430673D01*
X138911252Y-137436423D01*
X138958871Y-137484042D01*
X138964620Y-137488760D01*
X138965920Y-137490259D01*
X138968179Y-137491680D01*
X138970236Y-137493369D01*
X138972063Y-137494126D01*
X138978363Y-137498091D01*
X139073601Y-137545710D01*
X139087332Y-137550965D01*
X139090021Y-137551156D01*
X139092510Y-137552187D01*
X139106027Y-137553518D01*
X138855224Y-137911809D01*
X138848013Y-137924623D01*
X138841684Y-137953194D01*
X138846769Y-137982011D01*
X138862496Y-138006690D01*
X138886470Y-138023472D01*
X138915041Y-138029801D01*
X138943858Y-138024716D01*
X138968537Y-138008989D01*
X138978108Y-137997829D01*
X139289048Y-137553628D01*
X139413094Y-137553628D01*
X139413094Y-137954819D01*
X139414535Y-137969451D01*
X139425734Y-137996487D01*
X139446426Y-138017179D01*
X139473462Y-138028378D01*
X139502726Y-138028378D01*
X139529762Y-138017179D01*
X139550454Y-137996487D01*
X139561653Y-137969451D01*
X139563094Y-137954819D01*
X139563094Y-136954819D01*
X139561653Y-136940187D01*
X139550454Y-136913151D01*
X139529762Y-136892459D01*
X139502726Y-136881260D01*
X139488094Y-136879819D01*
X139107142Y-136879819D01*
X139092510Y-136881260D01*
X139090021Y-136882290D01*
X139087332Y-136882482D01*
X139073601Y-136887737D01*
X138978363Y-136935356D01*
X138972063Y-136939320D01*
X138970236Y-136940078D01*
X138968179Y-136941766D01*
X138965920Y-136943188D01*
X138964620Y-136944686D01*
X138958871Y-136949405D01*
X138911252Y-136997024D01*
X138906533Y-137002773D01*
X138905035Y-137004073D01*
X138903613Y-137006332D01*
X138901925Y-137008389D01*
X138901167Y-137010216D01*
X138897203Y-137016516D01*
X138849584Y-137111754D01*
X138844329Y-137125486D01*
X138844138Y-137128173D01*
X138843107Y-137130663D01*
X138841666Y-137145295D01*
X138048138Y-137145295D01*
X138073543Y-137094484D01*
X138103950Y-137064077D01*
X138172466Y-137029819D01*
X138375151Y-137029819D01*
X138443667Y-137064077D01*
X138482680Y-137103090D01*
X138494045Y-137112417D01*
X138521081Y-137123616D01*
X138550344Y-137123616D01*
X138577380Y-137112417D01*
X138598073Y-137091724D01*
X138609272Y-137064688D01*
X138609272Y-137035425D01*
X138598073Y-137008389D01*
X138588746Y-136997024D01*
X138541127Y-136949405D01*
X138535377Y-136944686D01*
X138534078Y-136943188D01*
X138531818Y-136941766D01*
X138529762Y-136940078D01*
X138527934Y-136939320D01*
X138521635Y-136935356D01*
X138426397Y-136887737D01*
X138412665Y-136882482D01*
X138409977Y-136882291D01*
X138407488Y-136881260D01*
X138392856Y-136879819D01*
X138154761Y-136879819D01*
X138140129Y-136881260D01*
X138137640Y-136882290D01*
X138134951Y-136882482D01*
X138121220Y-136887737D01*
X138025982Y-136935356D01*
X138019682Y-136939320D01*
X138017855Y-136940078D01*
X138015798Y-136941766D01*
X138013539Y-136943188D01*
X138012239Y-136944686D01*
X138006490Y-136949405D01*
X137958871Y-136997024D01*
X137954152Y-137002773D01*
X137952654Y-137004073D01*
X137951232Y-137006332D01*
X137949544Y-137008389D01*
X137948786Y-137010216D01*
X137944822Y-137016516D01*
X137897203Y-137111754D01*
X137891948Y-137125486D01*
X137891757Y-137128173D01*
X137890726Y-137130663D01*
X137889285Y-137145295D01*
X137778174Y-137145295D01*
X137778174Y-136768708D01*
X139674205Y-136768708D01*
X139674205Y-138140930D01*
G37*
D11*
%TO.C,R3*%
X143477064Y-138515000D02*
X143022936Y-138515000D01*
X143477064Y-139985000D02*
X143022936Y-139985000D01*
%TO.C,R2*%
X138977064Y-138515000D02*
X138522936Y-138515000D01*
X138977064Y-139985000D02*
X138522936Y-139985000D01*
%TD*%
%LPC*%
D12*
%TO.C,C9*%
X179000000Y-80500000D03*
D13*
X179000000Y-88000000D03*
%TD*%
D14*
%TO.C,F1*%
X67920000Y-103000000D03*
D15*
X73000000Y-103000000D03*
%TD*%
D16*
%TO.C,MH4*%
X185600000Y-70600000D03*
D17*
X185600000Y-70600000D03*
%TD*%
D18*
%TO.C,U1*%
X162250000Y-127050000D03*
X134350000Y-78700000D03*
D13*
X149550000Y-78700000D03*
X162250000Y-78700000D03*
X162250000Y-94000000D03*
X162250000Y-101600000D03*
D19*
X149550000Y-127000000D03*
D13*
X141950000Y-127000000D03*
D19*
X134350000Y-127000000D03*
%TD*%
D20*
%TO.C,C12*%
X149750000Y-137000000D03*
D21*
X157250000Y-137000000D03*
%TD*%
D22*
%TO.C,C10*%
X173000000Y-95500000D03*
X173000000Y-100500000D03*
%TD*%
D23*
%TO.C,J2*%
X187520000Y-121100347D03*
X187520000Y-104400380D03*
D24*
X183200001Y-102260354D03*
D25*
X183200001Y-105260353D03*
X183200001Y-108260352D03*
X183200001Y-111260351D03*
X183200001Y-114260350D03*
X183200001Y-117260349D03*
X183200001Y-120260348D03*
X183200001Y-123260348D03*
X180200002Y-102260354D03*
X180200002Y-105260353D03*
X180200002Y-108260352D03*
X180200002Y-111260351D03*
X180200002Y-114260350D03*
X180200002Y-117260349D03*
X180200002Y-120260348D03*
X180200002Y-123260348D03*
%TD*%
D16*
%TO.C,MH2*%
X61600000Y-136600000D03*
D17*
X61600000Y-136600000D03*
%TD*%
D12*
%TO.C,C14*%
X124500000Y-124000000D03*
D13*
X117000000Y-124000000D03*
%TD*%
D20*
%TO.C,C11*%
X173250000Y-120000000D03*
D21*
X173250000Y-112500000D03*
%TD*%
D26*
%TO.C,C3*%
X109750000Y-105500000D03*
D27*
X109750000Y-120486000D03*
%TD*%
D28*
%TO.C,RT1*%
X122750000Y-107250000D03*
X122750000Y-112250000D03*
%TD*%
D20*
%TO.C,C7*%
X103500000Y-121000000D03*
D21*
X103500000Y-113500000D03*
%TD*%
D29*
%TO.C,RV1*%
X73000000Y-109400000D03*
X71000000Y-114400000D03*
%TD*%
D26*
%TO.C,C1*%
X78000000Y-120000000D03*
D27*
X78000000Y-105014000D03*
%TD*%
D20*
%TO.C,C13*%
X108500000Y-126250000D03*
D21*
X101000000Y-126250000D03*
%TD*%
D14*
%TO.C,L2*%
X107696000Y-92000000D03*
D15*
X127000000Y-92000000D03*
%TD*%
D12*
%TO.C,L1*%
X84400000Y-96250000D03*
D30*
X84400000Y-103750000D03*
X95100000Y-103750000D03*
X95100000Y-96250000D03*
%TD*%
D16*
%TO.C,MH3*%
X185800000Y-136800000D03*
D17*
X185800000Y-136800000D03*
%TD*%
D20*
%TO.C,C4*%
X85000000Y-121000000D03*
D21*
X85000000Y-113500000D03*
%TD*%
D26*
%TO.C,C2*%
X101000000Y-107000000D03*
D27*
X101000000Y-92014000D03*
%TD*%
D20*
%TO.C,C5*%
X91000000Y-121000000D03*
D21*
X91000000Y-113500000D03*
%TD*%
D20*
%TO.C,C8*%
X116500000Y-105750000D03*
D21*
X116500000Y-113250000D03*
%TD*%
D20*
%TO.C,C6*%
X97250000Y-121000000D03*
D21*
X97250000Y-113500000D03*
%TD*%
D23*
%TO.C,J1*%
X60480001Y-113000000D03*
D24*
X64800000Y-114500000D03*
D25*
X64800000Y-111500001D03*
X67799999Y-114500000D03*
X67799999Y-111500001D03*
%TD*%
D31*
%TO.C,R3*%
X142250000Y-139250000D03*
X144250000Y-139250000D03*
%TD*%
D16*
%TO.C,MH1*%
X61800000Y-70600000D03*
D17*
X61800000Y-70600000D03*
%TD*%
D31*
%TO.C,R2*%
X137750000Y-139250000D03*
X139750000Y-139250000D03*
%TD*%
G36*
X157508059Y-83001061D02*
G01*
X157613223Y-83014906D01*
X157644491Y-83023284D01*
X157734918Y-83060740D01*
X157762951Y-83076925D01*
X157840601Y-83136508D01*
X157863491Y-83159398D01*
X157923074Y-83237048D01*
X157939259Y-83265081D01*
X157976715Y-83355508D01*
X157985093Y-83386775D01*
X157998939Y-83491939D01*
X158000000Y-83508125D01*
X158000000Y-121991874D01*
X157998939Y-122008060D01*
X157985093Y-122113224D01*
X157976715Y-122144491D01*
X157939259Y-122234918D01*
X157923074Y-122262951D01*
X157863491Y-122340601D01*
X157840601Y-122363491D01*
X157762951Y-122423074D01*
X157734918Y-122439259D01*
X157644491Y-122476715D01*
X157613224Y-122485093D01*
X157508060Y-122498939D01*
X157491874Y-122500000D01*
X130008126Y-122500000D01*
X129991940Y-122498939D01*
X129886775Y-122485093D01*
X129855508Y-122476715D01*
X129765081Y-122439259D01*
X129737048Y-122423074D01*
X129659398Y-122363491D01*
X129636508Y-122340601D01*
X129576925Y-122262951D01*
X129560740Y-122234918D01*
X129523284Y-122144491D01*
X129514906Y-122113223D01*
X129501061Y-122008059D01*
X129500000Y-121991874D01*
X129500000Y-83508125D01*
X129501061Y-83491940D01*
X129514906Y-83386776D01*
X129523284Y-83355508D01*
X129560740Y-83265081D01*
X129576925Y-83237048D01*
X129636508Y-83159398D01*
X129659398Y-83136508D01*
X129737048Y-83076925D01*
X129765081Y-83060740D01*
X129855508Y-83023284D01*
X129886776Y-83014906D01*
X129991941Y-83001061D01*
X130008126Y-83000000D01*
X157491874Y-83000000D01*
X157508059Y-83001061D01*
G37*
%LPD*%
M02*
