%TF.GenerationSoftware,KiCad,Pcbnew,8.0.4*%
%TF.CreationDate,2024-11-06T13:18:38+05:30*%
%TF.ProjectId,PS_CARD,50535f43-4152-4442-9e6b-696361645f70,rev?*%
%TF.SameCoordinates,Original*%
%TF.FileFunction,Soldermask,Bot*%
%TF.FilePolarity,Negative*%
%FSLAX46Y46*%
G04 Gerber Fmt 4.6, Leading zero omitted, Abs format (unit mm)*
G04 Created by KiCad (PCBNEW 8.0.4) date 2024-11-06 13:18:38*
%MOMM*%
%LPD*%
G01*
G04 APERTURE LIST*
G04 Aperture macros list*
%AMRoundRect*
0 Rectangle with rounded corners*
0 $1 Rounding radius*
0 $2 $3 $4 $5 $6 $7 $8 $9 X,Y pos of 4 corners*
0 Add a 4 corners polygon primitive as box body*
4,1,4,$2,$3,$4,$5,$6,$7,$8,$9,$2,$3,0*
0 Add four circle primitives for the rounded corners*
1,1,$1+$1,$2,$3*
1,1,$1+$1,$4,$5*
1,1,$1+$1,$6,$7*
1,1,$1+$1,$8,$9*
0 Add four rect primitives between the rounded corners*
20,1,$1+$1,$2,$3,$4,$5,0*
20,1,$1+$1,$4,$5,$6,$7,0*
20,1,$1+$1,$6,$7,$8,$9,0*
20,1,$1+$1,$8,$9,$2,$3,0*%
G04 Aperture macros list end*
%ADD10R,1.800000X1.800000*%
%ADD11C,1.700000*%
%ADD12R,1.625600X1.625600*%
%ADD13C,1.625600*%
%ADD14C,3.900000*%
%ADD15C,7.000000*%
%ADD16C,4.000000*%
%ADD17C,2.700000*%
%ADD18R,1.422400X1.422400*%
%ADD19C,1.422400*%
%ADD20C,1.066800*%
%ADD21C,2.999999*%
%ADD22R,1.520000X1.520000*%
%ADD23C,1.520000*%
%ADD24R,1.574800X1.574800*%
%ADD25C,1.574800*%
%ADD26C,1.404000*%
%ADD27C,1.600000*%
%ADD28C,1.800000*%
%ADD29RoundRect,0.250000X-0.350000X-0.450000X0.350000X-0.450000X0.350000X0.450000X-0.350000X0.450000X0*%
G04 APERTURE END LIST*
D10*
%TO.C,C9*%
X179000000Y-80500000D03*
D11*
X179000000Y-88000000D03*
%TD*%
D12*
%TO.C,F1*%
X67920000Y-103000000D03*
D13*
X73000000Y-103000000D03*
%TD*%
D14*
%TO.C,MH4*%
X185600000Y-70600000D03*
D15*
X185600000Y-70600000D03*
%TD*%
D16*
%TO.C,U1*%
X162250000Y-127050000D03*
X134350000Y-78700000D03*
D11*
X149550000Y-78700000D03*
X162250000Y-78700000D03*
X162250000Y-94000000D03*
X162250000Y-101600000D03*
D17*
X149550000Y-127000000D03*
D11*
X141950000Y-127000000D03*
D17*
X134350000Y-127000000D03*
%TD*%
D18*
%TO.C,C12*%
X149750000Y-137000000D03*
D19*
X157250000Y-137000000D03*
%TD*%
D20*
%TO.C,C10*%
X173000000Y-95500000D03*
X173000000Y-100500000D03*
%TD*%
D21*
%TO.C,J2*%
X187520000Y-121100347D03*
X187520000Y-104400380D03*
D22*
X183200001Y-102260354D03*
D23*
X183200001Y-105260353D03*
X183200001Y-108260352D03*
X183200001Y-111260351D03*
X183200001Y-114260350D03*
X183200001Y-117260349D03*
X183200001Y-120260348D03*
X183200001Y-123260348D03*
X180200002Y-102260354D03*
X180200002Y-105260353D03*
X180200002Y-108260352D03*
X180200002Y-111260351D03*
X180200002Y-114260350D03*
X180200002Y-117260349D03*
X180200002Y-120260348D03*
X180200002Y-123260348D03*
%TD*%
D14*
%TO.C,MH2*%
X61600000Y-136600000D03*
D15*
X61600000Y-136600000D03*
%TD*%
D10*
%TO.C,C14*%
X124500000Y-124000000D03*
D11*
X117000000Y-124000000D03*
%TD*%
D18*
%TO.C,C11*%
X173250000Y-120000000D03*
D19*
X173250000Y-112500000D03*
%TD*%
D24*
%TO.C,C3*%
X109750000Y-105500000D03*
D25*
X109750000Y-120486000D03*
%TD*%
D26*
%TO.C,RT1*%
X122750000Y-107250000D03*
X122750000Y-112250000D03*
%TD*%
D18*
%TO.C,C7*%
X103500000Y-121000000D03*
D19*
X103500000Y-113500000D03*
%TD*%
D27*
%TO.C,RV1*%
X73000000Y-109400000D03*
X71000000Y-114400000D03*
%TD*%
D24*
%TO.C,C1*%
X78000000Y-120000000D03*
D25*
X78000000Y-105014000D03*
%TD*%
D18*
%TO.C,C13*%
X108500000Y-126250000D03*
D19*
X101000000Y-126250000D03*
%TD*%
D12*
%TO.C,L2*%
X107696000Y-92000000D03*
D13*
X127000000Y-92000000D03*
%TD*%
D10*
%TO.C,L1*%
X84400000Y-96250000D03*
D28*
X84400000Y-103750000D03*
X95100000Y-103750000D03*
X95100000Y-96250000D03*
%TD*%
D14*
%TO.C,MH3*%
X185800000Y-136800000D03*
D15*
X185800000Y-136800000D03*
%TD*%
D18*
%TO.C,C4*%
X85000000Y-121000000D03*
D19*
X85000000Y-113500000D03*
%TD*%
D24*
%TO.C,C2*%
X101000000Y-107000000D03*
D25*
X101000000Y-92014000D03*
%TD*%
D18*
%TO.C,C5*%
X91000000Y-121000000D03*
D19*
X91000000Y-113500000D03*
%TD*%
D18*
%TO.C,C8*%
X116500000Y-105750000D03*
D19*
X116500000Y-113250000D03*
%TD*%
D18*
%TO.C,C6*%
X97250000Y-121000000D03*
D19*
X97250000Y-113500000D03*
%TD*%
D21*
%TO.C,J1*%
X60480001Y-113000000D03*
D22*
X64800000Y-114500000D03*
D23*
X64800000Y-111500001D03*
X67799999Y-114500000D03*
X67799999Y-111500001D03*
%TD*%
D29*
%TO.C,R3*%
X142250000Y-139250000D03*
X144250000Y-139250000D03*
%TD*%
D14*
%TO.C,MH1*%
X61800000Y-70600000D03*
D15*
X61800000Y-70600000D03*
%TD*%
D29*
%TO.C,R2*%
X137750000Y-139250000D03*
X139750000Y-139250000D03*
%TD*%
G36*
X157508059Y-83001061D02*
G01*
X157613223Y-83014906D01*
X157644491Y-83023284D01*
X157734918Y-83060740D01*
X157762951Y-83076925D01*
X157840601Y-83136508D01*
X157863491Y-83159398D01*
X157923074Y-83237048D01*
X157939259Y-83265081D01*
X157976715Y-83355508D01*
X157985093Y-83386775D01*
X157998939Y-83491939D01*
X158000000Y-83508125D01*
X158000000Y-121991874D01*
X157998939Y-122008060D01*
X157985093Y-122113224D01*
X157976715Y-122144491D01*
X157939259Y-122234918D01*
X157923074Y-122262951D01*
X157863491Y-122340601D01*
X157840601Y-122363491D01*
X157762951Y-122423074D01*
X157734918Y-122439259D01*
X157644491Y-122476715D01*
X157613224Y-122485093D01*
X157508060Y-122498939D01*
X157491874Y-122500000D01*
X130008126Y-122500000D01*
X129991940Y-122498939D01*
X129886775Y-122485093D01*
X129855508Y-122476715D01*
X129765081Y-122439259D01*
X129737048Y-122423074D01*
X129659398Y-122363491D01*
X129636508Y-122340601D01*
X129576925Y-122262951D01*
X129560740Y-122234918D01*
X129523284Y-122144491D01*
X129514906Y-122113223D01*
X129501061Y-122008059D01*
X129500000Y-121991874D01*
X129500000Y-83508125D01*
X129501061Y-83491940D01*
X129514906Y-83386776D01*
X129523284Y-83355508D01*
X129560740Y-83265081D01*
X129576925Y-83237048D01*
X129636508Y-83159398D01*
X129659398Y-83136508D01*
X129737048Y-83076925D01*
X129765081Y-83060740D01*
X129855508Y-83023284D01*
X129886776Y-83014906D01*
X129991941Y-83001061D01*
X130008126Y-83000000D01*
X157491874Y-83000000D01*
X157508059Y-83001061D01*
G37*
M02*
