%TF.GenerationSoftware,KiCad,Pcbnew,8.0.4*%
%TF.CreationDate,2024-11-06T13:18:38+05:30*%
%TF.ProjectId,PS_CARD,50535f43-4152-4442-9e6b-696361645f70,rev?*%
%TF.SameCoordinates,Original*%
%TF.FileFunction,Legend,Top*%
%TF.FilePolarity,Positive*%
%FSLAX46Y46*%
G04 Gerber Fmt 4.6, Leading zero omitted, Abs format (unit mm)*
G04 Created by KiCad (PCBNEW 8.0.4) date 2024-11-06 13:18:38*
%MOMM*%
%LPD*%
G01*
G04 APERTURE LIST*
G04 Aperture macros list*
%AMRoundRect*
0 Rectangle with rounded corners*
0 $1 Rounding radius*
0 $2 $3 $4 $5 $6 $7 $8 $9 X,Y pos of 4 corners*
0 Add a 4 corners polygon primitive as box body*
4,1,4,$2,$3,$4,$5,$6,$7,$8,$9,$2,$3,0*
0 Add four circle primitives for the rounded corners*
1,1,$1+$1,$2,$3*
1,1,$1+$1,$4,$5*
1,1,$1+$1,$6,$7*
1,1,$1+$1,$8,$9*
0 Add four rect primitives between the rounded corners*
20,1,$1+$1,$2,$3,$4,$5,0*
20,1,$1+$1,$4,$5,$6,$7,0*
20,1,$1+$1,$6,$7,$8,$9,0*
20,1,$1+$1,$8,$9,$2,$3,0*%
G04 Aperture macros list end*
%ADD10C,0.200000*%
%ADD11C,0.100000*%
%ADD12C,0.150000*%
%ADD13C,0.152400*%
%ADD14C,0.120000*%
%ADD15C,0.127000*%
%ADD16R,1.800000X1.800000*%
%ADD17C,1.700000*%
%ADD18R,1.625600X1.625600*%
%ADD19C,1.625600*%
%ADD20C,3.900000*%
%ADD21C,7.000000*%
%ADD22C,4.000000*%
%ADD23C,2.700000*%
%ADD24R,1.422400X1.422400*%
%ADD25C,1.422400*%
%ADD26C,1.066800*%
%ADD27C,2.999999*%
%ADD28R,1.520000X1.520000*%
%ADD29C,1.520000*%
%ADD30RoundRect,0.250000X0.350000X0.450000X-0.350000X0.450000X-0.350000X-0.450000X0.350000X-0.450000X0*%
%ADD31R,1.574800X1.574800*%
%ADD32C,1.574800*%
%ADD33C,1.404000*%
%ADD34RoundRect,0.250000X-0.412500X-0.650000X0.412500X-0.650000X0.412500X0.650000X-0.412500X0.650000X0*%
%ADD35C,1.600000*%
%ADD36C,1.800000*%
%ADD37RoundRect,0.250001X-0.462499X-0.624999X0.462499X-0.624999X0.462499X0.624999X-0.462499X0.624999X0*%
G04 APERTURE END LIST*
D10*
G36*
X76539009Y-76930357D02*
G01*
X76563678Y-76955025D01*
X76593483Y-77014635D01*
X76593483Y-77253135D01*
X76563678Y-77312743D01*
X76539009Y-77337413D01*
X76479400Y-77367219D01*
X76336138Y-77367219D01*
X76317293Y-77357796D01*
X76317293Y-76909974D01*
X76336138Y-76900552D01*
X76479400Y-76900552D01*
X76539009Y-76930357D01*
G37*
G36*
X77443771Y-76930357D02*
G01*
X77468440Y-76955025D01*
X77498245Y-77014635D01*
X77498245Y-77253135D01*
X77468440Y-77312743D01*
X77443771Y-77337413D01*
X77384162Y-77367219D01*
X77240900Y-77367219D01*
X77222055Y-77357796D01*
X77222055Y-76909974D01*
X77240900Y-76900552D01*
X77384162Y-76900552D01*
X77443771Y-76930357D01*
G37*
G36*
X70491389Y-76930357D02*
G01*
X70516058Y-76955025D01*
X70545863Y-77014635D01*
X70545863Y-77253135D01*
X70516058Y-77312743D01*
X70491389Y-77337413D01*
X70431780Y-77367219D01*
X70336137Y-77367219D01*
X70276527Y-77337414D01*
X70251860Y-77312746D01*
X70222054Y-77253134D01*
X70222054Y-77014635D01*
X70251859Y-76955025D01*
X70276527Y-76930356D01*
X70336137Y-76900552D01*
X70431780Y-76900552D01*
X70491389Y-76930357D01*
G37*
G36*
X72428470Y-76922707D02*
G01*
X72445920Y-76957607D01*
X72174435Y-77011904D01*
X72174435Y-76967016D01*
X72196590Y-76922706D01*
X72240899Y-76900552D01*
X72384161Y-76900552D01*
X72428470Y-76922707D01*
G37*
G36*
X81403008Y-77357796D02*
G01*
X81384163Y-77367219D01*
X81193282Y-77367219D01*
X81148972Y-77345064D01*
X81126818Y-77300754D01*
X81126818Y-77252730D01*
X81148973Y-77208420D01*
X81193282Y-77186266D01*
X81403008Y-77186266D01*
X81403008Y-77357796D01*
G37*
G36*
X82926818Y-76909974D02*
G01*
X82926818Y-77357796D01*
X82907973Y-77367219D01*
X82764711Y-77367219D01*
X82705101Y-77337414D01*
X82680434Y-77312746D01*
X82650628Y-77253134D01*
X82650628Y-77014635D01*
X82680433Y-76955025D01*
X82705101Y-76930356D01*
X82764711Y-76900552D01*
X82907973Y-76900552D01*
X82926818Y-76909974D01*
G37*
G36*
X69586627Y-76597024D02*
G01*
X69611296Y-76621692D01*
X69641101Y-76681302D01*
X69641101Y-76776945D01*
X69611296Y-76836554D01*
X69586627Y-76861222D01*
X69527018Y-76891028D01*
X69269673Y-76891028D01*
X69269673Y-76567219D01*
X69527018Y-76567219D01*
X69586627Y-76597024D01*
G37*
G36*
X83237929Y-78010878D02*
G01*
X68958562Y-78010878D01*
X68958562Y-76467219D01*
X69069673Y-76467219D01*
X69069673Y-77467219D01*
X69071594Y-77486728D01*
X69086526Y-77522776D01*
X69114116Y-77550366D01*
X69150164Y-77565298D01*
X69189182Y-77565298D01*
X69225230Y-77550366D01*
X69252820Y-77522776D01*
X69267752Y-77486728D01*
X69269673Y-77467219D01*
X69269673Y-77091028D01*
X69550625Y-77091028D01*
X69570134Y-77089107D01*
X69573454Y-77087731D01*
X69577038Y-77087477D01*
X69595346Y-77080471D01*
X69690584Y-77032852D01*
X69698980Y-77027566D01*
X69701420Y-77026556D01*
X69704166Y-77024302D01*
X69707174Y-77022409D01*
X69708903Y-77020414D01*
X69716574Y-77014120D01*
X69739666Y-76991028D01*
X70022054Y-76991028D01*
X70022054Y-77276742D01*
X70023975Y-77296251D01*
X70025350Y-77299571D01*
X70025605Y-77303155D01*
X70032611Y-77321463D01*
X70080230Y-77416701D01*
X70085513Y-77425093D01*
X70086525Y-77427537D01*
X70088781Y-77430286D01*
X70090673Y-77433291D01*
X70092667Y-77435020D01*
X70098962Y-77442690D01*
X70146580Y-77490310D01*
X70154248Y-77496603D01*
X70155980Y-77498600D01*
X70158988Y-77500493D01*
X70161734Y-77502747D01*
X70164174Y-77503757D01*
X70172571Y-77509043D01*
X70267808Y-77556662D01*
X70286117Y-77563668D01*
X70289700Y-77563922D01*
X70293021Y-77565298D01*
X70312530Y-77567219D01*
X70455387Y-77567219D01*
X70474896Y-77565298D01*
X70478216Y-77563922D01*
X70481800Y-77563668D01*
X70500108Y-77556662D01*
X70595346Y-77509043D01*
X70603741Y-77503758D01*
X70606183Y-77502747D01*
X70608930Y-77500491D01*
X70611936Y-77498600D01*
X70613666Y-77496605D01*
X70621336Y-77490310D01*
X70668955Y-77442690D01*
X70675247Y-77435023D01*
X70677244Y-77433292D01*
X70679137Y-77430284D01*
X70681392Y-77427537D01*
X70682403Y-77425095D01*
X70687687Y-77416701D01*
X70735306Y-77321464D01*
X70742312Y-77303155D01*
X70742566Y-77299571D01*
X70743942Y-77296251D01*
X70745863Y-77276742D01*
X70745863Y-76991028D01*
X70743942Y-76971519D01*
X70742566Y-76968198D01*
X70742312Y-76964615D01*
X70735306Y-76946306D01*
X70687687Y-76851069D01*
X70682401Y-76842672D01*
X70681391Y-76840232D01*
X70679137Y-76837486D01*
X70677244Y-76834478D01*
X70675246Y-76832745D01*
X70668954Y-76825079D01*
X70652613Y-76808738D01*
X70879532Y-76808738D01*
X70883045Y-76828024D01*
X71073521Y-77494691D01*
X71080727Y-77512922D01*
X71084697Y-77517923D01*
X71087210Y-77523786D01*
X71096721Y-77533068D01*
X71104988Y-77543481D01*
X71110565Y-77546579D01*
X71115134Y-77551038D01*
X71127483Y-77555977D01*
X71139096Y-77562429D01*
X71145431Y-77563157D01*
X71151361Y-77565529D01*
X71164654Y-77565366D01*
X71177859Y-77566884D01*
X71183998Y-77565129D01*
X71190376Y-77565052D01*
X71202586Y-77559819D01*
X71215376Y-77556165D01*
X71220377Y-77552194D01*
X71226240Y-77549682D01*
X71235522Y-77540170D01*
X71245935Y-77531904D01*
X71249033Y-77526326D01*
X71253492Y-77521758D01*
X71262521Y-77504358D01*
X71360149Y-77260287D01*
X71457777Y-77504358D01*
X71466806Y-77521758D01*
X71471264Y-77526326D01*
X71474363Y-77531904D01*
X71484775Y-77540170D01*
X71494058Y-77549682D01*
X71499921Y-77552194D01*
X71504922Y-77556165D01*
X71517709Y-77559818D01*
X71529921Y-77565052D01*
X71536299Y-77565129D01*
X71542439Y-77566884D01*
X71555650Y-77565365D01*
X71568937Y-77565528D01*
X71574860Y-77563158D01*
X71581202Y-77562430D01*
X71592825Y-77555972D01*
X71605164Y-77551037D01*
X71609730Y-77546580D01*
X71615310Y-77543481D01*
X71623577Y-77533067D01*
X71633088Y-77523786D01*
X71635600Y-77517923D01*
X71639571Y-77512922D01*
X71646777Y-77494691D01*
X71804286Y-76943409D01*
X71974435Y-76943409D01*
X71974435Y-77324361D01*
X71976356Y-77343870D01*
X71977731Y-77347190D01*
X71977986Y-77350773D01*
X71984992Y-77369082D01*
X72032611Y-77464321D01*
X72034664Y-77467584D01*
X72035178Y-77469123D01*
X72036840Y-77471039D01*
X72043054Y-77480911D01*
X72052525Y-77489125D01*
X72060742Y-77498600D01*
X72070612Y-77504812D01*
X72072530Y-77506476D01*
X72074070Y-77506989D01*
X72077333Y-77509043D01*
X72172570Y-77556662D01*
X72190879Y-77563668D01*
X72194462Y-77563922D01*
X72197783Y-77565298D01*
X72217292Y-77567219D01*
X72407768Y-77567219D01*
X72427277Y-77565298D01*
X72430597Y-77563922D01*
X72434181Y-77563668D01*
X72452489Y-77556662D01*
X72547727Y-77509043D01*
X72564317Y-77498600D01*
X72589882Y-77469123D01*
X72602220Y-77432107D01*
X72599455Y-77393187D01*
X72582006Y-77358289D01*
X72552529Y-77332724D01*
X72515513Y-77320385D01*
X72476593Y-77323151D01*
X72458284Y-77330157D01*
X72384161Y-77367219D01*
X72240899Y-77367219D01*
X72196589Y-77345064D01*
X72174435Y-77300754D01*
X72174435Y-77215865D01*
X72570131Y-77136726D01*
X72570134Y-77136726D01*
X72570136Y-77136724D01*
X72570236Y-77136705D01*
X72588990Y-77130995D01*
X72597130Y-77125543D01*
X72606182Y-77121794D01*
X72613183Y-77114792D01*
X72621409Y-77109284D01*
X72626843Y-77101132D01*
X72633772Y-77094204D01*
X72637561Y-77085056D01*
X72643053Y-77076819D01*
X72644954Y-77067208D01*
X72648704Y-77058156D01*
X72650625Y-77038647D01*
X72650625Y-76943409D01*
X72648704Y-76923900D01*
X72647328Y-76920579D01*
X72647074Y-76916996D01*
X72640068Y-76898687D01*
X72592449Y-76803450D01*
X72590624Y-76800552D01*
X72879197Y-76800552D01*
X72879197Y-77467219D01*
X72881118Y-77486728D01*
X72896050Y-77522776D01*
X72923640Y-77550366D01*
X72959688Y-77565298D01*
X72998706Y-77565298D01*
X73034754Y-77550366D01*
X73062344Y-77522776D01*
X73077276Y-77486728D01*
X73079197Y-77467219D01*
X73079197Y-77014635D01*
X73109002Y-76955025D01*
X73133670Y-76930356D01*
X73193280Y-76900552D01*
X73264911Y-76900552D01*
X73284420Y-76898631D01*
X73320468Y-76883699D01*
X73348058Y-76856109D01*
X73362990Y-76820061D01*
X73362990Y-76781043D01*
X73348058Y-76744995D01*
X73320468Y-76717405D01*
X73284420Y-76702473D01*
X73264911Y-76700552D01*
X73169673Y-76700552D01*
X73150164Y-76702473D01*
X73146843Y-76703848D01*
X73143260Y-76704103D01*
X73124951Y-76711109D01*
X73060622Y-76743273D01*
X73034754Y-76717405D01*
X72998706Y-76702473D01*
X72959688Y-76702473D01*
X72923640Y-76717405D01*
X72896050Y-76744995D01*
X72881118Y-76781043D01*
X72879197Y-76800552D01*
X72590624Y-76800552D01*
X72590394Y-76800186D01*
X72589882Y-76798648D01*
X72588220Y-76796732D01*
X72582006Y-76786859D01*
X72572530Y-76778641D01*
X72564317Y-76769171D01*
X72554445Y-76762957D01*
X72552529Y-76761295D01*
X72550990Y-76760781D01*
X72547727Y-76758728D01*
X72452489Y-76711109D01*
X72434181Y-76704103D01*
X72430597Y-76703848D01*
X72427277Y-76702473D01*
X72407768Y-76700552D01*
X72217292Y-76700552D01*
X72197783Y-76702473D01*
X72194462Y-76703848D01*
X72190879Y-76704103D01*
X72172570Y-76711109D01*
X72077333Y-76758728D01*
X72074069Y-76760782D01*
X72072531Y-76761295D01*
X72070615Y-76762956D01*
X72060742Y-76769171D01*
X72052524Y-76778646D01*
X72043054Y-76786860D01*
X72036840Y-76796731D01*
X72035178Y-76798648D01*
X72034664Y-76800186D01*
X72032611Y-76803450D01*
X71984992Y-76898688D01*
X71977986Y-76916996D01*
X71977731Y-76920579D01*
X71976356Y-76923900D01*
X71974435Y-76943409D01*
X71804286Y-76943409D01*
X71837253Y-76828024D01*
X71840766Y-76808738D01*
X71836311Y-76769975D01*
X71817363Y-76735867D01*
X71786804Y-76711606D01*
X71749287Y-76700887D01*
X71710524Y-76705342D01*
X71676416Y-76724290D01*
X71652155Y-76754849D01*
X71644949Y-76773080D01*
X71534834Y-77158482D01*
X71452997Y-76953889D01*
X71443968Y-76936489D01*
X71443099Y-76935599D01*
X71442612Y-76934461D01*
X71429515Y-76921680D01*
X71416716Y-76908565D01*
X71415575Y-76908076D01*
X71414688Y-76907210D01*
X71397674Y-76900404D01*
X71380852Y-76893195D01*
X71379613Y-76893179D01*
X71378461Y-76892719D01*
X71360170Y-76892942D01*
X71341837Y-76892718D01*
X71340682Y-76893179D01*
X71339445Y-76893195D01*
X71322650Y-76900392D01*
X71305610Y-76907209D01*
X71304720Y-76908077D01*
X71303582Y-76908565D01*
X71290791Y-76921670D01*
X71277686Y-76934461D01*
X71277198Y-76935599D01*
X71276330Y-76936489D01*
X71267301Y-76953889D01*
X71185463Y-77158482D01*
X71075349Y-76773080D01*
X71068143Y-76754849D01*
X71043882Y-76724290D01*
X71009774Y-76705341D01*
X70971011Y-76700887D01*
X70933494Y-76711606D01*
X70902935Y-76735867D01*
X70883986Y-76769975D01*
X70879532Y-76808738D01*
X70652613Y-76808738D01*
X70621336Y-76777460D01*
X70613665Y-76771165D01*
X70611936Y-76769171D01*
X70608928Y-76767277D01*
X70606182Y-76765024D01*
X70603742Y-76764013D01*
X70595346Y-76758728D01*
X70500108Y-76711109D01*
X70481800Y-76704103D01*
X70478216Y-76703848D01*
X70474896Y-76702473D01*
X70455387Y-76700552D01*
X70312530Y-76700552D01*
X70293021Y-76702473D01*
X70289700Y-76703848D01*
X70286117Y-76704103D01*
X70267808Y-76711109D01*
X70172571Y-76758728D01*
X70164174Y-76764013D01*
X70161734Y-76765024D01*
X70158988Y-76767277D01*
X70155980Y-76769171D01*
X70154247Y-76771168D01*
X70146581Y-76777461D01*
X70098962Y-76825079D01*
X70092667Y-76832749D01*
X70090673Y-76834479D01*
X70088779Y-76837486D01*
X70086526Y-76840233D01*
X70085515Y-76842672D01*
X70080230Y-76851069D01*
X70032611Y-76946307D01*
X70025605Y-76964615D01*
X70025350Y-76968198D01*
X70023975Y-76971519D01*
X70022054Y-76991028D01*
X69739666Y-76991028D01*
X69764192Y-76966501D01*
X69770484Y-76958834D01*
X69772482Y-76957102D01*
X69774375Y-76954093D01*
X69776629Y-76951348D01*
X69777639Y-76948907D01*
X69782925Y-76940511D01*
X69830544Y-76845274D01*
X69837550Y-76826965D01*
X69837804Y-76823381D01*
X69839180Y-76820061D01*
X69841101Y-76800552D01*
X69841101Y-76657695D01*
X74212531Y-76657695D01*
X74212531Y-76752933D01*
X74214452Y-76772442D01*
X74215827Y-76775762D01*
X74216082Y-76779346D01*
X74223088Y-76797654D01*
X74270707Y-76892892D01*
X74275992Y-76901288D01*
X74277003Y-76903728D01*
X74279256Y-76906474D01*
X74281150Y-76909482D01*
X74283144Y-76911211D01*
X74289439Y-76918882D01*
X74337058Y-76966500D01*
X74344724Y-76972792D01*
X74346457Y-76974790D01*
X74349465Y-76976683D01*
X74352211Y-76978937D01*
X74354651Y-76979947D01*
X74363048Y-76985233D01*
X74458285Y-77032852D01*
X74459713Y-77033398D01*
X74460293Y-77033828D01*
X74468469Y-77036749D01*
X74476594Y-77039858D01*
X74477314Y-77039909D01*
X74478753Y-77040423D01*
X74658578Y-77085379D01*
X74729485Y-77120833D01*
X74754154Y-77145501D01*
X74783959Y-77205111D01*
X74783959Y-77253135D01*
X74754154Y-77312743D01*
X74729485Y-77337413D01*
X74669876Y-77367219D01*
X74471614Y-77367219D01*
X74344154Y-77324732D01*
X74325038Y-77320385D01*
X74286118Y-77323151D01*
X74251219Y-77340601D01*
X74225654Y-77370077D01*
X74213316Y-77407093D01*
X74216082Y-77446013D01*
X74233532Y-77480912D01*
X74263008Y-77506477D01*
X74280908Y-77514468D01*
X74423765Y-77562087D01*
X74433437Y-77564286D01*
X74435879Y-77565298D01*
X74439416Y-77565646D01*
X74442880Y-77566434D01*
X74445514Y-77566246D01*
X74455388Y-77567219D01*
X74693483Y-77567219D01*
X74712992Y-77565298D01*
X74716312Y-77563922D01*
X74719896Y-77563668D01*
X74738204Y-77556662D01*
X74833442Y-77509043D01*
X74841837Y-77503758D01*
X74844279Y-77502747D01*
X74847026Y-77500491D01*
X74850032Y-77498600D01*
X74851762Y-77496605D01*
X74859432Y-77490310D01*
X74907051Y-77442690D01*
X74913343Y-77435023D01*
X74915340Y-77433292D01*
X74917233Y-77430284D01*
X74919488Y-77427537D01*
X74920499Y-77425095D01*
X74925783Y-77416701D01*
X74973402Y-77321464D01*
X74980408Y-77303155D01*
X74980662Y-77299571D01*
X74982038Y-77296251D01*
X74983959Y-77276742D01*
X74983959Y-77181504D01*
X74982038Y-77161995D01*
X74980662Y-77158674D01*
X74980408Y-77155091D01*
X74973402Y-77136782D01*
X74925783Y-77041545D01*
X74920497Y-77033148D01*
X74919487Y-77030708D01*
X74917233Y-77027962D01*
X74915340Y-77024954D01*
X74913342Y-77023221D01*
X74907050Y-77015555D01*
X74859432Y-76967936D01*
X74851761Y-76961641D01*
X74850032Y-76959647D01*
X74847024Y-76957753D01*
X74844278Y-76955500D01*
X74841838Y-76954489D01*
X74833442Y-76949204D01*
X74738204Y-76901585D01*
X74736777Y-76901039D01*
X74736197Y-76900609D01*
X74728020Y-76897687D01*
X74719896Y-76894579D01*
X74719173Y-76894527D01*
X74717736Y-76894014D01*
X74537911Y-76849057D01*
X74467004Y-76813604D01*
X74453953Y-76800552D01*
X75212531Y-76800552D01*
X75212531Y-77324361D01*
X75214452Y-77343870D01*
X75215827Y-77347190D01*
X75216082Y-77350773D01*
X75223088Y-77369082D01*
X75270707Y-77464321D01*
X75272760Y-77467584D01*
X75273274Y-77469123D01*
X75274936Y-77471039D01*
X75281150Y-77480911D01*
X75290621Y-77489125D01*
X75298838Y-77498600D01*
X75308708Y-77504812D01*
X75310626Y-77506476D01*
X75312166Y-77506989D01*
X75315429Y-77509043D01*
X75410666Y-77556662D01*
X75428975Y-77563668D01*
X75432558Y-77563922D01*
X75435879Y-77565298D01*
X75455388Y-77567219D01*
X75598245Y-77567219D01*
X75617754Y-77565298D01*
X75621074Y-77563922D01*
X75624658Y-77563668D01*
X75642966Y-77556662D01*
X75675549Y-77540370D01*
X75685545Y-77550366D01*
X75721593Y-77565298D01*
X75760611Y-77565298D01*
X75796659Y-77550366D01*
X75824249Y-77522776D01*
X75839181Y-77486728D01*
X75841102Y-77467219D01*
X75841102Y-76800552D01*
X76117293Y-76800552D01*
X76117293Y-77800552D01*
X76119214Y-77820061D01*
X76134146Y-77856109D01*
X76161736Y-77883699D01*
X76197784Y-77898631D01*
X76236802Y-77898631D01*
X76272850Y-77883699D01*
X76300440Y-77856109D01*
X76315372Y-77820061D01*
X76317293Y-77800552D01*
X76317293Y-77567219D01*
X76503007Y-77567219D01*
X76522516Y-77565298D01*
X76525836Y-77563922D01*
X76529420Y-77563668D01*
X76547728Y-77556662D01*
X76642966Y-77509043D01*
X76651361Y-77503758D01*
X76653803Y-77502747D01*
X76656550Y-77500491D01*
X76659556Y-77498600D01*
X76661286Y-77496605D01*
X76668956Y-77490310D01*
X76716575Y-77442690D01*
X76722867Y-77435023D01*
X76724864Y-77433292D01*
X76726757Y-77430284D01*
X76729012Y-77427537D01*
X76730023Y-77425095D01*
X76735307Y-77416701D01*
X76782926Y-77321464D01*
X76789932Y-77303155D01*
X76790186Y-77299571D01*
X76791562Y-77296251D01*
X76793483Y-77276742D01*
X76793483Y-76991028D01*
X76791562Y-76971519D01*
X76790186Y-76968198D01*
X76789932Y-76964615D01*
X76782926Y-76946306D01*
X76735307Y-76851069D01*
X76730021Y-76842672D01*
X76729011Y-76840232D01*
X76726757Y-76837486D01*
X76724864Y-76834478D01*
X76722866Y-76832745D01*
X76716574Y-76825079D01*
X76692048Y-76800552D01*
X77022055Y-76800552D01*
X77022055Y-77800552D01*
X77023976Y-77820061D01*
X77038908Y-77856109D01*
X77066498Y-77883699D01*
X77102546Y-77898631D01*
X77141564Y-77898631D01*
X77177612Y-77883699D01*
X77205202Y-77856109D01*
X77220134Y-77820061D01*
X77222055Y-77800552D01*
X77222055Y-77788045D01*
X78356174Y-77788045D01*
X78358940Y-77826965D01*
X78376389Y-77861864D01*
X78405866Y-77887428D01*
X78442882Y-77899767D01*
X78481802Y-77897001D01*
X78500110Y-77889995D01*
X78595348Y-77842376D01*
X78603744Y-77837090D01*
X78606184Y-77836080D01*
X78608930Y-77833826D01*
X78611938Y-77831933D01*
X78613667Y-77829938D01*
X78621338Y-77823644D01*
X78668956Y-77776025D01*
X78681393Y-77760872D01*
X78681630Y-77760297D01*
X78682065Y-77759853D01*
X78691094Y-77742453D01*
X78786332Y-77504358D01*
X78786856Y-77502551D01*
X78787658Y-77500853D01*
X79003752Y-76895790D01*
X79926818Y-76895790D01*
X79926818Y-77038647D01*
X79927153Y-77042049D01*
X79926936Y-77043508D01*
X79928015Y-77050805D01*
X79928739Y-77058156D01*
X79929303Y-77059519D01*
X79929804Y-77062901D01*
X79977423Y-77253376D01*
X79977936Y-77254813D01*
X79977988Y-77255536D01*
X79981096Y-77263660D01*
X79984018Y-77271837D01*
X79984448Y-77272417D01*
X79984994Y-77273844D01*
X80032613Y-77369082D01*
X80037895Y-77377474D01*
X80038908Y-77379918D01*
X80041164Y-77382667D01*
X80043056Y-77385672D01*
X80045050Y-77387401D01*
X80051345Y-77395071D01*
X80146583Y-77490311D01*
X80161736Y-77502747D01*
X80165055Y-77504122D01*
X80167771Y-77506477D01*
X80185671Y-77514468D01*
X80328528Y-77562087D01*
X80338200Y-77564286D01*
X80340642Y-77565298D01*
X80344179Y-77565646D01*
X80347643Y-77566434D01*
X80350277Y-77566246D01*
X80360151Y-77567219D01*
X80455389Y-77567219D01*
X80465262Y-77566246D01*
X80467896Y-77566434D01*
X80471359Y-77565646D01*
X80474898Y-77565298D01*
X80477340Y-77564286D01*
X80487012Y-77562087D01*
X80629868Y-77514468D01*
X80647769Y-77506477D01*
X80650484Y-77504122D01*
X80653804Y-77502747D01*
X80668957Y-77490310D01*
X80716576Y-77442690D01*
X80729013Y-77427537D01*
X80743944Y-77391488D01*
X80743943Y-77352470D01*
X80729012Y-77316422D01*
X80701421Y-77288832D01*
X80665373Y-77273901D01*
X80626355Y-77273902D01*
X80590307Y-77288833D01*
X80575153Y-77301270D01*
X80544226Y-77332197D01*
X80439162Y-77367219D01*
X80376377Y-77367219D01*
X80271312Y-77332197D01*
X80204242Y-77265127D01*
X80186240Y-77229123D01*
X80926818Y-77229123D01*
X80926818Y-77324361D01*
X80928739Y-77343870D01*
X80930114Y-77347190D01*
X80930369Y-77350773D01*
X80937375Y-77369082D01*
X80984994Y-77464321D01*
X80987047Y-77467584D01*
X80987561Y-77469123D01*
X80989223Y-77471039D01*
X80995437Y-77480911D01*
X81004908Y-77489125D01*
X81013125Y-77498600D01*
X81022995Y-77504812D01*
X81024913Y-77506476D01*
X81026453Y-77506989D01*
X81029716Y-77509043D01*
X81124953Y-77556662D01*
X81143262Y-77563668D01*
X81146845Y-77563922D01*
X81150166Y-77565298D01*
X81169675Y-77567219D01*
X81407770Y-77567219D01*
X81427279Y-77565298D01*
X81430599Y-77563922D01*
X81434183Y-77563668D01*
X81452491Y-77556662D01*
X81457094Y-77554360D01*
X81483499Y-77565298D01*
X81522517Y-77565298D01*
X81558565Y-77550366D01*
X81586155Y-77522776D01*
X81601087Y-77486728D01*
X81603008Y-77467219D01*
X81603008Y-76943409D01*
X81601087Y-76923900D01*
X81599711Y-76920579D01*
X81599457Y-76916996D01*
X81592451Y-76898687D01*
X81544832Y-76803450D01*
X81543007Y-76800552D01*
X81879199Y-76800552D01*
X81879199Y-77467219D01*
X81881120Y-77486728D01*
X81896052Y-77522776D01*
X81923642Y-77550366D01*
X81959690Y-77565298D01*
X81998708Y-77565298D01*
X82034756Y-77550366D01*
X82062346Y-77522776D01*
X82077278Y-77486728D01*
X82079199Y-77467219D01*
X82079199Y-77014635D01*
X82091003Y-76991028D01*
X82450628Y-76991028D01*
X82450628Y-77276742D01*
X82452549Y-77296251D01*
X82453924Y-77299571D01*
X82454179Y-77303155D01*
X82461185Y-77321463D01*
X82508804Y-77416701D01*
X82514087Y-77425093D01*
X82515099Y-77427537D01*
X82517355Y-77430286D01*
X82519247Y-77433291D01*
X82521241Y-77435020D01*
X82527536Y-77442690D01*
X82575154Y-77490310D01*
X82582822Y-77496603D01*
X82584554Y-77498600D01*
X82587562Y-77500493D01*
X82590308Y-77502747D01*
X82592748Y-77503757D01*
X82601145Y-77509043D01*
X82696382Y-77556662D01*
X82714691Y-77563668D01*
X82718274Y-77563922D01*
X82721595Y-77565298D01*
X82741104Y-77567219D01*
X82931580Y-77567219D01*
X82951089Y-77565298D01*
X82954409Y-77563922D01*
X82957993Y-77563668D01*
X82976301Y-77556662D01*
X82980904Y-77554360D01*
X83007309Y-77565298D01*
X83046327Y-77565298D01*
X83082375Y-77550366D01*
X83109965Y-77522776D01*
X83124897Y-77486728D01*
X83126818Y-77467219D01*
X83126818Y-76467219D01*
X83124897Y-76447710D01*
X83109965Y-76411662D01*
X83082375Y-76384072D01*
X83046327Y-76369140D01*
X83007309Y-76369140D01*
X82971261Y-76384072D01*
X82943671Y-76411662D01*
X82928739Y-76447710D01*
X82926818Y-76467219D01*
X82926818Y-76700552D01*
X82741104Y-76700552D01*
X82721595Y-76702473D01*
X82718274Y-76703848D01*
X82714691Y-76704103D01*
X82696382Y-76711109D01*
X82601145Y-76758728D01*
X82592748Y-76764013D01*
X82590308Y-76765024D01*
X82587562Y-76767277D01*
X82584554Y-76769171D01*
X82582821Y-76771168D01*
X82575155Y-76777461D01*
X82527536Y-76825079D01*
X82521241Y-76832749D01*
X82519247Y-76834479D01*
X82517353Y-76837486D01*
X82515100Y-76840233D01*
X82514089Y-76842672D01*
X82508804Y-76851069D01*
X82461185Y-76946307D01*
X82454179Y-76964615D01*
X82453924Y-76968198D01*
X82452549Y-76971519D01*
X82450628Y-76991028D01*
X82091003Y-76991028D01*
X82109004Y-76955025D01*
X82133672Y-76930356D01*
X82193282Y-76900552D01*
X82264913Y-76900552D01*
X82284422Y-76898631D01*
X82320470Y-76883699D01*
X82348060Y-76856109D01*
X82362992Y-76820061D01*
X82362992Y-76781043D01*
X82348060Y-76744995D01*
X82320470Y-76717405D01*
X82284422Y-76702473D01*
X82264913Y-76700552D01*
X82169675Y-76700552D01*
X82150166Y-76702473D01*
X82146845Y-76703848D01*
X82143262Y-76704103D01*
X82124953Y-76711109D01*
X82060624Y-76743273D01*
X82034756Y-76717405D01*
X81998708Y-76702473D01*
X81959690Y-76702473D01*
X81923642Y-76717405D01*
X81896052Y-76744995D01*
X81881120Y-76781043D01*
X81879199Y-76800552D01*
X81543007Y-76800552D01*
X81542777Y-76800186D01*
X81542265Y-76798648D01*
X81540603Y-76796732D01*
X81534389Y-76786859D01*
X81524913Y-76778641D01*
X81516700Y-76769171D01*
X81506828Y-76762957D01*
X81504912Y-76761295D01*
X81503373Y-76760781D01*
X81500110Y-76758728D01*
X81404872Y-76711109D01*
X81386564Y-76704103D01*
X81382980Y-76703848D01*
X81379660Y-76702473D01*
X81360151Y-76700552D01*
X81169675Y-76700552D01*
X81150166Y-76702473D01*
X81146845Y-76703848D01*
X81143262Y-76704103D01*
X81124953Y-76711109D01*
X81029716Y-76758728D01*
X81013125Y-76769171D01*
X80987561Y-76798648D01*
X80975222Y-76835664D01*
X80977988Y-76874584D01*
X80995437Y-76909483D01*
X81024914Y-76935047D01*
X81061930Y-76947386D01*
X81100850Y-76944620D01*
X81119158Y-76937614D01*
X81193282Y-76900552D01*
X81336544Y-76900552D01*
X81380853Y-76922707D01*
X81403008Y-76967016D01*
X81403008Y-76976843D01*
X81384163Y-76986266D01*
X81169675Y-76986266D01*
X81150166Y-76988187D01*
X81146845Y-76989562D01*
X81143262Y-76989817D01*
X81124953Y-76996823D01*
X81029716Y-77044442D01*
X81026452Y-77046496D01*
X81024914Y-77047009D01*
X81022998Y-77048670D01*
X81013125Y-77054885D01*
X81004907Y-77064360D01*
X80995437Y-77072574D01*
X80989223Y-77082445D01*
X80987561Y-77084362D01*
X80987047Y-77085900D01*
X80984994Y-77089164D01*
X80937375Y-77184402D01*
X80930369Y-77202710D01*
X80930114Y-77206293D01*
X80928739Y-77209614D01*
X80926818Y-77229123D01*
X80186240Y-77229123D01*
X80168788Y-77194218D01*
X80126818Y-77026337D01*
X80126818Y-76908100D01*
X80168788Y-76740218D01*
X80204241Y-76669312D01*
X80271313Y-76602240D01*
X80376377Y-76567219D01*
X80439162Y-76567219D01*
X80544227Y-76602240D01*
X80575154Y-76633167D01*
X80590307Y-76645604D01*
X80626356Y-76660535D01*
X80665374Y-76660535D01*
X80701422Y-76645604D01*
X80729012Y-76618014D01*
X80743943Y-76581966D01*
X80743943Y-76542948D01*
X80729012Y-76506899D01*
X80716575Y-76491746D01*
X80668957Y-76444127D01*
X80653803Y-76431691D01*
X80650484Y-76430316D01*
X80647769Y-76427961D01*
X80629868Y-76419970D01*
X80487012Y-76372351D01*
X80477340Y-76370151D01*
X80474898Y-76369140D01*
X80471359Y-76368791D01*
X80467896Y-76368004D01*
X80465262Y-76368191D01*
X80455389Y-76367219D01*
X80360151Y-76367219D01*
X80350277Y-76368191D01*
X80347643Y-76368004D01*
X80344179Y-76368791D01*
X80340642Y-76369140D01*
X80338200Y-76370151D01*
X80328528Y-76372351D01*
X80185671Y-76419970D01*
X80167771Y-76427961D01*
X80165055Y-76430316D01*
X80161737Y-76431691D01*
X80146583Y-76444127D01*
X80051345Y-76539365D01*
X80045050Y-76547035D01*
X80043056Y-76548765D01*
X80041162Y-76551772D01*
X80038909Y-76554519D01*
X80037898Y-76556958D01*
X80032613Y-76565355D01*
X79984994Y-76660593D01*
X79984448Y-76662019D01*
X79984018Y-76662600D01*
X79981096Y-76670776D01*
X79977988Y-76678901D01*
X79977936Y-76679623D01*
X79977423Y-76681061D01*
X79929804Y-76871536D01*
X79929303Y-76874917D01*
X79928739Y-76876281D01*
X79928015Y-76883631D01*
X79926936Y-76890929D01*
X79927153Y-76892387D01*
X79926818Y-76895790D01*
X79003752Y-76895790D01*
X79025753Y-76834186D01*
X79030506Y-76815167D01*
X79028568Y-76776197D01*
X79011865Y-76740935D01*
X78982939Y-76714749D01*
X78946194Y-76701626D01*
X78907224Y-76703563D01*
X78871962Y-76720267D01*
X78845775Y-76749192D01*
X78837405Y-76766919D01*
X78693484Y-77169897D01*
X78549563Y-76766918D01*
X78541193Y-76749192D01*
X78515006Y-76720266D01*
X78479744Y-76703563D01*
X78440774Y-76701625D01*
X78404029Y-76714748D01*
X78375103Y-76740935D01*
X78358400Y-76776197D01*
X78356462Y-76815167D01*
X78361215Y-76834186D01*
X78586582Y-77465214D01*
X78513020Y-77649117D01*
X78491391Y-77670746D01*
X78410668Y-77711109D01*
X78394077Y-77721552D01*
X78368513Y-77751029D01*
X78356174Y-77788045D01*
X77222055Y-77788045D01*
X77222055Y-77567219D01*
X77407769Y-77567219D01*
X77427278Y-77565298D01*
X77430598Y-77563922D01*
X77434182Y-77563668D01*
X77452490Y-77556662D01*
X77547728Y-77509043D01*
X77556123Y-77503758D01*
X77558565Y-77502747D01*
X77561312Y-77500491D01*
X77564318Y-77498600D01*
X77566048Y-77496605D01*
X77573718Y-77490310D01*
X77621337Y-77442690D01*
X77627629Y-77435023D01*
X77629626Y-77433292D01*
X77631519Y-77430284D01*
X77633774Y-77427537D01*
X77634785Y-77425095D01*
X77640069Y-77416701D01*
X77687688Y-77321464D01*
X77694694Y-77303155D01*
X77694948Y-77299571D01*
X77696324Y-77296251D01*
X77698245Y-77276742D01*
X77698245Y-76991028D01*
X77696324Y-76971519D01*
X77694948Y-76968198D01*
X77694694Y-76964615D01*
X77687688Y-76946306D01*
X77640069Y-76851069D01*
X77634783Y-76842672D01*
X77633773Y-76840232D01*
X77631519Y-76837486D01*
X77629626Y-76834478D01*
X77627628Y-76832745D01*
X77621336Y-76825079D01*
X77573718Y-76777460D01*
X77566047Y-76771165D01*
X77564318Y-76769171D01*
X77561310Y-76767277D01*
X77558564Y-76765024D01*
X77556124Y-76764013D01*
X77547728Y-76758728D01*
X77452490Y-76711109D01*
X77434182Y-76704103D01*
X77430598Y-76703848D01*
X77427278Y-76702473D01*
X77407769Y-76700552D01*
X77217293Y-76700552D01*
X77197784Y-76702473D01*
X77194463Y-76703848D01*
X77190880Y-76704103D01*
X77172571Y-76711109D01*
X77167968Y-76713410D01*
X77141564Y-76702473D01*
X77102546Y-76702473D01*
X77066498Y-76717405D01*
X77038908Y-76744995D01*
X77023976Y-76781043D01*
X77022055Y-76800552D01*
X76692048Y-76800552D01*
X76668956Y-76777460D01*
X76661285Y-76771165D01*
X76659556Y-76769171D01*
X76656548Y-76767277D01*
X76653802Y-76765024D01*
X76651362Y-76764013D01*
X76642966Y-76758728D01*
X76547728Y-76711109D01*
X76529420Y-76704103D01*
X76525836Y-76703848D01*
X76522516Y-76702473D01*
X76503007Y-76700552D01*
X76312531Y-76700552D01*
X76293022Y-76702473D01*
X76289701Y-76703848D01*
X76286118Y-76704103D01*
X76267809Y-76711109D01*
X76263206Y-76713410D01*
X76236802Y-76702473D01*
X76197784Y-76702473D01*
X76161736Y-76717405D01*
X76134146Y-76744995D01*
X76119214Y-76781043D01*
X76117293Y-76800552D01*
X75841102Y-76800552D01*
X75839181Y-76781043D01*
X75824249Y-76744995D01*
X75796659Y-76717405D01*
X75760611Y-76702473D01*
X75721593Y-76702473D01*
X75685545Y-76717405D01*
X75657955Y-76744995D01*
X75643023Y-76781043D01*
X75641102Y-76800552D01*
X75641102Y-77330559D01*
X75634247Y-77337413D01*
X75574638Y-77367219D01*
X75478995Y-77367219D01*
X75434685Y-77345064D01*
X75412531Y-77300754D01*
X75412531Y-76800552D01*
X75410610Y-76781043D01*
X75395678Y-76744995D01*
X75368088Y-76717405D01*
X75332040Y-76702473D01*
X75293022Y-76702473D01*
X75256974Y-76717405D01*
X75229384Y-76744995D01*
X75214452Y-76781043D01*
X75212531Y-76800552D01*
X74453953Y-76800552D01*
X74442336Y-76788935D01*
X74412531Y-76729325D01*
X74412531Y-76681302D01*
X74442336Y-76621692D01*
X74467004Y-76597023D01*
X74526614Y-76567219D01*
X74724875Y-76567219D01*
X74852336Y-76609706D01*
X74871451Y-76614053D01*
X74910371Y-76611287D01*
X74945270Y-76593837D01*
X74970835Y-76564361D01*
X74983174Y-76527345D01*
X74980407Y-76488425D01*
X74969804Y-76467219D01*
X77926817Y-76467219D01*
X77926817Y-77324361D01*
X77928738Y-77343870D01*
X77930113Y-77347190D01*
X77930368Y-77350773D01*
X77937374Y-77369082D01*
X77984993Y-77464321D01*
X77987046Y-77467584D01*
X77987560Y-77469123D01*
X77989222Y-77471039D01*
X77995436Y-77480911D01*
X78004907Y-77489125D01*
X78013124Y-77498600D01*
X78022994Y-77504812D01*
X78024912Y-77506476D01*
X78026452Y-77506989D01*
X78029715Y-77509043D01*
X78124952Y-77556662D01*
X78143261Y-77563668D01*
X78182181Y-77566434D01*
X78219197Y-77554095D01*
X78248674Y-77528530D01*
X78266123Y-77493632D01*
X78268888Y-77454712D01*
X78256550Y-77417696D01*
X78230985Y-77388219D01*
X78214395Y-77377776D01*
X78148971Y-77345064D01*
X78126817Y-77300754D01*
X78126817Y-76467219D01*
X78124896Y-76447710D01*
X78109964Y-76411662D01*
X78082374Y-76384072D01*
X78046326Y-76369140D01*
X78007308Y-76369140D01*
X77971260Y-76384072D01*
X77943670Y-76411662D01*
X77928738Y-76447710D01*
X77926817Y-76467219D01*
X74969804Y-76467219D01*
X74962958Y-76453526D01*
X74933482Y-76427961D01*
X74915581Y-76419970D01*
X74772725Y-76372351D01*
X74763053Y-76370151D01*
X74760611Y-76369140D01*
X74757072Y-76368791D01*
X74753609Y-76368004D01*
X74750975Y-76368191D01*
X74741102Y-76367219D01*
X74503007Y-76367219D01*
X74483498Y-76369140D01*
X74480177Y-76370515D01*
X74476594Y-76370770D01*
X74458285Y-76377776D01*
X74363048Y-76425395D01*
X74354651Y-76430680D01*
X74352211Y-76431691D01*
X74349465Y-76433944D01*
X74346457Y-76435838D01*
X74344724Y-76437835D01*
X74337058Y-76444128D01*
X74289439Y-76491746D01*
X74283144Y-76499416D01*
X74281150Y-76501146D01*
X74279256Y-76504153D01*
X74277003Y-76506900D01*
X74275992Y-76509339D01*
X74270707Y-76517736D01*
X74223088Y-76612974D01*
X74216082Y-76631282D01*
X74215827Y-76634865D01*
X74214452Y-76638186D01*
X74212531Y-76657695D01*
X69841101Y-76657695D01*
X69839180Y-76638186D01*
X69837804Y-76634865D01*
X69837550Y-76631282D01*
X69830544Y-76612973D01*
X69782925Y-76517736D01*
X69777639Y-76509339D01*
X69776629Y-76506899D01*
X69774375Y-76504153D01*
X69772482Y-76501145D01*
X69770484Y-76499412D01*
X69764192Y-76491746D01*
X69716574Y-76444127D01*
X69708903Y-76437832D01*
X69707174Y-76435838D01*
X69704166Y-76433944D01*
X69701420Y-76431691D01*
X69698980Y-76430680D01*
X69690584Y-76425395D01*
X69595346Y-76377776D01*
X69577038Y-76370770D01*
X69573454Y-76370515D01*
X69570134Y-76369140D01*
X69550625Y-76367219D01*
X69169673Y-76367219D01*
X69150164Y-76369140D01*
X69114116Y-76384072D01*
X69086526Y-76411662D01*
X69071594Y-76447710D01*
X69069673Y-76467219D01*
X68958562Y-76467219D01*
X68958562Y-76256108D01*
X83237929Y-76256108D01*
X83237929Y-78010878D01*
G37*
D11*
G36*
X180160858Y-92796130D02*
G01*
X180197002Y-92832275D01*
X180235714Y-92909698D01*
X180235714Y-93124186D01*
X180197002Y-93201609D01*
X180160858Y-93237754D01*
X180083435Y-93276466D01*
X179916566Y-93276466D01*
X179839142Y-93237754D01*
X179802997Y-93201610D01*
X179764286Y-93124187D01*
X179764286Y-92909698D01*
X179802997Y-92832274D01*
X179839142Y-92796130D01*
X179916566Y-92757419D01*
X180083435Y-92757419D01*
X180160858Y-92796130D01*
G37*
G36*
X180446825Y-93868530D02*
G01*
X178553175Y-93868530D01*
X178553175Y-93135990D01*
X178664286Y-93135990D01*
X178664286Y-93278847D01*
X178665481Y-93284856D01*
X178665779Y-93290974D01*
X178713398Y-93481450D01*
X178715737Y-93486402D01*
X178717184Y-93491684D01*
X178764802Y-93586921D01*
X178769713Y-93593249D01*
X178774168Y-93599916D01*
X178869407Y-93695155D01*
X178871488Y-93696545D01*
X178872002Y-93697573D01*
X178878967Y-93701543D01*
X178885628Y-93705994D01*
X178886776Y-93705994D01*
X178888951Y-93707234D01*
X179031807Y-93754853D01*
X179039757Y-93755855D01*
X179047619Y-93757419D01*
X179142857Y-93757419D01*
X179150719Y-93755855D01*
X179158668Y-93754853D01*
X179301525Y-93707234D01*
X179303700Y-93705994D01*
X179304849Y-93705994D01*
X179311519Y-93701536D01*
X179318473Y-93697573D01*
X179318985Y-93696547D01*
X179321070Y-93695155D01*
X179368689Y-93647535D01*
X179379527Y-93631314D01*
X179379527Y-93593045D01*
X179352467Y-93565986D01*
X179314198Y-93565986D01*
X179297977Y-93576825D01*
X179258704Y-93616098D01*
X179134744Y-93657419D01*
X179055732Y-93657419D01*
X178931772Y-93616099D01*
X178850616Y-93534942D01*
X178809081Y-93451872D01*
X178764286Y-93272692D01*
X178764286Y-93142145D01*
X178809081Y-92962965D01*
X178841616Y-92897895D01*
X179664286Y-92897895D01*
X179664286Y-93135990D01*
X179664774Y-93138446D01*
X179664412Y-93139535D01*
X179666528Y-93147262D01*
X179668092Y-93155124D01*
X179668903Y-93155935D01*
X179669565Y-93158351D01*
X179717183Y-93253588D01*
X179722098Y-93259921D01*
X179726550Y-93266583D01*
X179774168Y-93314202D01*
X179780834Y-93318656D01*
X179787163Y-93323568D01*
X179882401Y-93371187D01*
X179884816Y-93371848D01*
X179885628Y-93372660D01*
X179893489Y-93374223D01*
X179901217Y-93376340D01*
X179902305Y-93375977D01*
X179904762Y-93376466D01*
X180095238Y-93376466D01*
X180097694Y-93375977D01*
X180098783Y-93376340D01*
X180106510Y-93374223D01*
X180114372Y-93372660D01*
X180115183Y-93371848D01*
X180117599Y-93371187D01*
X180212836Y-93323569D01*
X180219169Y-93318653D01*
X180225237Y-93314598D01*
X180191688Y-93448795D01*
X180103999Y-93580326D01*
X180065618Y-93618708D01*
X179988197Y-93657419D01*
X179809524Y-93657419D01*
X179790390Y-93661225D01*
X179763330Y-93688285D01*
X179763330Y-93726553D01*
X179790390Y-93753613D01*
X179809524Y-93757419D01*
X180000000Y-93757419D01*
X180002456Y-93756930D01*
X180003545Y-93757293D01*
X180011272Y-93755176D01*
X180019134Y-93753613D01*
X180019945Y-93752801D01*
X180022361Y-93752140D01*
X180117598Y-93704522D01*
X180123925Y-93699611D01*
X180130594Y-93695155D01*
X180178213Y-93647535D01*
X180180963Y-93643419D01*
X180184460Y-93639915D01*
X180279698Y-93497058D01*
X180282960Y-93489157D01*
X180286602Y-93481450D01*
X180334221Y-93290974D01*
X180334518Y-93284856D01*
X180335714Y-93278847D01*
X180335714Y-92897895D01*
X180335225Y-92895438D01*
X180335588Y-92894350D01*
X180333471Y-92886622D01*
X180331908Y-92878761D01*
X180331096Y-92877949D01*
X180330435Y-92875534D01*
X180282816Y-92780296D01*
X180277904Y-92773967D01*
X180273450Y-92767301D01*
X180225831Y-92719683D01*
X180219169Y-92715231D01*
X180212836Y-92710316D01*
X180117599Y-92662698D01*
X180115183Y-92662036D01*
X180114372Y-92661225D01*
X180106510Y-92659661D01*
X180098783Y-92657545D01*
X180097694Y-92657907D01*
X180095238Y-92657419D01*
X179904762Y-92657419D01*
X179902305Y-92657907D01*
X179901217Y-92657545D01*
X179893489Y-92659661D01*
X179885628Y-92661225D01*
X179884816Y-92662036D01*
X179882401Y-92662698D01*
X179787163Y-92710317D01*
X179780834Y-92715228D01*
X179774168Y-92719683D01*
X179726550Y-92767302D01*
X179722098Y-92773963D01*
X179717183Y-92780297D01*
X179669565Y-92875534D01*
X179668903Y-92877949D01*
X179668092Y-92878761D01*
X179666528Y-92886622D01*
X179664412Y-92894350D01*
X179664774Y-92895438D01*
X179664286Y-92897895D01*
X178841616Y-92897895D01*
X178850617Y-92879893D01*
X178931770Y-92798739D01*
X179055732Y-92757419D01*
X179134744Y-92757419D01*
X179258705Y-92798739D01*
X179297977Y-92838012D01*
X179314198Y-92848851D01*
X179352467Y-92848851D01*
X179379527Y-92821791D01*
X179379527Y-92783522D01*
X179368688Y-92767301D01*
X179321069Y-92719683D01*
X179318986Y-92718291D01*
X179318473Y-92717265D01*
X179311512Y-92713297D01*
X179304848Y-92708844D01*
X179303700Y-92708844D01*
X179301525Y-92707604D01*
X179158668Y-92659985D01*
X179150719Y-92658982D01*
X179142857Y-92657419D01*
X179047619Y-92657419D01*
X179039757Y-92658982D01*
X179031807Y-92659985D01*
X178888951Y-92707604D01*
X178886776Y-92708844D01*
X178885628Y-92708844D01*
X178878967Y-92713294D01*
X178872002Y-92717265D01*
X178871488Y-92718292D01*
X178869407Y-92719683D01*
X178774169Y-92814921D01*
X178769717Y-92821582D01*
X178764802Y-92827916D01*
X178717184Y-92923153D01*
X178715737Y-92928434D01*
X178713398Y-92933387D01*
X178665779Y-93123863D01*
X178665481Y-93129980D01*
X178664286Y-93135990D01*
X178553175Y-93135990D01*
X178553175Y-92546308D01*
X180446825Y-92546308D01*
X180446825Y-93868530D01*
G37*
X179008533Y-75153884D02*
X179008533Y-75915789D01*
X178627580Y-75534836D02*
X179389485Y-75534836D01*
D12*
G36*
X74898955Y-100740930D02*
G01*
X73147222Y-100740930D01*
X73147222Y-99554819D01*
X73258333Y-99554819D01*
X73258333Y-100554819D01*
X73259774Y-100569451D01*
X73270973Y-100596487D01*
X73291665Y-100617179D01*
X73318701Y-100628378D01*
X73347965Y-100628378D01*
X73375001Y-100617179D01*
X73395693Y-100596487D01*
X73406892Y-100569451D01*
X73408333Y-100554819D01*
X73408333Y-100106009D01*
X73666666Y-100106009D01*
X73681298Y-100104568D01*
X73708334Y-100093369D01*
X73729026Y-100072677D01*
X73740225Y-100045641D01*
X73740225Y-100016377D01*
X73729026Y-99989341D01*
X73708334Y-99968649D01*
X73681298Y-99957450D01*
X73666666Y-99956009D01*
X73408333Y-99956009D01*
X73408333Y-99831152D01*
X74068446Y-99831152D01*
X74070520Y-99860342D01*
X74083607Y-99886517D01*
X74105715Y-99905690D01*
X74133476Y-99914944D01*
X74162666Y-99912870D01*
X74176398Y-99907615D01*
X74271636Y-99859996D01*
X74277935Y-99856031D01*
X74279763Y-99855274D01*
X74281819Y-99853585D01*
X74284079Y-99852164D01*
X74285378Y-99850665D01*
X74291128Y-99845947D01*
X74353571Y-99783504D01*
X74353571Y-100479819D01*
X74142857Y-100479819D01*
X74128225Y-100481260D01*
X74101189Y-100492459D01*
X74080497Y-100513151D01*
X74069298Y-100540187D01*
X74069298Y-100569451D01*
X74080497Y-100596487D01*
X74101189Y-100617179D01*
X74128225Y-100628378D01*
X74142857Y-100629819D01*
X74714285Y-100629819D01*
X74728917Y-100628378D01*
X74755953Y-100617179D01*
X74776645Y-100596487D01*
X74787844Y-100569451D01*
X74787844Y-100540187D01*
X74776645Y-100513151D01*
X74755953Y-100492459D01*
X74728917Y-100481260D01*
X74714285Y-100479819D01*
X74503571Y-100479819D01*
X74503571Y-99554819D01*
X74503565Y-99554766D01*
X74503571Y-99554740D01*
X74503555Y-99554663D01*
X74502130Y-99540187D01*
X74499288Y-99533326D01*
X74497832Y-99526045D01*
X74493742Y-99519938D01*
X74490931Y-99513151D01*
X74485682Y-99507902D01*
X74481549Y-99501730D01*
X74475432Y-99497652D01*
X74470239Y-99492459D01*
X74463379Y-99489617D01*
X74457200Y-99485498D01*
X74449991Y-99484072D01*
X74443203Y-99481260D01*
X74435776Y-99481260D01*
X74428492Y-99479819D01*
X74421287Y-99481260D01*
X74413939Y-99481260D01*
X74407078Y-99484101D01*
X74399798Y-99485558D01*
X74393692Y-99489646D01*
X74386903Y-99492459D01*
X74381652Y-99497709D01*
X74375483Y-99501841D01*
X74366262Y-99513099D01*
X74366211Y-99513151D01*
X74366201Y-99513173D01*
X74366167Y-99513216D01*
X74275047Y-99649896D01*
X74193668Y-99731275D01*
X74109316Y-99773451D01*
X74096873Y-99781283D01*
X74077700Y-99803391D01*
X74068446Y-99831152D01*
X73408333Y-99831152D01*
X73408333Y-99629819D01*
X73809523Y-99629819D01*
X73824155Y-99628378D01*
X73851191Y-99617179D01*
X73871883Y-99596487D01*
X73883082Y-99569451D01*
X73883082Y-99540187D01*
X73871883Y-99513151D01*
X73851191Y-99492459D01*
X73824155Y-99481260D01*
X73809523Y-99479819D01*
X73333333Y-99479819D01*
X73318701Y-99481260D01*
X73291665Y-99492459D01*
X73270973Y-99513151D01*
X73259774Y-99540187D01*
X73258333Y-99554819D01*
X73147222Y-99554819D01*
X73147222Y-99368708D01*
X74898955Y-99368708D01*
X74898955Y-100740930D01*
G37*
D11*
G36*
X129216828Y-132368530D02*
G01*
X127326984Y-132368530D01*
X127326984Y-131207419D01*
X127438095Y-131207419D01*
X127438095Y-132016942D01*
X127438583Y-132019398D01*
X127438221Y-132020487D01*
X127440337Y-132028214D01*
X127441901Y-132036076D01*
X127442712Y-132036887D01*
X127443374Y-132039303D01*
X127490992Y-132134540D01*
X127495903Y-132140868D01*
X127500358Y-132147535D01*
X127547977Y-132195155D01*
X127554643Y-132199609D01*
X127560972Y-132204521D01*
X127656210Y-132252140D01*
X127658625Y-132252801D01*
X127659437Y-132253613D01*
X127667298Y-132255176D01*
X127675026Y-132257293D01*
X127676114Y-132256930D01*
X127678571Y-132257419D01*
X127869047Y-132257419D01*
X127871503Y-132256930D01*
X127872592Y-132257293D01*
X127880319Y-132255176D01*
X127888181Y-132253613D01*
X127888992Y-132252801D01*
X127891408Y-132252140D01*
X127986645Y-132204522D01*
X127992972Y-132199611D01*
X127999641Y-132195155D01*
X128047260Y-132147535D01*
X128051713Y-132140869D01*
X128056625Y-132134541D01*
X128104244Y-132039303D01*
X128104905Y-132036887D01*
X128105717Y-132036076D01*
X128107280Y-132028214D01*
X128109397Y-132020487D01*
X128109034Y-132019398D01*
X128109523Y-132016942D01*
X128109523Y-131496678D01*
X128438221Y-131496678D01*
X128455335Y-131530906D01*
X128491640Y-131543007D01*
X128510456Y-131537854D01*
X128605693Y-131490236D01*
X128612026Y-131485320D01*
X128618688Y-131480869D01*
X128713926Y-131385631D01*
X128716674Y-131381517D01*
X128720174Y-131378011D01*
X128723809Y-131372558D01*
X128723809Y-132157419D01*
X128488095Y-132157419D01*
X128468961Y-132161225D01*
X128441901Y-132188285D01*
X128441901Y-132226553D01*
X128468961Y-132253613D01*
X128488095Y-132257419D01*
X129059523Y-132257419D01*
X129078657Y-132253613D01*
X129105717Y-132226553D01*
X129105717Y-132188285D01*
X129078657Y-132161225D01*
X129059523Y-132157419D01*
X128823809Y-132157419D01*
X128823809Y-131207419D01*
X128820003Y-131188285D01*
X128816362Y-131184644D01*
X128815353Y-131179597D01*
X128803237Y-131171519D01*
X128792943Y-131161225D01*
X128787797Y-131161225D01*
X128783513Y-131158369D01*
X128769235Y-131161225D01*
X128754675Y-131161225D01*
X128751034Y-131164865D01*
X128745987Y-131165875D01*
X128732207Y-131179684D01*
X128639712Y-131318424D01*
X128553716Y-131404421D01*
X128465734Y-131448412D01*
X128450322Y-131460373D01*
X128438221Y-131496678D01*
X128109523Y-131496678D01*
X128109523Y-131207419D01*
X128105717Y-131188285D01*
X128078657Y-131161225D01*
X128040389Y-131161225D01*
X128013329Y-131188285D01*
X128009523Y-131207419D01*
X128009523Y-132005138D01*
X127970811Y-132082561D01*
X127934665Y-132118708D01*
X127857244Y-132157419D01*
X127690375Y-132157419D01*
X127612952Y-132118708D01*
X127576806Y-132082561D01*
X127538095Y-132005139D01*
X127538095Y-131207419D01*
X127534289Y-131188285D01*
X127507229Y-131161225D01*
X127468961Y-131161225D01*
X127441901Y-131188285D01*
X127438095Y-131207419D01*
X127326984Y-131207419D01*
X127326984Y-131047258D01*
X129216828Y-131047258D01*
X129216828Y-132368530D01*
G37*
D12*
G36*
X160960015Y-140086930D02*
G01*
X158063984Y-140086930D01*
X158063984Y-139329390D01*
X158175095Y-139329390D01*
X158175095Y-139472247D01*
X158175346Y-139474800D01*
X158175184Y-139475893D01*
X158175993Y-139481366D01*
X158176536Y-139486879D01*
X158176958Y-139487900D01*
X158177334Y-139490437D01*
X158224953Y-139680913D01*
X158225338Y-139681992D01*
X158225377Y-139682532D01*
X158227704Y-139688613D01*
X158229900Y-139694759D01*
X158230222Y-139695194D01*
X158230632Y-139696264D01*
X158278251Y-139791502D01*
X158282214Y-139797798D01*
X158282972Y-139799628D01*
X158284661Y-139801686D01*
X158286083Y-139803945D01*
X158287581Y-139805244D01*
X158292300Y-139810994D01*
X158387538Y-139906233D01*
X158398903Y-139915561D01*
X158401393Y-139916592D01*
X158403428Y-139918357D01*
X158416854Y-139924351D01*
X158559710Y-139971970D01*
X158566965Y-139973619D01*
X158568796Y-139974378D01*
X158571449Y-139974639D01*
X158574047Y-139975230D01*
X158576021Y-139975089D01*
X158583428Y-139975819D01*
X158678666Y-139975819D01*
X158686071Y-139975089D01*
X158688046Y-139975230D01*
X158690643Y-139974639D01*
X158693298Y-139974378D01*
X158695129Y-139973619D01*
X158702383Y-139971970D01*
X158845240Y-139924351D01*
X158858665Y-139918357D01*
X158860700Y-139916591D01*
X158863191Y-139915560D01*
X158874557Y-139906232D01*
X158922175Y-139858613D01*
X158931503Y-139847247D01*
X158942701Y-139820211D01*
X158942701Y-139790948D01*
X158931502Y-139763912D01*
X158910809Y-139743219D01*
X158883773Y-139732021D01*
X158854510Y-139732021D01*
X158827474Y-139743220D01*
X158816108Y-139752548D01*
X158781009Y-139787647D01*
X158666496Y-139825819D01*
X158595598Y-139825819D01*
X158481085Y-139787648D01*
X158406972Y-139713534D01*
X158368478Y-139636547D01*
X158325095Y-139463013D01*
X158325095Y-139338624D01*
X158365463Y-139177152D01*
X159175684Y-139177152D01*
X159177758Y-139206342D01*
X159190845Y-139232517D01*
X159212953Y-139251690D01*
X159240714Y-139260944D01*
X159269904Y-139258870D01*
X159283636Y-139253615D01*
X159378874Y-139205996D01*
X159385173Y-139202031D01*
X159387001Y-139201274D01*
X159389057Y-139199585D01*
X159391317Y-139198164D01*
X159392616Y-139196665D01*
X159398366Y-139191947D01*
X159460809Y-139129504D01*
X159460809Y-139825819D01*
X159250095Y-139825819D01*
X159235463Y-139827260D01*
X159208427Y-139838459D01*
X159187735Y-139859151D01*
X159176536Y-139886187D01*
X159176536Y-139915451D01*
X159187735Y-139942487D01*
X159208427Y-139963179D01*
X159235463Y-139974378D01*
X159250095Y-139975819D01*
X159821523Y-139975819D01*
X159836155Y-139974378D01*
X159863191Y-139963179D01*
X159883883Y-139942487D01*
X159895082Y-139915451D01*
X159895082Y-139886187D01*
X160081298Y-139886187D01*
X160081298Y-139915451D01*
X160092497Y-139942487D01*
X160113189Y-139963179D01*
X160140225Y-139974378D01*
X160154857Y-139975819D01*
X160773904Y-139975819D01*
X160788536Y-139974378D01*
X160815572Y-139963179D01*
X160836264Y-139942487D01*
X160847463Y-139915451D01*
X160847463Y-139886187D01*
X160836264Y-139859151D01*
X160815572Y-139838459D01*
X160788536Y-139827260D01*
X160773904Y-139825819D01*
X160335923Y-139825819D01*
X160779318Y-139382423D01*
X160788646Y-139371058D01*
X160789677Y-139368567D01*
X160791442Y-139366533D01*
X160797436Y-139353107D01*
X160845055Y-139210251D01*
X160846704Y-139202995D01*
X160847463Y-139201165D01*
X160847724Y-139198511D01*
X160848315Y-139195914D01*
X160848174Y-139193939D01*
X160848904Y-139186533D01*
X160848904Y-139091295D01*
X160847463Y-139076663D01*
X160846432Y-139074174D01*
X160846241Y-139071485D01*
X160840986Y-139057754D01*
X160793367Y-138962516D01*
X160789402Y-138956216D01*
X160788645Y-138954389D01*
X160786956Y-138952332D01*
X160785535Y-138950073D01*
X160784036Y-138948773D01*
X160779318Y-138943024D01*
X160731699Y-138895405D01*
X160725949Y-138890686D01*
X160724650Y-138889188D01*
X160722390Y-138887766D01*
X160720334Y-138886078D01*
X160718506Y-138885320D01*
X160712207Y-138881356D01*
X160616969Y-138833737D01*
X160603237Y-138828482D01*
X160600549Y-138828291D01*
X160598060Y-138827260D01*
X160583428Y-138825819D01*
X160345333Y-138825819D01*
X160330701Y-138827260D01*
X160328212Y-138828290D01*
X160325523Y-138828482D01*
X160311792Y-138833737D01*
X160216554Y-138881356D01*
X160210254Y-138885320D01*
X160208427Y-138886078D01*
X160206370Y-138887766D01*
X160204111Y-138889188D01*
X160202811Y-138890686D01*
X160197062Y-138895405D01*
X160149443Y-138943024D01*
X160140116Y-138954389D01*
X160128917Y-138981426D01*
X160128917Y-139010688D01*
X160140116Y-139037725D01*
X160160808Y-139058417D01*
X160187845Y-139069616D01*
X160217107Y-139069616D01*
X160244144Y-139058417D01*
X160255509Y-139049090D01*
X160294522Y-139010077D01*
X160363038Y-138975819D01*
X160565723Y-138975819D01*
X160634239Y-139010077D01*
X160664646Y-139040484D01*
X160698904Y-139109000D01*
X160698904Y-139174363D01*
X160660732Y-139288876D01*
X160101824Y-139847786D01*
X160092497Y-139859151D01*
X160081298Y-139886187D01*
X159895082Y-139886187D01*
X159883883Y-139859151D01*
X159863191Y-139838459D01*
X159836155Y-139827260D01*
X159821523Y-139825819D01*
X159610809Y-139825819D01*
X159610809Y-138900819D01*
X159610803Y-138900766D01*
X159610809Y-138900740D01*
X159610793Y-138900663D01*
X159609368Y-138886187D01*
X159606526Y-138879326D01*
X159605070Y-138872045D01*
X159600980Y-138865938D01*
X159598169Y-138859151D01*
X159592920Y-138853902D01*
X159588787Y-138847730D01*
X159582670Y-138843652D01*
X159577477Y-138838459D01*
X159570617Y-138835617D01*
X159564438Y-138831498D01*
X159557229Y-138830072D01*
X159550441Y-138827260D01*
X159543014Y-138827260D01*
X159535730Y-138825819D01*
X159528525Y-138827260D01*
X159521177Y-138827260D01*
X159514316Y-138830101D01*
X159507036Y-138831558D01*
X159500930Y-138835646D01*
X159494141Y-138838459D01*
X159488890Y-138843709D01*
X159482721Y-138847841D01*
X159473500Y-138859099D01*
X159473449Y-138859151D01*
X159473439Y-138859173D01*
X159473405Y-138859216D01*
X159382285Y-138995896D01*
X159300906Y-139077275D01*
X159216554Y-139119451D01*
X159204111Y-139127283D01*
X159184938Y-139149391D01*
X159175684Y-139177152D01*
X158365463Y-139177152D01*
X158368478Y-139165090D01*
X158406972Y-139088103D01*
X158481085Y-139013990D01*
X158595598Y-138975819D01*
X158666496Y-138975819D01*
X158781009Y-139013990D01*
X158816109Y-139049090D01*
X158827474Y-139058417D01*
X158854510Y-139069616D01*
X158883773Y-139069616D01*
X158910809Y-139058417D01*
X158931502Y-139037724D01*
X158942701Y-139010688D01*
X158942701Y-138981425D01*
X158931502Y-138954389D01*
X158922175Y-138943024D01*
X158874556Y-138895405D01*
X158863191Y-138886078D01*
X158860700Y-138885046D01*
X158858665Y-138883281D01*
X158845240Y-138877287D01*
X158702383Y-138829668D01*
X158695129Y-138828018D01*
X158693298Y-138827260D01*
X158690643Y-138826998D01*
X158688046Y-138826408D01*
X158686071Y-138826548D01*
X158678666Y-138825819D01*
X158583428Y-138825819D01*
X158576021Y-138826548D01*
X158574047Y-138826408D01*
X158571449Y-138826998D01*
X158568796Y-138827260D01*
X158566965Y-138828018D01*
X158559710Y-138829668D01*
X158416854Y-138877287D01*
X158403428Y-138883281D01*
X158401393Y-138885045D01*
X158398903Y-138886077D01*
X158387538Y-138895405D01*
X158292300Y-138990643D01*
X158287581Y-138996392D01*
X158286083Y-138997692D01*
X158284661Y-138999951D01*
X158282973Y-139002008D01*
X158282215Y-139003835D01*
X158278251Y-139010135D01*
X158230632Y-139105373D01*
X158230222Y-139106442D01*
X158229900Y-139106878D01*
X158227714Y-139112997D01*
X158225377Y-139119105D01*
X158225338Y-139119644D01*
X158224953Y-139120724D01*
X158177334Y-139311200D01*
X158176958Y-139313736D01*
X158176536Y-139314758D01*
X158175993Y-139320270D01*
X158175184Y-139325744D01*
X158175346Y-139326836D01*
X158175095Y-139329390D01*
X158063984Y-139329390D01*
X158063984Y-138714708D01*
X160960015Y-138714708D01*
X160960015Y-140086930D01*
G37*
G36*
X173824620Y-102564077D02*
G01*
X173855027Y-102594484D01*
X173893520Y-102671471D01*
X173936904Y-102845005D01*
X173936904Y-103064632D01*
X173893520Y-103238166D01*
X173855026Y-103315153D01*
X173824619Y-103345561D01*
X173756104Y-103379819D01*
X173696276Y-103379819D01*
X173627760Y-103345561D01*
X173597353Y-103315153D01*
X173558859Y-103238166D01*
X173515476Y-103064632D01*
X173515476Y-102845005D01*
X173558859Y-102671471D01*
X173597353Y-102594484D01*
X173627760Y-102564077D01*
X173696276Y-102529819D01*
X173756104Y-102529819D01*
X173824620Y-102564077D01*
G37*
G36*
X174198015Y-103640930D02*
G01*
X171301984Y-103640930D01*
X171301984Y-102883390D01*
X171413095Y-102883390D01*
X171413095Y-103026247D01*
X171413346Y-103028800D01*
X171413184Y-103029893D01*
X171413993Y-103035366D01*
X171414536Y-103040879D01*
X171414958Y-103041900D01*
X171415334Y-103044437D01*
X171462953Y-103234913D01*
X171463338Y-103235992D01*
X171463377Y-103236532D01*
X171465704Y-103242613D01*
X171467900Y-103248759D01*
X171468222Y-103249194D01*
X171468632Y-103250264D01*
X171516251Y-103345502D01*
X171520214Y-103351798D01*
X171520972Y-103353628D01*
X171522661Y-103355686D01*
X171524083Y-103357945D01*
X171525581Y-103359244D01*
X171530300Y-103364994D01*
X171625538Y-103460233D01*
X171636903Y-103469561D01*
X171639393Y-103470592D01*
X171641428Y-103472357D01*
X171654854Y-103478351D01*
X171797710Y-103525970D01*
X171804965Y-103527619D01*
X171806796Y-103528378D01*
X171809449Y-103528639D01*
X171812047Y-103529230D01*
X171814021Y-103529089D01*
X171821428Y-103529819D01*
X171916666Y-103529819D01*
X171924071Y-103529089D01*
X171926046Y-103529230D01*
X171928643Y-103528639D01*
X171931298Y-103528378D01*
X171933129Y-103527619D01*
X171940383Y-103525970D01*
X172083240Y-103478351D01*
X172096665Y-103472357D01*
X172098700Y-103470591D01*
X172101191Y-103469560D01*
X172112557Y-103460232D01*
X172160175Y-103412613D01*
X172169503Y-103401247D01*
X172180701Y-103374211D01*
X172180701Y-103344948D01*
X172169502Y-103317912D01*
X172148809Y-103297219D01*
X172121773Y-103286021D01*
X172092510Y-103286021D01*
X172065474Y-103297220D01*
X172054108Y-103306548D01*
X172019009Y-103341647D01*
X171904496Y-103379819D01*
X171833598Y-103379819D01*
X171719085Y-103341648D01*
X171644972Y-103267534D01*
X171606478Y-103190547D01*
X171563095Y-103017013D01*
X171563095Y-102892624D01*
X171603463Y-102731152D01*
X172413684Y-102731152D01*
X172415758Y-102760342D01*
X172428845Y-102786517D01*
X172450953Y-102805690D01*
X172478714Y-102814944D01*
X172507904Y-102812870D01*
X172521636Y-102807615D01*
X172616874Y-102759996D01*
X172623173Y-102756031D01*
X172625001Y-102755274D01*
X172627057Y-102753585D01*
X172629317Y-102752164D01*
X172630616Y-102750665D01*
X172636366Y-102745947D01*
X172698809Y-102683504D01*
X172698809Y-103379819D01*
X172488095Y-103379819D01*
X172473463Y-103381260D01*
X172446427Y-103392459D01*
X172425735Y-103413151D01*
X172414536Y-103440187D01*
X172414536Y-103469451D01*
X172425735Y-103496487D01*
X172446427Y-103517179D01*
X172473463Y-103528378D01*
X172488095Y-103529819D01*
X173059523Y-103529819D01*
X173074155Y-103528378D01*
X173101191Y-103517179D01*
X173121883Y-103496487D01*
X173133082Y-103469451D01*
X173133082Y-103440187D01*
X173121883Y-103413151D01*
X173101191Y-103392459D01*
X173074155Y-103381260D01*
X173059523Y-103379819D01*
X172848809Y-103379819D01*
X172848809Y-102835771D01*
X173365476Y-102835771D01*
X173365476Y-103073866D01*
X173365727Y-103076419D01*
X173365565Y-103077512D01*
X173366374Y-103082985D01*
X173366917Y-103088498D01*
X173367339Y-103089519D01*
X173367715Y-103092056D01*
X173415334Y-103282532D01*
X173415719Y-103283611D01*
X173415758Y-103284151D01*
X173418085Y-103290232D01*
X173420281Y-103296378D01*
X173420603Y-103296813D01*
X173421013Y-103297883D01*
X173468632Y-103393121D01*
X173472595Y-103399417D01*
X173473353Y-103401247D01*
X173475042Y-103403305D01*
X173476464Y-103405564D01*
X173477962Y-103406863D01*
X173482680Y-103412612D01*
X173530299Y-103460232D01*
X173536048Y-103464950D01*
X173537349Y-103466450D01*
X173539608Y-103467872D01*
X173541665Y-103469560D01*
X173543492Y-103470317D01*
X173549792Y-103474282D01*
X173645030Y-103521901D01*
X173658761Y-103527156D01*
X173661450Y-103527347D01*
X173663939Y-103528378D01*
X173678571Y-103529819D01*
X173773809Y-103529819D01*
X173788441Y-103528378D01*
X173790930Y-103527346D01*
X173793618Y-103527156D01*
X173807350Y-103521901D01*
X173902588Y-103474282D01*
X173908887Y-103470317D01*
X173910715Y-103469560D01*
X173912771Y-103467872D01*
X173915031Y-103466450D01*
X173916331Y-103464950D01*
X173922081Y-103460232D01*
X173969699Y-103412613D01*
X173974417Y-103406863D01*
X173975916Y-103405564D01*
X173977337Y-103403305D01*
X173979027Y-103401247D01*
X173979784Y-103399417D01*
X173983748Y-103393121D01*
X174031367Y-103297883D01*
X174031776Y-103296813D01*
X174032099Y-103296378D01*
X174034291Y-103290241D01*
X174036622Y-103284152D01*
X174036660Y-103283611D01*
X174037046Y-103282532D01*
X174084665Y-103092056D01*
X174085040Y-103089519D01*
X174085463Y-103088498D01*
X174086005Y-103082985D01*
X174086815Y-103077512D01*
X174086652Y-103076419D01*
X174086904Y-103073866D01*
X174086904Y-102835771D01*
X174086652Y-102833217D01*
X174086815Y-102832125D01*
X174086005Y-102826651D01*
X174085463Y-102821139D01*
X174085040Y-102820117D01*
X174084665Y-102817581D01*
X174037046Y-102627105D01*
X174036660Y-102626025D01*
X174036622Y-102625485D01*
X174034291Y-102619395D01*
X174032099Y-102613259D01*
X174031776Y-102612823D01*
X174031367Y-102611754D01*
X173983748Y-102516516D01*
X173979783Y-102510216D01*
X173979026Y-102508389D01*
X173977337Y-102506332D01*
X173975916Y-102504073D01*
X173974417Y-102502773D01*
X173969699Y-102497024D01*
X173922080Y-102449405D01*
X173916330Y-102444686D01*
X173915031Y-102443188D01*
X173912771Y-102441766D01*
X173910715Y-102440078D01*
X173908887Y-102439320D01*
X173902588Y-102435356D01*
X173807350Y-102387737D01*
X173793618Y-102382482D01*
X173790930Y-102382291D01*
X173788441Y-102381260D01*
X173773809Y-102379819D01*
X173678571Y-102379819D01*
X173663939Y-102381260D01*
X173661450Y-102382290D01*
X173658761Y-102382482D01*
X173645030Y-102387737D01*
X173549792Y-102435356D01*
X173543492Y-102439320D01*
X173541665Y-102440078D01*
X173539608Y-102441766D01*
X173537349Y-102443188D01*
X173536049Y-102444686D01*
X173530300Y-102449405D01*
X173482681Y-102497024D01*
X173477962Y-102502773D01*
X173476464Y-102504073D01*
X173475042Y-102506332D01*
X173473354Y-102508389D01*
X173472596Y-102510216D01*
X173468632Y-102516516D01*
X173421013Y-102611754D01*
X173420603Y-102612823D01*
X173420281Y-102613259D01*
X173418085Y-102619404D01*
X173415758Y-102625486D01*
X173415719Y-102626025D01*
X173415334Y-102627105D01*
X173367715Y-102817581D01*
X173367339Y-102820117D01*
X173366917Y-102821139D01*
X173366374Y-102826651D01*
X173365565Y-102832125D01*
X173365727Y-102833217D01*
X173365476Y-102835771D01*
X172848809Y-102835771D01*
X172848809Y-102454819D01*
X172848803Y-102454766D01*
X172848809Y-102454740D01*
X172848793Y-102454663D01*
X172847368Y-102440187D01*
X172844526Y-102433326D01*
X172843070Y-102426045D01*
X172838980Y-102419938D01*
X172836169Y-102413151D01*
X172830920Y-102407902D01*
X172826787Y-102401730D01*
X172820670Y-102397652D01*
X172815477Y-102392459D01*
X172808617Y-102389617D01*
X172802438Y-102385498D01*
X172795229Y-102384072D01*
X172788441Y-102381260D01*
X172781014Y-102381260D01*
X172773730Y-102379819D01*
X172766525Y-102381260D01*
X172759177Y-102381260D01*
X172752316Y-102384101D01*
X172745036Y-102385558D01*
X172738930Y-102389646D01*
X172732141Y-102392459D01*
X172726890Y-102397709D01*
X172720721Y-102401841D01*
X172711500Y-102413099D01*
X172711449Y-102413151D01*
X172711439Y-102413173D01*
X172711405Y-102413216D01*
X172620285Y-102549896D01*
X172538906Y-102631275D01*
X172454554Y-102673451D01*
X172442111Y-102681283D01*
X172422938Y-102703391D01*
X172413684Y-102731152D01*
X171603463Y-102731152D01*
X171606478Y-102719090D01*
X171644972Y-102642103D01*
X171719085Y-102567990D01*
X171833598Y-102529819D01*
X171904496Y-102529819D01*
X172019009Y-102567990D01*
X172054109Y-102603090D01*
X172065474Y-102612417D01*
X172092510Y-102623616D01*
X172121773Y-102623616D01*
X172148809Y-102612417D01*
X172169502Y-102591724D01*
X172180701Y-102564688D01*
X172180701Y-102535425D01*
X172169502Y-102508389D01*
X172160175Y-102497024D01*
X172112556Y-102449405D01*
X172101191Y-102440078D01*
X172098700Y-102439046D01*
X172096665Y-102437281D01*
X172083240Y-102431287D01*
X171940383Y-102383668D01*
X171933129Y-102382018D01*
X171931298Y-102381260D01*
X171928643Y-102380998D01*
X171926046Y-102380408D01*
X171924071Y-102380548D01*
X171916666Y-102379819D01*
X171821428Y-102379819D01*
X171814021Y-102380548D01*
X171812047Y-102380408D01*
X171809449Y-102380998D01*
X171806796Y-102381260D01*
X171804965Y-102382018D01*
X171797710Y-102383668D01*
X171654854Y-102431287D01*
X171641428Y-102437281D01*
X171639393Y-102439045D01*
X171636903Y-102440077D01*
X171625538Y-102449405D01*
X171530300Y-102544643D01*
X171525581Y-102550392D01*
X171524083Y-102551692D01*
X171522661Y-102553951D01*
X171520973Y-102556008D01*
X171520215Y-102557835D01*
X171516251Y-102564135D01*
X171468632Y-102659373D01*
X171468222Y-102660442D01*
X171467900Y-102660878D01*
X171465714Y-102666997D01*
X171463377Y-102673105D01*
X171463338Y-102673644D01*
X171462953Y-102674724D01*
X171415334Y-102865200D01*
X171414958Y-102867736D01*
X171414536Y-102868758D01*
X171413993Y-102874270D01*
X171413184Y-102879744D01*
X171413346Y-102880836D01*
X171413095Y-102883390D01*
X171301984Y-102883390D01*
X171301984Y-102268708D01*
X174198015Y-102268708D01*
X174198015Y-103640930D01*
G37*
G36*
X187034777Y-98176930D02*
G01*
X185283044Y-98176930D01*
X185283044Y-97976187D01*
X185394155Y-97976187D01*
X185394155Y-98005451D01*
X185405354Y-98032487D01*
X185426046Y-98053179D01*
X185453082Y-98064378D01*
X185467714Y-98065819D01*
X185562952Y-98065819D01*
X185570357Y-98065089D01*
X185572332Y-98065230D01*
X185574929Y-98064639D01*
X185577584Y-98064378D01*
X185579415Y-98063619D01*
X185586669Y-98061970D01*
X185729526Y-98014351D01*
X185742951Y-98008357D01*
X185744986Y-98006591D01*
X185747477Y-98005560D01*
X185758842Y-97996233D01*
X185778888Y-97976187D01*
X186156060Y-97976187D01*
X186156060Y-98005451D01*
X186167259Y-98032487D01*
X186187951Y-98053179D01*
X186214987Y-98064378D01*
X186229619Y-98065819D01*
X186848666Y-98065819D01*
X186863298Y-98064378D01*
X186890334Y-98053179D01*
X186911026Y-98032487D01*
X186922225Y-98005451D01*
X186922225Y-97976187D01*
X186911026Y-97949151D01*
X186890334Y-97928459D01*
X186863298Y-97917260D01*
X186848666Y-97915819D01*
X186410685Y-97915819D01*
X186854080Y-97472423D01*
X186863408Y-97461058D01*
X186864439Y-97458567D01*
X186866204Y-97456533D01*
X186872198Y-97443107D01*
X186919817Y-97300251D01*
X186921466Y-97292995D01*
X186922225Y-97291165D01*
X186922486Y-97288511D01*
X186923077Y-97285914D01*
X186922936Y-97283939D01*
X186923666Y-97276533D01*
X186923666Y-97181295D01*
X186922225Y-97166663D01*
X186921194Y-97164174D01*
X186921003Y-97161485D01*
X186915748Y-97147754D01*
X186868129Y-97052516D01*
X186864164Y-97046216D01*
X186863407Y-97044389D01*
X186861718Y-97042332D01*
X186860297Y-97040073D01*
X186858798Y-97038773D01*
X186854080Y-97033024D01*
X186806461Y-96985405D01*
X186800711Y-96980686D01*
X186799412Y-96979188D01*
X186797152Y-96977766D01*
X186795096Y-96976078D01*
X186793268Y-96975320D01*
X186786969Y-96971356D01*
X186691731Y-96923737D01*
X186677999Y-96918482D01*
X186675311Y-96918291D01*
X186672822Y-96917260D01*
X186658190Y-96915819D01*
X186420095Y-96915819D01*
X186405463Y-96917260D01*
X186402974Y-96918290D01*
X186400285Y-96918482D01*
X186386554Y-96923737D01*
X186291316Y-96971356D01*
X186285016Y-96975320D01*
X186283189Y-96976078D01*
X186281132Y-96977766D01*
X186278873Y-96979188D01*
X186277573Y-96980686D01*
X186271824Y-96985405D01*
X186224205Y-97033024D01*
X186214878Y-97044389D01*
X186203679Y-97071426D01*
X186203679Y-97100688D01*
X186214878Y-97127725D01*
X186235570Y-97148417D01*
X186262607Y-97159616D01*
X186291869Y-97159616D01*
X186318906Y-97148417D01*
X186330271Y-97139090D01*
X186369284Y-97100077D01*
X186437800Y-97065819D01*
X186640485Y-97065819D01*
X186709001Y-97100077D01*
X186739408Y-97130484D01*
X186773666Y-97199000D01*
X186773666Y-97264363D01*
X186735494Y-97378876D01*
X186176586Y-97937786D01*
X186167259Y-97949151D01*
X186156060Y-97976187D01*
X185778888Y-97976187D01*
X185854081Y-97900993D01*
X185863408Y-97889628D01*
X185864438Y-97887139D01*
X185866204Y-97885104D01*
X185872198Y-97871678D01*
X185919817Y-97728822D01*
X185921466Y-97721566D01*
X185922225Y-97719736D01*
X185922486Y-97717082D01*
X185923077Y-97714485D01*
X185922936Y-97712510D01*
X185923666Y-97705104D01*
X185923666Y-96990819D01*
X185922225Y-96976187D01*
X185911026Y-96949151D01*
X185890334Y-96928459D01*
X185863298Y-96917260D01*
X185834034Y-96917260D01*
X185806998Y-96928459D01*
X185786306Y-96949151D01*
X185775107Y-96976187D01*
X185773666Y-96990819D01*
X185773666Y-97692934D01*
X185735494Y-97807447D01*
X185665295Y-97877647D01*
X185550782Y-97915819D01*
X185467714Y-97915819D01*
X185453082Y-97917260D01*
X185426046Y-97928459D01*
X185405354Y-97949151D01*
X185394155Y-97976187D01*
X185283044Y-97976187D01*
X185283044Y-96804708D01*
X187034777Y-96804708D01*
X187034777Y-98176930D01*
G37*
G36*
X170889668Y-136978077D02*
G01*
X170920075Y-137008484D01*
X170954333Y-137077000D01*
X170954333Y-137184447D01*
X170920075Y-137252963D01*
X170889668Y-137283370D01*
X170821152Y-137317628D01*
X170532905Y-137317628D01*
X170532905Y-136943819D01*
X170821152Y-136943819D01*
X170889668Y-136978077D01*
G37*
G36*
X172166384Y-138054930D02*
G01*
X170271794Y-138054930D01*
X170271794Y-136868819D01*
X170382905Y-136868819D01*
X170382905Y-137868819D01*
X170384346Y-137883451D01*
X170395545Y-137910487D01*
X170416237Y-137931179D01*
X170443273Y-137942378D01*
X170472537Y-137942378D01*
X170499573Y-137931179D01*
X170520265Y-137910487D01*
X170531464Y-137883451D01*
X170532905Y-137868819D01*
X170532905Y-137467628D01*
X170656951Y-137467628D01*
X170967891Y-137911829D01*
X170977462Y-137922989D01*
X171002141Y-137938716D01*
X171030958Y-137943802D01*
X171059529Y-137937472D01*
X171083503Y-137920690D01*
X171099230Y-137896012D01*
X171104315Y-137867194D01*
X171097986Y-137838623D01*
X171090776Y-137825810D01*
X170839972Y-137467518D01*
X170853489Y-137466187D01*
X170855978Y-137465155D01*
X170858666Y-137464965D01*
X170872398Y-137459710D01*
X170967636Y-137412091D01*
X170973935Y-137408126D01*
X170975763Y-137407369D01*
X170977819Y-137405680D01*
X170980079Y-137404259D01*
X170981378Y-137402760D01*
X170987128Y-137398042D01*
X171034747Y-137350423D01*
X171039465Y-137344673D01*
X171040964Y-137343374D01*
X171042385Y-137341114D01*
X171044074Y-137339058D01*
X171044831Y-137337230D01*
X171048796Y-137330931D01*
X171096415Y-137235693D01*
X171101670Y-137221962D01*
X171101861Y-137219272D01*
X171102892Y-137216784D01*
X171104333Y-137202152D01*
X171104333Y-137145152D01*
X171335875Y-137145152D01*
X171337949Y-137174342D01*
X171351036Y-137200517D01*
X171373144Y-137219690D01*
X171400905Y-137228944D01*
X171430095Y-137226870D01*
X171443827Y-137221615D01*
X171539065Y-137173996D01*
X171545364Y-137170031D01*
X171547192Y-137169274D01*
X171549248Y-137167585D01*
X171551508Y-137166164D01*
X171552807Y-137164665D01*
X171558557Y-137159947D01*
X171621000Y-137097504D01*
X171621000Y-137793819D01*
X171410286Y-137793819D01*
X171395654Y-137795260D01*
X171368618Y-137806459D01*
X171347926Y-137827151D01*
X171336727Y-137854187D01*
X171336727Y-137883451D01*
X171347926Y-137910487D01*
X171368618Y-137931179D01*
X171395654Y-137942378D01*
X171410286Y-137943819D01*
X171981714Y-137943819D01*
X171996346Y-137942378D01*
X172023382Y-137931179D01*
X172044074Y-137910487D01*
X172055273Y-137883451D01*
X172055273Y-137854187D01*
X172044074Y-137827151D01*
X172023382Y-137806459D01*
X171996346Y-137795260D01*
X171981714Y-137793819D01*
X171771000Y-137793819D01*
X171771000Y-136868819D01*
X171770994Y-136868766D01*
X171771000Y-136868740D01*
X171770984Y-136868663D01*
X171769559Y-136854187D01*
X171766717Y-136847326D01*
X171765261Y-136840045D01*
X171761171Y-136833938D01*
X171758360Y-136827151D01*
X171753111Y-136821902D01*
X171748978Y-136815730D01*
X171742861Y-136811652D01*
X171737668Y-136806459D01*
X171730808Y-136803617D01*
X171724629Y-136799498D01*
X171717420Y-136798072D01*
X171710632Y-136795260D01*
X171703205Y-136795260D01*
X171695921Y-136793819D01*
X171688716Y-136795260D01*
X171681368Y-136795260D01*
X171674507Y-136798101D01*
X171667227Y-136799558D01*
X171661121Y-136803646D01*
X171654332Y-136806459D01*
X171649081Y-136811709D01*
X171642912Y-136815841D01*
X171633691Y-136827099D01*
X171633640Y-136827151D01*
X171633630Y-136827173D01*
X171633596Y-136827216D01*
X171542476Y-136963896D01*
X171461097Y-137045275D01*
X171376745Y-137087451D01*
X171364302Y-137095283D01*
X171345129Y-137117391D01*
X171335875Y-137145152D01*
X171104333Y-137145152D01*
X171104333Y-137059295D01*
X171102892Y-137044663D01*
X171101861Y-137042174D01*
X171101670Y-137039485D01*
X171096415Y-137025754D01*
X171048796Y-136930516D01*
X171044831Y-136924216D01*
X171044074Y-136922389D01*
X171042385Y-136920332D01*
X171040964Y-136918073D01*
X171039465Y-136916773D01*
X171034747Y-136911024D01*
X170987128Y-136863405D01*
X170981378Y-136858686D01*
X170980079Y-136857188D01*
X170977819Y-136855766D01*
X170975763Y-136854078D01*
X170973935Y-136853320D01*
X170967636Y-136849356D01*
X170872398Y-136801737D01*
X170858666Y-136796482D01*
X170855978Y-136796291D01*
X170853489Y-136795260D01*
X170838857Y-136793819D01*
X170457905Y-136793819D01*
X170443273Y-136795260D01*
X170416237Y-136806459D01*
X170395545Y-136827151D01*
X170384346Y-136854187D01*
X170382905Y-136868819D01*
X170271794Y-136868819D01*
X170271794Y-136682708D01*
X172166384Y-136682708D01*
X172166384Y-138054930D01*
G37*
D11*
G36*
X125672828Y-133206530D02*
G01*
X122782984Y-133206530D01*
X122782984Y-132473990D01*
X122894095Y-132473990D01*
X122894095Y-132616847D01*
X122895290Y-132622856D01*
X122895588Y-132628974D01*
X122943207Y-132819450D01*
X122945546Y-132824402D01*
X122946993Y-132829684D01*
X122994611Y-132924921D01*
X122999522Y-132931249D01*
X123003977Y-132937916D01*
X123099216Y-133033155D01*
X123101297Y-133034545D01*
X123101811Y-133035573D01*
X123108776Y-133039543D01*
X123115437Y-133043994D01*
X123116585Y-133043994D01*
X123118760Y-133045234D01*
X123261616Y-133092853D01*
X123269566Y-133093855D01*
X123277428Y-133095419D01*
X123372666Y-133095419D01*
X123380528Y-133093855D01*
X123388477Y-133092853D01*
X123531334Y-133045234D01*
X123533509Y-133043994D01*
X123534658Y-133043994D01*
X123541328Y-133039536D01*
X123548282Y-133035573D01*
X123548794Y-133034547D01*
X123550879Y-133033155D01*
X123598498Y-132985535D01*
X123609336Y-132969314D01*
X123609336Y-132931045D01*
X123582276Y-132903986D01*
X123544007Y-132903986D01*
X123527786Y-132914825D01*
X123488513Y-132954098D01*
X123364553Y-132995419D01*
X123285541Y-132995419D01*
X123161581Y-132954099D01*
X123080425Y-132872942D01*
X123038890Y-132789872D01*
X122994095Y-132610692D01*
X122994095Y-132480145D01*
X123030462Y-132334678D01*
X123894221Y-132334678D01*
X123911335Y-132368906D01*
X123947640Y-132381007D01*
X123966456Y-132375854D01*
X124061693Y-132328236D01*
X124068026Y-132323320D01*
X124074688Y-132318869D01*
X124169926Y-132223631D01*
X124172674Y-132219517D01*
X124176174Y-132216011D01*
X124179809Y-132210558D01*
X124179809Y-132995419D01*
X123944095Y-132995419D01*
X123924961Y-132999225D01*
X123897901Y-133026285D01*
X123897901Y-133064553D01*
X123924961Y-133091613D01*
X123944095Y-133095419D01*
X124515523Y-133095419D01*
X124534657Y-133091613D01*
X124561717Y-133064553D01*
X124561717Y-133026285D01*
X124534657Y-132999225D01*
X124515523Y-132995419D01*
X124279809Y-132995419D01*
X124279809Y-132715629D01*
X124846602Y-132715629D01*
X124850282Y-132722989D01*
X124850282Y-132731219D01*
X124858511Y-132739448D01*
X124863716Y-132749858D01*
X124871523Y-132752460D01*
X124877342Y-132758279D01*
X124896476Y-132762085D01*
X125322666Y-132762085D01*
X125322666Y-133045419D01*
X125326472Y-133064553D01*
X125353532Y-133091613D01*
X125391800Y-133091613D01*
X125418860Y-133064553D01*
X125422666Y-133045419D01*
X125422666Y-132762085D01*
X125515523Y-132762085D01*
X125534657Y-132758279D01*
X125561717Y-132731219D01*
X125561717Y-132692951D01*
X125534657Y-132665891D01*
X125515523Y-132662085D01*
X125422666Y-132662085D01*
X125422666Y-132378752D01*
X125418860Y-132359618D01*
X125391800Y-132332558D01*
X125353532Y-132332558D01*
X125326472Y-132359618D01*
X125322666Y-132378752D01*
X125322666Y-132662085D01*
X124965847Y-132662085D01*
X125182005Y-132013612D01*
X125184445Y-131994256D01*
X125167331Y-131960028D01*
X125131027Y-131947926D01*
X125096798Y-131965041D01*
X125087137Y-131981989D01*
X124849042Y-132696274D01*
X124846602Y-132715629D01*
X124279809Y-132715629D01*
X124279809Y-132045419D01*
X124276003Y-132026285D01*
X124272362Y-132022644D01*
X124271353Y-132017597D01*
X124259237Y-132009519D01*
X124248943Y-131999225D01*
X124243797Y-131999225D01*
X124239513Y-131996369D01*
X124225235Y-131999225D01*
X124210675Y-131999225D01*
X124207034Y-132002865D01*
X124201987Y-132003875D01*
X124188207Y-132017684D01*
X124095712Y-132156424D01*
X124009716Y-132242421D01*
X123921734Y-132286412D01*
X123906322Y-132298373D01*
X123894221Y-132334678D01*
X123030462Y-132334678D01*
X123038890Y-132300965D01*
X123080426Y-132217893D01*
X123161579Y-132136739D01*
X123285541Y-132095419D01*
X123364553Y-132095419D01*
X123488514Y-132136739D01*
X123527786Y-132176012D01*
X123544007Y-132186851D01*
X123582276Y-132186851D01*
X123609336Y-132159791D01*
X123609336Y-132121522D01*
X123598497Y-132105301D01*
X123550878Y-132057683D01*
X123548795Y-132056291D01*
X123548282Y-132055265D01*
X123541321Y-132051297D01*
X123534657Y-132046844D01*
X123533509Y-132046844D01*
X123531334Y-132045604D01*
X123388477Y-131997985D01*
X123380528Y-131996982D01*
X123372666Y-131995419D01*
X123277428Y-131995419D01*
X123269566Y-131996982D01*
X123261616Y-131997985D01*
X123118760Y-132045604D01*
X123116585Y-132046844D01*
X123115437Y-132046844D01*
X123108776Y-132051294D01*
X123101811Y-132055265D01*
X123101297Y-132056292D01*
X123099216Y-132057683D01*
X123003978Y-132152921D01*
X122999526Y-132159582D01*
X122994611Y-132165916D01*
X122946993Y-132261153D01*
X122945546Y-132266434D01*
X122943207Y-132271387D01*
X122895588Y-132461863D01*
X122895290Y-132467980D01*
X122894095Y-132473990D01*
X122782984Y-132473990D01*
X122782984Y-131836815D01*
X125672828Y-131836815D01*
X125672828Y-133206530D01*
G37*
X128846115Y-120358533D02*
X128084211Y-120358533D01*
X128465163Y-119977580D02*
X128465163Y-120739485D01*
D12*
G36*
X174674574Y-123322930D02*
G01*
X171779984Y-123322930D01*
X171779984Y-122565390D01*
X171891095Y-122565390D01*
X171891095Y-122708247D01*
X171891346Y-122710800D01*
X171891184Y-122711893D01*
X171891993Y-122717366D01*
X171892536Y-122722879D01*
X171892958Y-122723900D01*
X171893334Y-122726437D01*
X171940953Y-122916913D01*
X171941338Y-122917992D01*
X171941377Y-122918532D01*
X171943704Y-122924613D01*
X171945900Y-122930759D01*
X171946222Y-122931194D01*
X171946632Y-122932264D01*
X171994251Y-123027502D01*
X171998214Y-123033798D01*
X171998972Y-123035628D01*
X172000661Y-123037686D01*
X172002083Y-123039945D01*
X172003581Y-123041244D01*
X172008300Y-123046994D01*
X172103538Y-123142233D01*
X172114903Y-123151561D01*
X172117393Y-123152592D01*
X172119428Y-123154357D01*
X172132854Y-123160351D01*
X172275710Y-123207970D01*
X172282965Y-123209619D01*
X172284796Y-123210378D01*
X172287449Y-123210639D01*
X172290047Y-123211230D01*
X172292021Y-123211089D01*
X172299428Y-123211819D01*
X172394666Y-123211819D01*
X172402071Y-123211089D01*
X172404046Y-123211230D01*
X172406643Y-123210639D01*
X172409298Y-123210378D01*
X172411129Y-123209619D01*
X172418383Y-123207970D01*
X172561240Y-123160351D01*
X172574665Y-123154357D01*
X172576700Y-123152591D01*
X172579191Y-123151560D01*
X172590557Y-123142232D01*
X172638175Y-123094613D01*
X172647503Y-123083247D01*
X172658701Y-123056211D01*
X172658701Y-123026948D01*
X172647502Y-122999912D01*
X172626809Y-122979219D01*
X172599773Y-122968021D01*
X172570510Y-122968021D01*
X172543474Y-122979220D01*
X172532108Y-122988548D01*
X172497009Y-123023647D01*
X172382496Y-123061819D01*
X172311598Y-123061819D01*
X172197085Y-123023648D01*
X172122972Y-122949534D01*
X172084478Y-122872547D01*
X172041095Y-122699013D01*
X172041095Y-122574624D01*
X172081463Y-122413152D01*
X172891684Y-122413152D01*
X172893758Y-122442342D01*
X172906845Y-122468517D01*
X172928953Y-122487690D01*
X172956714Y-122496944D01*
X172985904Y-122494870D01*
X172999636Y-122489615D01*
X173094874Y-122441996D01*
X173101173Y-122438031D01*
X173103001Y-122437274D01*
X173105057Y-122435585D01*
X173107317Y-122434164D01*
X173108616Y-122432665D01*
X173114366Y-122427947D01*
X173176809Y-122365504D01*
X173176809Y-123061819D01*
X172966095Y-123061819D01*
X172951463Y-123063260D01*
X172924427Y-123074459D01*
X172903735Y-123095151D01*
X172892536Y-123122187D01*
X172892536Y-123151451D01*
X172903735Y-123178487D01*
X172924427Y-123199179D01*
X172951463Y-123210378D01*
X172966095Y-123211819D01*
X173537523Y-123211819D01*
X173552155Y-123210378D01*
X173579191Y-123199179D01*
X173599883Y-123178487D01*
X173611082Y-123151451D01*
X173611082Y-123122187D01*
X173599883Y-123095151D01*
X173579191Y-123074459D01*
X173552155Y-123063260D01*
X173537523Y-123061819D01*
X173326809Y-123061819D01*
X173326809Y-122413152D01*
X173844065Y-122413152D01*
X173846139Y-122442342D01*
X173859226Y-122468517D01*
X173881334Y-122487690D01*
X173909095Y-122496944D01*
X173938285Y-122494870D01*
X173952017Y-122489615D01*
X174047255Y-122441996D01*
X174053554Y-122438031D01*
X174055382Y-122437274D01*
X174057438Y-122435585D01*
X174059698Y-122434164D01*
X174060997Y-122432665D01*
X174066747Y-122427947D01*
X174129190Y-122365504D01*
X174129190Y-123061819D01*
X173918476Y-123061819D01*
X173903844Y-123063260D01*
X173876808Y-123074459D01*
X173856116Y-123095151D01*
X173844917Y-123122187D01*
X173844917Y-123151451D01*
X173856116Y-123178487D01*
X173876808Y-123199179D01*
X173903844Y-123210378D01*
X173918476Y-123211819D01*
X174489904Y-123211819D01*
X174504536Y-123210378D01*
X174531572Y-123199179D01*
X174552264Y-123178487D01*
X174563463Y-123151451D01*
X174563463Y-123122187D01*
X174552264Y-123095151D01*
X174531572Y-123074459D01*
X174504536Y-123063260D01*
X174489904Y-123061819D01*
X174279190Y-123061819D01*
X174279190Y-122136819D01*
X174279184Y-122136766D01*
X174279190Y-122136740D01*
X174279174Y-122136663D01*
X174277749Y-122122187D01*
X174274907Y-122115326D01*
X174273451Y-122108045D01*
X174269361Y-122101938D01*
X174266550Y-122095151D01*
X174261301Y-122089902D01*
X174257168Y-122083730D01*
X174251051Y-122079652D01*
X174245858Y-122074459D01*
X174238998Y-122071617D01*
X174232819Y-122067498D01*
X174225610Y-122066072D01*
X174218822Y-122063260D01*
X174211395Y-122063260D01*
X174204111Y-122061819D01*
X174196906Y-122063260D01*
X174189558Y-122063260D01*
X174182697Y-122066101D01*
X174175417Y-122067558D01*
X174169311Y-122071646D01*
X174162522Y-122074459D01*
X174157271Y-122079709D01*
X174151102Y-122083841D01*
X174141881Y-122095099D01*
X174141830Y-122095151D01*
X174141820Y-122095173D01*
X174141786Y-122095216D01*
X174050666Y-122231896D01*
X173969287Y-122313275D01*
X173884935Y-122355451D01*
X173872492Y-122363283D01*
X173853319Y-122385391D01*
X173844065Y-122413152D01*
X173326809Y-122413152D01*
X173326809Y-122136819D01*
X173326803Y-122136766D01*
X173326809Y-122136740D01*
X173326793Y-122136663D01*
X173325368Y-122122187D01*
X173322526Y-122115326D01*
X173321070Y-122108045D01*
X173316980Y-122101938D01*
X173314169Y-122095151D01*
X173308920Y-122089902D01*
X173304787Y-122083730D01*
X173298670Y-122079652D01*
X173293477Y-122074459D01*
X173286617Y-122071617D01*
X173280438Y-122067498D01*
X173273229Y-122066072D01*
X173266441Y-122063260D01*
X173259014Y-122063260D01*
X173251730Y-122061819D01*
X173244525Y-122063260D01*
X173237177Y-122063260D01*
X173230316Y-122066101D01*
X173223036Y-122067558D01*
X173216930Y-122071646D01*
X173210141Y-122074459D01*
X173204890Y-122079709D01*
X173198721Y-122083841D01*
X173189500Y-122095099D01*
X173189449Y-122095151D01*
X173189439Y-122095173D01*
X173189405Y-122095216D01*
X173098285Y-122231896D01*
X173016906Y-122313275D01*
X172932554Y-122355451D01*
X172920111Y-122363283D01*
X172900938Y-122385391D01*
X172891684Y-122413152D01*
X172081463Y-122413152D01*
X172084478Y-122401090D01*
X172122972Y-122324103D01*
X172197085Y-122249990D01*
X172311598Y-122211819D01*
X172382496Y-122211819D01*
X172497009Y-122249990D01*
X172532109Y-122285090D01*
X172543474Y-122294417D01*
X172570510Y-122305616D01*
X172599773Y-122305616D01*
X172626809Y-122294417D01*
X172647502Y-122273724D01*
X172658701Y-122246688D01*
X172658701Y-122217425D01*
X172647502Y-122190389D01*
X172638175Y-122179024D01*
X172590556Y-122131405D01*
X172579191Y-122122078D01*
X172576700Y-122121046D01*
X172574665Y-122119281D01*
X172561240Y-122113287D01*
X172418383Y-122065668D01*
X172411129Y-122064018D01*
X172409298Y-122063260D01*
X172406643Y-122062998D01*
X172404046Y-122062408D01*
X172402071Y-122062548D01*
X172394666Y-122061819D01*
X172299428Y-122061819D01*
X172292021Y-122062548D01*
X172290047Y-122062408D01*
X172287449Y-122062998D01*
X172284796Y-122063260D01*
X172282965Y-122064018D01*
X172275710Y-122065668D01*
X172132854Y-122113287D01*
X172119428Y-122119281D01*
X172117393Y-122121045D01*
X172114903Y-122122077D01*
X172103538Y-122131405D01*
X172008300Y-122226643D01*
X172003581Y-122232392D01*
X172002083Y-122233692D01*
X172000661Y-122235951D01*
X171998973Y-122238008D01*
X171998215Y-122239835D01*
X171994251Y-122246135D01*
X171946632Y-122341373D01*
X171946222Y-122342442D01*
X171945900Y-122342878D01*
X171943714Y-122348997D01*
X171941377Y-122355105D01*
X171941338Y-122355644D01*
X171940953Y-122356724D01*
X171893334Y-122547200D01*
X171892958Y-122549736D01*
X171892536Y-122550758D01*
X171891993Y-122556270D01*
X171891184Y-122561744D01*
X171891346Y-122562836D01*
X171891095Y-122565390D01*
X171779984Y-122565390D01*
X171779984Y-121950708D01*
X174674574Y-121950708D01*
X174674574Y-123322930D01*
G37*
G36*
X106889825Y-111130930D02*
G01*
X104946175Y-111130930D01*
X104946175Y-110373390D01*
X105057286Y-110373390D01*
X105057286Y-110516247D01*
X105057537Y-110518800D01*
X105057375Y-110519893D01*
X105058184Y-110525366D01*
X105058727Y-110530879D01*
X105059149Y-110531900D01*
X105059525Y-110534437D01*
X105107144Y-110724913D01*
X105107529Y-110725992D01*
X105107568Y-110726532D01*
X105109895Y-110732613D01*
X105112091Y-110738759D01*
X105112413Y-110739194D01*
X105112823Y-110740264D01*
X105160442Y-110835502D01*
X105164405Y-110841798D01*
X105165163Y-110843628D01*
X105166852Y-110845686D01*
X105168274Y-110847945D01*
X105169772Y-110849244D01*
X105174491Y-110854994D01*
X105269729Y-110950233D01*
X105281094Y-110959561D01*
X105283584Y-110960592D01*
X105285619Y-110962357D01*
X105299045Y-110968351D01*
X105441901Y-111015970D01*
X105449156Y-111017619D01*
X105450987Y-111018378D01*
X105453640Y-111018639D01*
X105456238Y-111019230D01*
X105458212Y-111019089D01*
X105465619Y-111019819D01*
X105560857Y-111019819D01*
X105568262Y-111019089D01*
X105570237Y-111019230D01*
X105572834Y-111018639D01*
X105575489Y-111018378D01*
X105577320Y-111017619D01*
X105584574Y-111015970D01*
X105727431Y-110968351D01*
X105740856Y-110962357D01*
X105742891Y-110960591D01*
X105745382Y-110959560D01*
X105756748Y-110950232D01*
X105804366Y-110902613D01*
X105813694Y-110891247D01*
X105824892Y-110864211D01*
X105824892Y-110834948D01*
X105813693Y-110807912D01*
X105793000Y-110787219D01*
X105765964Y-110776021D01*
X105736701Y-110776021D01*
X105709665Y-110787220D01*
X105698299Y-110796548D01*
X105663200Y-110831647D01*
X105548687Y-110869819D01*
X105477789Y-110869819D01*
X105363276Y-110831648D01*
X105289163Y-110757534D01*
X105250669Y-110680547D01*
X105207286Y-110507013D01*
X105207286Y-110382624D01*
X105250669Y-110209090D01*
X105289163Y-110132103D01*
X105363276Y-110057990D01*
X105477789Y-110019819D01*
X105548687Y-110019819D01*
X105663200Y-110057990D01*
X105698300Y-110093090D01*
X105709665Y-110102417D01*
X105736701Y-110113616D01*
X105765964Y-110113616D01*
X105793000Y-110102417D01*
X105813693Y-110081724D01*
X105824892Y-110054688D01*
X105824892Y-110025425D01*
X105813693Y-109998389D01*
X105804366Y-109987024D01*
X105756747Y-109939405D01*
X105745515Y-109930187D01*
X106011108Y-109930187D01*
X106011108Y-109959451D01*
X106022307Y-109986487D01*
X106042999Y-110007179D01*
X106070035Y-110018378D01*
X106084667Y-110019819D01*
X106538432Y-110019819D01*
X106313938Y-110276383D01*
X106309416Y-110282707D01*
X106308021Y-110284103D01*
X106307472Y-110285426D01*
X106305387Y-110288344D01*
X106301485Y-110299881D01*
X106296822Y-110311139D01*
X106296822Y-110313669D01*
X106296012Y-110316065D01*
X106296822Y-110328218D01*
X106296822Y-110340403D01*
X106297789Y-110342739D01*
X106297958Y-110345263D01*
X106303360Y-110356188D01*
X106308021Y-110367439D01*
X106309807Y-110369225D01*
X106310930Y-110371495D01*
X106320102Y-110379520D01*
X106328713Y-110388131D01*
X106331049Y-110389099D01*
X106332954Y-110390765D01*
X106344491Y-110394666D01*
X106355749Y-110399330D01*
X106359319Y-110399681D01*
X106360675Y-110400140D01*
X106362642Y-110400008D01*
X106370381Y-110400771D01*
X106495533Y-110400771D01*
X106564049Y-110435029D01*
X106594456Y-110465436D01*
X106628714Y-110533952D01*
X106628714Y-110736637D01*
X106594455Y-110805153D01*
X106564048Y-110835561D01*
X106495533Y-110869819D01*
X106245229Y-110869819D01*
X106176713Y-110835561D01*
X106137701Y-110796548D01*
X106126335Y-110787220D01*
X106099299Y-110776021D01*
X106070036Y-110776021D01*
X106043000Y-110787219D01*
X106022307Y-110807912D01*
X106011108Y-110834948D01*
X106011108Y-110864211D01*
X106022306Y-110891247D01*
X106031633Y-110902612D01*
X106079252Y-110950232D01*
X106085001Y-110954950D01*
X106086302Y-110956450D01*
X106088561Y-110957872D01*
X106090618Y-110959560D01*
X106092445Y-110960317D01*
X106098745Y-110964282D01*
X106193983Y-111011901D01*
X106207714Y-111017156D01*
X106210403Y-111017347D01*
X106212892Y-111018378D01*
X106227524Y-111019819D01*
X106513238Y-111019819D01*
X106527870Y-111018378D01*
X106530359Y-111017346D01*
X106533047Y-111017156D01*
X106546779Y-111011901D01*
X106642017Y-110964282D01*
X106648316Y-110960317D01*
X106650144Y-110959560D01*
X106652200Y-110957872D01*
X106654460Y-110956450D01*
X106655760Y-110954950D01*
X106661510Y-110950232D01*
X106709128Y-110902613D01*
X106713846Y-110896863D01*
X106715345Y-110895564D01*
X106716766Y-110893305D01*
X106718456Y-110891247D01*
X106719213Y-110889417D01*
X106723177Y-110883121D01*
X106770796Y-110787883D01*
X106776051Y-110774152D01*
X106776242Y-110771462D01*
X106777273Y-110768974D01*
X106778714Y-110754342D01*
X106778714Y-110516247D01*
X106777273Y-110501615D01*
X106776242Y-110499126D01*
X106776051Y-110496437D01*
X106770796Y-110482706D01*
X106723177Y-110387468D01*
X106719212Y-110381168D01*
X106718455Y-110379341D01*
X106716766Y-110377284D01*
X106715345Y-110375025D01*
X106713846Y-110373725D01*
X106709128Y-110367976D01*
X106661509Y-110320357D01*
X106655759Y-110315638D01*
X106654460Y-110314140D01*
X106652200Y-110312718D01*
X106650144Y-110311030D01*
X106648316Y-110310272D01*
X106642017Y-110306308D01*
X106546779Y-110258689D01*
X106533261Y-110253516D01*
X106760157Y-109994207D01*
X106764678Y-109987882D01*
X106766074Y-109986487D01*
X106766622Y-109985163D01*
X106768708Y-109982246D01*
X106772609Y-109970708D01*
X106777273Y-109959451D01*
X106777273Y-109956920D01*
X106778083Y-109954525D01*
X106777273Y-109942371D01*
X106777273Y-109930187D01*
X106776305Y-109927850D01*
X106776137Y-109925327D01*
X106770734Y-109914401D01*
X106766074Y-109903151D01*
X106764287Y-109901364D01*
X106763165Y-109899095D01*
X106753992Y-109891069D01*
X106745382Y-109882459D01*
X106743045Y-109881490D01*
X106741141Y-109879825D01*
X106729603Y-109875923D01*
X106718346Y-109871260D01*
X106714775Y-109870908D01*
X106713420Y-109870450D01*
X106711452Y-109870581D01*
X106703714Y-109869819D01*
X106084667Y-109869819D01*
X106070035Y-109871260D01*
X106042999Y-109882459D01*
X106022307Y-109903151D01*
X106011108Y-109930187D01*
X105745515Y-109930187D01*
X105745382Y-109930078D01*
X105742891Y-109929046D01*
X105740856Y-109927281D01*
X105727431Y-109921287D01*
X105584574Y-109873668D01*
X105577320Y-109872018D01*
X105575489Y-109871260D01*
X105572834Y-109870998D01*
X105570237Y-109870408D01*
X105568262Y-109870548D01*
X105560857Y-109869819D01*
X105465619Y-109869819D01*
X105458212Y-109870548D01*
X105456238Y-109870408D01*
X105453640Y-109870998D01*
X105450987Y-109871260D01*
X105449156Y-109872018D01*
X105441901Y-109873668D01*
X105299045Y-109921287D01*
X105285619Y-109927281D01*
X105283584Y-109929045D01*
X105281094Y-109930077D01*
X105269729Y-109939405D01*
X105174491Y-110034643D01*
X105169772Y-110040392D01*
X105168274Y-110041692D01*
X105166852Y-110043951D01*
X105165164Y-110046008D01*
X105164406Y-110047835D01*
X105160442Y-110054135D01*
X105112823Y-110149373D01*
X105112413Y-110150442D01*
X105112091Y-110150878D01*
X105109895Y-110157023D01*
X105107568Y-110163105D01*
X105107529Y-110163644D01*
X105107144Y-110164724D01*
X105059525Y-110355200D01*
X105059149Y-110357736D01*
X105058727Y-110358758D01*
X105058184Y-110364270D01*
X105057375Y-110369744D01*
X105057537Y-110370836D01*
X105057286Y-110373390D01*
X104946175Y-110373390D01*
X104946175Y-109758708D01*
X106889825Y-109758708D01*
X106889825Y-111130930D01*
G37*
G36*
X123062715Y-102814077D02*
G01*
X123093122Y-102844484D01*
X123127380Y-102913000D01*
X123127380Y-103020447D01*
X123093122Y-103088963D01*
X123062715Y-103119370D01*
X122994199Y-103153628D01*
X122705952Y-103153628D01*
X122705952Y-102779819D01*
X122994199Y-102779819D01*
X123062715Y-102814077D01*
G37*
G36*
X125101336Y-103890930D02*
G01*
X122444841Y-103890930D01*
X122444841Y-102704819D01*
X122555952Y-102704819D01*
X122555952Y-103704819D01*
X122557393Y-103719451D01*
X122568592Y-103746487D01*
X122589284Y-103767179D01*
X122616320Y-103778378D01*
X122645584Y-103778378D01*
X122672620Y-103767179D01*
X122693312Y-103746487D01*
X122704511Y-103719451D01*
X122705952Y-103704819D01*
X122705952Y-103303628D01*
X122829998Y-103303628D01*
X123140938Y-103747829D01*
X123150509Y-103758989D01*
X123175188Y-103774716D01*
X123204005Y-103779802D01*
X123232576Y-103773472D01*
X123256550Y-103756690D01*
X123272277Y-103732012D01*
X123277362Y-103703194D01*
X123271033Y-103674623D01*
X123263823Y-103661810D01*
X123013019Y-103303518D01*
X123026536Y-103302187D01*
X123029025Y-103301155D01*
X123031713Y-103300965D01*
X123045445Y-103295710D01*
X123140683Y-103248091D01*
X123146982Y-103244126D01*
X123148810Y-103243369D01*
X123150866Y-103241680D01*
X123153126Y-103240259D01*
X123154425Y-103238760D01*
X123160175Y-103234042D01*
X123207794Y-103186423D01*
X123212512Y-103180673D01*
X123214011Y-103179374D01*
X123215432Y-103177114D01*
X123217121Y-103175058D01*
X123217878Y-103173230D01*
X123221843Y-103166931D01*
X123269462Y-103071693D01*
X123274717Y-103057962D01*
X123274908Y-103055272D01*
X123275939Y-103052784D01*
X123277380Y-103038152D01*
X123277380Y-102895295D01*
X123275939Y-102880663D01*
X123274908Y-102878174D01*
X123274717Y-102875485D01*
X123269462Y-102861754D01*
X123221843Y-102766516D01*
X123217878Y-102760216D01*
X123217121Y-102758389D01*
X123215432Y-102756332D01*
X123214011Y-102754073D01*
X123212512Y-102752773D01*
X123207794Y-102747024D01*
X123160175Y-102699405D01*
X123154425Y-102694686D01*
X123153126Y-102693188D01*
X123150866Y-102691766D01*
X123148943Y-102690187D01*
X123414536Y-102690187D01*
X123414536Y-102719451D01*
X123425735Y-102746487D01*
X123446427Y-102767179D01*
X123473463Y-102778378D01*
X123488095Y-102779819D01*
X123698809Y-102779819D01*
X123698809Y-103704819D01*
X123700250Y-103719451D01*
X123711449Y-103746487D01*
X123732141Y-103767179D01*
X123759177Y-103778378D01*
X123788441Y-103778378D01*
X123815477Y-103767179D01*
X123836169Y-103746487D01*
X123847368Y-103719451D01*
X123848809Y-103704819D01*
X123848809Y-102981152D01*
X124270827Y-102981152D01*
X124272901Y-103010342D01*
X124285988Y-103036517D01*
X124308096Y-103055690D01*
X124335857Y-103064944D01*
X124365047Y-103062870D01*
X124378779Y-103057615D01*
X124474017Y-103009996D01*
X124480316Y-103006031D01*
X124482144Y-103005274D01*
X124484200Y-103003585D01*
X124486460Y-103002164D01*
X124487759Y-103000665D01*
X124493509Y-102995947D01*
X124555952Y-102933504D01*
X124555952Y-103629819D01*
X124345238Y-103629819D01*
X124330606Y-103631260D01*
X124303570Y-103642459D01*
X124282878Y-103663151D01*
X124271679Y-103690187D01*
X124271679Y-103719451D01*
X124282878Y-103746487D01*
X124303570Y-103767179D01*
X124330606Y-103778378D01*
X124345238Y-103779819D01*
X124916666Y-103779819D01*
X124931298Y-103778378D01*
X124958334Y-103767179D01*
X124979026Y-103746487D01*
X124990225Y-103719451D01*
X124990225Y-103690187D01*
X124979026Y-103663151D01*
X124958334Y-103642459D01*
X124931298Y-103631260D01*
X124916666Y-103629819D01*
X124705952Y-103629819D01*
X124705952Y-102704819D01*
X124705946Y-102704766D01*
X124705952Y-102704740D01*
X124705936Y-102704663D01*
X124704511Y-102690187D01*
X124701669Y-102683326D01*
X124700213Y-102676045D01*
X124696123Y-102669938D01*
X124693312Y-102663151D01*
X124688063Y-102657902D01*
X124683930Y-102651730D01*
X124677813Y-102647652D01*
X124672620Y-102642459D01*
X124665760Y-102639617D01*
X124659581Y-102635498D01*
X124652372Y-102634072D01*
X124645584Y-102631260D01*
X124638157Y-102631260D01*
X124630873Y-102629819D01*
X124623668Y-102631260D01*
X124616320Y-102631260D01*
X124609459Y-102634101D01*
X124602179Y-102635558D01*
X124596073Y-102639646D01*
X124589284Y-102642459D01*
X124584033Y-102647709D01*
X124577864Y-102651841D01*
X124568643Y-102663099D01*
X124568592Y-102663151D01*
X124568582Y-102663173D01*
X124568548Y-102663216D01*
X124477428Y-102799896D01*
X124396049Y-102881275D01*
X124311697Y-102923451D01*
X124299254Y-102931283D01*
X124280081Y-102953391D01*
X124270827Y-102981152D01*
X123848809Y-102981152D01*
X123848809Y-102779819D01*
X124059523Y-102779819D01*
X124074155Y-102778378D01*
X124101191Y-102767179D01*
X124121883Y-102746487D01*
X124133082Y-102719451D01*
X124133082Y-102690187D01*
X124121883Y-102663151D01*
X124101191Y-102642459D01*
X124074155Y-102631260D01*
X124059523Y-102629819D01*
X123488095Y-102629819D01*
X123473463Y-102631260D01*
X123446427Y-102642459D01*
X123425735Y-102663151D01*
X123414536Y-102690187D01*
X123148943Y-102690187D01*
X123148810Y-102690078D01*
X123146982Y-102689320D01*
X123140683Y-102685356D01*
X123045445Y-102637737D01*
X123031713Y-102632482D01*
X123029025Y-102632291D01*
X123026536Y-102631260D01*
X123011904Y-102629819D01*
X122630952Y-102629819D01*
X122616320Y-102631260D01*
X122589284Y-102642459D01*
X122568592Y-102663151D01*
X122557393Y-102690187D01*
X122555952Y-102704819D01*
X122444841Y-102704819D01*
X122444841Y-102518708D01*
X125101336Y-102518708D01*
X125101336Y-103890930D01*
G37*
G36*
X106682176Y-123322930D02*
G01*
X104692175Y-123322930D01*
X104692175Y-122565390D01*
X104803286Y-122565390D01*
X104803286Y-122708247D01*
X104803537Y-122710800D01*
X104803375Y-122711893D01*
X104804184Y-122717366D01*
X104804727Y-122722879D01*
X104805149Y-122723900D01*
X104805525Y-122726437D01*
X104853144Y-122916913D01*
X104853529Y-122917992D01*
X104853568Y-122918532D01*
X104855895Y-122924613D01*
X104858091Y-122930759D01*
X104858413Y-122931194D01*
X104858823Y-122932264D01*
X104906442Y-123027502D01*
X104910405Y-123033798D01*
X104911163Y-123035628D01*
X104912852Y-123037686D01*
X104914274Y-123039945D01*
X104915772Y-123041244D01*
X104920491Y-123046994D01*
X105015729Y-123142233D01*
X105027094Y-123151561D01*
X105029584Y-123152592D01*
X105031619Y-123154357D01*
X105045045Y-123160351D01*
X105187901Y-123207970D01*
X105195156Y-123209619D01*
X105196987Y-123210378D01*
X105199640Y-123210639D01*
X105202238Y-123211230D01*
X105204212Y-123211089D01*
X105211619Y-123211819D01*
X105306857Y-123211819D01*
X105314262Y-123211089D01*
X105316237Y-123211230D01*
X105318834Y-123210639D01*
X105321489Y-123210378D01*
X105323320Y-123209619D01*
X105330574Y-123207970D01*
X105473431Y-123160351D01*
X105486856Y-123154357D01*
X105488891Y-123152591D01*
X105491382Y-123151560D01*
X105502748Y-123142232D01*
X105550366Y-123094613D01*
X105559694Y-123083247D01*
X105570892Y-123056211D01*
X105570892Y-123026948D01*
X105559693Y-122999912D01*
X105539000Y-122979219D01*
X105511964Y-122968021D01*
X105482701Y-122968021D01*
X105455665Y-122979220D01*
X105444299Y-122988548D01*
X105409200Y-123023647D01*
X105294687Y-123061819D01*
X105223789Y-123061819D01*
X105109276Y-123023648D01*
X105035163Y-122949534D01*
X104996669Y-122872547D01*
X104953286Y-122699013D01*
X104953286Y-122574624D01*
X104996669Y-122401090D01*
X105035163Y-122324103D01*
X105109276Y-122249990D01*
X105223789Y-122211819D01*
X105294687Y-122211819D01*
X105409200Y-122249990D01*
X105444300Y-122285090D01*
X105455665Y-122294417D01*
X105482701Y-122305616D01*
X105511964Y-122305616D01*
X105539000Y-122294417D01*
X105559693Y-122273724D01*
X105570892Y-122246688D01*
X105570892Y-122217425D01*
X105559693Y-122190389D01*
X105550366Y-122179024D01*
X105502747Y-122131405D01*
X105491515Y-122122187D01*
X105757108Y-122122187D01*
X105757108Y-122151451D01*
X105768307Y-122178487D01*
X105788999Y-122199179D01*
X105816035Y-122210378D01*
X105830667Y-122211819D01*
X106383592Y-122211819D01*
X105999826Y-123107275D01*
X105995387Y-123121292D01*
X105995030Y-123150553D01*
X106005898Y-123177723D01*
X106026337Y-123198667D01*
X106053235Y-123210194D01*
X106082496Y-123210551D01*
X106109666Y-123199683D01*
X106130610Y-123179244D01*
X106137698Y-123166363D01*
X106566269Y-122166363D01*
X106570708Y-122152347D01*
X106570713Y-122151881D01*
X106570892Y-122151451D01*
X106570892Y-122137265D01*
X106571065Y-122123085D01*
X106570892Y-122122652D01*
X106570892Y-122122187D01*
X106565470Y-122109097D01*
X106560197Y-122095915D01*
X106559871Y-122095581D01*
X106559693Y-122095151D01*
X106549653Y-122085111D01*
X106539758Y-122074972D01*
X106539330Y-122074788D01*
X106539001Y-122074459D01*
X106525866Y-122069018D01*
X106512860Y-122063444D01*
X106512395Y-122063438D01*
X106511965Y-122063260D01*
X106497333Y-122061819D01*
X105830667Y-122061819D01*
X105816035Y-122063260D01*
X105788999Y-122074459D01*
X105768307Y-122095151D01*
X105757108Y-122122187D01*
X105491515Y-122122187D01*
X105491382Y-122122078D01*
X105488891Y-122121046D01*
X105486856Y-122119281D01*
X105473431Y-122113287D01*
X105330574Y-122065668D01*
X105323320Y-122064018D01*
X105321489Y-122063260D01*
X105318834Y-122062998D01*
X105316237Y-122062408D01*
X105314262Y-122062548D01*
X105306857Y-122061819D01*
X105211619Y-122061819D01*
X105204212Y-122062548D01*
X105202238Y-122062408D01*
X105199640Y-122062998D01*
X105196987Y-122063260D01*
X105195156Y-122064018D01*
X105187901Y-122065668D01*
X105045045Y-122113287D01*
X105031619Y-122119281D01*
X105029584Y-122121045D01*
X105027094Y-122122077D01*
X105015729Y-122131405D01*
X104920491Y-122226643D01*
X104915772Y-122232392D01*
X104914274Y-122233692D01*
X104912852Y-122235951D01*
X104911164Y-122238008D01*
X104910406Y-122239835D01*
X104906442Y-122246135D01*
X104858823Y-122341373D01*
X104858413Y-122342442D01*
X104858091Y-122342878D01*
X104855895Y-122349023D01*
X104853568Y-122355105D01*
X104853529Y-122355644D01*
X104853144Y-122356724D01*
X104805525Y-122547200D01*
X104805149Y-122549736D01*
X104804727Y-122550758D01*
X104804184Y-122556270D01*
X104803375Y-122561744D01*
X104803537Y-122562836D01*
X104803286Y-122565390D01*
X104692175Y-122565390D01*
X104692175Y-121950708D01*
X106682176Y-121950708D01*
X106682176Y-123322930D01*
G37*
G36*
X146228015Y-137038930D02*
G01*
X143331984Y-137038930D01*
X143331984Y-136281390D01*
X143443095Y-136281390D01*
X143443095Y-136424247D01*
X143443346Y-136426800D01*
X143443184Y-136427893D01*
X143443993Y-136433366D01*
X143444536Y-136438879D01*
X143444958Y-136439900D01*
X143445334Y-136442437D01*
X143492953Y-136632913D01*
X143493338Y-136633992D01*
X143493377Y-136634532D01*
X143495704Y-136640613D01*
X143497900Y-136646759D01*
X143498222Y-136647194D01*
X143498632Y-136648264D01*
X143546251Y-136743502D01*
X143550214Y-136749798D01*
X143550972Y-136751628D01*
X143552661Y-136753686D01*
X143554083Y-136755945D01*
X143555581Y-136757244D01*
X143560300Y-136762994D01*
X143655538Y-136858233D01*
X143666903Y-136867561D01*
X143669393Y-136868592D01*
X143671428Y-136870357D01*
X143684854Y-136876351D01*
X143827710Y-136923970D01*
X143834965Y-136925619D01*
X143836796Y-136926378D01*
X143839449Y-136926639D01*
X143842047Y-136927230D01*
X143844021Y-136927089D01*
X143851428Y-136927819D01*
X143946666Y-136927819D01*
X143954071Y-136927089D01*
X143956046Y-136927230D01*
X143958643Y-136926639D01*
X143961298Y-136926378D01*
X143963129Y-136925619D01*
X143970383Y-136923970D01*
X144113240Y-136876351D01*
X144126665Y-136870357D01*
X144128700Y-136868591D01*
X144131191Y-136867560D01*
X144142557Y-136858232D01*
X144190175Y-136810613D01*
X144199503Y-136799247D01*
X144210701Y-136772211D01*
X144210701Y-136742948D01*
X144199502Y-136715912D01*
X144178809Y-136695219D01*
X144151773Y-136684021D01*
X144122510Y-136684021D01*
X144095474Y-136695220D01*
X144084108Y-136704548D01*
X144049009Y-136739647D01*
X143934496Y-136777819D01*
X143863598Y-136777819D01*
X143749085Y-136739648D01*
X143674972Y-136665534D01*
X143636478Y-136588547D01*
X143593095Y-136415013D01*
X143593095Y-136290624D01*
X143633463Y-136129152D01*
X144443684Y-136129152D01*
X144445758Y-136158342D01*
X144458845Y-136184517D01*
X144480953Y-136203690D01*
X144508714Y-136212944D01*
X144537904Y-136210870D01*
X144551636Y-136205615D01*
X144646874Y-136157996D01*
X144653173Y-136154031D01*
X144655001Y-136153274D01*
X144657057Y-136151585D01*
X144659317Y-136150164D01*
X144660616Y-136148665D01*
X144666366Y-136143947D01*
X144728809Y-136081504D01*
X144728809Y-136777819D01*
X144518095Y-136777819D01*
X144503463Y-136779260D01*
X144476427Y-136790459D01*
X144455735Y-136811151D01*
X144444536Y-136838187D01*
X144444536Y-136867451D01*
X144455735Y-136894487D01*
X144476427Y-136915179D01*
X144503463Y-136926378D01*
X144518095Y-136927819D01*
X145089523Y-136927819D01*
X145104155Y-136926378D01*
X145131191Y-136915179D01*
X145151883Y-136894487D01*
X145163082Y-136867451D01*
X145163082Y-136838187D01*
X145151883Y-136811151D01*
X145131191Y-136790459D01*
X145104155Y-136779260D01*
X145089523Y-136777819D01*
X144878809Y-136777819D01*
X144878809Y-136336249D01*
X145395826Y-136336249D01*
X145396917Y-136339864D01*
X145396917Y-136343640D01*
X145401111Y-136353765D01*
X145404279Y-136364265D01*
X145406670Y-136367188D01*
X145408116Y-136370677D01*
X145415869Y-136378430D01*
X145422810Y-136386913D01*
X145426136Y-136388697D01*
X145428808Y-136391369D01*
X145438935Y-136395564D01*
X145448597Y-136400747D01*
X145452356Y-136401122D01*
X145455845Y-136402568D01*
X145466806Y-136402568D01*
X145477716Y-136403659D01*
X145481332Y-136402568D01*
X145485107Y-136402568D01*
X145495232Y-136398373D01*
X145505732Y-136395206D01*
X145508655Y-136392814D01*
X145512144Y-136391369D01*
X145523509Y-136382042D01*
X145562522Y-136343029D01*
X145631038Y-136308771D01*
X145833723Y-136308771D01*
X145902239Y-136343029D01*
X145932646Y-136373436D01*
X145966904Y-136441952D01*
X145966904Y-136644637D01*
X145932645Y-136713153D01*
X145902238Y-136743561D01*
X145833723Y-136777819D01*
X145631038Y-136777819D01*
X145562522Y-136743561D01*
X145523510Y-136704548D01*
X145512144Y-136695220D01*
X145485108Y-136684021D01*
X145455845Y-136684021D01*
X145428809Y-136695219D01*
X145408116Y-136715912D01*
X145396917Y-136742948D01*
X145396917Y-136772211D01*
X145408115Y-136799247D01*
X145417442Y-136810612D01*
X145465061Y-136858232D01*
X145470810Y-136862950D01*
X145472111Y-136864450D01*
X145474370Y-136865872D01*
X145476427Y-136867560D01*
X145478254Y-136868317D01*
X145484554Y-136872282D01*
X145579792Y-136919901D01*
X145593523Y-136925156D01*
X145596212Y-136925347D01*
X145598701Y-136926378D01*
X145613333Y-136927819D01*
X145851428Y-136927819D01*
X145866060Y-136926378D01*
X145868549Y-136925346D01*
X145871237Y-136925156D01*
X145884969Y-136919901D01*
X145980207Y-136872282D01*
X145986506Y-136868317D01*
X145988334Y-136867560D01*
X145990390Y-136865872D01*
X145992650Y-136864450D01*
X145993950Y-136862950D01*
X145999700Y-136858232D01*
X146047318Y-136810613D01*
X146052036Y-136804863D01*
X146053535Y-136803564D01*
X146054956Y-136801305D01*
X146056646Y-136799247D01*
X146057403Y-136797417D01*
X146061367Y-136791121D01*
X146108986Y-136695883D01*
X146114241Y-136682152D01*
X146114432Y-136679462D01*
X146115463Y-136676974D01*
X146116904Y-136662342D01*
X146116904Y-136424247D01*
X146115463Y-136409615D01*
X146114432Y-136407126D01*
X146114241Y-136404437D01*
X146108986Y-136390706D01*
X146061367Y-136295468D01*
X146057402Y-136289168D01*
X146056645Y-136287341D01*
X146054956Y-136285284D01*
X146053535Y-136283025D01*
X146052036Y-136281725D01*
X146047318Y-136275976D01*
X145999699Y-136228357D01*
X145993949Y-136223638D01*
X145992650Y-136222140D01*
X145990390Y-136220718D01*
X145988334Y-136219030D01*
X145986506Y-136218272D01*
X145980207Y-136214308D01*
X145884969Y-136166689D01*
X145871237Y-136161434D01*
X145868549Y-136161243D01*
X145866060Y-136160212D01*
X145851428Y-136158771D01*
X145613333Y-136158771D01*
X145598701Y-136160212D01*
X145596212Y-136161242D01*
X145593523Y-136161434D01*
X145579792Y-136166689D01*
X145561150Y-136176009D01*
X145585969Y-135927819D01*
X145994285Y-135927819D01*
X146008917Y-135926378D01*
X146035953Y-135915179D01*
X146056645Y-135894487D01*
X146067844Y-135867451D01*
X146067844Y-135838187D01*
X146056645Y-135811151D01*
X146035953Y-135790459D01*
X146008917Y-135779260D01*
X145994285Y-135777819D01*
X145518095Y-135777819D01*
X145512683Y-135778351D01*
X145510855Y-135778169D01*
X145509068Y-135778707D01*
X145503463Y-135779260D01*
X145493336Y-135783454D01*
X145482839Y-135786622D01*
X145479915Y-135789013D01*
X145476427Y-135790459D01*
X145468673Y-135798212D01*
X145460191Y-135805153D01*
X145458406Y-135808479D01*
X145455735Y-135811151D01*
X145451539Y-135821280D01*
X145446357Y-135830940D01*
X145445249Y-135836464D01*
X145444536Y-135838187D01*
X145444536Y-135840023D01*
X145443467Y-135845356D01*
X145395848Y-136321546D01*
X145395826Y-136336249D01*
X144878809Y-136336249D01*
X144878809Y-135852819D01*
X144878803Y-135852766D01*
X144878809Y-135852740D01*
X144878793Y-135852663D01*
X144877368Y-135838187D01*
X144874526Y-135831326D01*
X144873070Y-135824045D01*
X144868980Y-135817938D01*
X144866169Y-135811151D01*
X144860920Y-135805902D01*
X144856787Y-135799730D01*
X144850670Y-135795652D01*
X144845477Y-135790459D01*
X144838617Y-135787617D01*
X144832438Y-135783498D01*
X144825229Y-135782072D01*
X144818441Y-135779260D01*
X144811014Y-135779260D01*
X144803730Y-135777819D01*
X144796525Y-135779260D01*
X144789177Y-135779260D01*
X144782316Y-135782101D01*
X144775036Y-135783558D01*
X144768930Y-135787646D01*
X144762141Y-135790459D01*
X144756890Y-135795709D01*
X144750721Y-135799841D01*
X144741500Y-135811099D01*
X144741449Y-135811151D01*
X144741439Y-135811173D01*
X144741405Y-135811216D01*
X144650285Y-135947896D01*
X144568906Y-136029275D01*
X144484554Y-136071451D01*
X144472111Y-136079283D01*
X144452938Y-136101391D01*
X144443684Y-136129152D01*
X143633463Y-136129152D01*
X143636478Y-136117090D01*
X143674972Y-136040103D01*
X143749085Y-135965990D01*
X143863598Y-135927819D01*
X143934496Y-135927819D01*
X144049009Y-135965990D01*
X144084109Y-136001090D01*
X144095474Y-136010417D01*
X144122510Y-136021616D01*
X144151773Y-136021616D01*
X144178809Y-136010417D01*
X144199502Y-135989724D01*
X144210701Y-135962688D01*
X144210701Y-135933425D01*
X144199502Y-135906389D01*
X144190175Y-135895024D01*
X144142556Y-135847405D01*
X144131191Y-135838078D01*
X144128700Y-135837046D01*
X144126665Y-135835281D01*
X144113240Y-135829287D01*
X143970383Y-135781668D01*
X143963129Y-135780018D01*
X143961298Y-135779260D01*
X143958643Y-135778998D01*
X143956046Y-135778408D01*
X143954071Y-135778548D01*
X143946666Y-135777819D01*
X143851428Y-135777819D01*
X143844021Y-135778548D01*
X143842047Y-135778408D01*
X143839449Y-135778998D01*
X143836796Y-135779260D01*
X143834965Y-135780018D01*
X143827710Y-135781668D01*
X143684854Y-135829287D01*
X143671428Y-135835281D01*
X143669393Y-135837045D01*
X143666903Y-135838077D01*
X143655538Y-135847405D01*
X143560300Y-135942643D01*
X143555581Y-135948392D01*
X143554083Y-135949692D01*
X143552661Y-135951951D01*
X143550973Y-135954008D01*
X143550215Y-135955835D01*
X143546251Y-135962135D01*
X143498632Y-136057373D01*
X143498222Y-136058442D01*
X143497900Y-136058878D01*
X143495714Y-136064997D01*
X143493377Y-136071105D01*
X143493338Y-136071644D01*
X143492953Y-136072724D01*
X143445334Y-136263200D01*
X143444958Y-136265736D01*
X143444536Y-136266758D01*
X143443993Y-136272270D01*
X143443184Y-136277744D01*
X143443346Y-136278836D01*
X143443095Y-136281390D01*
X143331984Y-136281390D01*
X143331984Y-135666708D01*
X146228015Y-135666708D01*
X146228015Y-137038930D01*
G37*
G36*
X71765096Y-117064077D02*
G01*
X71795503Y-117094484D01*
X71829761Y-117163000D01*
X71829761Y-117270447D01*
X71795503Y-117338963D01*
X71765096Y-117369370D01*
X71696580Y-117403628D01*
X71408333Y-117403628D01*
X71408333Y-117029819D01*
X71696580Y-117029819D01*
X71765096Y-117064077D01*
G37*
G36*
X73898955Y-118140930D02*
G01*
X71147222Y-118140930D01*
X71147222Y-116954819D01*
X71258333Y-116954819D01*
X71258333Y-117954819D01*
X71259774Y-117969451D01*
X71270973Y-117996487D01*
X71291665Y-118017179D01*
X71318701Y-118028378D01*
X71347965Y-118028378D01*
X71375001Y-118017179D01*
X71395693Y-117996487D01*
X71406892Y-117969451D01*
X71408333Y-117954819D01*
X71408333Y-117553628D01*
X71532379Y-117553628D01*
X71843319Y-117997829D01*
X71852890Y-118008989D01*
X71877569Y-118024716D01*
X71906386Y-118029802D01*
X71934957Y-118023472D01*
X71958931Y-118006690D01*
X71974658Y-117982012D01*
X71979743Y-117953194D01*
X71973414Y-117924623D01*
X71966204Y-117911810D01*
X71715400Y-117553518D01*
X71728917Y-117552187D01*
X71731406Y-117551155D01*
X71734094Y-117550965D01*
X71747826Y-117545710D01*
X71843064Y-117498091D01*
X71849363Y-117494126D01*
X71851191Y-117493369D01*
X71853247Y-117491680D01*
X71855507Y-117490259D01*
X71856806Y-117488760D01*
X71862556Y-117484042D01*
X71910175Y-117436423D01*
X71914893Y-117430673D01*
X71916392Y-117429374D01*
X71917813Y-117427114D01*
X71919502Y-117425058D01*
X71920259Y-117423230D01*
X71924224Y-117416931D01*
X71971843Y-117321693D01*
X71977098Y-117307962D01*
X71977289Y-117305272D01*
X71978320Y-117302784D01*
X71979761Y-117288152D01*
X71979761Y-117145295D01*
X71978320Y-117130663D01*
X71977289Y-117128174D01*
X71977098Y-117125485D01*
X71971843Y-117111754D01*
X71924224Y-117016516D01*
X71920259Y-117010216D01*
X71919502Y-117008389D01*
X71917813Y-117006332D01*
X71916392Y-117004073D01*
X71914893Y-117002773D01*
X71910175Y-116997024D01*
X71877350Y-116964199D01*
X72116065Y-116964199D01*
X72119325Y-116978536D01*
X72452658Y-117978536D01*
X72458652Y-117991961D01*
X72462162Y-117996008D01*
X72464559Y-118000802D01*
X72471667Y-118006967D01*
X72477826Y-118014068D01*
X72482615Y-118016462D01*
X72486666Y-118019976D01*
X72495591Y-118022950D01*
X72503999Y-118027155D01*
X72509343Y-118027534D01*
X72514429Y-118029230D01*
X72523809Y-118028563D01*
X72533189Y-118029230D01*
X72538274Y-118027534D01*
X72543619Y-118027155D01*
X72552029Y-118022949D01*
X72560951Y-118019976D01*
X72564998Y-118016465D01*
X72569792Y-118014069D01*
X72575955Y-118006963D01*
X72583059Y-118000802D01*
X72585454Y-117996010D01*
X72588966Y-117991962D01*
X72594960Y-117978536D01*
X72844088Y-117231152D01*
X73068446Y-117231152D01*
X73070520Y-117260342D01*
X73083607Y-117286517D01*
X73105715Y-117305690D01*
X73133476Y-117314944D01*
X73162666Y-117312870D01*
X73176398Y-117307615D01*
X73271636Y-117259996D01*
X73277935Y-117256031D01*
X73279763Y-117255274D01*
X73281819Y-117253585D01*
X73284079Y-117252164D01*
X73285378Y-117250665D01*
X73291128Y-117245947D01*
X73353571Y-117183504D01*
X73353571Y-117879819D01*
X73142857Y-117879819D01*
X73128225Y-117881260D01*
X73101189Y-117892459D01*
X73080497Y-117913151D01*
X73069298Y-117940187D01*
X73069298Y-117969451D01*
X73080497Y-117996487D01*
X73101189Y-118017179D01*
X73128225Y-118028378D01*
X73142857Y-118029819D01*
X73714285Y-118029819D01*
X73728917Y-118028378D01*
X73755953Y-118017179D01*
X73776645Y-117996487D01*
X73787844Y-117969451D01*
X73787844Y-117940187D01*
X73776645Y-117913151D01*
X73755953Y-117892459D01*
X73728917Y-117881260D01*
X73714285Y-117879819D01*
X73503571Y-117879819D01*
X73503571Y-116954819D01*
X73503565Y-116954766D01*
X73503571Y-116954740D01*
X73503555Y-116954663D01*
X73502130Y-116940187D01*
X73499288Y-116933326D01*
X73497832Y-116926045D01*
X73493742Y-116919938D01*
X73490931Y-116913151D01*
X73485682Y-116907902D01*
X73481549Y-116901730D01*
X73475432Y-116897652D01*
X73470239Y-116892459D01*
X73463379Y-116889617D01*
X73457200Y-116885498D01*
X73449991Y-116884072D01*
X73443203Y-116881260D01*
X73435776Y-116881260D01*
X73428492Y-116879819D01*
X73421287Y-116881260D01*
X73413939Y-116881260D01*
X73407078Y-116884101D01*
X73399798Y-116885558D01*
X73393692Y-116889646D01*
X73386903Y-116892459D01*
X73381652Y-116897709D01*
X73375483Y-116901841D01*
X73366262Y-116913099D01*
X73366211Y-116913151D01*
X73366201Y-116913173D01*
X73366167Y-116913216D01*
X73275047Y-117049896D01*
X73193668Y-117131275D01*
X73109316Y-117173451D01*
X73096873Y-117181283D01*
X73077700Y-117203391D01*
X73068446Y-117231152D01*
X72844088Y-117231152D01*
X72928293Y-116978536D01*
X72931553Y-116964200D01*
X72929478Y-116935010D01*
X72916392Y-116908836D01*
X72894284Y-116889662D01*
X72866522Y-116880408D01*
X72837332Y-116882483D01*
X72811159Y-116895570D01*
X72791985Y-116917677D01*
X72785991Y-116931102D01*
X72523809Y-117717648D01*
X72261627Y-116931102D01*
X72255633Y-116917676D01*
X72236459Y-116895569D01*
X72210286Y-116882483D01*
X72181096Y-116880408D01*
X72153333Y-116889662D01*
X72131226Y-116908836D01*
X72118140Y-116935009D01*
X72116065Y-116964199D01*
X71877350Y-116964199D01*
X71862556Y-116949405D01*
X71856806Y-116944686D01*
X71855507Y-116943188D01*
X71853247Y-116941766D01*
X71851191Y-116940078D01*
X71849363Y-116939320D01*
X71843064Y-116935356D01*
X71747826Y-116887737D01*
X71734094Y-116882482D01*
X71731406Y-116882291D01*
X71728917Y-116881260D01*
X71714285Y-116879819D01*
X71333333Y-116879819D01*
X71318701Y-116881260D01*
X71291665Y-116892459D01*
X71270973Y-116913151D01*
X71259774Y-116940187D01*
X71258333Y-116954819D01*
X71147222Y-116954819D01*
X71147222Y-116768708D01*
X73898955Y-116768708D01*
X73898955Y-118140930D01*
G37*
G36*
X80970384Y-123140930D02*
G01*
X79028175Y-123140930D01*
X79028175Y-122383390D01*
X79139286Y-122383390D01*
X79139286Y-122526247D01*
X79139537Y-122528800D01*
X79139375Y-122529893D01*
X79140184Y-122535366D01*
X79140727Y-122540879D01*
X79141149Y-122541900D01*
X79141525Y-122544437D01*
X79189144Y-122734913D01*
X79189529Y-122735992D01*
X79189568Y-122736532D01*
X79191895Y-122742613D01*
X79194091Y-122748759D01*
X79194413Y-122749194D01*
X79194823Y-122750264D01*
X79242442Y-122845502D01*
X79246405Y-122851798D01*
X79247163Y-122853628D01*
X79248852Y-122855686D01*
X79250274Y-122857945D01*
X79251772Y-122859244D01*
X79256491Y-122864994D01*
X79351729Y-122960233D01*
X79363094Y-122969561D01*
X79365584Y-122970592D01*
X79367619Y-122972357D01*
X79381045Y-122978351D01*
X79523901Y-123025970D01*
X79531156Y-123027619D01*
X79532987Y-123028378D01*
X79535640Y-123028639D01*
X79538238Y-123029230D01*
X79540212Y-123029089D01*
X79547619Y-123029819D01*
X79642857Y-123029819D01*
X79650262Y-123029089D01*
X79652237Y-123029230D01*
X79654834Y-123028639D01*
X79657489Y-123028378D01*
X79659320Y-123027619D01*
X79666574Y-123025970D01*
X79809431Y-122978351D01*
X79822856Y-122972357D01*
X79824891Y-122970591D01*
X79827382Y-122969560D01*
X79838748Y-122960232D01*
X79886366Y-122912613D01*
X79895694Y-122901247D01*
X79906892Y-122874211D01*
X79906892Y-122844948D01*
X79895693Y-122817912D01*
X79875000Y-122797219D01*
X79847964Y-122786021D01*
X79818701Y-122786021D01*
X79791665Y-122797220D01*
X79780299Y-122806548D01*
X79745200Y-122841647D01*
X79630687Y-122879819D01*
X79559789Y-122879819D01*
X79445276Y-122841648D01*
X79371163Y-122767534D01*
X79332669Y-122690547D01*
X79289286Y-122517013D01*
X79289286Y-122392624D01*
X79329654Y-122231152D01*
X80139875Y-122231152D01*
X80141949Y-122260342D01*
X80155036Y-122286517D01*
X80177144Y-122305690D01*
X80204905Y-122314944D01*
X80234095Y-122312870D01*
X80247827Y-122307615D01*
X80343065Y-122259996D01*
X80349364Y-122256031D01*
X80351192Y-122255274D01*
X80353248Y-122253585D01*
X80355508Y-122252164D01*
X80356807Y-122250665D01*
X80362557Y-122245947D01*
X80425000Y-122183504D01*
X80425000Y-122879819D01*
X80214286Y-122879819D01*
X80199654Y-122881260D01*
X80172618Y-122892459D01*
X80151926Y-122913151D01*
X80140727Y-122940187D01*
X80140727Y-122969451D01*
X80151926Y-122996487D01*
X80172618Y-123017179D01*
X80199654Y-123028378D01*
X80214286Y-123029819D01*
X80785714Y-123029819D01*
X80800346Y-123028378D01*
X80827382Y-123017179D01*
X80848074Y-122996487D01*
X80859273Y-122969451D01*
X80859273Y-122940187D01*
X80848074Y-122913151D01*
X80827382Y-122892459D01*
X80800346Y-122881260D01*
X80785714Y-122879819D01*
X80575000Y-122879819D01*
X80575000Y-121954819D01*
X80574994Y-121954766D01*
X80575000Y-121954740D01*
X80574984Y-121954663D01*
X80573559Y-121940187D01*
X80570717Y-121933326D01*
X80569261Y-121926045D01*
X80565171Y-121919938D01*
X80562360Y-121913151D01*
X80557111Y-121907902D01*
X80552978Y-121901730D01*
X80546861Y-121897652D01*
X80541668Y-121892459D01*
X80534808Y-121889617D01*
X80528629Y-121885498D01*
X80521420Y-121884072D01*
X80514632Y-121881260D01*
X80507205Y-121881260D01*
X80499921Y-121879819D01*
X80492716Y-121881260D01*
X80485368Y-121881260D01*
X80478507Y-121884101D01*
X80471227Y-121885558D01*
X80465121Y-121889646D01*
X80458332Y-121892459D01*
X80453081Y-121897709D01*
X80446912Y-121901841D01*
X80437691Y-121913099D01*
X80437640Y-121913151D01*
X80437630Y-121913173D01*
X80437596Y-121913216D01*
X80346476Y-122049896D01*
X80265097Y-122131275D01*
X80180745Y-122173451D01*
X80168302Y-122181283D01*
X80149129Y-122203391D01*
X80139875Y-122231152D01*
X79329654Y-122231152D01*
X79332669Y-122219090D01*
X79371163Y-122142103D01*
X79445276Y-122067990D01*
X79559789Y-122029819D01*
X79630687Y-122029819D01*
X79745200Y-122067990D01*
X79780300Y-122103090D01*
X79791665Y-122112417D01*
X79818701Y-122123616D01*
X79847964Y-122123616D01*
X79875000Y-122112417D01*
X79895693Y-122091724D01*
X79906892Y-122064688D01*
X79906892Y-122035425D01*
X79895693Y-122008389D01*
X79886366Y-121997024D01*
X79838747Y-121949405D01*
X79827382Y-121940078D01*
X79824891Y-121939046D01*
X79822856Y-121937281D01*
X79809431Y-121931287D01*
X79666574Y-121883668D01*
X79659320Y-121882018D01*
X79657489Y-121881260D01*
X79654834Y-121880998D01*
X79652237Y-121880408D01*
X79650262Y-121880548D01*
X79642857Y-121879819D01*
X79547619Y-121879819D01*
X79540212Y-121880548D01*
X79538238Y-121880408D01*
X79535640Y-121880998D01*
X79532987Y-121881260D01*
X79531156Y-121882018D01*
X79523901Y-121883668D01*
X79381045Y-121931287D01*
X79367619Y-121937281D01*
X79365584Y-121939045D01*
X79363094Y-121940077D01*
X79351729Y-121949405D01*
X79256491Y-122044643D01*
X79251772Y-122050392D01*
X79250274Y-122051692D01*
X79248852Y-122053951D01*
X79247164Y-122056008D01*
X79246406Y-122057835D01*
X79242442Y-122064135D01*
X79194823Y-122159373D01*
X79194413Y-122160442D01*
X79194091Y-122160878D01*
X79191905Y-122166997D01*
X79189568Y-122173105D01*
X79189529Y-122173644D01*
X79189144Y-122174724D01*
X79141525Y-122365200D01*
X79141149Y-122367736D01*
X79140727Y-122368758D01*
X79140184Y-122374270D01*
X79139375Y-122379744D01*
X79139537Y-122380836D01*
X79139286Y-122383390D01*
X79028175Y-122383390D01*
X79028175Y-121768708D01*
X80970384Y-121768708D01*
X80970384Y-123140930D01*
G37*
G36*
X106096015Y-130434930D02*
G01*
X103199984Y-130434930D01*
X103199984Y-129677390D01*
X103311095Y-129677390D01*
X103311095Y-129820247D01*
X103311346Y-129822800D01*
X103311184Y-129823893D01*
X103311993Y-129829366D01*
X103312536Y-129834879D01*
X103312958Y-129835900D01*
X103313334Y-129838437D01*
X103360953Y-130028913D01*
X103361338Y-130029992D01*
X103361377Y-130030532D01*
X103363704Y-130036613D01*
X103365900Y-130042759D01*
X103366222Y-130043194D01*
X103366632Y-130044264D01*
X103414251Y-130139502D01*
X103418214Y-130145798D01*
X103418972Y-130147628D01*
X103420661Y-130149686D01*
X103422083Y-130151945D01*
X103423581Y-130153244D01*
X103428300Y-130158994D01*
X103523538Y-130254233D01*
X103534903Y-130263561D01*
X103537393Y-130264592D01*
X103539428Y-130266357D01*
X103552854Y-130272351D01*
X103695710Y-130319970D01*
X103702965Y-130321619D01*
X103704796Y-130322378D01*
X103707449Y-130322639D01*
X103710047Y-130323230D01*
X103712021Y-130323089D01*
X103719428Y-130323819D01*
X103814666Y-130323819D01*
X103822071Y-130323089D01*
X103824046Y-130323230D01*
X103826643Y-130322639D01*
X103829298Y-130322378D01*
X103831129Y-130321619D01*
X103838383Y-130319970D01*
X103981240Y-130272351D01*
X103994665Y-130266357D01*
X103996700Y-130264591D01*
X103999191Y-130263560D01*
X104010557Y-130254232D01*
X104058175Y-130206613D01*
X104067503Y-130195247D01*
X104078701Y-130168211D01*
X104078701Y-130138948D01*
X104067502Y-130111912D01*
X104046809Y-130091219D01*
X104019773Y-130080021D01*
X103990510Y-130080021D01*
X103963474Y-130091220D01*
X103952108Y-130100548D01*
X103917009Y-130135647D01*
X103802496Y-130173819D01*
X103731598Y-130173819D01*
X103617085Y-130135648D01*
X103542972Y-130061534D01*
X103504478Y-129984547D01*
X103461095Y-129811013D01*
X103461095Y-129686624D01*
X103501463Y-129525152D01*
X104311684Y-129525152D01*
X104313758Y-129554342D01*
X104326845Y-129580517D01*
X104348953Y-129599690D01*
X104376714Y-129608944D01*
X104405904Y-129606870D01*
X104419636Y-129601615D01*
X104514874Y-129553996D01*
X104521173Y-129550031D01*
X104523001Y-129549274D01*
X104525057Y-129547585D01*
X104527317Y-129546164D01*
X104528616Y-129544665D01*
X104534366Y-129539947D01*
X104596809Y-129477504D01*
X104596809Y-130173819D01*
X104386095Y-130173819D01*
X104371463Y-130175260D01*
X104344427Y-130186459D01*
X104323735Y-130207151D01*
X104312536Y-130234187D01*
X104312536Y-130263451D01*
X104323735Y-130290487D01*
X104344427Y-130311179D01*
X104371463Y-130322378D01*
X104386095Y-130323819D01*
X104957523Y-130323819D01*
X104972155Y-130322378D01*
X104999191Y-130311179D01*
X105019883Y-130290487D01*
X105031082Y-130263451D01*
X105031082Y-130234187D01*
X105019883Y-130207151D01*
X104999191Y-130186459D01*
X104972155Y-130175260D01*
X104957523Y-130173819D01*
X104746809Y-130173819D01*
X104746809Y-129248819D01*
X104746803Y-129248766D01*
X104746809Y-129248740D01*
X104746793Y-129248663D01*
X104745368Y-129234187D01*
X105217298Y-129234187D01*
X105217298Y-129263451D01*
X105228497Y-129290487D01*
X105249189Y-129311179D01*
X105276225Y-129322378D01*
X105290857Y-129323819D01*
X105744622Y-129323819D01*
X105520128Y-129580383D01*
X105515606Y-129586707D01*
X105514211Y-129588103D01*
X105513662Y-129589426D01*
X105511577Y-129592344D01*
X105507675Y-129603881D01*
X105503012Y-129615139D01*
X105503012Y-129617669D01*
X105502202Y-129620065D01*
X105503012Y-129632218D01*
X105503012Y-129644403D01*
X105503979Y-129646739D01*
X105504148Y-129649263D01*
X105509550Y-129660188D01*
X105514211Y-129671439D01*
X105515997Y-129673225D01*
X105517120Y-129675495D01*
X105526292Y-129683520D01*
X105534903Y-129692131D01*
X105537239Y-129693099D01*
X105539144Y-129694765D01*
X105550681Y-129698666D01*
X105561939Y-129703330D01*
X105565509Y-129703681D01*
X105566865Y-129704140D01*
X105568832Y-129704008D01*
X105576571Y-129704771D01*
X105701723Y-129704771D01*
X105770239Y-129739029D01*
X105800646Y-129769436D01*
X105834904Y-129837952D01*
X105834904Y-130040637D01*
X105800645Y-130109153D01*
X105770238Y-130139561D01*
X105701723Y-130173819D01*
X105451419Y-130173819D01*
X105382903Y-130139561D01*
X105343891Y-130100548D01*
X105332525Y-130091220D01*
X105305489Y-130080021D01*
X105276226Y-130080021D01*
X105249190Y-130091219D01*
X105228497Y-130111912D01*
X105217298Y-130138948D01*
X105217298Y-130168211D01*
X105228496Y-130195247D01*
X105237823Y-130206612D01*
X105285442Y-130254232D01*
X105291191Y-130258950D01*
X105292492Y-130260450D01*
X105294751Y-130261872D01*
X105296808Y-130263560D01*
X105298635Y-130264317D01*
X105304935Y-130268282D01*
X105400173Y-130315901D01*
X105413904Y-130321156D01*
X105416593Y-130321347D01*
X105419082Y-130322378D01*
X105433714Y-130323819D01*
X105719428Y-130323819D01*
X105734060Y-130322378D01*
X105736549Y-130321346D01*
X105739237Y-130321156D01*
X105752969Y-130315901D01*
X105848207Y-130268282D01*
X105854506Y-130264317D01*
X105856334Y-130263560D01*
X105858390Y-130261872D01*
X105860650Y-130260450D01*
X105861950Y-130258950D01*
X105867700Y-130254232D01*
X105915318Y-130206613D01*
X105920036Y-130200863D01*
X105921535Y-130199564D01*
X105922956Y-130197305D01*
X105924646Y-130195247D01*
X105925403Y-130193417D01*
X105929367Y-130187121D01*
X105976986Y-130091883D01*
X105982241Y-130078152D01*
X105982432Y-130075462D01*
X105983463Y-130072974D01*
X105984904Y-130058342D01*
X105984904Y-129820247D01*
X105983463Y-129805615D01*
X105982432Y-129803126D01*
X105982241Y-129800437D01*
X105976986Y-129786706D01*
X105929367Y-129691468D01*
X105925402Y-129685168D01*
X105924645Y-129683341D01*
X105922956Y-129681284D01*
X105921535Y-129679025D01*
X105920036Y-129677725D01*
X105915318Y-129671976D01*
X105867699Y-129624357D01*
X105861949Y-129619638D01*
X105860650Y-129618140D01*
X105858390Y-129616718D01*
X105856334Y-129615030D01*
X105854506Y-129614272D01*
X105848207Y-129610308D01*
X105752969Y-129562689D01*
X105739451Y-129557516D01*
X105966347Y-129298207D01*
X105970868Y-129291882D01*
X105972264Y-129290487D01*
X105972812Y-129289163D01*
X105974898Y-129286246D01*
X105978799Y-129274708D01*
X105983463Y-129263451D01*
X105983463Y-129260920D01*
X105984273Y-129258525D01*
X105983463Y-129246371D01*
X105983463Y-129234187D01*
X105982495Y-129231850D01*
X105982327Y-129229327D01*
X105976924Y-129218401D01*
X105972264Y-129207151D01*
X105970477Y-129205364D01*
X105969355Y-129203095D01*
X105960182Y-129195069D01*
X105951572Y-129186459D01*
X105949235Y-129185490D01*
X105947331Y-129183825D01*
X105935793Y-129179923D01*
X105924536Y-129175260D01*
X105920965Y-129174908D01*
X105919610Y-129174450D01*
X105917642Y-129174581D01*
X105909904Y-129173819D01*
X105290857Y-129173819D01*
X105276225Y-129175260D01*
X105249189Y-129186459D01*
X105228497Y-129207151D01*
X105217298Y-129234187D01*
X104745368Y-129234187D01*
X104742526Y-129227326D01*
X104741070Y-129220045D01*
X104736980Y-129213938D01*
X104734169Y-129207151D01*
X104728920Y-129201902D01*
X104724787Y-129195730D01*
X104718670Y-129191652D01*
X104713477Y-129186459D01*
X104706617Y-129183617D01*
X104700438Y-129179498D01*
X104693229Y-129178072D01*
X104686441Y-129175260D01*
X104679014Y-129175260D01*
X104671730Y-129173819D01*
X104664525Y-129175260D01*
X104657177Y-129175260D01*
X104650316Y-129178101D01*
X104643036Y-129179558D01*
X104636930Y-129183646D01*
X104630141Y-129186459D01*
X104624890Y-129191709D01*
X104618721Y-129195841D01*
X104609500Y-129207099D01*
X104609449Y-129207151D01*
X104609439Y-129207173D01*
X104609405Y-129207216D01*
X104518285Y-129343896D01*
X104436906Y-129425275D01*
X104352554Y-129467451D01*
X104340111Y-129475283D01*
X104320938Y-129497391D01*
X104311684Y-129525152D01*
X103501463Y-129525152D01*
X103504478Y-129513090D01*
X103542972Y-129436103D01*
X103617085Y-129361990D01*
X103731598Y-129323819D01*
X103802496Y-129323819D01*
X103917009Y-129361990D01*
X103952109Y-129397090D01*
X103963474Y-129406417D01*
X103990510Y-129417616D01*
X104019773Y-129417616D01*
X104046809Y-129406417D01*
X104067502Y-129385724D01*
X104078701Y-129358688D01*
X104078701Y-129329425D01*
X104067502Y-129302389D01*
X104058175Y-129291024D01*
X104010556Y-129243405D01*
X103999191Y-129234078D01*
X103996700Y-129233046D01*
X103994665Y-129231281D01*
X103981240Y-129225287D01*
X103838383Y-129177668D01*
X103831129Y-129176018D01*
X103829298Y-129175260D01*
X103826643Y-129174998D01*
X103824046Y-129174408D01*
X103822071Y-129174548D01*
X103814666Y-129173819D01*
X103719428Y-129173819D01*
X103712021Y-129174548D01*
X103710047Y-129174408D01*
X103707449Y-129174998D01*
X103704796Y-129175260D01*
X103702965Y-129176018D01*
X103695710Y-129177668D01*
X103552854Y-129225287D01*
X103539428Y-129231281D01*
X103537393Y-129233045D01*
X103534903Y-129234077D01*
X103523538Y-129243405D01*
X103428300Y-129338643D01*
X103423581Y-129344392D01*
X103422083Y-129345692D01*
X103420661Y-129347951D01*
X103418973Y-129350008D01*
X103418215Y-129351835D01*
X103414251Y-129358135D01*
X103366632Y-129453373D01*
X103366222Y-129454442D01*
X103365900Y-129454878D01*
X103363714Y-129460997D01*
X103361377Y-129467105D01*
X103361338Y-129467644D01*
X103360953Y-129468724D01*
X103313334Y-129659200D01*
X103312958Y-129661736D01*
X103312536Y-129662758D01*
X103311993Y-129668270D01*
X103311184Y-129673744D01*
X103311346Y-129674836D01*
X103311095Y-129677390D01*
X103199984Y-129677390D01*
X103199984Y-129062708D01*
X106096015Y-129062708D01*
X106096015Y-130434930D01*
G37*
G36*
X122376587Y-80890930D02*
G01*
X120671032Y-80890930D01*
X120671032Y-79704819D01*
X120782143Y-79704819D01*
X120782143Y-80704819D01*
X120783584Y-80719451D01*
X120794783Y-80746487D01*
X120815475Y-80767179D01*
X120842511Y-80778378D01*
X120857143Y-80779819D01*
X121333333Y-80779819D01*
X121347965Y-80778378D01*
X121375001Y-80767179D01*
X121395693Y-80746487D01*
X121406892Y-80719451D01*
X121406892Y-80690187D01*
X121497870Y-80690187D01*
X121497870Y-80719451D01*
X121509069Y-80746487D01*
X121529761Y-80767179D01*
X121556797Y-80778378D01*
X121571429Y-80779819D01*
X122190476Y-80779819D01*
X122205108Y-80778378D01*
X122232144Y-80767179D01*
X122252836Y-80746487D01*
X122264035Y-80719451D01*
X122264035Y-80690187D01*
X122252836Y-80663151D01*
X122232144Y-80642459D01*
X122205108Y-80631260D01*
X122190476Y-80629819D01*
X121752495Y-80629819D01*
X122195890Y-80186423D01*
X122205218Y-80175058D01*
X122206249Y-80172567D01*
X122208014Y-80170533D01*
X122214008Y-80157107D01*
X122261627Y-80014251D01*
X122263276Y-80006995D01*
X122264035Y-80005165D01*
X122264296Y-80002511D01*
X122264887Y-79999914D01*
X122264746Y-79997939D01*
X122265476Y-79990533D01*
X122265476Y-79895295D01*
X122264035Y-79880663D01*
X122263004Y-79878174D01*
X122262813Y-79875485D01*
X122257558Y-79861754D01*
X122209939Y-79766516D01*
X122205974Y-79760216D01*
X122205217Y-79758389D01*
X122203528Y-79756332D01*
X122202107Y-79754073D01*
X122200608Y-79752773D01*
X122195890Y-79747024D01*
X122148271Y-79699405D01*
X122142521Y-79694686D01*
X122141222Y-79693188D01*
X122138962Y-79691766D01*
X122136906Y-79690078D01*
X122135078Y-79689320D01*
X122128779Y-79685356D01*
X122033541Y-79637737D01*
X122019809Y-79632482D01*
X122017121Y-79632291D01*
X122014632Y-79631260D01*
X122000000Y-79629819D01*
X121761905Y-79629819D01*
X121747273Y-79631260D01*
X121744784Y-79632290D01*
X121742095Y-79632482D01*
X121728364Y-79637737D01*
X121633126Y-79685356D01*
X121626826Y-79689320D01*
X121624999Y-79690078D01*
X121622942Y-79691766D01*
X121620683Y-79693188D01*
X121619383Y-79694686D01*
X121613634Y-79699405D01*
X121566015Y-79747024D01*
X121556688Y-79758389D01*
X121545489Y-79785426D01*
X121545489Y-79814688D01*
X121556688Y-79841725D01*
X121577380Y-79862417D01*
X121604417Y-79873616D01*
X121633679Y-79873616D01*
X121660716Y-79862417D01*
X121672081Y-79853090D01*
X121711094Y-79814077D01*
X121779610Y-79779819D01*
X121982295Y-79779819D01*
X122050811Y-79814077D01*
X122081218Y-79844484D01*
X122115476Y-79913000D01*
X122115476Y-79978363D01*
X122077304Y-80092876D01*
X121518396Y-80651786D01*
X121509069Y-80663151D01*
X121497870Y-80690187D01*
X121406892Y-80690187D01*
X121395693Y-80663151D01*
X121375001Y-80642459D01*
X121347965Y-80631260D01*
X121333333Y-80629819D01*
X120932143Y-80629819D01*
X120932143Y-79704819D01*
X120930702Y-79690187D01*
X120919503Y-79663151D01*
X120898811Y-79642459D01*
X120871775Y-79631260D01*
X120842511Y-79631260D01*
X120815475Y-79642459D01*
X120794783Y-79663151D01*
X120783584Y-79690187D01*
X120782143Y-79704819D01*
X120671032Y-79704819D01*
X120671032Y-79518708D01*
X122376587Y-79518708D01*
X122376587Y-80890930D01*
G37*
G36*
X92061146Y-93858930D02*
G01*
X90357032Y-93858930D01*
X90357032Y-92672819D01*
X90468143Y-92672819D01*
X90468143Y-93672819D01*
X90469584Y-93687451D01*
X90480783Y-93714487D01*
X90501475Y-93735179D01*
X90528511Y-93746378D01*
X90543143Y-93747819D01*
X91019333Y-93747819D01*
X91033965Y-93746378D01*
X91061001Y-93735179D01*
X91081693Y-93714487D01*
X91092892Y-93687451D01*
X91092892Y-93658187D01*
X91081693Y-93631151D01*
X91061001Y-93610459D01*
X91033965Y-93599260D01*
X91019333Y-93597819D01*
X90618143Y-93597819D01*
X90618143Y-92949152D01*
X91230637Y-92949152D01*
X91232711Y-92978342D01*
X91245798Y-93004517D01*
X91267906Y-93023690D01*
X91295667Y-93032944D01*
X91324857Y-93030870D01*
X91338589Y-93025615D01*
X91433827Y-92977996D01*
X91440126Y-92974031D01*
X91441954Y-92973274D01*
X91444010Y-92971585D01*
X91446270Y-92970164D01*
X91447569Y-92968665D01*
X91453319Y-92963947D01*
X91515762Y-92901504D01*
X91515762Y-93597819D01*
X91305048Y-93597819D01*
X91290416Y-93599260D01*
X91263380Y-93610459D01*
X91242688Y-93631151D01*
X91231489Y-93658187D01*
X91231489Y-93687451D01*
X91242688Y-93714487D01*
X91263380Y-93735179D01*
X91290416Y-93746378D01*
X91305048Y-93747819D01*
X91876476Y-93747819D01*
X91891108Y-93746378D01*
X91918144Y-93735179D01*
X91938836Y-93714487D01*
X91950035Y-93687451D01*
X91950035Y-93658187D01*
X91938836Y-93631151D01*
X91918144Y-93610459D01*
X91891108Y-93599260D01*
X91876476Y-93597819D01*
X91665762Y-93597819D01*
X91665762Y-92672819D01*
X91665756Y-92672766D01*
X91665762Y-92672740D01*
X91665746Y-92672663D01*
X91664321Y-92658187D01*
X91661479Y-92651326D01*
X91660023Y-92644045D01*
X91655933Y-92637938D01*
X91653122Y-92631151D01*
X91647873Y-92625902D01*
X91643740Y-92619730D01*
X91637623Y-92615652D01*
X91632430Y-92610459D01*
X91625570Y-92607617D01*
X91619391Y-92603498D01*
X91612182Y-92602072D01*
X91605394Y-92599260D01*
X91597967Y-92599260D01*
X91590683Y-92597819D01*
X91583478Y-92599260D01*
X91576130Y-92599260D01*
X91569269Y-92602101D01*
X91561989Y-92603558D01*
X91555883Y-92607646D01*
X91549094Y-92610459D01*
X91543843Y-92615709D01*
X91537674Y-92619841D01*
X91528453Y-92631099D01*
X91528402Y-92631151D01*
X91528392Y-92631173D01*
X91528358Y-92631216D01*
X91437238Y-92767896D01*
X91355859Y-92849275D01*
X91271507Y-92891451D01*
X91259064Y-92899283D01*
X91239891Y-92921391D01*
X91230637Y-92949152D01*
X90618143Y-92949152D01*
X90618143Y-92672819D01*
X90616702Y-92658187D01*
X90605503Y-92631151D01*
X90584811Y-92610459D01*
X90557775Y-92599260D01*
X90528511Y-92599260D01*
X90501475Y-92610459D01*
X90480783Y-92631151D01*
X90469584Y-92658187D01*
X90468143Y-92672819D01*
X90357032Y-92672819D01*
X90357032Y-92486708D01*
X92061146Y-92486708D01*
X92061146Y-93858930D01*
G37*
G36*
X86108003Y-124084930D02*
G01*
X84118175Y-124084930D01*
X84118175Y-123327390D01*
X84229286Y-123327390D01*
X84229286Y-123470247D01*
X84229537Y-123472800D01*
X84229375Y-123473893D01*
X84230184Y-123479366D01*
X84230727Y-123484879D01*
X84231149Y-123485900D01*
X84231525Y-123488437D01*
X84279144Y-123678913D01*
X84279529Y-123679992D01*
X84279568Y-123680532D01*
X84281895Y-123686613D01*
X84284091Y-123692759D01*
X84284413Y-123693194D01*
X84284823Y-123694264D01*
X84332442Y-123789502D01*
X84336405Y-123795798D01*
X84337163Y-123797628D01*
X84338852Y-123799686D01*
X84340274Y-123801945D01*
X84341772Y-123803244D01*
X84346491Y-123808994D01*
X84441729Y-123904233D01*
X84453094Y-123913561D01*
X84455584Y-123914592D01*
X84457619Y-123916357D01*
X84471045Y-123922351D01*
X84613901Y-123969970D01*
X84621156Y-123971619D01*
X84622987Y-123972378D01*
X84625640Y-123972639D01*
X84628238Y-123973230D01*
X84630212Y-123973089D01*
X84637619Y-123973819D01*
X84732857Y-123973819D01*
X84740262Y-123973089D01*
X84742237Y-123973230D01*
X84744834Y-123972639D01*
X84747489Y-123972378D01*
X84749320Y-123971619D01*
X84756574Y-123969970D01*
X84899431Y-123922351D01*
X84912856Y-123916357D01*
X84914891Y-123914591D01*
X84917382Y-123913560D01*
X84928748Y-123904232D01*
X84976366Y-123856613D01*
X84985694Y-123845247D01*
X84996892Y-123818211D01*
X84996892Y-123788948D01*
X84985693Y-123761912D01*
X84965000Y-123741219D01*
X84937964Y-123730021D01*
X84908701Y-123730021D01*
X84881665Y-123741220D01*
X84870299Y-123750548D01*
X84835200Y-123785647D01*
X84720687Y-123823819D01*
X84649789Y-123823819D01*
X84535276Y-123785648D01*
X84461163Y-123711534D01*
X84422669Y-123634547D01*
X84403059Y-123556105D01*
X85229875Y-123556105D01*
X85230727Y-123568090D01*
X85230727Y-123580117D01*
X85231759Y-123582608D01*
X85231950Y-123585295D01*
X85237324Y-123596044D01*
X85241926Y-123607153D01*
X85243831Y-123609058D01*
X85245036Y-123611468D01*
X85254118Y-123619345D01*
X85262618Y-123627845D01*
X85265106Y-123628875D01*
X85267143Y-123630642D01*
X85278546Y-123634443D01*
X85289654Y-123639044D01*
X85293480Y-123639420D01*
X85294906Y-123639896D01*
X85296880Y-123639755D01*
X85304286Y-123640485D01*
X85705476Y-123640485D01*
X85705476Y-123898819D01*
X85706917Y-123913451D01*
X85718116Y-123940487D01*
X85738808Y-123961179D01*
X85765844Y-123972378D01*
X85795108Y-123972378D01*
X85822144Y-123961179D01*
X85842836Y-123940487D01*
X85854035Y-123913451D01*
X85855476Y-123898819D01*
X85855476Y-123640485D01*
X85923333Y-123640485D01*
X85937965Y-123639044D01*
X85965001Y-123627845D01*
X85985693Y-123607153D01*
X85996892Y-123580117D01*
X85996892Y-123550853D01*
X85985693Y-123523817D01*
X85965001Y-123503125D01*
X85937965Y-123491926D01*
X85923333Y-123490485D01*
X85855476Y-123490485D01*
X85855476Y-123232152D01*
X85854035Y-123217520D01*
X85842836Y-123190484D01*
X85822144Y-123169792D01*
X85795108Y-123158593D01*
X85765844Y-123158593D01*
X85738808Y-123169792D01*
X85718116Y-123190484D01*
X85706917Y-123217520D01*
X85705476Y-123232152D01*
X85705476Y-123490485D01*
X85408343Y-123490485D01*
X85613532Y-122874918D01*
X85616792Y-122860581D01*
X85614717Y-122831391D01*
X85601631Y-122805217D01*
X85579523Y-122786043D01*
X85551761Y-122776789D01*
X85522571Y-122778864D01*
X85496398Y-122791951D01*
X85477224Y-122814058D01*
X85471230Y-122827483D01*
X85233135Y-123541768D01*
X85231485Y-123549021D01*
X85230727Y-123550853D01*
X85230727Y-123552358D01*
X85229875Y-123556105D01*
X84403059Y-123556105D01*
X84379286Y-123461013D01*
X84379286Y-123336624D01*
X84422669Y-123163090D01*
X84461163Y-123086103D01*
X84535276Y-123011990D01*
X84649789Y-122973819D01*
X84720687Y-122973819D01*
X84835200Y-123011990D01*
X84870300Y-123047090D01*
X84881665Y-123056417D01*
X84908701Y-123067616D01*
X84937964Y-123067616D01*
X84965000Y-123056417D01*
X84985693Y-123035724D01*
X84996892Y-123008688D01*
X84996892Y-122979425D01*
X84985693Y-122952389D01*
X84976366Y-122941024D01*
X84928747Y-122893405D01*
X84917382Y-122884078D01*
X84914891Y-122883046D01*
X84912856Y-122881281D01*
X84899431Y-122875287D01*
X84756574Y-122827668D01*
X84749320Y-122826018D01*
X84747489Y-122825260D01*
X84744834Y-122824998D01*
X84742237Y-122824408D01*
X84740262Y-122824548D01*
X84732857Y-122823819D01*
X84637619Y-122823819D01*
X84630212Y-122824548D01*
X84628238Y-122824408D01*
X84625640Y-122824998D01*
X84622987Y-122825260D01*
X84621156Y-122826018D01*
X84613901Y-122827668D01*
X84471045Y-122875287D01*
X84457619Y-122881281D01*
X84455584Y-122883045D01*
X84453094Y-122884077D01*
X84441729Y-122893405D01*
X84346491Y-122988643D01*
X84341772Y-122994392D01*
X84340274Y-122995692D01*
X84338852Y-122997951D01*
X84337164Y-123000008D01*
X84336406Y-123001835D01*
X84332442Y-123008135D01*
X84284823Y-123103373D01*
X84284413Y-123104442D01*
X84284091Y-123104878D01*
X84281895Y-123111023D01*
X84279568Y-123117105D01*
X84279529Y-123117644D01*
X84279144Y-123118724D01*
X84231525Y-123309200D01*
X84231149Y-123311736D01*
X84230727Y-123312758D01*
X84230184Y-123318270D01*
X84229375Y-123323744D01*
X84229537Y-123324836D01*
X84229286Y-123327390D01*
X84118175Y-123327390D01*
X84118175Y-122665678D01*
X86108003Y-122665678D01*
X86108003Y-124084930D01*
G37*
G36*
X105619825Y-102240930D02*
G01*
X103676175Y-102240930D01*
X103676175Y-101483390D01*
X103787286Y-101483390D01*
X103787286Y-101626247D01*
X103787537Y-101628800D01*
X103787375Y-101629893D01*
X103788184Y-101635366D01*
X103788727Y-101640879D01*
X103789149Y-101641900D01*
X103789525Y-101644437D01*
X103837144Y-101834913D01*
X103837529Y-101835992D01*
X103837568Y-101836532D01*
X103839895Y-101842613D01*
X103842091Y-101848759D01*
X103842413Y-101849194D01*
X103842823Y-101850264D01*
X103890442Y-101945502D01*
X103894405Y-101951798D01*
X103895163Y-101953628D01*
X103896852Y-101955686D01*
X103898274Y-101957945D01*
X103899772Y-101959244D01*
X103904491Y-101964994D01*
X103999729Y-102060233D01*
X104011094Y-102069561D01*
X104013584Y-102070592D01*
X104015619Y-102072357D01*
X104029045Y-102078351D01*
X104171901Y-102125970D01*
X104179156Y-102127619D01*
X104180987Y-102128378D01*
X104183640Y-102128639D01*
X104186238Y-102129230D01*
X104188212Y-102129089D01*
X104195619Y-102129819D01*
X104290857Y-102129819D01*
X104298262Y-102129089D01*
X104300237Y-102129230D01*
X104302834Y-102128639D01*
X104305489Y-102128378D01*
X104307320Y-102127619D01*
X104314574Y-102125970D01*
X104457431Y-102078351D01*
X104470856Y-102072357D01*
X104472891Y-102070591D01*
X104475382Y-102069560D01*
X104486748Y-102060232D01*
X104506793Y-102040187D01*
X104741108Y-102040187D01*
X104741108Y-102069451D01*
X104752307Y-102096487D01*
X104772999Y-102117179D01*
X104800035Y-102128378D01*
X104814667Y-102129819D01*
X105433714Y-102129819D01*
X105448346Y-102128378D01*
X105475382Y-102117179D01*
X105496074Y-102096487D01*
X105507273Y-102069451D01*
X105507273Y-102040187D01*
X105496074Y-102013151D01*
X105475382Y-101992459D01*
X105448346Y-101981260D01*
X105433714Y-101979819D01*
X104995733Y-101979819D01*
X105439128Y-101536423D01*
X105448456Y-101525058D01*
X105449487Y-101522567D01*
X105451252Y-101520533D01*
X105457246Y-101507107D01*
X105504865Y-101364251D01*
X105506514Y-101356995D01*
X105507273Y-101355165D01*
X105507534Y-101352511D01*
X105508125Y-101349914D01*
X105507984Y-101347939D01*
X105508714Y-101340533D01*
X105508714Y-101245295D01*
X105507273Y-101230663D01*
X105506242Y-101228174D01*
X105506051Y-101225485D01*
X105500796Y-101211754D01*
X105453177Y-101116516D01*
X105449212Y-101110216D01*
X105448455Y-101108389D01*
X105446766Y-101106332D01*
X105445345Y-101104073D01*
X105443846Y-101102773D01*
X105439128Y-101097024D01*
X105391509Y-101049405D01*
X105385759Y-101044686D01*
X105384460Y-101043188D01*
X105382200Y-101041766D01*
X105380144Y-101040078D01*
X105378316Y-101039320D01*
X105372017Y-101035356D01*
X105276779Y-100987737D01*
X105263047Y-100982482D01*
X105260359Y-100982291D01*
X105257870Y-100981260D01*
X105243238Y-100979819D01*
X105005143Y-100979819D01*
X104990511Y-100981260D01*
X104988022Y-100982290D01*
X104985333Y-100982482D01*
X104971602Y-100987737D01*
X104876364Y-101035356D01*
X104870064Y-101039320D01*
X104868237Y-101040078D01*
X104866180Y-101041766D01*
X104863921Y-101043188D01*
X104862621Y-101044686D01*
X104856872Y-101049405D01*
X104809253Y-101097024D01*
X104799926Y-101108389D01*
X104788727Y-101135426D01*
X104788727Y-101164688D01*
X104799926Y-101191725D01*
X104820618Y-101212417D01*
X104847655Y-101223616D01*
X104876917Y-101223616D01*
X104903954Y-101212417D01*
X104915319Y-101203090D01*
X104954332Y-101164077D01*
X105022848Y-101129819D01*
X105225533Y-101129819D01*
X105294049Y-101164077D01*
X105324456Y-101194484D01*
X105358714Y-101263000D01*
X105358714Y-101328363D01*
X105320542Y-101442876D01*
X104761634Y-102001786D01*
X104752307Y-102013151D01*
X104741108Y-102040187D01*
X104506793Y-102040187D01*
X104534366Y-102012613D01*
X104543694Y-102001247D01*
X104554892Y-101974211D01*
X104554892Y-101944948D01*
X104543693Y-101917912D01*
X104523000Y-101897219D01*
X104495964Y-101886021D01*
X104466701Y-101886021D01*
X104439665Y-101897220D01*
X104428299Y-101906548D01*
X104393200Y-101941647D01*
X104278687Y-101979819D01*
X104207789Y-101979819D01*
X104093276Y-101941648D01*
X104019163Y-101867534D01*
X103980669Y-101790547D01*
X103937286Y-101617013D01*
X103937286Y-101492624D01*
X103980669Y-101319090D01*
X104019163Y-101242103D01*
X104093276Y-101167990D01*
X104207789Y-101129819D01*
X104278687Y-101129819D01*
X104393200Y-101167990D01*
X104428300Y-101203090D01*
X104439665Y-101212417D01*
X104466701Y-101223616D01*
X104495964Y-101223616D01*
X104523000Y-101212417D01*
X104543693Y-101191724D01*
X104554892Y-101164688D01*
X104554892Y-101135425D01*
X104543693Y-101108389D01*
X104534366Y-101097024D01*
X104486747Y-101049405D01*
X104475382Y-101040078D01*
X104472891Y-101039046D01*
X104470856Y-101037281D01*
X104457431Y-101031287D01*
X104314574Y-100983668D01*
X104307320Y-100982018D01*
X104305489Y-100981260D01*
X104302834Y-100980998D01*
X104300237Y-100980408D01*
X104298262Y-100980548D01*
X104290857Y-100979819D01*
X104195619Y-100979819D01*
X104188212Y-100980548D01*
X104186238Y-100980408D01*
X104183640Y-100980998D01*
X104180987Y-100981260D01*
X104179156Y-100982018D01*
X104171901Y-100983668D01*
X104029045Y-101031287D01*
X104015619Y-101037281D01*
X104013584Y-101039045D01*
X104011094Y-101040077D01*
X103999729Y-101049405D01*
X103904491Y-101144643D01*
X103899772Y-101150392D01*
X103898274Y-101151692D01*
X103896852Y-101153951D01*
X103895164Y-101156008D01*
X103894406Y-101157835D01*
X103890442Y-101164135D01*
X103842823Y-101259373D01*
X103842413Y-101260442D01*
X103842091Y-101260878D01*
X103839895Y-101267023D01*
X103837568Y-101273105D01*
X103837529Y-101273644D01*
X103837144Y-101274724D01*
X103789525Y-101465200D01*
X103789149Y-101467736D01*
X103788727Y-101468758D01*
X103788184Y-101474270D01*
X103787375Y-101479744D01*
X103787537Y-101480836D01*
X103787286Y-101483390D01*
X103676175Y-101483390D01*
X103676175Y-100868708D01*
X105619825Y-100868708D01*
X105619825Y-102240930D01*
G37*
G36*
X92061825Y-124084930D02*
G01*
X90118175Y-124084930D01*
X90118175Y-123327390D01*
X90229286Y-123327390D01*
X90229286Y-123470247D01*
X90229537Y-123472800D01*
X90229375Y-123473893D01*
X90230184Y-123479366D01*
X90230727Y-123484879D01*
X90231149Y-123485900D01*
X90231525Y-123488437D01*
X90279144Y-123678913D01*
X90279529Y-123679992D01*
X90279568Y-123680532D01*
X90281895Y-123686613D01*
X90284091Y-123692759D01*
X90284413Y-123693194D01*
X90284823Y-123694264D01*
X90332442Y-123789502D01*
X90336405Y-123795798D01*
X90337163Y-123797628D01*
X90338852Y-123799686D01*
X90340274Y-123801945D01*
X90341772Y-123803244D01*
X90346491Y-123808994D01*
X90441729Y-123904233D01*
X90453094Y-123913561D01*
X90455584Y-123914592D01*
X90457619Y-123916357D01*
X90471045Y-123922351D01*
X90613901Y-123969970D01*
X90621156Y-123971619D01*
X90622987Y-123972378D01*
X90625640Y-123972639D01*
X90628238Y-123973230D01*
X90630212Y-123973089D01*
X90637619Y-123973819D01*
X90732857Y-123973819D01*
X90740262Y-123973089D01*
X90742237Y-123973230D01*
X90744834Y-123972639D01*
X90747489Y-123972378D01*
X90749320Y-123971619D01*
X90756574Y-123969970D01*
X90899431Y-123922351D01*
X90912856Y-123916357D01*
X90914891Y-123914591D01*
X90917382Y-123913560D01*
X90928748Y-123904232D01*
X90976366Y-123856613D01*
X90985694Y-123845247D01*
X90996892Y-123818211D01*
X90996892Y-123788948D01*
X90985693Y-123761912D01*
X90965000Y-123741219D01*
X90937964Y-123730021D01*
X90908701Y-123730021D01*
X90881665Y-123741220D01*
X90870299Y-123750548D01*
X90835200Y-123785647D01*
X90720687Y-123823819D01*
X90649789Y-123823819D01*
X90535276Y-123785648D01*
X90461163Y-123711534D01*
X90422669Y-123634547D01*
X90379286Y-123461013D01*
X90379286Y-123382249D01*
X91229636Y-123382249D01*
X91230727Y-123385864D01*
X91230727Y-123389640D01*
X91234921Y-123399765D01*
X91238089Y-123410265D01*
X91240480Y-123413188D01*
X91241926Y-123416677D01*
X91249679Y-123424430D01*
X91256620Y-123432913D01*
X91259946Y-123434697D01*
X91262618Y-123437369D01*
X91272745Y-123441564D01*
X91282407Y-123446747D01*
X91286166Y-123447122D01*
X91289655Y-123448568D01*
X91300616Y-123448568D01*
X91311526Y-123449659D01*
X91315142Y-123448568D01*
X91318917Y-123448568D01*
X91329042Y-123444373D01*
X91339542Y-123441206D01*
X91342465Y-123438814D01*
X91345954Y-123437369D01*
X91357319Y-123428042D01*
X91396332Y-123389029D01*
X91464848Y-123354771D01*
X91667533Y-123354771D01*
X91736049Y-123389029D01*
X91766456Y-123419436D01*
X91800714Y-123487952D01*
X91800714Y-123690637D01*
X91766455Y-123759153D01*
X91736048Y-123789561D01*
X91667533Y-123823819D01*
X91464848Y-123823819D01*
X91396332Y-123789561D01*
X91357320Y-123750548D01*
X91345954Y-123741220D01*
X91318918Y-123730021D01*
X91289655Y-123730021D01*
X91262619Y-123741219D01*
X91241926Y-123761912D01*
X91230727Y-123788948D01*
X91230727Y-123818211D01*
X91241925Y-123845247D01*
X91251252Y-123856612D01*
X91298871Y-123904232D01*
X91304620Y-123908950D01*
X91305921Y-123910450D01*
X91308180Y-123911872D01*
X91310237Y-123913560D01*
X91312064Y-123914317D01*
X91318364Y-123918282D01*
X91413602Y-123965901D01*
X91427333Y-123971156D01*
X91430022Y-123971347D01*
X91432511Y-123972378D01*
X91447143Y-123973819D01*
X91685238Y-123973819D01*
X91699870Y-123972378D01*
X91702359Y-123971346D01*
X91705047Y-123971156D01*
X91718779Y-123965901D01*
X91814017Y-123918282D01*
X91820316Y-123914317D01*
X91822144Y-123913560D01*
X91824200Y-123911872D01*
X91826460Y-123910450D01*
X91827760Y-123908950D01*
X91833510Y-123904232D01*
X91881128Y-123856613D01*
X91885846Y-123850863D01*
X91887345Y-123849564D01*
X91888766Y-123847305D01*
X91890456Y-123845247D01*
X91891213Y-123843417D01*
X91895177Y-123837121D01*
X91942796Y-123741883D01*
X91948051Y-123728152D01*
X91948242Y-123725462D01*
X91949273Y-123722974D01*
X91950714Y-123708342D01*
X91950714Y-123470247D01*
X91949273Y-123455615D01*
X91948242Y-123453126D01*
X91948051Y-123450437D01*
X91942796Y-123436706D01*
X91895177Y-123341468D01*
X91891212Y-123335168D01*
X91890455Y-123333341D01*
X91888766Y-123331284D01*
X91887345Y-123329025D01*
X91885846Y-123327725D01*
X91881128Y-123321976D01*
X91833509Y-123274357D01*
X91827759Y-123269638D01*
X91826460Y-123268140D01*
X91824200Y-123266718D01*
X91822144Y-123265030D01*
X91820316Y-123264272D01*
X91814017Y-123260308D01*
X91718779Y-123212689D01*
X91705047Y-123207434D01*
X91702359Y-123207243D01*
X91699870Y-123206212D01*
X91685238Y-123204771D01*
X91447143Y-123204771D01*
X91432511Y-123206212D01*
X91430022Y-123207242D01*
X91427333Y-123207434D01*
X91413602Y-123212689D01*
X91394960Y-123222009D01*
X91419779Y-122973819D01*
X91828095Y-122973819D01*
X91842727Y-122972378D01*
X91869763Y-122961179D01*
X91890455Y-122940487D01*
X91901654Y-122913451D01*
X91901654Y-122884187D01*
X91890455Y-122857151D01*
X91869763Y-122836459D01*
X91842727Y-122825260D01*
X91828095Y-122823819D01*
X91351905Y-122823819D01*
X91346493Y-122824351D01*
X91344665Y-122824169D01*
X91342878Y-122824707D01*
X91337273Y-122825260D01*
X91327146Y-122829454D01*
X91316649Y-122832622D01*
X91313725Y-122835013D01*
X91310237Y-122836459D01*
X91302483Y-122844212D01*
X91294001Y-122851153D01*
X91292216Y-122854479D01*
X91289545Y-122857151D01*
X91285349Y-122867280D01*
X91280167Y-122876940D01*
X91279059Y-122882464D01*
X91278346Y-122884187D01*
X91278346Y-122886023D01*
X91277277Y-122891356D01*
X91229658Y-123367546D01*
X91229636Y-123382249D01*
X90379286Y-123382249D01*
X90379286Y-123336624D01*
X90422669Y-123163090D01*
X90461163Y-123086103D01*
X90535276Y-123011990D01*
X90649789Y-122973819D01*
X90720687Y-122973819D01*
X90835200Y-123011990D01*
X90870300Y-123047090D01*
X90881665Y-123056417D01*
X90908701Y-123067616D01*
X90937964Y-123067616D01*
X90965000Y-123056417D01*
X90985693Y-123035724D01*
X90996892Y-123008688D01*
X90996892Y-122979425D01*
X90985693Y-122952389D01*
X90976366Y-122941024D01*
X90928747Y-122893405D01*
X90917382Y-122884078D01*
X90914891Y-122883046D01*
X90912856Y-122881281D01*
X90899431Y-122875287D01*
X90756574Y-122827668D01*
X90749320Y-122826018D01*
X90747489Y-122825260D01*
X90744834Y-122824998D01*
X90742237Y-122824408D01*
X90740262Y-122824548D01*
X90732857Y-122823819D01*
X90637619Y-122823819D01*
X90630212Y-122824548D01*
X90628238Y-122824408D01*
X90625640Y-122824998D01*
X90622987Y-122825260D01*
X90621156Y-122826018D01*
X90613901Y-122827668D01*
X90471045Y-122875287D01*
X90457619Y-122881281D01*
X90455584Y-122883045D01*
X90453094Y-122884077D01*
X90441729Y-122893405D01*
X90346491Y-122988643D01*
X90341772Y-122994392D01*
X90340274Y-122995692D01*
X90338852Y-122997951D01*
X90337164Y-123000008D01*
X90336406Y-123001835D01*
X90332442Y-123008135D01*
X90284823Y-123103373D01*
X90284413Y-123104442D01*
X90284091Y-123104878D01*
X90281895Y-123111023D01*
X90279568Y-123117105D01*
X90279529Y-123117644D01*
X90279144Y-123118724D01*
X90231525Y-123309200D01*
X90231149Y-123311736D01*
X90230727Y-123312758D01*
X90230184Y-123318270D01*
X90229375Y-123323744D01*
X90229537Y-123324836D01*
X90229286Y-123327390D01*
X90118175Y-123327390D01*
X90118175Y-122712708D01*
X92061825Y-122712708D01*
X92061825Y-124084930D01*
G37*
G36*
X165352343Y-133497990D02*
G01*
X165426456Y-133572103D01*
X165464949Y-133649090D01*
X165508333Y-133822624D01*
X165508333Y-133947013D01*
X165464949Y-134120547D01*
X165426455Y-134197534D01*
X165352343Y-134271647D01*
X165237830Y-134309819D01*
X165086905Y-134309819D01*
X165086905Y-133459819D01*
X165237830Y-133459819D01*
X165352343Y-133497990D01*
G37*
G36*
X166720384Y-134570930D02*
G01*
X164825794Y-134570930D01*
X164825794Y-133384819D01*
X164936905Y-133384819D01*
X164936905Y-134384819D01*
X164938346Y-134399451D01*
X164949545Y-134426487D01*
X164970237Y-134447179D01*
X164997273Y-134458378D01*
X165011905Y-134459819D01*
X165250000Y-134459819D01*
X165257405Y-134459089D01*
X165259380Y-134459230D01*
X165261977Y-134458639D01*
X165264632Y-134458378D01*
X165266463Y-134457619D01*
X165273717Y-134455970D01*
X165416574Y-134408351D01*
X165429999Y-134402357D01*
X165432034Y-134400591D01*
X165434525Y-134399560D01*
X165445890Y-134390233D01*
X165541129Y-134294993D01*
X165545846Y-134289244D01*
X165547345Y-134287945D01*
X165548766Y-134285686D01*
X165550456Y-134283628D01*
X165551213Y-134281798D01*
X165555177Y-134275502D01*
X165602796Y-134180264D01*
X165603205Y-134179194D01*
X165603528Y-134178759D01*
X165605720Y-134172622D01*
X165608051Y-134166533D01*
X165608089Y-134165992D01*
X165608475Y-134164913D01*
X165656094Y-133974437D01*
X165656469Y-133971900D01*
X165656892Y-133970879D01*
X165657434Y-133965366D01*
X165658244Y-133959893D01*
X165658081Y-133958800D01*
X165658333Y-133956247D01*
X165658333Y-133813390D01*
X165658081Y-133810836D01*
X165658244Y-133809744D01*
X165657434Y-133804270D01*
X165656892Y-133798758D01*
X165656469Y-133797736D01*
X165656094Y-133795200D01*
X165622582Y-133661152D01*
X165889875Y-133661152D01*
X165891949Y-133690342D01*
X165905036Y-133716517D01*
X165927144Y-133735690D01*
X165954905Y-133744944D01*
X165984095Y-133742870D01*
X165997827Y-133737615D01*
X166093065Y-133689996D01*
X166099364Y-133686031D01*
X166101192Y-133685274D01*
X166103248Y-133683585D01*
X166105508Y-133682164D01*
X166106807Y-133680665D01*
X166112557Y-133675947D01*
X166175000Y-133613504D01*
X166175000Y-134309819D01*
X165964286Y-134309819D01*
X165949654Y-134311260D01*
X165922618Y-134322459D01*
X165901926Y-134343151D01*
X165890727Y-134370187D01*
X165890727Y-134399451D01*
X165901926Y-134426487D01*
X165922618Y-134447179D01*
X165949654Y-134458378D01*
X165964286Y-134459819D01*
X166535714Y-134459819D01*
X166550346Y-134458378D01*
X166577382Y-134447179D01*
X166598074Y-134426487D01*
X166609273Y-134399451D01*
X166609273Y-134370187D01*
X166598074Y-134343151D01*
X166577382Y-134322459D01*
X166550346Y-134311260D01*
X166535714Y-134309819D01*
X166325000Y-134309819D01*
X166325000Y-133384819D01*
X166324994Y-133384766D01*
X166325000Y-133384740D01*
X166324984Y-133384663D01*
X166323559Y-133370187D01*
X166320717Y-133363326D01*
X166319261Y-133356045D01*
X166315171Y-133349938D01*
X166312360Y-133343151D01*
X166307111Y-133337902D01*
X166302978Y-133331730D01*
X166296861Y-133327652D01*
X166291668Y-133322459D01*
X166284808Y-133319617D01*
X166278629Y-133315498D01*
X166271420Y-133314072D01*
X166264632Y-133311260D01*
X166257205Y-133311260D01*
X166249921Y-133309819D01*
X166242716Y-133311260D01*
X166235368Y-133311260D01*
X166228507Y-133314101D01*
X166221227Y-133315558D01*
X166215121Y-133319646D01*
X166208332Y-133322459D01*
X166203081Y-133327709D01*
X166196912Y-133331841D01*
X166187691Y-133343099D01*
X166187640Y-133343151D01*
X166187630Y-133343173D01*
X166187596Y-133343216D01*
X166096476Y-133479896D01*
X166015097Y-133561275D01*
X165930745Y-133603451D01*
X165918302Y-133611283D01*
X165899129Y-133633391D01*
X165889875Y-133661152D01*
X165622582Y-133661152D01*
X165608475Y-133604724D01*
X165608089Y-133603644D01*
X165608051Y-133603104D01*
X165605714Y-133596997D01*
X165603528Y-133590878D01*
X165603205Y-133590442D01*
X165602796Y-133589373D01*
X165555177Y-133494135D01*
X165551214Y-133487840D01*
X165550456Y-133486008D01*
X165548764Y-133483946D01*
X165547345Y-133481692D01*
X165545848Y-133480393D01*
X165541128Y-133474643D01*
X165445890Y-133379405D01*
X165434525Y-133370078D01*
X165432034Y-133369046D01*
X165429999Y-133367281D01*
X165416574Y-133361287D01*
X165273717Y-133313668D01*
X165266463Y-133312018D01*
X165264632Y-133311260D01*
X165261977Y-133310998D01*
X165259380Y-133310408D01*
X165257405Y-133310548D01*
X165250000Y-133309819D01*
X165011905Y-133309819D01*
X164997273Y-133311260D01*
X164970237Y-133322459D01*
X164949545Y-133343151D01*
X164938346Y-133370187D01*
X164936905Y-133384819D01*
X164825794Y-133384819D01*
X164825794Y-133198708D01*
X166720384Y-133198708D01*
X166720384Y-134570930D01*
G37*
G36*
X114496049Y-104042648D02*
G01*
X114526456Y-104073055D01*
X114560714Y-104141571D01*
X114560714Y-104296637D01*
X114526455Y-104365153D01*
X114496048Y-104395561D01*
X114427533Y-104429819D01*
X114272467Y-104429819D01*
X114203951Y-104395561D01*
X114173544Y-104365153D01*
X114139286Y-104296637D01*
X114139286Y-104141571D01*
X114173544Y-104073055D01*
X114203951Y-104042648D01*
X114272467Y-104008390D01*
X114427533Y-104008390D01*
X114496049Y-104042648D01*
G37*
G36*
X114496049Y-103614077D02*
G01*
X114526456Y-103644484D01*
X114560714Y-103713000D01*
X114560714Y-103725209D01*
X114526456Y-103793725D01*
X114496049Y-103824132D01*
X114427533Y-103858390D01*
X114272467Y-103858390D01*
X114203951Y-103824132D01*
X114173544Y-103793725D01*
X114139286Y-103725209D01*
X114139286Y-103713000D01*
X114173544Y-103644484D01*
X114203951Y-103614077D01*
X114272467Y-103579819D01*
X114427533Y-103579819D01*
X114496049Y-103614077D01*
G37*
G36*
X114821825Y-104690930D02*
G01*
X112878175Y-104690930D01*
X112878175Y-103933390D01*
X112989286Y-103933390D01*
X112989286Y-104076247D01*
X112989537Y-104078800D01*
X112989375Y-104079893D01*
X112990184Y-104085366D01*
X112990727Y-104090879D01*
X112991149Y-104091900D01*
X112991525Y-104094437D01*
X113039144Y-104284913D01*
X113039529Y-104285992D01*
X113039568Y-104286532D01*
X113041895Y-104292613D01*
X113044091Y-104298759D01*
X113044413Y-104299194D01*
X113044823Y-104300264D01*
X113092442Y-104395502D01*
X113096405Y-104401798D01*
X113097163Y-104403628D01*
X113098852Y-104405686D01*
X113100274Y-104407945D01*
X113101772Y-104409244D01*
X113106491Y-104414994D01*
X113201729Y-104510233D01*
X113213094Y-104519561D01*
X113215584Y-104520592D01*
X113217619Y-104522357D01*
X113231045Y-104528351D01*
X113373901Y-104575970D01*
X113381156Y-104577619D01*
X113382987Y-104578378D01*
X113385640Y-104578639D01*
X113388238Y-104579230D01*
X113390212Y-104579089D01*
X113397619Y-104579819D01*
X113492857Y-104579819D01*
X113500262Y-104579089D01*
X113502237Y-104579230D01*
X113504834Y-104578639D01*
X113507489Y-104578378D01*
X113509320Y-104577619D01*
X113516574Y-104575970D01*
X113659431Y-104528351D01*
X113672856Y-104522357D01*
X113674891Y-104520591D01*
X113677382Y-104519560D01*
X113688748Y-104510232D01*
X113736366Y-104462613D01*
X113745694Y-104451247D01*
X113756892Y-104424211D01*
X113756892Y-104394948D01*
X113745693Y-104367912D01*
X113725000Y-104347219D01*
X113697964Y-104336021D01*
X113668701Y-104336021D01*
X113641665Y-104347220D01*
X113630299Y-104356548D01*
X113595200Y-104391647D01*
X113480687Y-104429819D01*
X113409789Y-104429819D01*
X113295276Y-104391648D01*
X113221163Y-104317534D01*
X113182669Y-104240547D01*
X113139286Y-104067013D01*
X113139286Y-103942624D01*
X113182669Y-103769090D01*
X113219567Y-103695295D01*
X113989286Y-103695295D01*
X113989286Y-103742914D01*
X113990727Y-103757546D01*
X113991758Y-103760035D01*
X113991949Y-103762723D01*
X113997204Y-103776455D01*
X114044823Y-103871693D01*
X114048787Y-103877992D01*
X114049545Y-103879820D01*
X114051233Y-103881876D01*
X114052655Y-103884136D01*
X114054153Y-103885435D01*
X114058872Y-103891185D01*
X114101077Y-103933390D01*
X114058872Y-103975595D01*
X114054153Y-103981344D01*
X114052655Y-103982644D01*
X114051233Y-103984903D01*
X114049545Y-103986960D01*
X114048787Y-103988787D01*
X114044823Y-103995087D01*
X113997204Y-104090325D01*
X113991949Y-104104057D01*
X113991758Y-104106744D01*
X113990727Y-104109234D01*
X113989286Y-104123866D01*
X113989286Y-104314342D01*
X113990727Y-104328974D01*
X113991758Y-104331463D01*
X113991949Y-104334151D01*
X113997204Y-104347883D01*
X114044823Y-104443121D01*
X114048786Y-104449417D01*
X114049544Y-104451247D01*
X114051233Y-104453305D01*
X114052655Y-104455564D01*
X114054153Y-104456863D01*
X114058871Y-104462612D01*
X114106490Y-104510232D01*
X114112239Y-104514950D01*
X114113540Y-104516450D01*
X114115799Y-104517872D01*
X114117856Y-104519560D01*
X114119683Y-104520317D01*
X114125983Y-104524282D01*
X114221221Y-104571901D01*
X114234952Y-104577156D01*
X114237641Y-104577347D01*
X114240130Y-104578378D01*
X114254762Y-104579819D01*
X114445238Y-104579819D01*
X114459870Y-104578378D01*
X114462359Y-104577346D01*
X114465047Y-104577156D01*
X114478779Y-104571901D01*
X114574017Y-104524282D01*
X114580316Y-104520317D01*
X114582144Y-104519560D01*
X114584200Y-104517872D01*
X114586460Y-104516450D01*
X114587760Y-104514950D01*
X114593510Y-104510232D01*
X114641128Y-104462613D01*
X114645846Y-104456863D01*
X114647345Y-104455564D01*
X114648766Y-104453305D01*
X114650456Y-104451247D01*
X114651213Y-104449417D01*
X114655177Y-104443121D01*
X114702796Y-104347883D01*
X114708051Y-104334152D01*
X114708242Y-104331462D01*
X114709273Y-104328974D01*
X114710714Y-104314342D01*
X114710714Y-104123866D01*
X114709273Y-104109234D01*
X114708242Y-104106745D01*
X114708051Y-104104056D01*
X114702796Y-104090325D01*
X114655177Y-103995087D01*
X114651212Y-103988787D01*
X114650455Y-103986960D01*
X114648766Y-103984903D01*
X114647345Y-103982644D01*
X114645846Y-103981344D01*
X114641128Y-103975595D01*
X114598923Y-103933390D01*
X114641128Y-103891185D01*
X114645846Y-103885435D01*
X114647345Y-103884136D01*
X114648766Y-103881876D01*
X114650455Y-103879820D01*
X114651212Y-103877992D01*
X114655177Y-103871693D01*
X114702796Y-103776455D01*
X114708051Y-103762724D01*
X114708242Y-103760034D01*
X114709273Y-103757546D01*
X114710714Y-103742914D01*
X114710714Y-103695295D01*
X114709273Y-103680663D01*
X114708242Y-103678174D01*
X114708051Y-103675485D01*
X114702796Y-103661754D01*
X114655177Y-103566516D01*
X114651212Y-103560216D01*
X114650455Y-103558389D01*
X114648766Y-103556332D01*
X114647345Y-103554073D01*
X114645846Y-103552773D01*
X114641128Y-103547024D01*
X114593509Y-103499405D01*
X114587759Y-103494686D01*
X114586460Y-103493188D01*
X114584200Y-103491766D01*
X114582144Y-103490078D01*
X114580316Y-103489320D01*
X114574017Y-103485356D01*
X114478779Y-103437737D01*
X114465047Y-103432482D01*
X114462359Y-103432291D01*
X114459870Y-103431260D01*
X114445238Y-103429819D01*
X114254762Y-103429819D01*
X114240130Y-103431260D01*
X114237641Y-103432290D01*
X114234952Y-103432482D01*
X114221221Y-103437737D01*
X114125983Y-103485356D01*
X114119683Y-103489320D01*
X114117856Y-103490078D01*
X114115799Y-103491766D01*
X114113540Y-103493188D01*
X114112240Y-103494686D01*
X114106491Y-103499405D01*
X114058872Y-103547024D01*
X114054153Y-103552773D01*
X114052655Y-103554073D01*
X114051233Y-103556332D01*
X114049545Y-103558389D01*
X114048787Y-103560216D01*
X114044823Y-103566516D01*
X113997204Y-103661754D01*
X113991949Y-103675486D01*
X113991758Y-103678173D01*
X113990727Y-103680663D01*
X113989286Y-103695295D01*
X113219567Y-103695295D01*
X113221163Y-103692103D01*
X113295276Y-103617990D01*
X113409789Y-103579819D01*
X113480687Y-103579819D01*
X113595200Y-103617990D01*
X113630300Y-103653090D01*
X113641665Y-103662417D01*
X113668701Y-103673616D01*
X113697964Y-103673616D01*
X113725000Y-103662417D01*
X113745693Y-103641724D01*
X113756892Y-103614688D01*
X113756892Y-103585425D01*
X113745693Y-103558389D01*
X113736366Y-103547024D01*
X113688747Y-103499405D01*
X113677382Y-103490078D01*
X113674891Y-103489046D01*
X113672856Y-103487281D01*
X113659431Y-103481287D01*
X113516574Y-103433668D01*
X113509320Y-103432018D01*
X113507489Y-103431260D01*
X113504834Y-103430998D01*
X113502237Y-103430408D01*
X113500262Y-103430548D01*
X113492857Y-103429819D01*
X113397619Y-103429819D01*
X113390212Y-103430548D01*
X113388238Y-103430408D01*
X113385640Y-103430998D01*
X113382987Y-103431260D01*
X113381156Y-103432018D01*
X113373901Y-103433668D01*
X113231045Y-103481287D01*
X113217619Y-103487281D01*
X113215584Y-103489045D01*
X113213094Y-103490077D01*
X113201729Y-103499405D01*
X113106491Y-103594643D01*
X113101772Y-103600392D01*
X113100274Y-103601692D01*
X113098852Y-103603951D01*
X113097164Y-103606008D01*
X113096406Y-103607835D01*
X113092442Y-103614135D01*
X113044823Y-103709373D01*
X113044413Y-103710442D01*
X113044091Y-103710878D01*
X113041895Y-103717023D01*
X113039568Y-103723105D01*
X113039529Y-103723644D01*
X113039144Y-103724724D01*
X112991525Y-103915200D01*
X112991149Y-103917736D01*
X112990727Y-103918758D01*
X112990184Y-103924270D01*
X112989375Y-103929744D01*
X112989537Y-103930836D01*
X112989286Y-103933390D01*
X112878175Y-103933390D01*
X112878175Y-103318708D01*
X114821825Y-103318708D01*
X114821825Y-104690930D01*
G37*
G36*
X97986049Y-123389029D02*
G01*
X98016456Y-123419436D01*
X98050714Y-123487952D01*
X98050714Y-123690637D01*
X98016455Y-123759153D01*
X97986048Y-123789561D01*
X97917533Y-123823819D01*
X97762467Y-123823819D01*
X97693951Y-123789561D01*
X97663544Y-123759153D01*
X97629286Y-123690637D01*
X97629286Y-123487952D01*
X97663544Y-123419436D01*
X97693951Y-123389029D01*
X97762467Y-123354771D01*
X97917533Y-123354771D01*
X97986049Y-123389029D01*
G37*
G36*
X98311825Y-124084930D02*
G01*
X96368175Y-124084930D01*
X96368175Y-123327390D01*
X96479286Y-123327390D01*
X96479286Y-123470247D01*
X96479537Y-123472800D01*
X96479375Y-123473893D01*
X96480184Y-123479366D01*
X96480727Y-123484879D01*
X96481149Y-123485900D01*
X96481525Y-123488437D01*
X96529144Y-123678913D01*
X96529529Y-123679992D01*
X96529568Y-123680532D01*
X96531895Y-123686613D01*
X96534091Y-123692759D01*
X96534413Y-123693194D01*
X96534823Y-123694264D01*
X96582442Y-123789502D01*
X96586405Y-123795798D01*
X96587163Y-123797628D01*
X96588852Y-123799686D01*
X96590274Y-123801945D01*
X96591772Y-123803244D01*
X96596491Y-123808994D01*
X96691729Y-123904233D01*
X96703094Y-123913561D01*
X96705584Y-123914592D01*
X96707619Y-123916357D01*
X96721045Y-123922351D01*
X96863901Y-123969970D01*
X96871156Y-123971619D01*
X96872987Y-123972378D01*
X96875640Y-123972639D01*
X96878238Y-123973230D01*
X96880212Y-123973089D01*
X96887619Y-123973819D01*
X96982857Y-123973819D01*
X96990262Y-123973089D01*
X96992237Y-123973230D01*
X96994834Y-123972639D01*
X96997489Y-123972378D01*
X96999320Y-123971619D01*
X97006574Y-123969970D01*
X97149431Y-123922351D01*
X97162856Y-123916357D01*
X97164891Y-123914591D01*
X97167382Y-123913560D01*
X97178748Y-123904232D01*
X97226366Y-123856613D01*
X97235694Y-123845247D01*
X97246892Y-123818211D01*
X97246892Y-123788948D01*
X97235693Y-123761912D01*
X97215000Y-123741219D01*
X97187964Y-123730021D01*
X97158701Y-123730021D01*
X97131665Y-123741220D01*
X97120299Y-123750548D01*
X97085200Y-123785647D01*
X96970687Y-123823819D01*
X96899789Y-123823819D01*
X96785276Y-123785648D01*
X96711163Y-123711534D01*
X96672669Y-123634547D01*
X96629286Y-123461013D01*
X96629286Y-123336624D01*
X96631594Y-123327390D01*
X97479286Y-123327390D01*
X97479286Y-123708342D01*
X97480727Y-123722974D01*
X97481758Y-123725463D01*
X97481949Y-123728151D01*
X97487204Y-123741883D01*
X97534823Y-123837121D01*
X97538786Y-123843417D01*
X97539544Y-123845247D01*
X97541233Y-123847305D01*
X97542655Y-123849564D01*
X97544153Y-123850863D01*
X97548871Y-123856612D01*
X97596490Y-123904232D01*
X97602239Y-123908950D01*
X97603540Y-123910450D01*
X97605799Y-123911872D01*
X97607856Y-123913560D01*
X97609683Y-123914317D01*
X97615983Y-123918282D01*
X97711221Y-123965901D01*
X97724952Y-123971156D01*
X97727641Y-123971347D01*
X97730130Y-123972378D01*
X97744762Y-123973819D01*
X97935238Y-123973819D01*
X97949870Y-123972378D01*
X97952359Y-123971346D01*
X97955047Y-123971156D01*
X97968779Y-123965901D01*
X98064017Y-123918282D01*
X98070316Y-123914317D01*
X98072144Y-123913560D01*
X98074200Y-123911872D01*
X98076460Y-123910450D01*
X98077760Y-123908950D01*
X98083510Y-123904232D01*
X98131128Y-123856613D01*
X98135846Y-123850863D01*
X98137345Y-123849564D01*
X98138766Y-123847305D01*
X98140456Y-123845247D01*
X98141213Y-123843417D01*
X98145177Y-123837121D01*
X98192796Y-123741883D01*
X98198051Y-123728152D01*
X98198242Y-123725462D01*
X98199273Y-123722974D01*
X98200714Y-123708342D01*
X98200714Y-123470247D01*
X98199273Y-123455615D01*
X98198242Y-123453126D01*
X98198051Y-123450437D01*
X98192796Y-123436706D01*
X98145177Y-123341468D01*
X98141212Y-123335168D01*
X98140455Y-123333341D01*
X98138766Y-123331284D01*
X98137345Y-123329025D01*
X98135846Y-123327725D01*
X98131128Y-123321976D01*
X98083509Y-123274357D01*
X98077759Y-123269638D01*
X98076460Y-123268140D01*
X98074200Y-123266718D01*
X98072144Y-123265030D01*
X98070316Y-123264272D01*
X98064017Y-123260308D01*
X97968779Y-123212689D01*
X97955047Y-123207434D01*
X97952359Y-123207243D01*
X97949870Y-123206212D01*
X97935238Y-123204771D01*
X97744762Y-123204771D01*
X97730130Y-123206212D01*
X97727641Y-123207242D01*
X97724952Y-123207434D01*
X97711221Y-123212689D01*
X97652991Y-123241804D01*
X97671515Y-123167707D01*
X97755427Y-123041838D01*
X97789189Y-123008077D01*
X97857705Y-122973819D01*
X98030476Y-122973819D01*
X98045108Y-122972378D01*
X98072144Y-122961179D01*
X98092836Y-122940487D01*
X98104035Y-122913451D01*
X98104035Y-122884187D01*
X98092836Y-122857151D01*
X98072144Y-122836459D01*
X98045108Y-122825260D01*
X98030476Y-122823819D01*
X97840000Y-122823819D01*
X97825368Y-122825260D01*
X97822879Y-122826290D01*
X97820190Y-122826482D01*
X97806459Y-122831737D01*
X97711221Y-122879356D01*
X97704921Y-122883320D01*
X97703094Y-122884078D01*
X97701037Y-122885766D01*
X97698778Y-122887188D01*
X97697478Y-122888686D01*
X97691729Y-122893405D01*
X97644110Y-122941024D01*
X97644076Y-122941064D01*
X97644055Y-122941079D01*
X97639271Y-122946920D01*
X97634783Y-122952389D01*
X97634773Y-122952411D01*
X97634739Y-122952454D01*
X97539501Y-123095311D01*
X97535194Y-123103389D01*
X97534091Y-123104878D01*
X97533462Y-123106637D01*
X97532584Y-123108285D01*
X97532224Y-123110101D01*
X97529144Y-123118724D01*
X97481525Y-123309200D01*
X97481149Y-123311736D01*
X97480727Y-123312758D01*
X97480184Y-123318270D01*
X97479375Y-123323744D01*
X97479537Y-123324836D01*
X97479286Y-123327390D01*
X96631594Y-123327390D01*
X96672669Y-123163090D01*
X96711163Y-123086103D01*
X96785276Y-123011990D01*
X96899789Y-122973819D01*
X96970687Y-122973819D01*
X97085200Y-123011990D01*
X97120300Y-123047090D01*
X97131665Y-123056417D01*
X97158701Y-123067616D01*
X97187964Y-123067616D01*
X97215000Y-123056417D01*
X97235693Y-123035724D01*
X97246892Y-123008688D01*
X97246892Y-122979425D01*
X97235693Y-122952389D01*
X97226366Y-122941024D01*
X97178747Y-122893405D01*
X97167382Y-122884078D01*
X97164891Y-122883046D01*
X97162856Y-122881281D01*
X97149431Y-122875287D01*
X97006574Y-122827668D01*
X96999320Y-122826018D01*
X96997489Y-122825260D01*
X96994834Y-122824998D01*
X96992237Y-122824408D01*
X96990262Y-122824548D01*
X96982857Y-122823819D01*
X96887619Y-122823819D01*
X96880212Y-122824548D01*
X96878238Y-122824408D01*
X96875640Y-122824998D01*
X96872987Y-122825260D01*
X96871156Y-122826018D01*
X96863901Y-122827668D01*
X96721045Y-122875287D01*
X96707619Y-122881281D01*
X96705584Y-122883045D01*
X96703094Y-122884077D01*
X96691729Y-122893405D01*
X96596491Y-122988643D01*
X96591772Y-122994392D01*
X96590274Y-122995692D01*
X96588852Y-122997951D01*
X96587164Y-123000008D01*
X96586406Y-123001835D01*
X96582442Y-123008135D01*
X96534823Y-123103373D01*
X96534413Y-123104442D01*
X96534091Y-123104878D01*
X96531895Y-123111023D01*
X96529568Y-123117105D01*
X96529529Y-123117644D01*
X96529144Y-123118724D01*
X96481525Y-123309200D01*
X96481149Y-123311736D01*
X96480727Y-123312758D01*
X96480184Y-123318270D01*
X96479375Y-123323744D01*
X96479537Y-123324836D01*
X96479286Y-123327390D01*
X96368175Y-123327390D01*
X96368175Y-122712708D01*
X98311825Y-122712708D01*
X98311825Y-124084930D01*
G37*
G36*
X67851336Y-120140930D02*
G01*
X66101044Y-120140930D01*
X66101044Y-119940187D01*
X66212155Y-119940187D01*
X66212155Y-119969451D01*
X66223354Y-119996487D01*
X66244046Y-120017179D01*
X66271082Y-120028378D01*
X66285714Y-120029819D01*
X66380952Y-120029819D01*
X66388357Y-120029089D01*
X66390332Y-120029230D01*
X66392929Y-120028639D01*
X66395584Y-120028378D01*
X66397415Y-120027619D01*
X66404669Y-120025970D01*
X66547526Y-119978351D01*
X66560951Y-119972357D01*
X66562986Y-119970591D01*
X66565477Y-119969560D01*
X66576842Y-119960233D01*
X66672081Y-119864993D01*
X66681408Y-119853628D01*
X66682438Y-119851139D01*
X66684204Y-119849104D01*
X66690198Y-119835678D01*
X66737817Y-119692822D01*
X66739466Y-119685566D01*
X66740225Y-119683736D01*
X66740486Y-119681082D01*
X66741077Y-119678485D01*
X66740936Y-119676510D01*
X66741666Y-119669104D01*
X66741666Y-119231152D01*
X67020827Y-119231152D01*
X67022901Y-119260342D01*
X67035988Y-119286517D01*
X67058096Y-119305690D01*
X67085857Y-119314944D01*
X67115047Y-119312870D01*
X67128779Y-119307615D01*
X67224017Y-119259996D01*
X67230316Y-119256031D01*
X67232144Y-119255274D01*
X67234200Y-119253585D01*
X67236460Y-119252164D01*
X67237759Y-119250665D01*
X67243509Y-119245947D01*
X67305952Y-119183504D01*
X67305952Y-119879819D01*
X67095238Y-119879819D01*
X67080606Y-119881260D01*
X67053570Y-119892459D01*
X67032878Y-119913151D01*
X67021679Y-119940187D01*
X67021679Y-119969451D01*
X67032878Y-119996487D01*
X67053570Y-120017179D01*
X67080606Y-120028378D01*
X67095238Y-120029819D01*
X67666666Y-120029819D01*
X67681298Y-120028378D01*
X67708334Y-120017179D01*
X67729026Y-119996487D01*
X67740225Y-119969451D01*
X67740225Y-119940187D01*
X67729026Y-119913151D01*
X67708334Y-119892459D01*
X67681298Y-119881260D01*
X67666666Y-119879819D01*
X67455952Y-119879819D01*
X67455952Y-118954819D01*
X67455946Y-118954766D01*
X67455952Y-118954740D01*
X67455936Y-118954663D01*
X67454511Y-118940187D01*
X67451669Y-118933326D01*
X67450213Y-118926045D01*
X67446123Y-118919938D01*
X67443312Y-118913151D01*
X67438063Y-118907902D01*
X67433930Y-118901730D01*
X67427813Y-118897652D01*
X67422620Y-118892459D01*
X67415760Y-118889617D01*
X67409581Y-118885498D01*
X67402372Y-118884072D01*
X67395584Y-118881260D01*
X67388157Y-118881260D01*
X67380873Y-118879819D01*
X67373668Y-118881260D01*
X67366320Y-118881260D01*
X67359459Y-118884101D01*
X67352179Y-118885558D01*
X67346073Y-118889646D01*
X67339284Y-118892459D01*
X67334033Y-118897709D01*
X67327864Y-118901841D01*
X67318643Y-118913099D01*
X67318592Y-118913151D01*
X67318582Y-118913173D01*
X67318548Y-118913216D01*
X67227428Y-119049896D01*
X67146049Y-119131275D01*
X67061697Y-119173451D01*
X67049254Y-119181283D01*
X67030081Y-119203391D01*
X67020827Y-119231152D01*
X66741666Y-119231152D01*
X66741666Y-118954819D01*
X66740225Y-118940187D01*
X66729026Y-118913151D01*
X66708334Y-118892459D01*
X66681298Y-118881260D01*
X66652034Y-118881260D01*
X66624998Y-118892459D01*
X66604306Y-118913151D01*
X66593107Y-118940187D01*
X66591666Y-118954819D01*
X66591666Y-119656934D01*
X66553494Y-119771447D01*
X66483295Y-119841647D01*
X66368782Y-119879819D01*
X66285714Y-119879819D01*
X66271082Y-119881260D01*
X66244046Y-119892459D01*
X66223354Y-119913151D01*
X66212155Y-119940187D01*
X66101044Y-119940187D01*
X66101044Y-118768708D01*
X67851336Y-118768708D01*
X67851336Y-120140930D01*
G37*
D11*
%TO.C,C9*%
X187062258Y-84250000D02*
G75*
G02*
X170937742Y-84250000I-8062258J0D01*
G01*
X170937742Y-84250000D02*
G75*
G02*
X187062258Y-84250000I8062258J0D01*
G01*
D13*
%TO.C,F1*%
X64681500Y-103000000D02*
X65951500Y-103000000D01*
X65316500Y-102365000D02*
X65316500Y-103635000D01*
X66078500Y-100879100D02*
X66078500Y-105120900D01*
X74841500Y-100879100D02*
X66078500Y-100879100D01*
X74841500Y-100879100D02*
X74841500Y-105120900D01*
X74841500Y-105120900D02*
X66078500Y-105120900D01*
%TO.C,U1*%
D10*
X129550000Y-132850000D02*
X169550000Y-132850000D01*
X169550000Y-72850000D01*
X129550000Y-72850000D01*
X129550000Y-132850000D01*
D13*
%TO.C,C12*%
X150998100Y-134371100D02*
X156001900Y-134371100D01*
X150998100Y-139628900D02*
X156001900Y-139628900D01*
X150998100Y-139628900D02*
G75*
G02*
X150998100Y-134371100I0J2628900D01*
G01*
X156001900Y-134371100D02*
G75*
G02*
X158630800Y-137000000I0J-2628900D01*
G01*
X158630800Y-137000000D02*
G75*
G02*
X156001900Y-139628900I-2628900J0D01*
G01*
%TO.C,C10*%
X171298200Y-95828300D02*
X171298200Y-100171700D01*
X174701800Y-95828300D02*
X174701800Y-100171700D01*
X171298200Y-95828300D02*
G75*
G02*
X174701800Y-95828300I1701800J0D01*
G01*
X173000000Y-101873500D02*
G75*
G02*
X171298200Y-100171700I0J1701800D01*
G01*
X174701800Y-100171700D02*
G75*
G02*
X173000000Y-101873500I-1701800J0D01*
G01*
%TO.C,J2*%
X179880000Y-98685373D02*
X179880000Y-101228809D01*
X179880000Y-103291899D02*
X179880000Y-104228808D01*
X179880000Y-106291898D02*
X179880000Y-107228807D01*
X179880000Y-109291897D02*
X179880000Y-110228806D01*
X179880000Y-112291896D02*
X179880000Y-113228805D01*
X179880000Y-115291895D02*
X179880000Y-116228804D01*
X179880000Y-118291895D02*
X179880000Y-119228803D01*
X179880000Y-121291894D02*
X179880000Y-122228802D01*
X179880000Y-124291893D02*
X179880000Y-126835328D01*
X179880000Y-126835328D02*
X192120001Y-126835328D01*
X182565001Y-96907373D02*
X183835001Y-96907373D01*
X183200001Y-98431373D02*
X182565001Y-96907373D01*
X183835001Y-96907373D02*
X183200001Y-98431373D01*
X192120001Y-98685373D02*
X179880000Y-98685373D01*
X192120001Y-126835328D02*
X192120001Y-98685373D01*
D14*
%TO.C,R1*%
X170977064Y-135015000D02*
X170522936Y-135015000D01*
X170977064Y-136485000D02*
X170522936Y-136485000D01*
D11*
%TO.C,C14*%
X128812258Y-124000000D02*
G75*
G02*
X112687742Y-124000000I-8062258J0D01*
G01*
X112687742Y-124000000D02*
G75*
G02*
X128812258Y-124000000I8062258J0D01*
G01*
D13*
%TO.C,C11*%
X170621100Y-118751900D02*
X170621100Y-113748100D01*
X175878900Y-118751900D02*
X175878900Y-113748100D01*
X170621100Y-113748100D02*
G75*
G02*
X173250000Y-111119200I2628900J0D01*
G01*
X173250000Y-111119200D02*
G75*
G02*
X175878900Y-113748100I0J-2628900D01*
G01*
X175878900Y-118751900D02*
G75*
G02*
X170621100Y-118751900I-2628900J0D01*
G01*
%TO.C,C3*%
X107121100Y-122111600D02*
X107121100Y-103874400D01*
X109750000Y-102477400D02*
X109750000Y-103747400D01*
X110385000Y-103112400D02*
X109115000Y-103112400D01*
X112378900Y-103874400D02*
X107121100Y-103874400D01*
X112378900Y-122111600D02*
X107121100Y-122111600D01*
X112378900Y-122111600D02*
X112378900Y-103874400D01*
D15*
%TO.C,RT1*%
X120250000Y-104000000D02*
X120250000Y-115500000D01*
X125250000Y-104000000D02*
X120250000Y-104000000D01*
X125250000Y-104000000D02*
X125250000Y-115500000D01*
X125250000Y-115500000D02*
X120250000Y-115500000D01*
D13*
%TO.C,C7*%
X100871100Y-119751900D02*
X100871100Y-114748100D01*
X106128900Y-119751900D02*
X106128900Y-114748100D01*
X100871100Y-114748100D02*
G75*
G02*
X103500000Y-112119200I2628900J0D01*
G01*
X103500000Y-112119200D02*
G75*
G02*
X106128900Y-114748100I0J-2628900D01*
G01*
X106128900Y-119751900D02*
G75*
G02*
X100871100Y-119751900I-2628900J0D01*
G01*
D14*
%TO.C,C15*%
X141851248Y-133840000D02*
X143273752Y-133840000D01*
X141851248Y-135660000D02*
X143273752Y-135660000D01*
D12*
%TO.C,RV1*%
X69800000Y-107400000D02*
X69800000Y-116400000D01*
X74200000Y-107400000D02*
X69800000Y-107400000D01*
X74200000Y-107400000D02*
X74200000Y-116400000D01*
X74200000Y-116400000D02*
X69800000Y-116400000D01*
D13*
%TO.C,C1*%
X75371100Y-103388400D02*
X75371100Y-121625600D01*
X75371100Y-103388400D02*
X80628900Y-103388400D01*
X75371100Y-121625600D02*
X80628900Y-121625600D01*
X77365000Y-122387600D02*
X78635000Y-122387600D01*
X78000000Y-123022600D02*
X78000000Y-121752600D01*
X80628900Y-103388400D02*
X80628900Y-121625600D01*
%TO.C,C13*%
X107251900Y-123621100D02*
X102248100Y-123621100D01*
X107251900Y-128878900D02*
X102248100Y-128878900D01*
X99619200Y-126250000D02*
G75*
G02*
X102248100Y-123621100I2628900J0D01*
G01*
X102248100Y-128878900D02*
G75*
G02*
X99619200Y-126250000I0J2628900D01*
G01*
X107251900Y-123621100D02*
G75*
G02*
X107251900Y-128878900I0J-2628900D01*
G01*
%TO.C,L2*%
X104902000Y-92000000D02*
X106172000Y-92000000D01*
X105537000Y-91365000D02*
X105537000Y-92635000D01*
X128397000Y-92000000D02*
G75*
G02*
X106299000Y-92000000I-11049000J0D01*
G01*
X106299000Y-92000000D02*
G75*
G02*
X128397000Y-92000000I11049000J0D01*
G01*
%TO.C,L1*%
D11*
X96750000Y-94000000D02*
X82750000Y-94000000D01*
X82750000Y-106000000D01*
X96750000Y-106000000D01*
X96750000Y-94000000D01*
D13*
%TO.C,C4*%
X82371100Y-119751900D02*
X82371100Y-114748100D01*
X87628900Y-119751900D02*
X87628900Y-114748100D01*
X82371100Y-114748100D02*
G75*
G02*
X85000000Y-112119200I2628900J0D01*
G01*
X85000000Y-112119200D02*
G75*
G02*
X87628900Y-114748100I0J-2628900D01*
G01*
X87628900Y-119751900D02*
G75*
G02*
X82371100Y-119751900I-2628900J0D01*
G01*
%TO.C,C2*%
X98371100Y-90388400D02*
X98371100Y-108625600D01*
X98371100Y-90388400D02*
X103628900Y-90388400D01*
X98371100Y-108625600D02*
X103628900Y-108625600D01*
X100365000Y-109387600D02*
X101635000Y-109387600D01*
X101000000Y-110022600D02*
X101000000Y-108752600D01*
X103628900Y-90388400D02*
X103628900Y-108625600D01*
%TO.C,C5*%
X88371100Y-119751900D02*
X88371100Y-114748100D01*
X93628900Y-119751900D02*
X93628900Y-114748100D01*
X88371100Y-114748100D02*
G75*
G02*
X91000000Y-112119200I2628900J0D01*
G01*
X91000000Y-112119200D02*
G75*
G02*
X93628900Y-114748100I0J-2628900D01*
G01*
X93628900Y-119751900D02*
G75*
G02*
X88371100Y-119751900I-2628900J0D01*
G01*
D14*
%TO.C,D1*%
X163290000Y-134615000D02*
X163290000Y-136885000D01*
X163290000Y-136885000D02*
X167350000Y-136885000D01*
X167350000Y-134615000D02*
X163290000Y-134615000D01*
D13*
%TO.C,C8*%
X113871100Y-106998100D02*
X113871100Y-112001900D01*
X119128900Y-106998100D02*
X119128900Y-112001900D01*
X113871100Y-106998100D02*
G75*
G02*
X119128900Y-106998100I2628900J0D01*
G01*
X116500000Y-114630800D02*
G75*
G02*
X113871100Y-112001900I0J2628900D01*
G01*
X119128900Y-112001900D02*
G75*
G02*
X116500000Y-114630800I-2628900J0D01*
G01*
%TO.C,C6*%
X94621100Y-119751900D02*
X94621100Y-114748100D01*
X99878900Y-119751900D02*
X99878900Y-114748100D01*
X94621100Y-114748100D02*
G75*
G02*
X97250000Y-112119200I2628900J0D01*
G01*
X97250000Y-112119200D02*
G75*
G02*
X99878900Y-114748100I0J-2628900D01*
G01*
X99878900Y-119751900D02*
G75*
G02*
X94621100Y-119751900I-2628900J0D01*
G01*
%TO.C,J1*%
X55880000Y-107925012D02*
X55880000Y-118074991D01*
X55880000Y-118074991D02*
X68120001Y-118074991D01*
X64165000Y-119852991D02*
X64800000Y-118328991D01*
X64800000Y-118328991D02*
X65435000Y-119852991D01*
X65435000Y-119852991D02*
X64165000Y-119852991D01*
X68120001Y-107925012D02*
X55880000Y-107925012D01*
X68120001Y-110468456D02*
X68120001Y-107925012D01*
X68120001Y-113468455D02*
X68120001Y-112531546D01*
X68120001Y-118074991D02*
X68120001Y-115531545D01*
%TD*%
%LPC*%
D16*
%TO.C,C9*%
X179000000Y-80500000D03*
D17*
X179000000Y-88000000D03*
%TD*%
D18*
%TO.C,F1*%
X67920000Y-103000000D03*
D19*
X73000000Y-103000000D03*
%TD*%
D20*
%TO.C,MH4*%
X185600000Y-70600000D03*
D21*
X185600000Y-70600000D03*
%TD*%
D22*
%TO.C,U1*%
X162250000Y-127050000D03*
X134350000Y-78700000D03*
D17*
X149550000Y-78700000D03*
X162250000Y-78700000D03*
X162250000Y-94000000D03*
X162250000Y-101600000D03*
D23*
X149550000Y-127000000D03*
D17*
X141950000Y-127000000D03*
D23*
X134350000Y-127000000D03*
%TD*%
D24*
%TO.C,C12*%
X149750000Y-137000000D03*
D25*
X157250000Y-137000000D03*
%TD*%
D26*
%TO.C,C10*%
X173000000Y-95500000D03*
X173000000Y-100500000D03*
%TD*%
D27*
%TO.C,J2*%
X187520000Y-121100347D03*
X187520000Y-104400380D03*
D28*
X183200001Y-102260354D03*
D29*
X183200001Y-105260353D03*
X183200001Y-108260352D03*
X183200001Y-111260351D03*
X183200001Y-114260350D03*
X183200001Y-117260349D03*
X183200001Y-120260348D03*
X183200001Y-123260348D03*
X180200002Y-102260354D03*
X180200002Y-105260353D03*
X180200002Y-108260352D03*
X180200002Y-111260351D03*
X180200002Y-114260350D03*
X180200002Y-117260349D03*
X180200002Y-120260348D03*
X180200002Y-123260348D03*
%TD*%
D30*
%TO.C,R1*%
X171750000Y-135750000D03*
X169750000Y-135750000D03*
%TD*%
D20*
%TO.C,MH2*%
X61600000Y-136600000D03*
D21*
X61600000Y-136600000D03*
%TD*%
D16*
%TO.C,C14*%
X124500000Y-124000000D03*
D17*
X117000000Y-124000000D03*
%TD*%
D24*
%TO.C,C11*%
X173250000Y-120000000D03*
D25*
X173250000Y-112500000D03*
%TD*%
D31*
%TO.C,C3*%
X109750000Y-105500000D03*
D32*
X109750000Y-120486000D03*
%TD*%
D33*
%TO.C,RT1*%
X122750000Y-107250000D03*
X122750000Y-112250000D03*
%TD*%
D24*
%TO.C,C7*%
X103500000Y-121000000D03*
D25*
X103500000Y-113500000D03*
%TD*%
D34*
%TO.C,C15*%
X141000000Y-134750000D03*
X144125000Y-134750000D03*
%TD*%
D35*
%TO.C,RV1*%
X73000000Y-109400000D03*
X71000000Y-114400000D03*
%TD*%
D31*
%TO.C,C1*%
X78000000Y-120000000D03*
D32*
X78000000Y-105014000D03*
%TD*%
D24*
%TO.C,C13*%
X108500000Y-126250000D03*
D25*
X101000000Y-126250000D03*
%TD*%
D18*
%TO.C,L2*%
X107696000Y-92000000D03*
D19*
X127000000Y-92000000D03*
%TD*%
D16*
%TO.C,L1*%
X84400000Y-96250000D03*
D36*
X84400000Y-103750000D03*
X95100000Y-103750000D03*
X95100000Y-96250000D03*
%TD*%
D20*
%TO.C,MH3*%
X185800000Y-136800000D03*
D21*
X185800000Y-136800000D03*
%TD*%
D24*
%TO.C,C4*%
X85000000Y-121000000D03*
D25*
X85000000Y-113500000D03*
%TD*%
D31*
%TO.C,C2*%
X101000000Y-107000000D03*
D32*
X101000000Y-92014000D03*
%TD*%
D24*
%TO.C,C5*%
X91000000Y-121000000D03*
D25*
X91000000Y-113500000D03*
%TD*%
D37*
%TO.C,D1*%
X164262500Y-135750000D03*
X167237500Y-135750000D03*
%TD*%
D24*
%TO.C,C8*%
X116500000Y-105750000D03*
D25*
X116500000Y-113250000D03*
%TD*%
D24*
%TO.C,C6*%
X97250000Y-121000000D03*
D25*
X97250000Y-113500000D03*
%TD*%
D27*
%TO.C,J1*%
X60480001Y-113000000D03*
D28*
X64800000Y-114500000D03*
D29*
X64800000Y-111500001D03*
X67799999Y-114500000D03*
X67799999Y-111500001D03*
%TD*%
D20*
%TO.C,MH1*%
X61800000Y-70600000D03*
D21*
X61800000Y-70600000D03*
%TD*%
G36*
X157508059Y-83001061D02*
G01*
X157613223Y-83014906D01*
X157644491Y-83023284D01*
X157734918Y-83060740D01*
X157762951Y-83076925D01*
X157840601Y-83136508D01*
X157863491Y-83159398D01*
X157923074Y-83237048D01*
X157939259Y-83265081D01*
X157976715Y-83355508D01*
X157985093Y-83386775D01*
X157998939Y-83491939D01*
X158000000Y-83508125D01*
X158000000Y-121991874D01*
X157998939Y-122008060D01*
X157985093Y-122113224D01*
X157976715Y-122144491D01*
X157939259Y-122234918D01*
X157923074Y-122262951D01*
X157863491Y-122340601D01*
X157840601Y-122363491D01*
X157762951Y-122423074D01*
X157734918Y-122439259D01*
X157644491Y-122476715D01*
X157613224Y-122485093D01*
X157508060Y-122498939D01*
X157491874Y-122500000D01*
X130008126Y-122500000D01*
X129991940Y-122498939D01*
X129886775Y-122485093D01*
X129855508Y-122476715D01*
X129765081Y-122439259D01*
X129737048Y-122423074D01*
X129659398Y-122363491D01*
X129636508Y-122340601D01*
X129576925Y-122262951D01*
X129560740Y-122234918D01*
X129523284Y-122144491D01*
X129514906Y-122113223D01*
X129501061Y-122008059D01*
X129500000Y-121991874D01*
X129500000Y-83508125D01*
X129501061Y-83491940D01*
X129514906Y-83386776D01*
X129523284Y-83355508D01*
X129560740Y-83265081D01*
X129576925Y-83237048D01*
X129636508Y-83159398D01*
X129659398Y-83136508D01*
X129737048Y-83076925D01*
X129765081Y-83060740D01*
X129855508Y-83023284D01*
X129886776Y-83014906D01*
X129991941Y-83001061D01*
X130008126Y-83000000D01*
X157491874Y-83000000D01*
X157508059Y-83001061D01*
G37*
%LPD*%
M02*
