%TF.GenerationSoftware,KiCad,Pcbnew,8.0.4*%
%TF.CreationDate,2024-11-06T13:18:38+05:30*%
%TF.ProjectId,PS_CARD,50535f43-4152-4442-9e6b-696361645f70,rev?*%
%TF.SameCoordinates,Original*%
%TF.FileFunction,Copper,L1,Top*%
%TF.FilePolarity,Positive*%
%FSLAX46Y46*%
G04 Gerber Fmt 4.6, Leading zero omitted, Abs format (unit mm)*
G04 Created by KiCad (PCBNEW 8.0.4) date 2024-11-06 13:18:38*
%MOMM*%
%LPD*%
G01*
G04 APERTURE LIST*
G04 Aperture macros list*
%AMRoundRect*
0 Rectangle with rounded corners*
0 $1 Rounding radius*
0 $2 $3 $4 $5 $6 $7 $8 $9 X,Y pos of 4 corners*
0 Add a 4 corners polygon primitive as box body*
4,1,4,$2,$3,$4,$5,$6,$7,$8,$9,$2,$3,0*
0 Add four circle primitives for the rounded corners*
1,1,$1+$1,$2,$3*
1,1,$1+$1,$4,$5*
1,1,$1+$1,$6,$7*
1,1,$1+$1,$8,$9*
0 Add four rect primitives between the rounded corners*
20,1,$1+$1,$2,$3,$4,$5,0*
20,1,$1+$1,$4,$5,$6,$7,0*
20,1,$1+$1,$6,$7,$8,$9,0*
20,1,$1+$1,$8,$9,$2,$3,0*%
G04 Aperture macros list end*
%TA.AperFunction,ComponentPad*%
%ADD10R,1.800000X1.800000*%
%TD*%
%TA.AperFunction,ComponentPad*%
%ADD11C,1.700000*%
%TD*%
%TA.AperFunction,ComponentPad*%
%ADD12R,1.625600X1.625600*%
%TD*%
%TA.AperFunction,ComponentPad*%
%ADD13C,1.625600*%
%TD*%
%TA.AperFunction,ComponentPad*%
%ADD14C,3.900000*%
%TD*%
%TA.AperFunction,ConnectorPad*%
%ADD15C,7.000000*%
%TD*%
%TA.AperFunction,WasherPad*%
%ADD16C,4.000000*%
%TD*%
%TA.AperFunction,ComponentPad*%
%ADD17C,2.700000*%
%TD*%
%TA.AperFunction,ComponentPad*%
%ADD18R,1.422400X1.422400*%
%TD*%
%TA.AperFunction,ComponentPad*%
%ADD19C,1.422400*%
%TD*%
%TA.AperFunction,ComponentPad*%
%ADD20C,1.066800*%
%TD*%
%TA.AperFunction,ComponentPad*%
%ADD21R,1.520000X1.520000*%
%TD*%
%TA.AperFunction,ComponentPad*%
%ADD22C,1.520000*%
%TD*%
%TA.AperFunction,SMDPad,CuDef*%
%ADD23RoundRect,0.250000X0.350000X0.450000X-0.350000X0.450000X-0.350000X-0.450000X0.350000X-0.450000X0*%
%TD*%
%TA.AperFunction,ComponentPad*%
%ADD24R,1.574800X1.574800*%
%TD*%
%TA.AperFunction,ComponentPad*%
%ADD25C,1.574800*%
%TD*%
%TA.AperFunction,ComponentPad*%
%ADD26C,1.200000*%
%TD*%
%TA.AperFunction,SMDPad,CuDef*%
%ADD27RoundRect,0.250000X-0.412500X-0.650000X0.412500X-0.650000X0.412500X0.650000X-0.412500X0.650000X0*%
%TD*%
%TA.AperFunction,ComponentPad*%
%ADD28C,1.600000*%
%TD*%
%TA.AperFunction,ComponentPad*%
%ADD29C,1.800000*%
%TD*%
%TA.AperFunction,SMDPad,CuDef*%
%ADD30RoundRect,0.250001X-0.462499X-0.624999X0.462499X-0.624999X0.462499X0.624999X-0.462499X0.624999X0*%
%TD*%
%TA.AperFunction,ViaPad*%
%ADD31C,0.800000*%
%TD*%
%TA.AperFunction,ViaPad*%
%ADD32C,1.000000*%
%TD*%
%TA.AperFunction,Conductor*%
%ADD33C,2.000000*%
%TD*%
%TA.AperFunction,Conductor*%
%ADD34C,1.000000*%
%TD*%
%TA.AperFunction,Conductor*%
%ADD35C,3.000000*%
%TD*%
%TA.AperFunction,Conductor*%
%ADD36C,0.650000*%
%TD*%
G04 APERTURE END LIST*
D10*
%TO.P,C9,1*%
%TO.N,/BoostP*%
X179000000Y-80500000D03*
D11*
%TO.P,C9,2*%
%TO.N,/BoostN*%
X179000000Y-88000000D03*
%TD*%
D12*
%TO.P,F1,1,1*%
%TO.N,/ACN*%
X67920000Y-103000000D03*
D13*
%TO.P,F1,2,2*%
%TO.N,/ACN_FuseToChock*%
X73000000Y-103000000D03*
%TD*%
D14*
%TO.P,MH4,1,1*%
%TO.N,GNDPWR*%
X185600000Y-70600000D03*
D15*
X185600000Y-70600000D03*
%TD*%
D16*
%TO.P,U1,*%
%TO.N,*%
X162250000Y-127050000D03*
X134350000Y-78700000D03*
D11*
%TO.P,U1,1,AC1*%
%TO.N,Net-(U1-AC1)*%
X149550000Y-78700000D03*
%TO.P,U1,2,AC2*%
%TO.N,/U1-AC2*%
X162250000Y-78700000D03*
%TO.P,U1,3,BC+*%
%TO.N,/BoostP*%
X162250000Y-94000000D03*
%TO.P,U1,4,BC-*%
%TO.N,/BoostN*%
X162250000Y-101600000D03*
D17*
%TO.P,U1,5,+VO*%
%TO.N,+28V*%
X149550000Y-127000000D03*
D11*
%TO.P,U1,6,Trim*%
%TO.N,/Trim*%
X141950000Y-127000000D03*
D17*
%TO.P,U1,7,-VO*%
%TO.N,GND*%
X134350000Y-127000000D03*
%TD*%
D18*
%TO.P,C12,1*%
%TO.N,+28V*%
X149750000Y-137000000D03*
D19*
%TO.P,C12,2*%
%TO.N,GNDPWR*%
X157250000Y-137000000D03*
%TD*%
D20*
%TO.P,C10,1*%
%TO.N,/BoostP*%
X173000000Y-95500000D03*
%TO.P,C10,2*%
%TO.N,/BoostN*%
X173000000Y-100500000D03*
%TD*%
D21*
%TO.P,J2,1,1*%
%TO.N,+28V*%
X183200001Y-102260354D03*
D22*
%TO.P,J2,2,2*%
X183200001Y-105260353D03*
%TO.P,J2,3,3*%
X183200001Y-108260352D03*
%TO.P,J2,4,4*%
X183200001Y-111260351D03*
%TO.P,J2,5,5*%
X183200001Y-114260350D03*
%TO.P,J2,6,6*%
X183200001Y-117260349D03*
%TO.P,J2,7,7*%
X183200001Y-120260348D03*
%TO.P,J2,8,8*%
X183200001Y-123260348D03*
%TO.P,J2,9,9*%
%TO.N,GND*%
X180200002Y-102260354D03*
%TO.P,J2,10,10*%
X180200002Y-105260353D03*
%TO.P,J2,11,11*%
X180200002Y-108260352D03*
%TO.P,J2,12,12*%
X180200002Y-111260351D03*
%TO.P,J2,13,13*%
X180200002Y-114260350D03*
%TO.P,J2,14,14*%
X180200002Y-117260349D03*
%TO.P,J2,15,15*%
X180200002Y-120260348D03*
%TO.P,J2,16,16*%
X180200002Y-123260348D03*
%TD*%
D23*
%TO.P,R1,1*%
%TO.N,+28V*%
X171750000Y-135750000D03*
%TO.P,R1,2*%
%TO.N,Net-(D1-A)*%
X169750000Y-135750000D03*
%TD*%
D14*
%TO.P,MH2,1,1*%
%TO.N,GNDPWR*%
X61600000Y-136600000D03*
D15*
X61600000Y-136600000D03*
%TD*%
D10*
%TO.P,C14,1*%
%TO.N,+28V*%
X124500000Y-124000000D03*
D11*
%TO.P,C14,2*%
%TO.N,GND*%
X117000000Y-124000000D03*
%TD*%
D18*
%TO.P,C11,1*%
%TO.N,+28V*%
X173250000Y-120000000D03*
D19*
%TO.P,C11,2*%
%TO.N,/BoostN*%
X173250000Y-112500000D03*
%TD*%
D24*
%TO.P,C3,1*%
%TO.N,/U1-AC2*%
X109750000Y-105500000D03*
D25*
%TO.P,C3,2*%
%TO.N,Net-(U1-AC1)*%
X109750000Y-120486000D03*
%TD*%
D26*
%TO.P,RT1,1*%
%TO.N,Net-(L2-Pad2)*%
X122750000Y-107250000D03*
%TO.P,RT1,2*%
%TO.N,Net-(U1-AC1)*%
X122750000Y-112250000D03*
%TD*%
D18*
%TO.P,C7,1*%
%TO.N,GNDPWR*%
X103500000Y-121000000D03*
D19*
%TO.P,C7,2*%
%TO.N,/U1-AC2*%
X103500000Y-113500000D03*
%TD*%
D27*
%TO.P,C15,1*%
%TO.N,GND*%
X141000000Y-134750000D03*
%TO.P,C15,2*%
%TO.N,+28V*%
X144125000Y-134750000D03*
%TD*%
D28*
%TO.P,RV1,1*%
%TO.N,/ACN_FuseToChock*%
X73000000Y-109400000D03*
%TO.P,RV1,2*%
%TO.N,/ACL*%
X71000000Y-114400000D03*
%TD*%
D24*
%TO.P,C1,1*%
%TO.N,/ACL*%
X78000000Y-120000000D03*
D25*
%TO.P,C1,2*%
%TO.N,/ACN_FuseToChock*%
X78000000Y-105014000D03*
%TD*%
D18*
%TO.P,C13,1*%
%TO.N,GND*%
X108500000Y-126250000D03*
D19*
%TO.P,C13,2*%
%TO.N,GNDPWR*%
X101000000Y-126250000D03*
%TD*%
D12*
%TO.P,L2,1,1*%
%TO.N,Net-(C2-Pad2)*%
X107696000Y-92000000D03*
D13*
%TO.P,L2,2,2*%
%TO.N,Net-(L2-Pad2)*%
X127000000Y-92000000D03*
%TD*%
D10*
%TO.P,L1,1*%
%TO.N,/ACN_FuseToChock*%
X84400000Y-96250000D03*
D29*
%TO.P,L1,2*%
%TO.N,/ACL*%
X84400000Y-103750000D03*
%TO.P,L1,3*%
%TO.N,/U1-AC2*%
X95100000Y-103750000D03*
%TO.P,L1,4*%
%TO.N,Net-(C2-Pad2)*%
X95100000Y-96250000D03*
%TD*%
D14*
%TO.P,MH3,1,1*%
%TO.N,GNDPWR*%
X185800000Y-136800000D03*
D15*
X185800000Y-136800000D03*
%TD*%
D18*
%TO.P,C4,1*%
%TO.N,GNDPWR*%
X85000000Y-121000000D03*
D19*
%TO.P,C4,2*%
%TO.N,/ACL*%
X85000000Y-113500000D03*
%TD*%
D24*
%TO.P,C2,1*%
%TO.N,/U1-AC2*%
X101000000Y-107000000D03*
D25*
%TO.P,C2,2*%
%TO.N,Net-(C2-Pad2)*%
X101000000Y-92014000D03*
%TD*%
D18*
%TO.P,C5,1*%
%TO.N,GNDPWR*%
X91000000Y-121000000D03*
D19*
%TO.P,C5,2*%
%TO.N,/ACN_FuseToChock*%
X91000000Y-113500000D03*
%TD*%
D30*
%TO.P,D1,1,K*%
%TO.N,GND*%
X164262500Y-135750000D03*
%TO.P,D1,2,A*%
%TO.N,Net-(D1-A)*%
X167237500Y-135750000D03*
%TD*%
D18*
%TO.P,C8,1*%
%TO.N,GNDPWR*%
X116500000Y-105750000D03*
D19*
%TO.P,C8,2*%
%TO.N,Net-(U1-AC1)*%
X116500000Y-113250000D03*
%TD*%
D18*
%TO.P,C6,1*%
%TO.N,GNDPWR*%
X97250000Y-121000000D03*
D19*
%TO.P,C6,2*%
%TO.N,Net-(C2-Pad2)*%
X97250000Y-113500000D03*
%TD*%
D21*
%TO.P,J1,1,1*%
%TO.N,/ACN*%
X64800000Y-114500000D03*
D22*
%TO.P,J1,2,2*%
X64800000Y-111500001D03*
%TO.P,J1,3,3*%
%TO.N,/ACL*%
X67799999Y-114500000D03*
%TO.P,J1,4,4*%
X67799999Y-111500001D03*
%TD*%
D14*
%TO.P,MH1,1,1*%
%TO.N,GNDPWR*%
X61800000Y-70600000D03*
D15*
X61800000Y-70600000D03*
%TD*%
D31*
%TO.N,GNDPWR*%
X145000000Y-112500000D03*
X130000000Y-97500000D03*
X150000000Y-92500000D03*
X145000000Y-102500000D03*
X140000000Y-107500000D03*
X145000000Y-107500000D03*
X135000000Y-92500000D03*
X150000000Y-87500000D03*
X155000000Y-117500000D03*
X150000000Y-97500000D03*
X135000000Y-117500000D03*
X150000000Y-112500000D03*
X140000000Y-92500000D03*
X150000000Y-102500000D03*
X130000000Y-92500000D03*
X130000000Y-87500000D03*
X155000000Y-87500000D03*
X130000000Y-117500000D03*
X140000000Y-117500000D03*
X145000000Y-117500000D03*
X155000000Y-92500000D03*
X130000000Y-102500000D03*
X145000000Y-87500000D03*
X150000000Y-117500000D03*
X140000000Y-102500000D03*
X135000000Y-112500000D03*
X135000000Y-97500000D03*
X145000000Y-92500000D03*
X130000000Y-112500000D03*
X135000000Y-87500000D03*
X135000000Y-107500000D03*
X140000000Y-112500000D03*
X145000000Y-97500000D03*
X155000000Y-97500000D03*
X135000000Y-102500000D03*
X155000000Y-112500000D03*
X155000000Y-102500000D03*
X130000000Y-107500000D03*
X150000000Y-107500000D03*
X140000000Y-97500000D03*
X140000000Y-87500000D03*
X155000000Y-107500000D03*
D32*
%TO.N,GND*%
X139250000Y-135250000D03*
X162499999Y-135686902D03*
X139250000Y-133750000D03*
%TD*%
D33*
%TO.N,Net-(C2-Pad2)*%
X95100000Y-96250000D02*
X99336000Y-92014000D01*
X97250000Y-113500000D02*
X91500000Y-107750000D01*
X91500000Y-99850000D02*
X95100000Y-96250000D01*
X99336000Y-92014000D02*
X101000000Y-92014000D01*
X91500000Y-107750000D02*
X91500000Y-99850000D01*
X101014000Y-92000000D02*
X101000000Y-92014000D01*
X107696000Y-92000000D02*
X101014000Y-92000000D01*
D34*
%TO.N,Net-(U1-AC1)*%
X116500000Y-113736000D02*
X116500000Y-113250000D01*
D35*
X119750000Y-112250000D02*
X122750000Y-112250000D01*
X117500000Y-112250000D02*
X109750000Y-120000000D01*
X119750000Y-85350000D02*
X119750000Y-112250000D01*
D34*
X109750000Y-120486000D02*
X116500000Y-113736000D01*
D35*
X117500000Y-112250000D02*
X116500000Y-113250000D01*
X109750000Y-120000000D02*
X109750000Y-120486000D01*
X149550000Y-78700000D02*
X145550000Y-74700000D01*
X122750000Y-112250000D02*
X117500000Y-112250000D01*
X130400000Y-74700000D02*
X119750000Y-85350000D01*
X145550000Y-74700000D02*
X130400000Y-74700000D01*
D33*
%TO.N,GNDPWR*%
X116500000Y-105750000D02*
X116500000Y-108000000D01*
X116500000Y-108000000D02*
X103500000Y-121000000D01*
D34*
%TO.N,+28V*%
X171750000Y-135750000D02*
X171750000Y-131000000D01*
X153550000Y-131000000D02*
X149550000Y-127000000D01*
X171750000Y-131000000D02*
X153550000Y-131000000D01*
%TO.N,GND*%
X140000000Y-133750000D02*
X141000000Y-134750000D01*
X139250000Y-133750000D02*
X140000000Y-133750000D01*
D36*
X162499999Y-135686902D02*
X164199402Y-135686902D01*
D34*
X139250000Y-135250000D02*
X140500000Y-135250000D01*
X140500000Y-135250000D02*
X141000000Y-134750000D01*
D36*
X164199402Y-135686902D02*
X164262500Y-135750000D01*
D34*
%TO.N,Net-(D1-A)*%
X169750000Y-135750000D02*
X167237500Y-135750000D01*
D33*
%TO.N,/ACN*%
X64800000Y-111500001D02*
X64800000Y-106120000D01*
X64800000Y-115750000D02*
X64800000Y-111500001D01*
X64800000Y-106120000D02*
X67920000Y-103000000D01*
%TO.N,Net-(L2-Pad2)*%
X127000000Y-92000000D02*
X127000000Y-103000000D01*
X127000000Y-103000000D02*
X122750000Y-107250000D01*
%TO.N,/ACN_FuseToChock*%
X84400000Y-96250000D02*
X84400000Y-98614000D01*
X73000000Y-103000000D02*
X73000000Y-109400000D01*
X75986000Y-103000000D02*
X78000000Y-105014000D01*
X84400000Y-98614000D02*
X78000000Y-105014000D01*
X73000000Y-103000000D02*
X75986000Y-103000000D01*
D35*
%TO.N,/U1-AC2*%
X113816000Y-83384000D02*
X113816000Y-101066000D01*
X154100000Y-70600000D02*
X126600000Y-70600000D01*
X162200000Y-78700000D02*
X154100000Y-70600000D01*
X162250000Y-78700000D02*
X162200000Y-78700000D01*
X126600000Y-70600000D02*
X113816000Y-83384000D01*
%TD*%
%TA.AperFunction,Conductor*%
%TO.N,/ACL*%
G36*
X85481722Y-100311106D02*
G01*
X85590104Y-100340992D01*
X85624088Y-100356156D01*
X85718726Y-100416860D01*
X85746673Y-100441421D01*
X85825127Y-100534717D01*
X85836016Y-100549846D01*
X87791663Y-103749994D01*
X88163387Y-104358269D01*
X88171949Y-104375016D01*
X88219413Y-104488313D01*
X88226032Y-104514803D01*
X79750000Y-109750000D01*
X80000000Y-117250000D01*
X81817797Y-117250000D01*
X81793664Y-117724609D01*
X81793663Y-117724615D01*
X81524612Y-123015958D01*
X81522231Y-123034637D01*
X81497460Y-123155097D01*
X81484415Y-123190308D01*
X81429360Y-123289478D01*
X81406371Y-123319171D01*
X81324157Y-123397310D01*
X81293337Y-123418760D01*
X81191498Y-123468710D01*
X81155669Y-123479950D01*
X81079326Y-123491644D01*
X81034112Y-123498570D01*
X81015339Y-123500000D01*
X75937821Y-123500000D01*
X75916804Y-123498206D01*
X75869317Y-123490038D01*
X75781199Y-123474883D01*
X75741578Y-123460838D01*
X75621567Y-123393555D01*
X75604112Y-123381712D01*
X73013231Y-121280998D01*
X70403198Y-119164755D01*
X76712600Y-119164755D01*
X76712600Y-119750000D01*
X77528420Y-119750000D01*
X77502950Y-119794115D01*
X77466600Y-119929777D01*
X77466600Y-120070223D01*
X77502950Y-120205885D01*
X77528420Y-120250000D01*
X76712600Y-120250000D01*
X76712600Y-120835244D01*
X76719001Y-120894772D01*
X76719003Y-120894779D01*
X76769245Y-121029486D01*
X76769249Y-121029493D01*
X76855409Y-121144587D01*
X76855412Y-121144590D01*
X76970506Y-121230750D01*
X76970513Y-121230754D01*
X77105220Y-121280996D01*
X77105227Y-121280998D01*
X77164755Y-121287399D01*
X77164772Y-121287400D01*
X77750000Y-121287400D01*
X77750000Y-120471579D01*
X77794115Y-120497050D01*
X77929777Y-120533400D01*
X78070223Y-120533400D01*
X78205885Y-120497050D01*
X78250000Y-120471579D01*
X78250000Y-121287400D01*
X78835228Y-121287400D01*
X78835244Y-121287399D01*
X78894772Y-121280998D01*
X78894779Y-121280996D01*
X79029486Y-121230754D01*
X79029493Y-121230750D01*
X79144587Y-121144590D01*
X79144590Y-121144587D01*
X79230750Y-121029493D01*
X79230754Y-121029486D01*
X79280996Y-120894779D01*
X79280998Y-120894772D01*
X79287399Y-120835244D01*
X79287400Y-120835227D01*
X79287400Y-120250000D01*
X78471580Y-120250000D01*
X78497050Y-120205885D01*
X78533400Y-120070223D01*
X78533400Y-119929777D01*
X78497050Y-119794115D01*
X78471580Y-119750000D01*
X79287400Y-119750000D01*
X79287400Y-119164772D01*
X79287399Y-119164755D01*
X79280998Y-119105227D01*
X79280996Y-119105220D01*
X79230754Y-118970513D01*
X79230750Y-118970506D01*
X79144590Y-118855412D01*
X79144587Y-118855409D01*
X79029493Y-118769249D01*
X79029486Y-118769245D01*
X78894779Y-118719003D01*
X78894772Y-118719001D01*
X78835244Y-118712600D01*
X78250000Y-118712600D01*
X78250000Y-119528420D01*
X78205885Y-119502950D01*
X78070223Y-119466600D01*
X77929777Y-119466600D01*
X77794115Y-119502950D01*
X77750000Y-119528420D01*
X77750000Y-118712600D01*
X77164755Y-118712600D01*
X77105227Y-118719001D01*
X77105220Y-118719003D01*
X76970513Y-118769245D01*
X76970506Y-118769249D01*
X76855412Y-118855409D01*
X76855409Y-118855412D01*
X76769249Y-118970506D01*
X76769245Y-118970513D01*
X76719003Y-119105220D01*
X76719001Y-119105227D01*
X76712600Y-119164755D01*
X70403198Y-119164755D01*
X69086935Y-118097515D01*
X69047261Y-118040005D01*
X69041034Y-118001701D01*
X69036373Y-116826952D01*
X69032827Y-116768793D01*
X69025259Y-116644630D01*
X69025258Y-116644623D01*
X68976110Y-116397531D01*
X68888912Y-116161170D01*
X68765814Y-115941360D01*
X68609845Y-115743513D01*
X68609843Y-115743511D01*
X68609837Y-115743505D01*
X68534230Y-115673613D01*
X68498364Y-115613651D01*
X68494874Y-115571750D01*
X68496750Y-115550304D01*
X68425471Y-115479025D01*
X70274526Y-115479025D01*
X70347513Y-115530132D01*
X70347521Y-115530136D01*
X70553668Y-115626264D01*
X70553682Y-115626269D01*
X70773389Y-115685139D01*
X70773400Y-115685141D01*
X70999998Y-115704966D01*
X71000002Y-115704966D01*
X71226599Y-115685141D01*
X71226610Y-115685139D01*
X71446317Y-115626269D01*
X71446331Y-115626264D01*
X71652478Y-115530136D01*
X71725471Y-115479024D01*
X71000000Y-114753553D01*
X70274526Y-115479025D01*
X68425471Y-115479025D01*
X67937574Y-114991128D01*
X67996852Y-114975245D01*
X68113146Y-114908102D01*
X68208101Y-114813147D01*
X68275244Y-114696853D01*
X68291127Y-114637575D01*
X68850303Y-115196751D01*
X68850304Y-115196751D01*
X68895357Y-115132410D01*
X68895361Y-115132402D01*
X68988531Y-114932598D01*
X68988535Y-114932587D01*
X69045596Y-114719634D01*
X69045597Y-114719626D01*
X69064812Y-114500001D01*
X69064812Y-114499998D01*
X69056063Y-114399997D01*
X69695034Y-114399997D01*
X69695034Y-114400002D01*
X69714858Y-114626599D01*
X69714860Y-114626610D01*
X69773730Y-114846317D01*
X69773735Y-114846331D01*
X69869863Y-115052478D01*
X69920974Y-115125472D01*
X70646447Y-114400000D01*
X70646447Y-114399999D01*
X70606952Y-114360504D01*
X70700000Y-114360504D01*
X70700000Y-114439496D01*
X70720444Y-114515796D01*
X70759940Y-114584205D01*
X70815795Y-114640060D01*
X70884204Y-114679556D01*
X70960504Y-114700000D01*
X71039496Y-114700000D01*
X71115796Y-114679556D01*
X71184205Y-114640060D01*
X71240060Y-114584205D01*
X71279556Y-114515796D01*
X71300000Y-114439496D01*
X71300000Y-114399999D01*
X71353553Y-114399999D01*
X71353553Y-114400000D01*
X72079024Y-115125471D01*
X72130136Y-115052478D01*
X72226264Y-114846331D01*
X72226269Y-114846317D01*
X72285139Y-114626610D01*
X72285141Y-114626599D01*
X72304966Y-114400002D01*
X72304966Y-114399997D01*
X72285141Y-114173400D01*
X72285139Y-114173389D01*
X72226269Y-113953682D01*
X72226264Y-113953668D01*
X72130136Y-113747521D01*
X72130132Y-113747513D01*
X72079025Y-113674526D01*
X71353553Y-114399999D01*
X71300000Y-114399999D01*
X71300000Y-114360504D01*
X71279556Y-114284204D01*
X71240060Y-114215795D01*
X71184205Y-114159940D01*
X71115796Y-114120444D01*
X71039496Y-114100000D01*
X70960504Y-114100000D01*
X70884204Y-114120444D01*
X70815795Y-114159940D01*
X70759940Y-114215795D01*
X70720444Y-114284204D01*
X70700000Y-114360504D01*
X70606952Y-114360504D01*
X69920974Y-113674526D01*
X69920973Y-113674526D01*
X69869868Y-113747512D01*
X69869866Y-113747516D01*
X69773734Y-113953673D01*
X69773730Y-113953682D01*
X69714860Y-114173389D01*
X69714858Y-114173400D01*
X69695034Y-114399997D01*
X69056063Y-114399997D01*
X69045597Y-114280373D01*
X69045596Y-114280366D01*
X68988532Y-114067404D01*
X68895359Y-113867595D01*
X68895358Y-113867593D01*
X68850303Y-113803248D01*
X68850303Y-113803247D01*
X68291126Y-114362423D01*
X68275244Y-114303147D01*
X68208101Y-114186853D01*
X68113146Y-114091898D01*
X67996852Y-114024755D01*
X67937573Y-114008871D01*
X68496750Y-113449694D01*
X68432401Y-113404638D01*
X68252980Y-113320973D01*
X70274526Y-113320973D01*
X70274526Y-113320974D01*
X71000000Y-114046447D01*
X71000001Y-114046447D01*
X71725472Y-113320974D01*
X71652478Y-113269863D01*
X71446331Y-113173735D01*
X71446317Y-113173730D01*
X71226610Y-113114860D01*
X71226599Y-113114858D01*
X71000002Y-113095034D01*
X70999998Y-113095034D01*
X70773400Y-113114858D01*
X70773389Y-113114860D01*
X70553682Y-113173730D01*
X70553673Y-113173734D01*
X70347516Y-113269866D01*
X70347512Y-113269868D01*
X70274526Y-113320973D01*
X68252980Y-113320973D01*
X68232592Y-113311466D01*
X68232586Y-113311463D01*
X68019633Y-113254402D01*
X68019625Y-113254401D01*
X67800001Y-113235187D01*
X67799997Y-113235187D01*
X67580372Y-113254401D01*
X67580365Y-113254402D01*
X67367403Y-113311466D01*
X67167593Y-113404640D01*
X67103247Y-113449694D01*
X67662424Y-114008871D01*
X67603146Y-114024755D01*
X67486852Y-114091898D01*
X67391897Y-114186853D01*
X67324754Y-114303147D01*
X67308870Y-114362425D01*
X66749693Y-113803248D01*
X66725576Y-113837692D01*
X66671000Y-113881318D01*
X66601502Y-113888512D01*
X66539146Y-113856990D01*
X66503732Y-113796761D01*
X66500000Y-113766570D01*
X66500000Y-112233430D01*
X66519685Y-112166391D01*
X66572489Y-112120636D01*
X66641647Y-112110692D01*
X66705203Y-112139717D01*
X66725576Y-112162308D01*
X66749693Y-112196752D01*
X67308870Y-111637575D01*
X67324754Y-111696854D01*
X67391897Y-111813148D01*
X67486852Y-111908103D01*
X67603146Y-111975246D01*
X67662423Y-111991129D01*
X67103246Y-112550305D01*
X67167592Y-112595360D01*
X67367405Y-112688534D01*
X67367411Y-112688537D01*
X67580364Y-112745598D01*
X67580372Y-112745599D01*
X67799997Y-112764814D01*
X67800001Y-112764814D01*
X68019625Y-112745599D01*
X68019633Y-112745598D01*
X68232586Y-112688537D01*
X68232597Y-112688533D01*
X68432401Y-112595363D01*
X68432409Y-112595359D01*
X68496750Y-112550306D01*
X68496750Y-112550305D01*
X67937574Y-111991128D01*
X67996852Y-111975246D01*
X68113146Y-111908103D01*
X68208101Y-111813148D01*
X68275244Y-111696854D01*
X68291127Y-111637576D01*
X68850303Y-112196752D01*
X68850304Y-112196752D01*
X68895357Y-112132411D01*
X68895361Y-112132403D01*
X68988531Y-111932599D01*
X68988535Y-111932588D01*
X69045596Y-111719635D01*
X69045597Y-111719627D01*
X69064812Y-111500000D01*
X69064812Y-111499999D01*
X69045597Y-111280374D01*
X69045596Y-111280367D01*
X68988532Y-111067405D01*
X68895359Y-110867596D01*
X68895358Y-110867594D01*
X68850303Y-110803249D01*
X68850303Y-110803248D01*
X68291126Y-111362424D01*
X68275244Y-111303148D01*
X68208101Y-111186854D01*
X68113146Y-111091899D01*
X67996852Y-111024756D01*
X67937573Y-111008872D01*
X68496750Y-110449695D01*
X68432401Y-110404639D01*
X68232592Y-110311467D01*
X68232586Y-110311464D01*
X68019633Y-110254403D01*
X68019626Y-110254402D01*
X67800066Y-110235193D01*
X67734998Y-110209740D01*
X67694019Y-110153149D01*
X67690141Y-110083387D01*
X67724595Y-110022603D01*
X67728811Y-110018704D01*
X67749995Y-110000000D01*
X67750000Y-110000000D01*
X67805071Y-109834786D01*
X67844944Y-109777413D01*
X67909507Y-109750705D01*
X67922707Y-109750000D01*
X68701679Y-109750000D01*
X68717931Y-109751069D01*
X68823533Y-109765032D01*
X68854916Y-109773478D01*
X68945671Y-109811247D01*
X68973777Y-109827559D01*
X69051591Y-109887613D01*
X69074500Y-109910676D01*
X69139018Y-109995440D01*
X69148011Y-110009021D01*
X69856034Y-111248061D01*
X69856037Y-111248065D01*
X70000000Y-111500000D01*
X73792886Y-111500000D01*
X73792893Y-111500000D01*
X74000000Y-111500000D01*
X81750005Y-103749994D01*
X82995202Y-103749994D01*
X82995202Y-103750005D01*
X83014361Y-103981218D01*
X83071317Y-104206135D01*
X83164515Y-104418606D01*
X83248812Y-104547633D01*
X83876212Y-103920233D01*
X83887482Y-103962292D01*
X83959890Y-104087708D01*
X84062292Y-104190110D01*
X84187708Y-104262518D01*
X84229765Y-104273787D01*
X83601201Y-104902351D01*
X83631649Y-104926050D01*
X83835697Y-105036476D01*
X83835706Y-105036479D01*
X84055139Y-105111811D01*
X84283993Y-105150000D01*
X84516007Y-105150000D01*
X84744860Y-105111811D01*
X84964293Y-105036479D01*
X84964301Y-105036476D01*
X85168355Y-104926047D01*
X85198797Y-104902351D01*
X85198798Y-104902350D01*
X84570235Y-104273787D01*
X84612292Y-104262518D01*
X84737708Y-104190110D01*
X84840110Y-104087708D01*
X84912518Y-103962292D01*
X84923787Y-103920234D01*
X85551186Y-104547633D01*
X85635482Y-104418611D01*
X85728682Y-104206135D01*
X85785638Y-103981218D01*
X85804798Y-103750005D01*
X85804798Y-103749994D01*
X85785638Y-103518781D01*
X85728682Y-103293864D01*
X85635484Y-103081393D01*
X85551186Y-102952365D01*
X84923787Y-103579764D01*
X84912518Y-103537708D01*
X84840110Y-103412292D01*
X84737708Y-103309890D01*
X84612292Y-103237482D01*
X84570233Y-103226212D01*
X85198797Y-102597647D01*
X85198797Y-102597645D01*
X85168360Y-102573955D01*
X85168354Y-102573951D01*
X84964302Y-102463523D01*
X84964293Y-102463520D01*
X84744860Y-102388188D01*
X84516007Y-102350000D01*
X84283993Y-102350000D01*
X84055139Y-102388188D01*
X83835706Y-102463520D01*
X83835697Y-102463523D01*
X83631650Y-102573949D01*
X83601200Y-102597647D01*
X84229766Y-103226212D01*
X84187708Y-103237482D01*
X84062292Y-103309890D01*
X83959890Y-103412292D01*
X83887482Y-103537708D01*
X83876212Y-103579766D01*
X83248811Y-102952365D01*
X83164516Y-103081390D01*
X83071317Y-103293864D01*
X83014361Y-103518781D01*
X82995202Y-103749994D01*
X81750005Y-103749994D01*
X85044339Y-100455660D01*
X85058475Y-100443507D01*
X85156639Y-100371216D01*
X85189570Y-100353900D01*
X85295808Y-100317095D01*
X85332394Y-100310330D01*
X85444768Y-100306709D01*
X85481722Y-100311106D01*
G37*
%TD.AperFunction*%
%TA.AperFunction,Conductor*%
G36*
X67306317Y-110108811D02*
G01*
X67361539Y-110151616D01*
X67384852Y-110217482D01*
X67368855Y-110285495D01*
X67318627Y-110334063D01*
X67313442Y-110336630D01*
X67167593Y-110404641D01*
X67103247Y-110449695D01*
X67662424Y-111008872D01*
X67603146Y-111024756D01*
X67486852Y-111091899D01*
X67391897Y-111186854D01*
X67324754Y-111303148D01*
X67308870Y-111362426D01*
X66749693Y-110803249D01*
X66725576Y-110837693D01*
X66671000Y-110881319D01*
X66601502Y-110888513D01*
X66539146Y-110856991D01*
X66503732Y-110796762D01*
X66500000Y-110766571D01*
X66500000Y-110351655D01*
X66519685Y-110284616D01*
X66572489Y-110238861D01*
X66599677Y-110230064D01*
X67236719Y-110102656D01*
X67306317Y-110108811D01*
G37*
%TD.AperFunction*%
%TD*%
%TA.AperFunction,Conductor*%
%TO.N,/U1-AC2*%
G36*
X116508059Y-98751061D02*
G01*
X116613223Y-98764906D01*
X116644491Y-98773284D01*
X116734918Y-98810740D01*
X116762952Y-98826925D01*
X116840602Y-98886509D01*
X116863491Y-98909398D01*
X116923074Y-98987048D01*
X116939259Y-99015081D01*
X116976715Y-99105508D01*
X116985093Y-99136775D01*
X116998939Y-99241939D01*
X117000000Y-99258125D01*
X117000000Y-102575084D01*
X116998428Y-102594765D01*
X116977974Y-102722005D01*
X116965638Y-102759382D01*
X116906333Y-102873809D01*
X116895884Y-102890554D01*
X116517832Y-103400926D01*
X115754755Y-104431079D01*
X115717044Y-104463001D01*
X115717724Y-104464110D01*
X115713563Y-104466659D01*
X115522496Y-104605477D01*
X115499036Y-104628936D01*
X115485670Y-104640517D01*
X115431253Y-104681253D01*
X115390517Y-104735670D01*
X115378936Y-104749036D01*
X115355477Y-104772496D01*
X115216659Y-104963563D01*
X115109433Y-105174003D01*
X115041444Y-105383252D01*
X115023154Y-105418741D01*
X109496972Y-112879086D01*
X109485012Y-112892959D01*
X106164292Y-116213681D01*
X106102969Y-116247166D01*
X106076611Y-116250000D01*
X101990890Y-116250000D01*
X101973002Y-116248703D01*
X101857042Y-116231798D01*
X101822758Y-116221585D01*
X101724695Y-116176104D01*
X101694751Y-116156528D01*
X101606942Y-116078924D01*
X101594398Y-116066107D01*
X99423075Y-113499998D01*
X102284173Y-113499998D01*
X102284173Y-113500001D01*
X102302643Y-113711120D01*
X102302645Y-113711131D01*
X102357493Y-113915829D01*
X102357497Y-113915838D01*
X102447062Y-114107912D01*
X102447063Y-114107914D01*
X102484733Y-114161712D01*
X102484734Y-114161713D01*
X103051983Y-113594463D01*
X103073958Y-113676473D01*
X103134149Y-113780727D01*
X103219273Y-113865851D01*
X103323527Y-113926042D01*
X103405535Y-113948016D01*
X102838285Y-114515265D01*
X102892087Y-114552937D01*
X103084161Y-114642502D01*
X103084170Y-114642506D01*
X103288868Y-114697354D01*
X103288879Y-114697356D01*
X103499998Y-114715827D01*
X103500002Y-114715827D01*
X103711120Y-114697356D01*
X103711131Y-114697354D01*
X103915829Y-114642506D01*
X103915838Y-114642502D01*
X104107913Y-114552937D01*
X104107917Y-114552935D01*
X104161713Y-114515266D01*
X103594464Y-113948016D01*
X103676473Y-113926042D01*
X103780727Y-113865851D01*
X103865851Y-113780727D01*
X103926042Y-113676473D01*
X103948016Y-113594463D01*
X104515266Y-114161713D01*
X104552935Y-114107917D01*
X104552937Y-114107913D01*
X104642502Y-113915838D01*
X104642506Y-113915829D01*
X104697354Y-113711131D01*
X104697356Y-113711120D01*
X104715827Y-113500001D01*
X104715827Y-113499998D01*
X104697356Y-113288879D01*
X104697354Y-113288868D01*
X104642506Y-113084170D01*
X104642502Y-113084161D01*
X104552934Y-112892083D01*
X104515266Y-112838286D01*
X104515265Y-112838285D01*
X103948016Y-113405535D01*
X103926042Y-113323527D01*
X103865851Y-113219273D01*
X103780727Y-113134149D01*
X103676473Y-113073958D01*
X103594464Y-113051983D01*
X104161713Y-112484734D01*
X104161712Y-112484733D01*
X104107914Y-112447063D01*
X104107912Y-112447062D01*
X103915838Y-112357497D01*
X103915829Y-112357493D01*
X103711131Y-112302645D01*
X103711120Y-112302643D01*
X103500002Y-112284173D01*
X103499998Y-112284173D01*
X103288879Y-112302643D01*
X103288868Y-112302645D01*
X103084170Y-112357493D01*
X103084161Y-112357497D01*
X102892088Y-112447062D01*
X102838286Y-112484733D01*
X103405536Y-113051983D01*
X103323527Y-113073958D01*
X103219273Y-113134149D01*
X103134149Y-113219273D01*
X103073958Y-113323527D01*
X103051983Y-113405536D01*
X102484733Y-112838286D01*
X102447062Y-112892088D01*
X102357497Y-113084161D01*
X102357493Y-113084170D01*
X102302645Y-113288868D01*
X102302643Y-113288879D01*
X102284173Y-113499998D01*
X99423075Y-113499998D01*
X93625356Y-106648147D01*
X93612822Y-106630383D01*
X93541564Y-106507840D01*
X93526665Y-106467167D01*
X93501906Y-106327589D01*
X93500000Y-106305932D01*
X93500000Y-106164755D01*
X99712600Y-106164755D01*
X99712600Y-106750000D01*
X100528420Y-106750000D01*
X100502950Y-106794115D01*
X100466600Y-106929777D01*
X100466600Y-107070223D01*
X100502950Y-107205885D01*
X100528420Y-107250000D01*
X99712600Y-107250000D01*
X99712600Y-107835244D01*
X99719001Y-107894772D01*
X99719003Y-107894779D01*
X99769245Y-108029486D01*
X99769249Y-108029493D01*
X99855409Y-108144587D01*
X99855412Y-108144590D01*
X99970506Y-108230750D01*
X99970513Y-108230754D01*
X100105220Y-108280996D01*
X100105227Y-108280998D01*
X100164755Y-108287399D01*
X100164772Y-108287400D01*
X100750000Y-108287400D01*
X100750000Y-107471579D01*
X100794115Y-107497050D01*
X100929777Y-107533400D01*
X101070223Y-107533400D01*
X101205885Y-107497050D01*
X101250000Y-107471579D01*
X101250000Y-108287400D01*
X101835228Y-108287400D01*
X101835244Y-108287399D01*
X101894772Y-108280998D01*
X101894779Y-108280996D01*
X102029486Y-108230754D01*
X102029493Y-108230750D01*
X102144587Y-108144590D01*
X102144590Y-108144587D01*
X102230750Y-108029493D01*
X102230754Y-108029486D01*
X102280996Y-107894779D01*
X102280998Y-107894772D01*
X102287399Y-107835244D01*
X102287400Y-107835227D01*
X102287400Y-107250000D01*
X101471580Y-107250000D01*
X101497050Y-107205885D01*
X101533400Y-107070223D01*
X101533400Y-106929777D01*
X101497050Y-106794115D01*
X101471580Y-106750000D01*
X102287400Y-106750000D01*
X102287400Y-106164772D01*
X102287399Y-106164755D01*
X102280998Y-106105227D01*
X102280996Y-106105220D01*
X102230754Y-105970513D01*
X102230750Y-105970506D01*
X102144590Y-105855412D01*
X102144587Y-105855409D01*
X102029493Y-105769249D01*
X102029486Y-105769245D01*
X101894779Y-105719003D01*
X101894772Y-105719001D01*
X101835244Y-105712600D01*
X101250000Y-105712600D01*
X101250000Y-106528420D01*
X101205885Y-106502950D01*
X101070223Y-106466600D01*
X100929777Y-106466600D01*
X100794115Y-106502950D01*
X100750000Y-106528420D01*
X100750000Y-105712600D01*
X100164755Y-105712600D01*
X100105227Y-105719001D01*
X100105220Y-105719003D01*
X99970513Y-105769245D01*
X99970506Y-105769249D01*
X99855412Y-105855409D01*
X99855409Y-105855412D01*
X99769249Y-105970506D01*
X99769245Y-105970513D01*
X99719003Y-106105220D01*
X99719001Y-106105227D01*
X99712600Y-106164755D01*
X93500000Y-106164755D01*
X93500000Y-104129513D01*
X93519685Y-104062474D01*
X93572489Y-104016719D01*
X93641647Y-104006775D01*
X93705203Y-104035800D01*
X93742977Y-104094578D01*
X93744206Y-104099073D01*
X93771317Y-104206135D01*
X93864515Y-104418606D01*
X93948812Y-104547633D01*
X94576212Y-103920233D01*
X94587482Y-103962292D01*
X94659890Y-104087708D01*
X94762292Y-104190110D01*
X94887708Y-104262518D01*
X94929765Y-104273787D01*
X94301201Y-104902351D01*
X94331649Y-104926050D01*
X94535697Y-105036476D01*
X94535706Y-105036479D01*
X94755139Y-105111811D01*
X94983993Y-105150000D01*
X95216007Y-105150000D01*
X95444860Y-105111811D01*
X95664293Y-105036479D01*
X95664301Y-105036476D01*
X95868355Y-104926047D01*
X95898797Y-104902351D01*
X95898798Y-104902350D01*
X95661203Y-104664755D01*
X108462600Y-104664755D01*
X108462600Y-105250000D01*
X109278420Y-105250000D01*
X109252950Y-105294115D01*
X109216600Y-105429777D01*
X109216600Y-105570223D01*
X109252950Y-105705885D01*
X109278420Y-105750000D01*
X108462600Y-105750000D01*
X108462600Y-106335244D01*
X108469001Y-106394772D01*
X108469003Y-106394779D01*
X108519245Y-106529486D01*
X108519249Y-106529493D01*
X108605409Y-106644587D01*
X108605412Y-106644590D01*
X108720506Y-106730750D01*
X108720513Y-106730754D01*
X108855220Y-106780996D01*
X108855227Y-106780998D01*
X108914755Y-106787399D01*
X108914772Y-106787400D01*
X109500000Y-106787400D01*
X109500000Y-105971579D01*
X109544115Y-105997050D01*
X109679777Y-106033400D01*
X109820223Y-106033400D01*
X109955885Y-105997050D01*
X110000000Y-105971579D01*
X110000000Y-106787400D01*
X110585228Y-106787400D01*
X110585244Y-106787399D01*
X110644772Y-106780998D01*
X110644779Y-106780996D01*
X110779486Y-106730754D01*
X110779493Y-106730750D01*
X110894587Y-106644590D01*
X110894590Y-106644587D01*
X110980750Y-106529493D01*
X110980754Y-106529486D01*
X111030996Y-106394779D01*
X111030998Y-106394772D01*
X111037399Y-106335244D01*
X111037400Y-106335227D01*
X111037400Y-105750000D01*
X110221580Y-105750000D01*
X110247050Y-105705885D01*
X110283400Y-105570223D01*
X110283400Y-105429777D01*
X110247050Y-105294115D01*
X110221580Y-105250000D01*
X111037400Y-105250000D01*
X111037400Y-104664772D01*
X111037399Y-104664755D01*
X111030998Y-104605227D01*
X111030996Y-104605220D01*
X110980754Y-104470513D01*
X110980750Y-104470506D01*
X110894590Y-104355412D01*
X110894587Y-104355409D01*
X110779493Y-104269249D01*
X110779486Y-104269245D01*
X110644779Y-104219003D01*
X110644772Y-104219001D01*
X110585244Y-104212600D01*
X110000000Y-104212600D01*
X110000000Y-105028420D01*
X109955885Y-105002950D01*
X109820223Y-104966600D01*
X109679777Y-104966600D01*
X109544115Y-105002950D01*
X109500000Y-105028420D01*
X109500000Y-104212600D01*
X108914755Y-104212600D01*
X108855227Y-104219001D01*
X108855220Y-104219003D01*
X108720513Y-104269245D01*
X108720506Y-104269249D01*
X108605412Y-104355409D01*
X108605409Y-104355412D01*
X108519249Y-104470506D01*
X108519245Y-104470513D01*
X108469003Y-104605220D01*
X108469001Y-104605227D01*
X108462600Y-104664755D01*
X95661203Y-104664755D01*
X95270235Y-104273787D01*
X95312292Y-104262518D01*
X95437708Y-104190110D01*
X95540110Y-104087708D01*
X95612518Y-103962292D01*
X95623787Y-103920234D01*
X96251186Y-104547633D01*
X96335482Y-104418611D01*
X96428682Y-104206135D01*
X96485638Y-103981218D01*
X96504798Y-103750005D01*
X96504798Y-103749994D01*
X96485638Y-103518781D01*
X96428682Y-103293864D01*
X96335484Y-103081393D01*
X96251186Y-102952365D01*
X95623787Y-103579764D01*
X95612518Y-103537708D01*
X95540110Y-103412292D01*
X95437708Y-103309890D01*
X95312292Y-103237482D01*
X95270233Y-103226212D01*
X95898797Y-102597647D01*
X95898797Y-102597645D01*
X95868360Y-102573955D01*
X95868354Y-102573951D01*
X95664302Y-102463523D01*
X95664293Y-102463520D01*
X95444860Y-102388188D01*
X95216007Y-102350000D01*
X94983993Y-102350000D01*
X94755139Y-102388188D01*
X94535706Y-102463520D01*
X94535697Y-102463523D01*
X94331650Y-102573949D01*
X94301200Y-102597647D01*
X94929766Y-103226212D01*
X94887708Y-103237482D01*
X94762292Y-103309890D01*
X94659890Y-103412292D01*
X94587482Y-103537708D01*
X94576212Y-103579766D01*
X93948811Y-102952365D01*
X93864516Y-103081390D01*
X93771317Y-103293864D01*
X93744206Y-103400926D01*
X93708666Y-103461082D01*
X93646246Y-103492474D01*
X93576763Y-103485136D01*
X93522277Y-103441397D01*
X93500088Y-103375145D01*
X93500000Y-103370486D01*
X93500000Y-101215232D01*
X93501061Y-101199047D01*
X93514906Y-101093883D01*
X93523284Y-101062616D01*
X93560739Y-100972191D01*
X93576924Y-100944157D01*
X93641503Y-100859996D01*
X93652190Y-100847809D01*
X95597809Y-98902190D01*
X95609996Y-98891503D01*
X95694157Y-98826924D01*
X95722191Y-98810739D01*
X95812616Y-98773284D01*
X95843882Y-98764906D01*
X95949048Y-98751061D01*
X95965233Y-98750000D01*
X116491874Y-98750000D01*
X116508059Y-98751061D01*
G37*
%TD.AperFunction*%
%TD*%
%TA.AperFunction,Conductor*%
%TO.N,/ACL*%
G36*
X88228506Y-104524698D02*
G01*
X88239923Y-104647016D01*
X88240245Y-104665803D01*
X87957274Y-109476330D01*
X87528236Y-116769984D01*
X87525727Y-116788546D01*
X87500228Y-116908203D01*
X87487027Y-116943149D01*
X87431708Y-117041498D01*
X87408700Y-117070927D01*
X87326599Y-117148341D01*
X87295870Y-117169582D01*
X87194438Y-117219032D01*
X87158777Y-117230157D01*
X87037834Y-117248585D01*
X87019156Y-117250000D01*
X80000000Y-117250000D01*
X79875000Y-113499998D01*
X83784173Y-113499998D01*
X83784173Y-113500001D01*
X83802643Y-113711120D01*
X83802645Y-113711131D01*
X83857493Y-113915829D01*
X83857497Y-113915838D01*
X83947062Y-114107912D01*
X83947063Y-114107914D01*
X83984733Y-114161712D01*
X83984734Y-114161713D01*
X84551983Y-113594463D01*
X84573958Y-113676473D01*
X84634149Y-113780727D01*
X84719273Y-113865851D01*
X84823527Y-113926042D01*
X84905535Y-113948016D01*
X84338285Y-114515265D01*
X84392087Y-114552937D01*
X84584161Y-114642502D01*
X84584170Y-114642506D01*
X84788868Y-114697354D01*
X84788879Y-114697356D01*
X84999998Y-114715827D01*
X85000002Y-114715827D01*
X85211120Y-114697356D01*
X85211131Y-114697354D01*
X85415829Y-114642506D01*
X85415838Y-114642502D01*
X85607913Y-114552937D01*
X85607917Y-114552935D01*
X85661713Y-114515266D01*
X85094464Y-113948016D01*
X85176473Y-113926042D01*
X85280727Y-113865851D01*
X85365851Y-113780727D01*
X85426042Y-113676473D01*
X85448016Y-113594463D01*
X86015266Y-114161713D01*
X86052935Y-114107917D01*
X86052937Y-114107913D01*
X86142502Y-113915838D01*
X86142506Y-113915829D01*
X86197354Y-113711131D01*
X86197356Y-113711120D01*
X86215827Y-113500001D01*
X86215827Y-113499998D01*
X86197356Y-113288879D01*
X86197354Y-113288868D01*
X86142506Y-113084170D01*
X86142502Y-113084161D01*
X86052934Y-112892083D01*
X86015266Y-112838286D01*
X86015265Y-112838285D01*
X85448016Y-113405535D01*
X85426042Y-113323527D01*
X85365851Y-113219273D01*
X85280727Y-113134149D01*
X85176473Y-113073958D01*
X85094464Y-113051983D01*
X85661713Y-112484734D01*
X85661712Y-112484733D01*
X85607914Y-112447063D01*
X85607912Y-112447062D01*
X85415838Y-112357497D01*
X85415829Y-112357493D01*
X85211131Y-112302645D01*
X85211120Y-112302643D01*
X85000002Y-112284173D01*
X84999998Y-112284173D01*
X84788879Y-112302643D01*
X84788868Y-112302645D01*
X84584170Y-112357493D01*
X84584161Y-112357497D01*
X84392088Y-112447062D01*
X84338286Y-112484733D01*
X84905536Y-113051983D01*
X84823527Y-113073958D01*
X84719273Y-113134149D01*
X84634149Y-113219273D01*
X84573958Y-113323527D01*
X84551983Y-113405536D01*
X83984733Y-112838286D01*
X83947062Y-112892088D01*
X83857497Y-113084161D01*
X83857493Y-113084170D01*
X83802645Y-113288868D01*
X83802643Y-113288879D01*
X83784173Y-113499998D01*
X79875000Y-113499998D01*
X79750000Y-109750000D01*
X88226032Y-104514801D01*
X88228506Y-104524698D01*
G37*
%TD.AperFunction*%
%TD*%
%TA.AperFunction,Conductor*%
%TO.N,GNDPWR*%
G36*
X59000000Y-112062435D02*
G01*
X58906658Y-112224109D01*
X58906651Y-112224123D01*
X58818843Y-112436112D01*
X58759454Y-112657759D01*
X58759452Y-112657770D01*
X58729501Y-112885258D01*
X58729501Y-113114741D01*
X58744201Y-113226389D01*
X58759453Y-113342238D01*
X58789283Y-113453566D01*
X58818843Y-113563887D01*
X58906651Y-113775876D01*
X58906657Y-113775888D01*
X58995201Y-113929252D01*
X59000000Y-113937563D01*
X59000000Y-140169281D01*
X58904240Y-140107460D01*
X58893766Y-140099897D01*
X58645358Y-139900045D01*
X58635729Y-139891434D01*
X58409450Y-139666812D01*
X58400783Y-139657262D01*
X58199101Y-139410315D01*
X58191467Y-139399905D01*
X58016571Y-139133315D01*
X58010057Y-139122158D01*
X57972821Y-139049999D01*
X57863856Y-138838834D01*
X57858539Y-138827063D01*
X57858217Y-138826238D01*
X57742603Y-138530052D01*
X57738544Y-138517806D01*
X57654133Y-138210327D01*
X57651374Y-138197739D01*
X57601869Y-137898019D01*
X57600212Y-137877843D01*
X57590500Y-69703229D01*
X57590668Y-69696770D01*
X57590692Y-69696310D01*
X57607446Y-69375129D01*
X57608785Y-69362320D01*
X57658435Y-69047349D01*
X57661104Y-69034730D01*
X57743252Y-68726647D01*
X57747217Y-68714383D01*
X57860974Y-68416512D01*
X57866191Y-68404731D01*
X58010333Y-68120291D01*
X58016740Y-68109132D01*
X58189679Y-67841253D01*
X58197232Y-67830793D01*
X58370056Y-67615982D01*
X58397095Y-67582374D01*
X58405692Y-67572758D01*
X58630338Y-67346457D01*
X58639863Y-67337813D01*
X58886834Y-67136113D01*
X58897229Y-67128491D01*
X59000000Y-67061069D01*
X59000000Y-112062435D01*
G37*
%TD.AperFunction*%
%TA.AperFunction,Conductor*%
G36*
X141758420Y-137238125D02*
G01*
X141813793Y-137280735D01*
X141820283Y-137290605D01*
X141900660Y-137426530D01*
X142061239Y-137620656D01*
X142109850Y-137670823D01*
X142109861Y-137670834D01*
X142146074Y-137703694D01*
X142262563Y-137809398D01*
X142262566Y-137809400D01*
X142262569Y-137809403D01*
X142436736Y-137927051D01*
X142471329Y-137950418D01*
X142501964Y-137967778D01*
X142603276Y-138025189D01*
X142603282Y-138025192D01*
X142603296Y-138025200D01*
X142638591Y-138042916D01*
X142747727Y-138097697D01*
X142747730Y-138097698D01*
X142747734Y-138097700D01*
X142985553Y-138180839D01*
X143046687Y-138196956D01*
X143204811Y-138230234D01*
X143455967Y-138250000D01*
X143000000Y-138250000D01*
X141236175Y-137250499D01*
X141489814Y-137250499D01*
X141489824Y-137250499D01*
X141649084Y-137240305D01*
X141688804Y-137232215D01*
X141758420Y-137238125D01*
G37*
%TD.AperFunction*%
%TA.AperFunction,Conductor*%
G36*
X153750000Y-138250000D02*
G01*
X152770774Y-138250000D01*
X152887080Y-138245782D01*
X153136143Y-138207873D01*
X153191101Y-138195029D01*
X153259453Y-138177462D01*
X153495930Y-138090582D01*
X153715905Y-137967778D01*
X153913961Y-137812074D01*
X153916859Y-137809403D01*
X153945897Y-137782632D01*
X153965332Y-137764715D01*
X154107630Y-137615526D01*
X154253800Y-137410333D01*
X154253802Y-137410328D01*
X154253805Y-137410325D01*
X153750000Y-138250000D01*
G37*
%TD.AperFunction*%
%TA.AperFunction,Conductor*%
G36*
X178250000Y-138250000D02*
G01*
X163250000Y-138250000D01*
X162973167Y-138031448D01*
X163043252Y-138069115D01*
X163043251Y-138069115D01*
X163043255Y-138069116D01*
X163043258Y-138069118D01*
X163297988Y-138161247D01*
X163563417Y-138215305D01*
X163722676Y-138225500D01*
X163722686Y-138225500D01*
X164802314Y-138225500D01*
X164802324Y-138225500D01*
X164961583Y-138215305D01*
X165227012Y-138161247D01*
X165481742Y-138069118D01*
X165691298Y-137956491D01*
X165759667Y-137942093D01*
X165808701Y-137956491D01*
X165918057Y-138015265D01*
X165983616Y-138050500D01*
X166018252Y-138069115D01*
X166018251Y-138069115D01*
X166018255Y-138069116D01*
X166018258Y-138069118D01*
X166272988Y-138161247D01*
X166538417Y-138215305D01*
X166697676Y-138225500D01*
X166697686Y-138225500D01*
X167777314Y-138225500D01*
X167777324Y-138225500D01*
X167936583Y-138215305D01*
X168202012Y-138161247D01*
X168456742Y-138069118D01*
X168677612Y-137950410D01*
X168745982Y-137936012D01*
X168778484Y-137943026D01*
X168897987Y-137986247D01*
X169163416Y-138040305D01*
X169322675Y-138050500D01*
X170177324Y-138050499D01*
X170336584Y-138040305D01*
X170602013Y-137986247D01*
X170707826Y-137947976D01*
X170777564Y-137943687D01*
X170792170Y-137947976D01*
X170897987Y-137986247D01*
X171163416Y-138040305D01*
X171322675Y-138050500D01*
X172177324Y-138050499D01*
X172336584Y-138040305D01*
X172602013Y-137986247D01*
X172856743Y-137894118D01*
X173095344Y-137765881D01*
X173312731Y-137604271D01*
X173504271Y-137412731D01*
X173665881Y-137195344D01*
X173794118Y-136956743D01*
X173886247Y-136702013D01*
X173940305Y-136436584D01*
X173950500Y-136277325D01*
X173950499Y-135222676D01*
X173940305Y-135063416D01*
X173935746Y-135041033D01*
X173929792Y-135011794D01*
X173886247Y-134797987D01*
X173860683Y-134727304D01*
X173857892Y-134719586D01*
X173850500Y-134677413D01*
X173850500Y-133729500D01*
X173870185Y-133662461D01*
X173922989Y-133616706D01*
X173974500Y-133605500D01*
X182178120Y-133605500D01*
X182193721Y-133604663D01*
X182349751Y-133596300D01*
X182376109Y-133593466D01*
X182500814Y-133575081D01*
X182744005Y-133509296D01*
X182973912Y-133406279D01*
X183035235Y-133372794D01*
X183209495Y-133262553D01*
X183401051Y-133098946D01*
X178250000Y-138250000D01*
G37*
%TD.AperFunction*%
%TA.AperFunction,Conductor*%
G36*
X161504538Y-133625185D02*
G01*
X161550293Y-133677989D01*
X161560237Y-133747147D01*
X161531212Y-133810703D01*
X161501929Y-133835446D01*
X161474964Y-133851845D01*
X161285852Y-133966846D01*
X161062949Y-134148191D01*
X160866811Y-134358201D01*
X160701097Y-134592966D01*
X160568893Y-134848108D01*
X160472666Y-135118864D01*
X160472665Y-135118867D01*
X160414200Y-135400221D01*
X160394591Y-135686902D01*
X160414200Y-135973582D01*
X160414200Y-135973586D01*
X160414201Y-135973588D01*
X160421167Y-136007112D01*
X160423553Y-136018594D01*
X158500000Y-134500000D01*
X156000000Y-134500000D01*
X154870122Y-136383129D01*
X155159034Y-135901609D01*
X155243480Y-135740919D01*
X155329572Y-135504154D01*
X155347243Y-135440357D01*
X155385734Y-135262945D01*
X155405500Y-135011789D01*
X155405500Y-133908153D01*
X155425185Y-133841114D01*
X155459098Y-133806077D01*
X155718151Y-133627420D01*
X155784514Y-133605566D01*
X155788549Y-133605500D01*
X161437499Y-133605500D01*
X161504538Y-133625185D01*
G37*
%TD.AperFunction*%
%TA.AperFunction,Conductor*%
G36*
X135511898Y-134004377D02*
G01*
X135529406Y-134004704D01*
X135571911Y-134005500D01*
X135571928Y-134005500D01*
X137056267Y-134005500D01*
X137123306Y-134025185D01*
X137169061Y-134077989D01*
X137179205Y-134113311D01*
X137185440Y-134160666D01*
X137192935Y-134188638D01*
X137204687Y-134232497D01*
X137206314Y-134239343D01*
X137219023Y-134300503D01*
X137222665Y-134318028D01*
X137222667Y-134318036D01*
X137241083Y-134369853D01*
X137244016Y-134379278D01*
X137256705Y-134426632D01*
X137267440Y-134452548D01*
X137274907Y-134522018D01*
X137267441Y-134547448D01*
X137256703Y-134573372D01*
X137244019Y-134620709D01*
X137241086Y-134630136D01*
X137222666Y-134681966D01*
X137222665Y-134681968D01*
X137214849Y-134719586D01*
X137206314Y-134760655D01*
X137204687Y-134767500D01*
X137185440Y-134839334D01*
X137185439Y-134839336D01*
X137178215Y-134894207D01*
X137176683Y-134903246D01*
X137167968Y-134945182D01*
X135507428Y-134004209D01*
X135511898Y-134004377D01*
G37*
%TD.AperFunction*%
%TA.AperFunction,Conductor*%
G36*
X67437378Y-118030357D02*
G01*
X67456338Y-118259322D01*
X67462565Y-118297626D01*
X67462566Y-118297634D01*
X67462567Y-118297635D01*
X67462568Y-118297643D01*
X67508677Y-118498690D01*
X67599373Y-118733729D01*
X67725717Y-118951680D01*
X67725725Y-118951693D01*
X67765389Y-119009188D01*
X67765395Y-119009196D01*
X67893150Y-119171065D01*
X68075788Y-119344596D01*
X68075798Y-119344604D01*
X68075799Y-119344605D01*
X69392051Y-120411836D01*
X72002084Y-122528079D01*
X74592955Y-124628786D01*
X74702709Y-124710284D01*
X74720145Y-124722114D01*
X74836445Y-124793989D01*
X74864899Y-124809941D01*
X74956443Y-124861264D01*
X74975042Y-124871530D01*
X74975058Y-124871537D01*
X74975066Y-124871541D01*
X75047622Y-124903873D01*
X75205160Y-124974075D01*
X75205165Y-124974076D01*
X75205170Y-124974079D01*
X75244712Y-124988096D01*
X75244773Y-124988117D01*
X75244781Y-124988120D01*
X75264901Y-124995102D01*
X75509072Y-125057153D01*
X75597190Y-125072308D01*
X75597190Y-125072307D01*
X75630977Y-125078118D01*
X75644647Y-125080470D01*
X75644653Y-125080470D01*
X75647986Y-125081044D01*
X75649100Y-125081042D01*
X75780256Y-125097889D01*
X75801273Y-125099683D01*
X75937821Y-125105500D01*
X75937830Y-125105500D01*
X81015349Y-125105500D01*
X81137264Y-125100863D01*
X81137272Y-125100862D01*
X81137282Y-125100862D01*
X81156055Y-125099432D01*
X81277211Y-125085559D01*
X81310433Y-125080470D01*
X81387603Y-125068649D01*
X81387605Y-125068648D01*
X81398760Y-125066940D01*
X81636241Y-125011838D01*
X81672070Y-125000598D01*
X81898500Y-124910160D01*
X82000339Y-124860210D01*
X82210469Y-124736523D01*
X82241289Y-124715073D01*
X82430210Y-124561044D01*
X82512424Y-124482905D01*
X82675860Y-124302038D01*
X82698849Y-124272345D01*
X82833056Y-124068751D01*
X82888111Y-123969581D01*
X82989916Y-123748067D01*
X83000000Y-123720848D01*
X83000000Y-134193014D01*
X67500000Y-134250000D01*
X67435548Y-118008270D01*
X67437378Y-118030357D01*
G37*
%TD.AperFunction*%
%TA.AperFunction,Conductor*%
G36*
X158092711Y-99519685D02*
G01*
X158138466Y-99572489D01*
X158148861Y-99634872D01*
X158149133Y-99634890D01*
X158149057Y-99636047D01*
X158149075Y-99636154D01*
X158149000Y-99636907D01*
X158147939Y-99653100D01*
X158147939Y-99653103D01*
X158146283Y-99703691D01*
X158144500Y-99758137D01*
X158144500Y-102366193D01*
X158147836Y-102469646D01*
X158148865Y-102485595D01*
X158158850Y-102588536D01*
X158172274Y-102692110D01*
X158172277Y-102692123D01*
X158203960Y-102853959D01*
X158212000Y-102895023D01*
X158212006Y-102895051D01*
X158220121Y-102925831D01*
X158220123Y-102925839D01*
X158220124Y-102925840D01*
X158285642Y-103122074D01*
X158309768Y-103181321D01*
X158322004Y-103211367D01*
X158322006Y-103211371D01*
X158412184Y-103397497D01*
X158412186Y-103397502D01*
X158427909Y-103425242D01*
X158427916Y-103425253D01*
X158541224Y-103598172D01*
X158599135Y-103675227D01*
X158599140Y-103675233D01*
X158599144Y-103675238D01*
X158733778Y-103832207D01*
X158733783Y-103832212D01*
X158756047Y-103855017D01*
X158909770Y-103993403D01*
X158985429Y-104053156D01*
X159046363Y-104095204D01*
X159155624Y-104170603D01*
X159155642Y-104170614D01*
X159155647Y-104170617D01*
X159182973Y-104186982D01*
X159233826Y-104213142D01*
X159366894Y-104281597D01*
X159462680Y-104323305D01*
X159462685Y-104323307D01*
X159462692Y-104323310D01*
X159514856Y-104344050D01*
X159558828Y-104361534D01*
X159573847Y-104366952D01*
X159672232Y-104398901D01*
X161535773Y-104938347D01*
X165736125Y-106154238D01*
X167554979Y-106680748D01*
X167613901Y-106718297D01*
X167643169Y-106781741D01*
X167644500Y-106799858D01*
X167644500Y-114491861D01*
X167647939Y-114596898D01*
X167649000Y-114613088D01*
X167659297Y-114717627D01*
X167659682Y-114720548D01*
X167673141Y-114822781D01*
X167690548Y-114910293D01*
X167714109Y-115028747D01*
X167722487Y-115060016D01*
X167722489Y-115060024D01*
X167789990Y-115258876D01*
X167789998Y-115258896D01*
X167827452Y-115349318D01*
X167920337Y-115537671D01*
X167936523Y-115565704D01*
X168053197Y-115740319D01*
X168112774Y-115817961D01*
X168112779Y-115817966D01*
X168112780Y-115817968D01*
X168251248Y-115975861D01*
X168274138Y-115998751D01*
X168390160Y-116100499D01*
X168432037Y-116137224D01*
X168509679Y-116196801D01*
X168568147Y-116235868D01*
X168684293Y-116313475D01*
X168700479Y-116322820D01*
X168712327Y-116329661D01*
X168891014Y-116417779D01*
X168900684Y-116422548D01*
X168991111Y-116460004D01*
X169189973Y-116527509D01*
X169221240Y-116535887D01*
X169221249Y-116535888D01*
X169221263Y-116535892D01*
X169324891Y-116556504D01*
X169427211Y-116576857D01*
X169491633Y-116585337D01*
X169532318Y-116590696D01*
X169532337Y-116590697D01*
X169532338Y-116590698D01*
X169636919Y-116601000D01*
X169653104Y-116602061D01*
X169666095Y-116602486D01*
X169732452Y-116624349D01*
X169776458Y-116678620D01*
X169776877Y-116679636D01*
X170237236Y-117809651D01*
X170244299Y-117879162D01*
X170215543Y-117938289D01*
X170185214Y-117972799D01*
X170185198Y-117972819D01*
X170162302Y-118003332D01*
X170029313Y-118212426D01*
X170029311Y-118212430D01*
X170007817Y-118252802D01*
X169970569Y-118322762D01*
X169916613Y-118434273D01*
X169908944Y-118451819D01*
X169863690Y-118567327D01*
X168387548Y-122811237D01*
X168346932Y-122868088D01*
X168282027Y-122893956D01*
X168270430Y-122894500D01*
X167945862Y-122894500D01*
X167878823Y-122874815D01*
X167858181Y-122858181D01*
X167500002Y-122500001D01*
X167499998Y-122499999D01*
X129336072Y-122688929D01*
X129277782Y-122674701D01*
X128113733Y-122063082D01*
X128113730Y-122063080D01*
X126796592Y-121371025D01*
X126705074Y-121326581D01*
X126690756Y-121320180D01*
X126639278Y-121298235D01*
X126639273Y-121298233D01*
X126399124Y-121222097D01*
X126399115Y-121222095D01*
X126394572Y-121221409D01*
X126332737Y-121193232D01*
X126198856Y-121079288D01*
X125985711Y-120944969D01*
X125688686Y-120788905D01*
X125688684Y-120788903D01*
X124509319Y-120169236D01*
X124411568Y-120122021D01*
X124396281Y-120115265D01*
X124295583Y-120074769D01*
X124192608Y-120037349D01*
X124192596Y-120037346D01*
X123984138Y-119977194D01*
X123984125Y-119977191D01*
X123984121Y-119977190D01*
X123968582Y-119973824D01*
X123951448Y-119970113D01*
X123736843Y-119938624D01*
X123736821Y-119938621D01*
X123636060Y-119930738D01*
X123636061Y-119930738D01*
X123419123Y-119928467D01*
X123419121Y-119928467D01*
X123419114Y-119928467D01*
X123397663Y-119929694D01*
X123385742Y-119930376D01*
X123170493Y-119957372D01*
X123170491Y-119957372D01*
X123170486Y-119957373D01*
X123132437Y-119964784D01*
X123071263Y-119976700D01*
X122861621Y-120032467D01*
X122829991Y-120043217D01*
X122829988Y-120043218D01*
X122629762Y-120126745D01*
X122629735Y-120126757D01*
X122539288Y-120171890D01*
X122352141Y-120281657D01*
X122324530Y-120300469D01*
X122153889Y-120434468D01*
X122078589Y-120502303D01*
X122078590Y-120502304D01*
X122072548Y-120507747D01*
X121994392Y-120583091D01*
X121982740Y-120595110D01*
X121909836Y-120675584D01*
X121642413Y-120991632D01*
X120298270Y-122580162D01*
X120221392Y-122678534D01*
X120210151Y-122694131D01*
X120164959Y-122762266D01*
X120141256Y-122798003D01*
X120139120Y-122801512D01*
X120075887Y-122905384D01*
X120075881Y-122905394D01*
X119963197Y-123127714D01*
X119948550Y-123163205D01*
X119871622Y-123400333D01*
X119844522Y-123513034D01*
X119844520Y-123513043D01*
X119805229Y-123759193D01*
X119802138Y-123797472D01*
X119801425Y-124046752D01*
X119801426Y-124046755D01*
X119801426Y-124046757D01*
X119803076Y-124068754D01*
X119810096Y-124162367D01*
X119810098Y-124162390D01*
X119847987Y-124408779D01*
X119847987Y-124408781D01*
X119856748Y-124446146D01*
X119856755Y-124446173D01*
X119932308Y-124683671D01*
X119932316Y-124683693D01*
X119975920Y-124791081D01*
X119975927Y-124791098D01*
X120087347Y-125014074D01*
X120107121Y-125046979D01*
X120251732Y-125250043D01*
X120251739Y-125250051D01*
X120332389Y-125346477D01*
X120416033Y-125438936D01*
X120429497Y-125452704D01*
X120429503Y-125452710D01*
X120520138Y-125538458D01*
X129595797Y-133479659D01*
X129595813Y-133479672D01*
X129595814Y-133479673D01*
X129670070Y-133540817D01*
X129670073Y-133540819D01*
X129681807Y-133549905D01*
X129733798Y-133587730D01*
X129759538Y-133606456D01*
X129839742Y-133661211D01*
X129839755Y-133661219D01*
X129839762Y-133661224D01*
X130004700Y-133759898D01*
X130031001Y-133773565D01*
X130206595Y-133851838D01*
X130206614Y-133851845D01*
X130290519Y-133883372D01*
X130290526Y-133883374D01*
X130290531Y-133883376D01*
X130474221Y-133940100D01*
X130503014Y-133947134D01*
X130692133Y-133981490D01*
X130788590Y-133993102D01*
X130884354Y-134001731D01*
X130899175Y-134002620D01*
X130921793Y-134003297D01*
X130995291Y-134005500D01*
X130995304Y-134005500D01*
X134000828Y-134005500D01*
X134000894Y-134005500D01*
X134004415Y-134005496D01*
X134004463Y-134005495D01*
X134004957Y-134005495D01*
X106000000Y-134108455D01*
X106000000Y-119250000D01*
X83311135Y-119496618D01*
X83337750Y-118973202D01*
X83360814Y-118907250D01*
X83415873Y-118864235D01*
X83461590Y-118855500D01*
X87019167Y-118855500D01*
X87140420Y-118850914D01*
X87140429Y-118850913D01*
X87140437Y-118850913D01*
X87159115Y-118849498D01*
X87159117Y-118849497D01*
X87159127Y-118849497D01*
X87233491Y-118841026D01*
X87279672Y-118835766D01*
X87400615Y-118817338D01*
X87636911Y-118762808D01*
X87672572Y-118751683D01*
X87897994Y-118662167D01*
X87999426Y-118612717D01*
X87999431Y-118612713D01*
X87999437Y-118612711D01*
X88208773Y-118490277D01*
X88208782Y-118490272D01*
X88221659Y-118481370D01*
X88239509Y-118469032D01*
X88428026Y-118316454D01*
X88510127Y-118239040D01*
X88673527Y-118059786D01*
X88696535Y-118030357D01*
X88831037Y-117828587D01*
X88886356Y-117730238D01*
X88988939Y-117510503D01*
X89002140Y-117475557D01*
X89070470Y-117242823D01*
X89095969Y-117123166D01*
X89116758Y-117003604D01*
X89119267Y-116985042D01*
X89130966Y-116864262D01*
X89223958Y-115283380D01*
X89247545Y-115217614D01*
X89302945Y-115175038D01*
X89372568Y-115169173D01*
X89429503Y-115197435D01*
X89589708Y-115337931D01*
X89652484Y-115379876D01*
X89841670Y-115506286D01*
X89841674Y-115506288D01*
X89841677Y-115506290D01*
X89962157Y-115565704D01*
X90113453Y-115640315D01*
X90400404Y-115737722D01*
X90697615Y-115796841D01*
X91000000Y-115816660D01*
X91302385Y-115796841D01*
X91599596Y-115737722D01*
X91886547Y-115640315D01*
X92158330Y-115506286D01*
X92410293Y-115337930D01*
X92638126Y-115138126D01*
X92837930Y-114910293D01*
X93006286Y-114658330D01*
X93140315Y-114386547D01*
X93237722Y-114099596D01*
X93296841Y-113802385D01*
X93314488Y-113533133D01*
X93338514Y-113467529D01*
X93394198Y-113425325D01*
X93463858Y-113419926D01*
X93525380Y-113453045D01*
X93525903Y-113453566D01*
X95514435Y-115442098D01*
X95742793Y-115624208D01*
X95990107Y-115779605D01*
X96253264Y-115906335D01*
X96451959Y-115975861D01*
X96528943Y-116002799D01*
X96528955Y-116002803D01*
X96813714Y-116067797D01*
X97103955Y-116100499D01*
X97103956Y-116100500D01*
X97103959Y-116100500D01*
X97396044Y-116100500D01*
X97396044Y-116100499D01*
X97686286Y-116067797D01*
X97971045Y-116002803D01*
X98246736Y-115906335D01*
X98509893Y-115779605D01*
X98757207Y-115624208D01*
X98878078Y-115527815D01*
X98942762Y-115501408D01*
X99011457Y-115514163D01*
X99050049Y-115544666D01*
X99067852Y-115565706D01*
X100368781Y-117103167D01*
X100446984Y-117189081D01*
X100459528Y-117201898D01*
X100543742Y-117281935D01*
X100631551Y-117359539D01*
X100816229Y-117500340D01*
X100846173Y-117519916D01*
X100846183Y-117519921D01*
X100846190Y-117519926D01*
X101049163Y-117632566D01*
X101049206Y-117632588D01*
X101100292Y-117656281D01*
X101147253Y-117678061D01*
X101275982Y-117726793D01*
X101364399Y-117760266D01*
X101398661Y-117770472D01*
X101398668Y-117770473D01*
X101398679Y-117770477D01*
X101398693Y-117770480D01*
X101625425Y-117820503D01*
X101625430Y-117820503D01*
X101625436Y-117820505D01*
X101741396Y-117837410D01*
X101856897Y-117849999D01*
X101874785Y-117851296D01*
X101990890Y-117855500D01*
X101990896Y-117855500D01*
X106076613Y-117855500D01*
X106092214Y-117854663D01*
X106248244Y-117846300D01*
X106274602Y-117843466D01*
X106399307Y-117825081D01*
X106642498Y-117759296D01*
X106872405Y-117656279D01*
X106933728Y-117622794D01*
X107107982Y-117512558D01*
X107299552Y-117348941D01*
X110620272Y-114028219D01*
X110701011Y-113941280D01*
X110712971Y-113927407D01*
X110787083Y-113834724D01*
X114092775Y-109372040D01*
X115841404Y-107011392D01*
X115897125Y-106969239D01*
X115941045Y-106961200D01*
X116250000Y-106961200D01*
X116250000Y-106500710D01*
X116269685Y-106433671D01*
X116274359Y-106426902D01*
X116313181Y-106374492D01*
X116313265Y-106374379D01*
X116317648Y-106368434D01*
X116329470Y-106349339D01*
X116420074Y-106203014D01*
X116421020Y-106202165D01*
X116439808Y-106207200D01*
X116560192Y-106207200D01*
X116617523Y-106191837D01*
X116643874Y-106231364D01*
X116649500Y-106268292D01*
X116649500Y-109174785D01*
X116629815Y-109241824D01*
X116577011Y-109287579D01*
X116566455Y-109291826D01*
X116311626Y-109380995D01*
X116311612Y-109381001D01*
X115997869Y-109532092D01*
X115703004Y-109717368D01*
X115432531Y-109933063D01*
X115430738Y-109934492D01*
X115430728Y-109934501D01*
X107434491Y-117930739D01*
X107434487Y-117930743D01*
X107217372Y-118202998D01*
X107217371Y-118203000D01*
X107032092Y-118497869D01*
X106880998Y-118811618D01*
X106865644Y-118855500D01*
X106865644Y-118855501D01*
X106765981Y-119140319D01*
X106688491Y-119479829D01*
X106688489Y-119479841D01*
X106649500Y-119825875D01*
X106649500Y-120660124D01*
X106688489Y-121006158D01*
X106688490Y-121006167D01*
X106688491Y-121006171D01*
X106705180Y-121079289D01*
X106765982Y-121345684D01*
X106765985Y-121345692D01*
X106880999Y-121674382D01*
X107032092Y-121988130D01*
X107217371Y-122282999D01*
X107217372Y-122283001D01*
X107434487Y-122555256D01*
X107680739Y-122801508D01*
X107680787Y-122801551D01*
X107680795Y-122801564D01*
X107683197Y-122803966D01*
X107682635Y-122804527D01*
X107717657Y-122860900D01*
X107716587Y-122930762D01*
X107707749Y-122952027D01*
X107126489Y-124049963D01*
X107077725Y-124100002D01*
X107064364Y-124106501D01*
X107059947Y-124108330D01*
X107059934Y-124108337D01*
X106845146Y-124239960D01*
X106845143Y-124239961D01*
X106653576Y-124403576D01*
X106489961Y-124595143D01*
X106489960Y-124595146D01*
X106358333Y-124809940D01*
X106261926Y-125042689D01*
X106203117Y-125287648D01*
X106188300Y-125475912D01*
X106188300Y-127024087D01*
X106203117Y-127212351D01*
X106261926Y-127457310D01*
X106358333Y-127690059D01*
X106489960Y-127904853D01*
X106489961Y-127904856D01*
X106489964Y-127904859D01*
X106653576Y-128096424D01*
X106801866Y-128223075D01*
X106845143Y-128260038D01*
X106845146Y-128260039D01*
X107059940Y-128391666D01*
X107292689Y-128488073D01*
X107537652Y-128546883D01*
X107725918Y-128561700D01*
X107725926Y-128561700D01*
X109274074Y-128561700D01*
X109274082Y-128561700D01*
X109462348Y-128546883D01*
X109707311Y-128488073D01*
X109940059Y-128391666D01*
X110154859Y-128260036D01*
X110346424Y-128096424D01*
X110510036Y-127904859D01*
X110641666Y-127690059D01*
X110738073Y-127457311D01*
X110796883Y-127212348D01*
X110811700Y-127024082D01*
X110811700Y-126064761D01*
X110812128Y-126054463D01*
X110830486Y-125834170D01*
X110983333Y-123999994D01*
X114544655Y-123999994D01*
X114544655Y-124000005D01*
X114564014Y-124307725D01*
X114564015Y-124307732D01*
X114564016Y-124307736D01*
X114618842Y-124595146D01*
X114621795Y-124610623D01*
X114717078Y-124903874D01*
X114717080Y-124903879D01*
X114848362Y-125182867D01*
X114848366Y-125182873D01*
X115013577Y-125443206D01*
X115013579Y-125443209D01*
X115013584Y-125443216D01*
X115210131Y-125680799D01*
X115210132Y-125680800D01*
X115434902Y-125891874D01*
X115434912Y-125891882D01*
X115684348Y-126073108D01*
X115684353Y-126073110D01*
X115684360Y-126073116D01*
X115954565Y-126221663D01*
X115954570Y-126221665D01*
X115954572Y-126221666D01*
X115954573Y-126221667D01*
X116241253Y-126335171D01*
X116241256Y-126335172D01*
X116539910Y-126411853D01*
X116539914Y-126411854D01*
X116604091Y-126419961D01*
X116845816Y-126450499D01*
X116845825Y-126450499D01*
X116845828Y-126450500D01*
X116845830Y-126450500D01*
X117154170Y-126450500D01*
X117154172Y-126450500D01*
X117154175Y-126450499D01*
X117154183Y-126450499D01*
X117344365Y-126426473D01*
X117460086Y-126411854D01*
X117758743Y-126335172D01*
X117758746Y-126335171D01*
X118045426Y-126221667D01*
X118045427Y-126221666D01*
X118045425Y-126221666D01*
X118045435Y-126221663D01*
X118315640Y-126073116D01*
X118565096Y-125891876D01*
X118789869Y-125680799D01*
X118986416Y-125443216D01*
X119151635Y-125182871D01*
X119282922Y-124903873D01*
X119378206Y-124610619D01*
X119435984Y-124307736D01*
X119436342Y-124302047D01*
X119455345Y-124000005D01*
X119455345Y-123999994D01*
X119435985Y-123692274D01*
X119435984Y-123692267D01*
X119435984Y-123692264D01*
X119378206Y-123389381D01*
X119282922Y-123096127D01*
X119246454Y-123018628D01*
X119151637Y-122817132D01*
X119151633Y-122817126D01*
X119143637Y-122804527D01*
X119070277Y-122688929D01*
X118986422Y-122556793D01*
X118986420Y-122556791D01*
X118986416Y-122556784D01*
X118789869Y-122319201D01*
X118565096Y-122108124D01*
X118565093Y-122108122D01*
X118565087Y-122108117D01*
X118315651Y-121926891D01*
X118315644Y-121926886D01*
X118315640Y-121926884D01*
X118045435Y-121778337D01*
X118045432Y-121778335D01*
X118045427Y-121778333D01*
X118045426Y-121778332D01*
X117758746Y-121664828D01*
X117758743Y-121664827D01*
X117460089Y-121588146D01*
X117460076Y-121588144D01*
X117154183Y-121549500D01*
X117154172Y-121549500D01*
X116845828Y-121549500D01*
X116845816Y-121549500D01*
X116539923Y-121588144D01*
X116539910Y-121588146D01*
X116241256Y-121664827D01*
X116241253Y-121664828D01*
X115954573Y-121778332D01*
X115954572Y-121778333D01*
X115684360Y-121926884D01*
X115684348Y-121926891D01*
X115434912Y-122108117D01*
X115434902Y-122108125D01*
X115210132Y-122319199D01*
X115106928Y-122443951D01*
X115014843Y-122555263D01*
X115013577Y-122556793D01*
X114848366Y-122817126D01*
X114848362Y-122817132D01*
X114717080Y-123096120D01*
X114717078Y-123096125D01*
X114621795Y-123389376D01*
X114564015Y-123692267D01*
X114564014Y-123692274D01*
X114544655Y-123999994D01*
X110983333Y-123999994D01*
X111035321Y-123376136D01*
X111060504Y-123310966D01*
X111105087Y-123274719D01*
X111252133Y-123203906D01*
X111546997Y-123018630D01*
X111630515Y-122952027D01*
X111819256Y-122801512D01*
X111819260Y-122801508D01*
X111819263Y-122801506D01*
X112065506Y-122555263D01*
X112087185Y-122528079D01*
X112282627Y-122283001D01*
X112282628Y-122282999D01*
X112282630Y-122282997D01*
X112467906Y-121988133D01*
X112619002Y-121674379D01*
X112695029Y-121457102D01*
X112724387Y-121410380D01*
X118747950Y-115386819D01*
X118809273Y-115353334D01*
X118835631Y-115350500D01*
X122924123Y-115350500D01*
X122924123Y-115350499D01*
X123270171Y-115311509D01*
X123609681Y-115234018D01*
X123938379Y-115119002D01*
X124252133Y-114967906D01*
X124546997Y-114782630D01*
X124624846Y-114720548D01*
X124819256Y-114565512D01*
X124819258Y-114565509D01*
X124819263Y-114565506D01*
X125065506Y-114319263D01*
X125065781Y-114318919D01*
X125282627Y-114047001D01*
X125282628Y-114046999D01*
X125282630Y-114046997D01*
X125467906Y-113752133D01*
X125619002Y-113438379D01*
X125734018Y-113109681D01*
X125811509Y-112770171D01*
X125850500Y-112424120D01*
X125850500Y-112075880D01*
X125811509Y-111729829D01*
X125734018Y-111390319D01*
X125721295Y-111353960D01*
X125661593Y-111183340D01*
X125619002Y-111061621D01*
X125467906Y-110747867D01*
X125282630Y-110453003D01*
X125282628Y-110453000D01*
X125282627Y-110452998D01*
X125065512Y-110180743D01*
X124819256Y-109934487D01*
X124547001Y-109717372D01*
X124546999Y-109717371D01*
X124292211Y-109557277D01*
X124245920Y-109504942D01*
X124235272Y-109435889D01*
X124263647Y-109372040D01*
X124280867Y-109355338D01*
X124423211Y-109241824D01*
X124485558Y-109192104D01*
X124485562Y-109192100D01*
X124485565Y-109192098D01*
X128730183Y-104947477D01*
X128730201Y-104947462D01*
X128829934Y-104847729D01*
X128942098Y-104735565D01*
X129124208Y-104507206D01*
X129279605Y-104259893D01*
X129302119Y-104213142D01*
X129406336Y-103996736D01*
X129500000Y-103729055D01*
X129500000Y-122500000D01*
X158000000Y-122500000D01*
X158000000Y-99500000D01*
X158025672Y-99500000D01*
X158092711Y-99519685D01*
G37*
%TD.AperFunction*%
%TA.AperFunction,Conductor*%
G36*
X134007254Y-134005488D02*
G01*
X134006503Y-134005490D01*
X134004971Y-134005495D01*
X134004957Y-134005495D01*
X134510874Y-134003635D01*
X134007254Y-134005488D01*
G37*
%TD.AperFunction*%
%TA.AperFunction,Conductor*%
G36*
X189612071Y-132950392D02*
G01*
X189669578Y-132990074D01*
X189673723Y-133000000D01*
X189142141Y-133000000D01*
X189146889Y-132999950D01*
X189175780Y-132999647D01*
X189426466Y-132974620D01*
X189469695Y-132966841D01*
X189542241Y-132948101D01*
X189612071Y-132950392D01*
G37*
%TD.AperFunction*%
%TA.AperFunction,Conductor*%
G36*
X183312076Y-71486861D02*
G01*
X183317544Y-71503689D01*
X183317546Y-71503694D01*
X183448802Y-71782626D01*
X183448805Y-71782632D01*
X183613987Y-72042919D01*
X183613990Y-72042923D01*
X183699799Y-72146647D01*
X184198381Y-71648064D01*
X184281457Y-71756331D01*
X184443669Y-71918543D01*
X184551933Y-72001617D01*
X184050767Y-72502783D01*
X184050768Y-72502785D01*
X184284617Y-72672685D01*
X184284635Y-72672697D01*
X184554778Y-72821209D01*
X184554786Y-72821213D01*
X184841406Y-72934693D01*
X185140008Y-73011361D01*
X185140017Y-73011363D01*
X185445847Y-73049999D01*
X185445861Y-73050000D01*
X185754139Y-73050000D01*
X185754152Y-73049999D01*
X186059982Y-73011363D01*
X186059991Y-73011361D01*
X186358593Y-72934693D01*
X186645213Y-72821213D01*
X186645221Y-72821209D01*
X186915364Y-72672697D01*
X186915382Y-72672685D01*
X187149230Y-72502785D01*
X187149231Y-72502783D01*
X186648065Y-72001617D01*
X186756331Y-71918543D01*
X186918543Y-71756331D01*
X187001617Y-71648065D01*
X187500199Y-72146647D01*
X187586014Y-72042916D01*
X187751194Y-71782632D01*
X187751197Y-71782626D01*
X187882453Y-71503694D01*
X187882455Y-71503689D01*
X187884890Y-71496193D01*
X189709087Y-71499916D01*
X189703988Y-98026024D01*
X189684291Y-98093060D01*
X189631478Y-98138804D01*
X189579988Y-98150000D01*
X188290402Y-98150000D01*
X188281191Y-98149657D01*
X188279737Y-98149548D01*
X188271484Y-98148933D01*
X188152253Y-98144500D01*
X188152243Y-98144500D01*
X182752945Y-98144500D01*
X182752931Y-98144500D01*
X182648635Y-98147891D01*
X182632531Y-98148940D01*
X182528791Y-98159087D01*
X182524145Y-98159694D01*
X182513675Y-98161063D01*
X182513570Y-98161077D01*
X182513563Y-98161077D01*
X182424183Y-98172766D01*
X182424176Y-98172767D01*
X182219530Y-98213199D01*
X182219507Y-98213205D01*
X182219503Y-98213205D01*
X182219498Y-98213207D01*
X182192783Y-98220315D01*
X182188424Y-98221476D01*
X182188401Y-98221483D01*
X181990702Y-98288122D01*
X181990694Y-98288125D01*
X181900773Y-98325101D01*
X181900769Y-98325103D01*
X181713433Y-98416786D01*
X181713416Y-98416795D01*
X181685527Y-98432768D01*
X181626097Y-98472145D01*
X181511556Y-98548038D01*
X181434161Y-98606899D01*
X181276677Y-98743698D01*
X181276674Y-98743701D01*
X181253830Y-98766309D01*
X181253817Y-98766322D01*
X181115380Y-98922409D01*
X181055709Y-98999212D01*
X180998499Y-99083650D01*
X180938669Y-99171958D01*
X180938665Y-99171965D01*
X180922413Y-99199671D01*
X180828777Y-99386102D01*
X180790865Y-99475664D01*
X180722180Y-99672713D01*
X180713597Y-99703678D01*
X180713596Y-99703683D01*
X180688235Y-99825436D01*
X180655293Y-99887053D01*
X180594268Y-99921078D01*
X180542650Y-99921766D01*
X180508780Y-99915029D01*
X180508770Y-99915027D01*
X180200002Y-99894789D01*
X179891234Y-99915027D01*
X179891228Y-99915028D01*
X179891223Y-99915029D01*
X179587759Y-99975391D01*
X179587737Y-99975397D01*
X179294746Y-100074853D01*
X179294737Y-100074857D01*
X179017229Y-100211709D01*
X179017207Y-100211722D01*
X178759938Y-100383622D01*
X178727916Y-100411705D01*
X178664533Y-100441106D01*
X178595317Y-100431573D01*
X178542243Y-100386132D01*
X178522161Y-100319210D01*
X178529336Y-100276901D01*
X180459833Y-94853127D01*
X182252281Y-89817202D01*
X182259943Y-89795169D01*
X182261091Y-89791789D01*
X182268301Y-89770052D01*
X182275521Y-89747755D01*
X182289093Y-89703694D01*
X182291096Y-89696843D01*
X182303452Y-89652201D01*
X182309371Y-89629549D01*
X182315007Y-89607331D01*
X182315030Y-89607239D01*
X182315835Y-89603969D01*
X182315860Y-89603865D01*
X182321263Y-89581204D01*
X182920962Y-86982507D01*
X182943591Y-86864427D01*
X182946399Y-86846083D01*
X182960127Y-86726658D01*
X182969452Y-86605799D01*
X182969955Y-86365476D01*
X182967262Y-86328562D01*
X182931904Y-86090935D01*
X182907220Y-85981884D01*
X182836799Y-85752195D01*
X182834088Y-85745256D01*
X182828035Y-85675650D01*
X182860575Y-85613820D01*
X182863810Y-85610605D01*
X182897522Y-85578308D01*
X183055603Y-85382144D01*
X183181051Y-85163666D01*
X183270777Y-84928254D01*
X183290462Y-84861215D01*
X183335734Y-84660037D01*
X183355500Y-84408881D01*
X183355500Y-77801362D01*
X183346300Y-77629729D01*
X183343466Y-77603371D01*
X183325081Y-77478666D01*
X183259296Y-77235475D01*
X183156279Y-77005568D01*
X183122794Y-76944245D01*
X183096700Y-76902998D01*
X183012561Y-76769995D01*
X183012558Y-76769992D01*
X182848946Y-76578427D01*
X182848941Y-76578421D01*
X182671579Y-76401059D01*
X182671557Y-76401039D01*
X182543708Y-76286199D01*
X182523075Y-76269573D01*
X182523074Y-76269572D01*
X182523065Y-76269565D01*
X182421901Y-76194397D01*
X182421898Y-76194395D01*
X182203426Y-76068950D01*
X182203420Y-76068948D01*
X182032336Y-76003740D01*
X181968011Y-75979223D01*
X181968008Y-75979222D01*
X181967997Y-75979218D01*
X181900981Y-75959540D01*
X181699795Y-75914266D01*
X181448643Y-75894500D01*
X181448638Y-75894500D01*
X177272393Y-75894500D01*
X177246094Y-75894783D01*
X177237784Y-75894873D01*
X176987130Y-75920046D01*
X176987111Y-75920049D01*
X176943745Y-75927879D01*
X176909664Y-75934414D01*
X176667483Y-76003736D01*
X176667472Y-76003739D01*
X176270572Y-76151922D01*
X176238253Y-76164387D01*
X176238249Y-76164389D01*
X176012232Y-76275653D01*
X176012212Y-76275664D01*
X175974297Y-76298186D01*
X175944742Y-76316175D01*
X175742092Y-76465836D01*
X175742089Y-76465838D01*
X173582633Y-78339485D01*
X167447830Y-83662330D01*
X159156999Y-90855845D01*
X159089686Y-90917694D01*
X158923440Y-91106998D01*
X158891901Y-91149172D01*
X158860601Y-91193611D01*
X158839253Y-91223921D01*
X158839250Y-91223925D01*
X158839248Y-91223929D01*
X158717012Y-91444207D01*
X158717009Y-91444212D01*
X158550558Y-91809002D01*
X158514986Y-91893232D01*
X158442329Y-92134440D01*
X158442321Y-92134470D01*
X158431139Y-92185914D01*
X158414266Y-92275794D01*
X158394500Y-92526947D01*
X158394500Y-94376000D01*
X158374815Y-94443039D01*
X158322011Y-94488794D01*
X158270500Y-94500000D01*
X158000000Y-94500000D01*
X158000000Y-83000000D01*
X129500000Y-83000000D01*
X129500000Y-91270944D01*
X129406335Y-91003263D01*
X129299944Y-90782341D01*
X129279606Y-90740109D01*
X129272766Y-90729223D01*
X129124208Y-90492794D01*
X128942098Y-90264435D01*
X128735565Y-90057902D01*
X128507206Y-89875792D01*
X128259893Y-89720395D01*
X128259890Y-89720393D01*
X127996738Y-89593665D01*
X127721046Y-89497197D01*
X127721044Y-89497196D01*
X127497615Y-89446200D01*
X127436286Y-89432202D01*
X127436283Y-89432201D01*
X127436271Y-89432199D01*
X127146047Y-89399500D01*
X127146041Y-89399500D01*
X126853959Y-89399500D01*
X126853952Y-89399500D01*
X126563728Y-89432199D01*
X126563714Y-89432202D01*
X126278955Y-89497196D01*
X126278953Y-89497197D01*
X126003261Y-89593665D01*
X125740109Y-89720393D01*
X125492795Y-89875791D01*
X125264435Y-90057901D01*
X125057901Y-90264435D01*
X124875791Y-90492795D01*
X124720393Y-90740109D01*
X124593665Y-91003261D01*
X124497197Y-91278953D01*
X124497196Y-91278955D01*
X124432202Y-91563714D01*
X124432199Y-91563728D01*
X124399500Y-91853952D01*
X124399500Y-101871475D01*
X124379815Y-101938514D01*
X124363181Y-101959156D01*
X123062181Y-103260156D01*
X123000858Y-103293641D01*
X122931166Y-103288657D01*
X122875233Y-103246785D01*
X122850816Y-103181321D01*
X122850500Y-103172475D01*
X122850500Y-86685630D01*
X122870185Y-86618591D01*
X122886814Y-86597954D01*
X130549628Y-78935139D01*
X130610949Y-78901656D01*
X130680641Y-78906640D01*
X130736574Y-78948512D01*
X130760991Y-79013976D01*
X130761137Y-79016332D01*
X130764310Y-79076872D01*
X130823346Y-79449607D01*
X130823347Y-79449614D01*
X130921023Y-79814147D01*
X131056267Y-80166468D01*
X131227599Y-80502725D01*
X131433135Y-80819223D01*
X131433137Y-80819225D01*
X131670635Y-81112511D01*
X131937489Y-81379365D01*
X132100841Y-81511644D01*
X132230776Y-81616864D01*
X132513551Y-81800500D01*
X132547279Y-81822403D01*
X132883535Y-81993734D01*
X133235857Y-82128978D01*
X133600387Y-82226653D01*
X133973129Y-82285690D01*
X134329155Y-82304348D01*
X134349999Y-82305441D01*
X134350000Y-82305441D01*
X134350001Y-82305441D01*
X134369752Y-82304405D01*
X134726871Y-82285690D01*
X135099613Y-82226653D01*
X135464143Y-82128978D01*
X135816465Y-81993734D01*
X136152721Y-81822403D01*
X136469225Y-81616863D01*
X136762511Y-81379365D01*
X137029365Y-81112511D01*
X137266863Y-80819225D01*
X137472403Y-80502721D01*
X137643734Y-80166465D01*
X137778978Y-79814143D01*
X137876653Y-79449613D01*
X137935690Y-79076871D01*
X137955441Y-78700000D01*
X137935690Y-78323129D01*
X137876653Y-77950387D01*
X137876651Y-77950381D01*
X137876633Y-77950295D01*
X137876634Y-77950272D01*
X137876145Y-77947180D01*
X137876879Y-77947063D01*
X137881941Y-77880627D01*
X137924072Y-77824889D01*
X137989649Y-77800776D01*
X137997920Y-77800500D01*
X144214369Y-77800500D01*
X144281408Y-77820185D01*
X144302050Y-77836819D01*
X147480737Y-81015506D01*
X147753002Y-81232630D01*
X148047867Y-81417905D01*
X148361620Y-81569001D01*
X148361626Y-81569003D01*
X148690306Y-81684014D01*
X148690315Y-81684017D01*
X148690318Y-81684018D01*
X149029829Y-81761508D01*
X149375875Y-81800499D01*
X149375876Y-81800500D01*
X149375880Y-81800500D01*
X149724124Y-81800500D01*
X149724124Y-81800499D01*
X150070171Y-81761508D01*
X150409681Y-81684018D01*
X150738380Y-81569001D01*
X151052133Y-81417905D01*
X151346997Y-81232630D01*
X151562750Y-81060573D01*
X151619256Y-81015512D01*
X151619258Y-81015509D01*
X151619263Y-81015506D01*
X151865506Y-80769263D01*
X152082630Y-80496997D01*
X152267905Y-80202133D01*
X152419001Y-79888380D01*
X152534018Y-79559681D01*
X152611508Y-79220171D01*
X152650500Y-78874120D01*
X152650500Y-78525880D01*
X152611508Y-78179829D01*
X152534018Y-77840318D01*
X152419001Y-77511620D01*
X152267905Y-77197867D01*
X152082630Y-76903002D01*
X151865506Y-76630737D01*
X149146950Y-73912181D01*
X149113465Y-73850858D01*
X149118449Y-73781166D01*
X149160321Y-73725233D01*
X149225785Y-73700816D01*
X149234631Y-73700500D01*
X152764369Y-73700500D01*
X152831408Y-73720185D01*
X152852050Y-73736819D01*
X160130743Y-81015512D01*
X160402998Y-81232627D01*
X160403001Y-81232628D01*
X160403003Y-81232630D01*
X160697867Y-81417906D01*
X161011620Y-81569002D01*
X161298769Y-81669479D01*
X161340319Y-81684018D01*
X161679829Y-81761509D01*
X162025876Y-81800499D01*
X162025877Y-81800500D01*
X162025880Y-81800500D01*
X162424123Y-81800500D01*
X162424123Y-81800499D01*
X162770171Y-81761509D01*
X163109681Y-81684018D01*
X163438379Y-81569002D01*
X163752133Y-81417906D01*
X164046997Y-81232630D01*
X164047001Y-81232627D01*
X164319256Y-81015512D01*
X164319258Y-81015509D01*
X164319263Y-81015506D01*
X164565506Y-80769263D01*
X164782630Y-80496997D01*
X164967906Y-80202133D01*
X165119002Y-79888379D01*
X165234018Y-79559681D01*
X165311509Y-79220171D01*
X165350500Y-78874120D01*
X165350500Y-78525880D01*
X165311509Y-78179829D01*
X165234018Y-77840319D01*
X165234013Y-77840306D01*
X165160336Y-77629748D01*
X165119002Y-77511621D01*
X164967906Y-77197867D01*
X164782630Y-76903003D01*
X164782628Y-76903000D01*
X164782627Y-76902998D01*
X164565512Y-76630743D01*
X164319262Y-76384493D01*
X164077826Y-76191955D01*
X164067458Y-76182689D01*
X159322672Y-71437903D01*
X183312076Y-71486861D01*
G37*
%TD.AperFunction*%
%TA.AperFunction,Conductor*%
G36*
X121454608Y-71360621D02*
G01*
X110734487Y-82080743D01*
X110517372Y-82352998D01*
X110517371Y-82353000D01*
X110332092Y-82647869D01*
X110180998Y-82961618D01*
X110102854Y-83184944D01*
X110069335Y-83280737D01*
X110065982Y-83290319D01*
X110065979Y-83290328D01*
X109988491Y-83629825D01*
X109988489Y-83629841D01*
X109949500Y-83975875D01*
X109949500Y-90073526D01*
X109929815Y-90140565D01*
X109877011Y-90186320D01*
X109807853Y-90196264D01*
X109744297Y-90167239D01*
X109731210Y-90154058D01*
X109661042Y-90071902D01*
X109644024Y-90051976D01*
X109454130Y-89889791D01*
X109452456Y-89888361D01*
X109452453Y-89888360D01*
X109237659Y-89756733D01*
X109004910Y-89660326D01*
X108759952Y-89601518D01*
X108759948Y-89601517D01*
X108759941Y-89601516D01*
X108759938Y-89601516D01*
X108718217Y-89598231D01*
X108686997Y-89591656D01*
X108417046Y-89497197D01*
X108417044Y-89497196D01*
X108193615Y-89446200D01*
X108132286Y-89432202D01*
X108132283Y-89432201D01*
X108132271Y-89432199D01*
X107842047Y-89399500D01*
X107842041Y-89399500D01*
X100867959Y-89399500D01*
X100867954Y-89399500D01*
X100772809Y-89410220D01*
X100750624Y-89412720D01*
X100736743Y-89413500D01*
X99485490Y-89413500D01*
X99485454Y-89413499D01*
X99482041Y-89413499D01*
X99189959Y-89413499D01*
X99189954Y-89413499D01*
X98899726Y-89446200D01*
X98899714Y-89446202D01*
X98614957Y-89511196D01*
X98339262Y-89607664D01*
X98154084Y-89696842D01*
X98154084Y-89696843D01*
X98076107Y-89734395D01*
X98076099Y-89734399D01*
X97828795Y-89889791D01*
X97600435Y-90071901D01*
X90934656Y-96737681D01*
X90873333Y-96771166D01*
X90846975Y-96774000D01*
X87124500Y-96774000D01*
X87057461Y-96754315D01*
X87011706Y-96701511D01*
X87000500Y-96650000D01*
X87000500Y-96103956D01*
X87000499Y-96103952D01*
X86967800Y-95813728D01*
X86967799Y-95813723D01*
X86967798Y-95813714D01*
X86914139Y-95578622D01*
X86918412Y-95508887D01*
X86927497Y-95489286D01*
X86931051Y-95483098D01*
X87020777Y-95247686D01*
X87040462Y-95180647D01*
X87085734Y-94979469D01*
X87105500Y-94728313D01*
X87105500Y-92374000D01*
X87105500Y-92373984D01*
X87102882Y-92282340D01*
X87102882Y-92282339D01*
X87101989Y-92275794D01*
X87068806Y-92032713D01*
X87057600Y-91981202D01*
X87047218Y-91936554D01*
X86967658Y-91697515D01*
X86851683Y-91473864D01*
X86851679Y-91473859D01*
X86851680Y-91473859D01*
X86702154Y-91271115D01*
X86656391Y-91218302D01*
X86590168Y-91149179D01*
X86545427Y-91102478D01*
X86349263Y-90944397D01*
X86302758Y-90917694D01*
X86130788Y-90818950D01*
X86130782Y-90818948D01*
X86034730Y-90782338D01*
X85895373Y-90729223D01*
X85895370Y-90729222D01*
X85895359Y-90729218D01*
X85828343Y-90709540D01*
X85627157Y-90664266D01*
X85376005Y-90644500D01*
X85376000Y-90644500D01*
X70874000Y-90644500D01*
X70873985Y-90644500D01*
X70782340Y-90647117D01*
X70782339Y-90647117D01*
X70612415Y-90670313D01*
X70532713Y-90681194D01*
X70532708Y-90681194D01*
X70532701Y-90681196D01*
X70481198Y-90692400D01*
X70436553Y-90702782D01*
X70197523Y-90782338D01*
X70197516Y-90782341D01*
X70076348Y-90845173D01*
X69973864Y-90898317D01*
X69973862Y-90898318D01*
X69973859Y-90898320D01*
X69771115Y-91047845D01*
X69718302Y-91093608D01*
X69602477Y-91204574D01*
X69444399Y-91400734D01*
X69444393Y-91400743D01*
X69318950Y-91619211D01*
X69318948Y-91619217D01*
X69229222Y-91854629D01*
X69229218Y-91854640D01*
X69209540Y-91921656D01*
X69164266Y-92122842D01*
X69144500Y-92373994D01*
X69144500Y-100376000D01*
X69124815Y-100443039D01*
X69072011Y-100488794D01*
X69020500Y-100500000D01*
X68667297Y-100500000D01*
X68639705Y-100496891D01*
X68356289Y-100432203D01*
X68356273Y-100432201D01*
X68066045Y-100399500D01*
X68066041Y-100399500D01*
X67773959Y-100399500D01*
X67773954Y-100399500D01*
X67483725Y-100432201D01*
X67483709Y-100432203D01*
X67365909Y-100459090D01*
X67250000Y-71250000D01*
X121454608Y-71360621D01*
G37*
%TD.AperFunction*%
%TD*%
%TA.AperFunction,NonConductor*%
G36*
X183417921Y-133082077D02*
G01*
X183451968Y-133048029D01*
X183452007Y-133047992D01*
X183417921Y-133082077D01*
G37*
%TD.AperFunction*%
%TA.AperFunction,NonConductor*%
G36*
X135432091Y-134000249D02*
G01*
X134510874Y-134003635D01*
X135432045Y-134000248D01*
X135432091Y-134000249D01*
G37*
%TD.AperFunction*%
%TA.AperFunction,NonConductor*%
G36*
X154521951Y-136963411D02*
G01*
X154521952Y-136963409D01*
X154632050Y-136779912D01*
X154521951Y-136963411D01*
G37*
%TD.AperFunction*%
%TA.AperFunction,Conductor*%
%TO.N,GNDPWR*%
G36*
X106000000Y-134250000D02*
G01*
X83000000Y-134500000D01*
X83000000Y-126249998D01*
X99784173Y-126249998D01*
X99784173Y-126250001D01*
X99802643Y-126461120D01*
X99802645Y-126461131D01*
X99857493Y-126665829D01*
X99857497Y-126665838D01*
X99947062Y-126857912D01*
X99947063Y-126857914D01*
X99984733Y-126911712D01*
X99984734Y-126911713D01*
X100551983Y-126344463D01*
X100573958Y-126426473D01*
X100634149Y-126530727D01*
X100719273Y-126615851D01*
X100823527Y-126676042D01*
X100905535Y-126698016D01*
X100338285Y-127265265D01*
X100392087Y-127302937D01*
X100584161Y-127392502D01*
X100584170Y-127392506D01*
X100788868Y-127447354D01*
X100788879Y-127447356D01*
X100999998Y-127465827D01*
X101000002Y-127465827D01*
X101211120Y-127447356D01*
X101211131Y-127447354D01*
X101415829Y-127392506D01*
X101415838Y-127392502D01*
X101607913Y-127302937D01*
X101607917Y-127302935D01*
X101661713Y-127265266D01*
X101094464Y-126698016D01*
X101176473Y-126676042D01*
X101280727Y-126615851D01*
X101365851Y-126530727D01*
X101426042Y-126426473D01*
X101448016Y-126344463D01*
X102015266Y-126911713D01*
X102052935Y-126857917D01*
X102052937Y-126857913D01*
X102142502Y-126665838D01*
X102142506Y-126665829D01*
X102197354Y-126461131D01*
X102197356Y-126461120D01*
X102215827Y-126250001D01*
X102215827Y-126249998D01*
X102197356Y-126038879D01*
X102197354Y-126038868D01*
X102142506Y-125834170D01*
X102142502Y-125834161D01*
X102052934Y-125642083D01*
X102015266Y-125588286D01*
X102015265Y-125588285D01*
X101448016Y-126155535D01*
X101426042Y-126073527D01*
X101365851Y-125969273D01*
X101280727Y-125884149D01*
X101176473Y-125823958D01*
X101094464Y-125801983D01*
X101661713Y-125234734D01*
X101661712Y-125234733D01*
X101607914Y-125197063D01*
X101607912Y-125197062D01*
X101415838Y-125107497D01*
X101415829Y-125107493D01*
X101211131Y-125052645D01*
X101211120Y-125052643D01*
X101000002Y-125034173D01*
X100999998Y-125034173D01*
X100788879Y-125052643D01*
X100788868Y-125052645D01*
X100584170Y-125107493D01*
X100584161Y-125107497D01*
X100392088Y-125197062D01*
X100338286Y-125234733D01*
X100905536Y-125801983D01*
X100823527Y-125823958D01*
X100719273Y-125884149D01*
X100634149Y-125969273D01*
X100573958Y-126073527D01*
X100551983Y-126155536D01*
X99984733Y-125588286D01*
X99947062Y-125642088D01*
X99857497Y-125834161D01*
X99857493Y-125834170D01*
X99802645Y-126038868D01*
X99802643Y-126038879D01*
X99784173Y-126249998D01*
X83000000Y-126249998D01*
X83000000Y-120240955D01*
X83788800Y-120240955D01*
X83788800Y-120750000D01*
X84616409Y-120750000D01*
X84573958Y-120823527D01*
X84542800Y-120939808D01*
X84542800Y-121060192D01*
X84573958Y-121176473D01*
X84616409Y-121250000D01*
X83788800Y-121250000D01*
X83788800Y-121759044D01*
X83795201Y-121818572D01*
X83795203Y-121818579D01*
X83845445Y-121953286D01*
X83845449Y-121953293D01*
X83931609Y-122068387D01*
X83931612Y-122068390D01*
X84046706Y-122154550D01*
X84046713Y-122154554D01*
X84181420Y-122204796D01*
X84181427Y-122204798D01*
X84240955Y-122211199D01*
X84240972Y-122211200D01*
X84750000Y-122211200D01*
X84750000Y-121383591D01*
X84823527Y-121426042D01*
X84939808Y-121457200D01*
X85060192Y-121457200D01*
X85176473Y-121426042D01*
X85250000Y-121383591D01*
X85250000Y-122211200D01*
X85759028Y-122211200D01*
X85759044Y-122211199D01*
X85818572Y-122204798D01*
X85818579Y-122204796D01*
X85953286Y-122154554D01*
X85953293Y-122154550D01*
X86068387Y-122068390D01*
X86068390Y-122068387D01*
X86154550Y-121953293D01*
X86154554Y-121953286D01*
X86204796Y-121818579D01*
X86204798Y-121818572D01*
X86211199Y-121759044D01*
X86211200Y-121759027D01*
X86211200Y-121250000D01*
X85383591Y-121250000D01*
X85426042Y-121176473D01*
X85457200Y-121060192D01*
X85457200Y-120939808D01*
X85426042Y-120823527D01*
X85383591Y-120750000D01*
X86211200Y-120750000D01*
X86211200Y-120240972D01*
X86211199Y-120240955D01*
X89788800Y-120240955D01*
X89788800Y-120750000D01*
X90616409Y-120750000D01*
X90573958Y-120823527D01*
X90542800Y-120939808D01*
X90542800Y-121060192D01*
X90573958Y-121176473D01*
X90616409Y-121250000D01*
X89788800Y-121250000D01*
X89788800Y-121759044D01*
X89795201Y-121818572D01*
X89795203Y-121818579D01*
X89845445Y-121953286D01*
X89845449Y-121953293D01*
X89931609Y-122068387D01*
X89931612Y-122068390D01*
X90046706Y-122154550D01*
X90046713Y-122154554D01*
X90181420Y-122204796D01*
X90181427Y-122204798D01*
X90240955Y-122211199D01*
X90240972Y-122211200D01*
X90750000Y-122211200D01*
X90750000Y-121383591D01*
X90823527Y-121426042D01*
X90939808Y-121457200D01*
X91060192Y-121457200D01*
X91176473Y-121426042D01*
X91250000Y-121383591D01*
X91250000Y-122211200D01*
X91759028Y-122211200D01*
X91759044Y-122211199D01*
X91818572Y-122204798D01*
X91818579Y-122204796D01*
X91953286Y-122154554D01*
X91953293Y-122154550D01*
X92068387Y-122068390D01*
X92068390Y-122068387D01*
X92154550Y-121953293D01*
X92154554Y-121953286D01*
X92204796Y-121818579D01*
X92204798Y-121818572D01*
X92211199Y-121759044D01*
X92211200Y-121759027D01*
X92211200Y-121250000D01*
X91383591Y-121250000D01*
X91426042Y-121176473D01*
X91457200Y-121060192D01*
X91457200Y-120939808D01*
X91426042Y-120823527D01*
X91383591Y-120750000D01*
X92211200Y-120750000D01*
X92211200Y-120240972D01*
X92211199Y-120240955D01*
X96038800Y-120240955D01*
X96038800Y-120750000D01*
X96866409Y-120750000D01*
X96823958Y-120823527D01*
X96792800Y-120939808D01*
X96792800Y-121060192D01*
X96823958Y-121176473D01*
X96866409Y-121250000D01*
X96038800Y-121250000D01*
X96038800Y-121759044D01*
X96045201Y-121818572D01*
X96045203Y-121818579D01*
X96095445Y-121953286D01*
X96095449Y-121953293D01*
X96181609Y-122068387D01*
X96181612Y-122068390D01*
X96296706Y-122154550D01*
X96296713Y-122154554D01*
X96431420Y-122204796D01*
X96431427Y-122204798D01*
X96490955Y-122211199D01*
X96490972Y-122211200D01*
X97000000Y-122211200D01*
X97000000Y-121383591D01*
X97073527Y-121426042D01*
X97189808Y-121457200D01*
X97310192Y-121457200D01*
X97426473Y-121426042D01*
X97500000Y-121383591D01*
X97500000Y-122211200D01*
X98009028Y-122211200D01*
X98009044Y-122211199D01*
X98068572Y-122204798D01*
X98068579Y-122204796D01*
X98203286Y-122154554D01*
X98203293Y-122154550D01*
X98318387Y-122068390D01*
X98318390Y-122068387D01*
X98404550Y-121953293D01*
X98404554Y-121953286D01*
X98454796Y-121818579D01*
X98454798Y-121818572D01*
X98461199Y-121759044D01*
X98461200Y-121759027D01*
X98461200Y-121250000D01*
X97633591Y-121250000D01*
X97676042Y-121176473D01*
X97707200Y-121060192D01*
X97707200Y-120939808D01*
X97676042Y-120823527D01*
X97633591Y-120750000D01*
X98461200Y-120750000D01*
X98461200Y-120240972D01*
X98461199Y-120240955D01*
X102288800Y-120240955D01*
X102288800Y-120750000D01*
X103116409Y-120750000D01*
X103073958Y-120823527D01*
X103042800Y-120939808D01*
X103042800Y-121060192D01*
X103073958Y-121176473D01*
X103116409Y-121250000D01*
X102288800Y-121250000D01*
X102288800Y-121759044D01*
X102295201Y-121818572D01*
X102295203Y-121818579D01*
X102345445Y-121953286D01*
X102345449Y-121953293D01*
X102431609Y-122068387D01*
X102431612Y-122068390D01*
X102546706Y-122154550D01*
X102546713Y-122154554D01*
X102681420Y-122204796D01*
X102681427Y-122204798D01*
X102740955Y-122211199D01*
X102740972Y-122211200D01*
X103250000Y-122211200D01*
X103250000Y-121383591D01*
X103323527Y-121426042D01*
X103439808Y-121457200D01*
X103560192Y-121457200D01*
X103676473Y-121426042D01*
X103750000Y-121383591D01*
X103750000Y-122211200D01*
X104259028Y-122211200D01*
X104259044Y-122211199D01*
X104318572Y-122204798D01*
X104318579Y-122204796D01*
X104453286Y-122154554D01*
X104453293Y-122154550D01*
X104568387Y-122068390D01*
X104568390Y-122068387D01*
X104654550Y-121953293D01*
X104654554Y-121953286D01*
X104704796Y-121818579D01*
X104704798Y-121818572D01*
X104711199Y-121759044D01*
X104711200Y-121759027D01*
X104711200Y-121250000D01*
X103883591Y-121250000D01*
X103926042Y-121176473D01*
X103957200Y-121060192D01*
X103957200Y-120939808D01*
X103926042Y-120823527D01*
X103883591Y-120750000D01*
X104711200Y-120750000D01*
X104711200Y-120240972D01*
X104711199Y-120240955D01*
X104704798Y-120181427D01*
X104704796Y-120181420D01*
X104654554Y-120046713D01*
X104654550Y-120046706D01*
X104568390Y-119931612D01*
X104568387Y-119931609D01*
X104453293Y-119845449D01*
X104453286Y-119845445D01*
X104318579Y-119795203D01*
X104318572Y-119795201D01*
X104259044Y-119788800D01*
X103750000Y-119788800D01*
X103750000Y-120616408D01*
X103676473Y-120573958D01*
X103560192Y-120542800D01*
X103439808Y-120542800D01*
X103323527Y-120573958D01*
X103250000Y-120616408D01*
X103250000Y-119788800D01*
X102740955Y-119788800D01*
X102681427Y-119795201D01*
X102681420Y-119795203D01*
X102546713Y-119845445D01*
X102546706Y-119845449D01*
X102431612Y-119931609D01*
X102431609Y-119931612D01*
X102345449Y-120046706D01*
X102345445Y-120046713D01*
X102295203Y-120181420D01*
X102295201Y-120181427D01*
X102288800Y-120240955D01*
X98461199Y-120240955D01*
X98454798Y-120181427D01*
X98454796Y-120181420D01*
X98404554Y-120046713D01*
X98404550Y-120046706D01*
X98318390Y-119931612D01*
X98318387Y-119931609D01*
X98203293Y-119845449D01*
X98203286Y-119845445D01*
X98068579Y-119795203D01*
X98068572Y-119795201D01*
X98009044Y-119788800D01*
X97500000Y-119788800D01*
X97500000Y-120616408D01*
X97426473Y-120573958D01*
X97310192Y-120542800D01*
X97189808Y-120542800D01*
X97073527Y-120573958D01*
X97000000Y-120616408D01*
X97000000Y-119788800D01*
X96490955Y-119788800D01*
X96431427Y-119795201D01*
X96431420Y-119795203D01*
X96296713Y-119845445D01*
X96296706Y-119845449D01*
X96181612Y-119931609D01*
X96181609Y-119931612D01*
X96095449Y-120046706D01*
X96095445Y-120046713D01*
X96045203Y-120181420D01*
X96045201Y-120181427D01*
X96038800Y-120240955D01*
X92211199Y-120240955D01*
X92204798Y-120181427D01*
X92204796Y-120181420D01*
X92154554Y-120046713D01*
X92154550Y-120046706D01*
X92068390Y-119931612D01*
X92068387Y-119931609D01*
X91953293Y-119845449D01*
X91953286Y-119845445D01*
X91818579Y-119795203D01*
X91818572Y-119795201D01*
X91759044Y-119788800D01*
X91250000Y-119788800D01*
X91250000Y-120616408D01*
X91176473Y-120573958D01*
X91060192Y-120542800D01*
X90939808Y-120542800D01*
X90823527Y-120573958D01*
X90750000Y-120616408D01*
X90750000Y-119788800D01*
X90240955Y-119788800D01*
X90181427Y-119795201D01*
X90181420Y-119795203D01*
X90046713Y-119845445D01*
X90046706Y-119845449D01*
X89931612Y-119931609D01*
X89931609Y-119931612D01*
X89845449Y-120046706D01*
X89845445Y-120046713D01*
X89795203Y-120181420D01*
X89795201Y-120181427D01*
X89788800Y-120240955D01*
X86211199Y-120240955D01*
X86204798Y-120181427D01*
X86204796Y-120181420D01*
X86154554Y-120046713D01*
X86154550Y-120046706D01*
X86068390Y-119931612D01*
X86068387Y-119931609D01*
X85953293Y-119845449D01*
X85953286Y-119845445D01*
X85818579Y-119795203D01*
X85818572Y-119795201D01*
X85759044Y-119788800D01*
X85250000Y-119788800D01*
X85250000Y-120616408D01*
X85176473Y-120573958D01*
X85060192Y-120542800D01*
X84939808Y-120542800D01*
X84823527Y-120573958D01*
X84750000Y-120616408D01*
X84750000Y-119788800D01*
X84240955Y-119788800D01*
X84181427Y-119795201D01*
X84181420Y-119795203D01*
X84046713Y-119845445D01*
X84046706Y-119845449D01*
X83931612Y-119931609D01*
X83931609Y-119931612D01*
X83845449Y-120046706D01*
X83845445Y-120046713D01*
X83795203Y-120181420D01*
X83795201Y-120181427D01*
X83788800Y-120240955D01*
X83000000Y-120240955D01*
X83000000Y-119500000D01*
X106000000Y-119250000D01*
X106000000Y-134250000D01*
G37*
%TD.AperFunction*%
%TD*%
%TA.AperFunction,Conductor*%
%TO.N,GNDPWR*%
G36*
X62152151Y-113888042D02*
G01*
X62192680Y-113944956D01*
X62199500Y-113985513D01*
X62199500Y-115896047D01*
X62232199Y-116186271D01*
X62232202Y-116186285D01*
X62297196Y-116471044D01*
X62297197Y-116471046D01*
X62393665Y-116746738D01*
X62520393Y-117009890D01*
X62520394Y-117009891D01*
X62520395Y-117009893D01*
X62675792Y-117257206D01*
X62857902Y-117485565D01*
X63064435Y-117692098D01*
X63292794Y-117874208D01*
X63540107Y-118029605D01*
X63803263Y-118156335D01*
X64078955Y-118252803D01*
X64363714Y-118317798D01*
X64363723Y-118317799D01*
X64363728Y-118317800D01*
X64557210Y-118339599D01*
X64653953Y-118350499D01*
X64653956Y-118350500D01*
X64653959Y-118350500D01*
X64946044Y-118350500D01*
X64946045Y-118350499D01*
X65094371Y-118333787D01*
X65236271Y-118317800D01*
X65236274Y-118317799D01*
X65236286Y-118317798D01*
X65521045Y-118252803D01*
X65796737Y-118156335D01*
X66059893Y-118029605D01*
X66307206Y-117874208D01*
X66535565Y-117692098D01*
X66742098Y-117485565D01*
X66924208Y-117257206D01*
X67079605Y-117009893D01*
X67146227Y-116871549D01*
X67193047Y-116819691D01*
X67260474Y-116801378D01*
X67282135Y-116803734D01*
X67430886Y-116833323D01*
X67500000Y-134250000D01*
X83000000Y-134193014D01*
X83000000Y-134500000D01*
X106000000Y-134250000D01*
X106000000Y-134108455D01*
X135500000Y-134000000D01*
X137167968Y-134945182D01*
X137164201Y-134963315D01*
X137164201Y-134963316D01*
X137159149Y-135037168D01*
X137158377Y-135044887D01*
X137149500Y-135112323D01*
X137149500Y-135174011D01*
X137149211Y-135182473D01*
X137144592Y-135249999D01*
X137149211Y-135317525D01*
X137149500Y-135325987D01*
X137149500Y-135387676D01*
X137158377Y-135455110D01*
X137159149Y-135462830D01*
X137164201Y-135536683D01*
X137164202Y-135536687D01*
X137176683Y-135596756D01*
X137178215Y-135605793D01*
X137185440Y-135660666D01*
X137204687Y-135732497D01*
X137206314Y-135739343D01*
X137215630Y-135784173D01*
X137222665Y-135818028D01*
X137222667Y-135818036D01*
X137241083Y-135869853D01*
X137244016Y-135879278D01*
X137256705Y-135926632D01*
X137256706Y-135926636D01*
X137256708Y-135926641D01*
X137287585Y-136001186D01*
X137289864Y-136007112D01*
X137318894Y-136088792D01*
X137318896Y-136088798D01*
X137341287Y-136132011D01*
X137345749Y-136141604D01*
X137362077Y-136181021D01*
X137405600Y-136256405D01*
X137408299Y-136261336D01*
X137451098Y-136343934D01*
X137475507Y-136378515D01*
X137481587Y-136388019D01*
X137485816Y-136395344D01*
X137499751Y-136419479D01*
X137555650Y-136492329D01*
X137556586Y-136493548D01*
X137559483Y-136497482D01*
X137616811Y-136578698D01*
X137641378Y-136605003D01*
X137649120Y-136614141D01*
X137667372Y-136637928D01*
X137737877Y-136708433D01*
X137740791Y-136711449D01*
X137812939Y-136788700D01*
X137812958Y-136788718D01*
X137835932Y-136807408D01*
X137845362Y-136815918D01*
X137862073Y-136832629D01*
X137946189Y-136897173D01*
X137948958Y-136899361D01*
X137967813Y-136914701D01*
X138035853Y-136970055D01*
X138055760Y-136982161D01*
X138066804Y-136989724D01*
X138080521Y-137000249D01*
X138177843Y-137056437D01*
X138180192Y-137057829D01*
X138281375Y-137119361D01*
X138296915Y-137126110D01*
X138309515Y-137132459D01*
X138318967Y-137137917D01*
X138318972Y-137137919D01*
X138318979Y-137137923D01*
X138412046Y-137176473D01*
X138428646Y-137183349D01*
X138430546Y-137184155D01*
X138544942Y-137233844D01*
X138555143Y-137236702D01*
X138569128Y-137241538D01*
X138573368Y-137243295D01*
X138694255Y-137275686D01*
X138695435Y-137276010D01*
X138821642Y-137311371D01*
X138825832Y-137311946D01*
X138835329Y-137313864D01*
X138835349Y-137313767D01*
X138839319Y-137314556D01*
X138839334Y-137314560D01*
X138969708Y-137331723D01*
X138970127Y-137331779D01*
X139070712Y-137345605D01*
X139106321Y-137350500D01*
X139106322Y-137350500D01*
X140637667Y-137350500D01*
X140637674Y-137350500D01*
X140910666Y-137314560D01*
X141067108Y-137272641D01*
X141133977Y-137254724D01*
X141166070Y-137250499D01*
X141236175Y-137250499D01*
X143000000Y-138250000D01*
X147529608Y-138250000D01*
X147608333Y-138440059D01*
X147739960Y-138654853D01*
X147739961Y-138654856D01*
X147739964Y-138654859D01*
X147903576Y-138846424D01*
X148006926Y-138934693D01*
X148095143Y-139010038D01*
X148095145Y-139010038D01*
X148113374Y-139021209D01*
X148309940Y-139141666D01*
X148478200Y-139211361D01*
X148542689Y-139238073D01*
X148787652Y-139296883D01*
X148975918Y-139311700D01*
X148975926Y-139311700D01*
X150524074Y-139311700D01*
X150524082Y-139311700D01*
X150712348Y-139296883D01*
X150957311Y-139238073D01*
X151190059Y-139141666D01*
X151404859Y-139010036D01*
X151596424Y-138846424D01*
X151760036Y-138654859D01*
X151891666Y-138440059D01*
X151928970Y-138350000D01*
X151970391Y-138250000D01*
X153750000Y-138250000D01*
X154500001Y-136999998D01*
X156034173Y-136999998D01*
X156034173Y-137000001D01*
X156052643Y-137211120D01*
X156052645Y-137211131D01*
X156107493Y-137415829D01*
X156107497Y-137415838D01*
X156197062Y-137607912D01*
X156197063Y-137607914D01*
X156234733Y-137661712D01*
X156234734Y-137661713D01*
X156801983Y-137094463D01*
X156823958Y-137176473D01*
X156884149Y-137280727D01*
X156969273Y-137365851D01*
X157073527Y-137426042D01*
X157155535Y-137448016D01*
X156588285Y-138015265D01*
X156642087Y-138052937D01*
X156834161Y-138142502D01*
X156834170Y-138142506D01*
X157038868Y-138197354D01*
X157038879Y-138197356D01*
X157249998Y-138215827D01*
X157250002Y-138215827D01*
X157461120Y-138197356D01*
X157461131Y-138197354D01*
X157665829Y-138142506D01*
X157665838Y-138142502D01*
X157857913Y-138052937D01*
X157857917Y-138052935D01*
X157911713Y-138015266D01*
X157344464Y-137448016D01*
X157426473Y-137426042D01*
X157530727Y-137365851D01*
X157615851Y-137280727D01*
X157676042Y-137176473D01*
X157698016Y-137094463D01*
X158265266Y-137661713D01*
X158302935Y-137607917D01*
X158302937Y-137607913D01*
X158392502Y-137415838D01*
X158392506Y-137415829D01*
X158447354Y-137211131D01*
X158447356Y-137211120D01*
X158465827Y-137000001D01*
X158465827Y-136999998D01*
X158447356Y-136788879D01*
X158447354Y-136788868D01*
X158392506Y-136584170D01*
X158392502Y-136584161D01*
X158302934Y-136392083D01*
X158265266Y-136338286D01*
X158265265Y-136338285D01*
X157698016Y-136905535D01*
X157676042Y-136823527D01*
X157615851Y-136719273D01*
X157530727Y-136634149D01*
X157426473Y-136573958D01*
X157344464Y-136551983D01*
X157911713Y-135984734D01*
X157911712Y-135984733D01*
X157857914Y-135947063D01*
X157857912Y-135947062D01*
X157665838Y-135857497D01*
X157665829Y-135857493D01*
X157461131Y-135802645D01*
X157461120Y-135802643D01*
X157250002Y-135784173D01*
X157249998Y-135784173D01*
X157038879Y-135802643D01*
X157038868Y-135802645D01*
X156834170Y-135857493D01*
X156834161Y-135857497D01*
X156642088Y-135947062D01*
X156588286Y-135984733D01*
X157155536Y-136551983D01*
X157073527Y-136573958D01*
X156969273Y-136634149D01*
X156884149Y-136719273D01*
X156823958Y-136823527D01*
X156801983Y-136905536D01*
X156234733Y-136338286D01*
X156197062Y-136392088D01*
X156107497Y-136584161D01*
X156107493Y-136584170D01*
X156052645Y-136788868D01*
X156052643Y-136788879D01*
X156034173Y-136999998D01*
X154500001Y-136999998D01*
X156000000Y-134500000D01*
X158500000Y-134500000D01*
X160423553Y-136018594D01*
X160472665Y-136254936D01*
X160472666Y-136254939D01*
X160568893Y-136525695D01*
X160568892Y-136525695D01*
X160701097Y-136780837D01*
X160866811Y-137015602D01*
X160908456Y-137060192D01*
X161062946Y-137225610D01*
X161285852Y-137406957D01*
X161504553Y-137539953D01*
X161531381Y-137556267D01*
X161690698Y-137625467D01*
X161794941Y-137670746D01*
X162071641Y-137748273D01*
X162321574Y-137782626D01*
X162356320Y-137787402D01*
X162356321Y-137787402D01*
X162557164Y-137787402D01*
X162624203Y-137807087D01*
X162631144Y-137811889D01*
X162804656Y-137940881D01*
X162804659Y-137940883D01*
X162973167Y-138031448D01*
X163250000Y-138250000D01*
X178250000Y-138250000D01*
X179700006Y-136799994D01*
X183345156Y-136799994D01*
X183345156Y-136800005D01*
X183364511Y-137107663D01*
X183364512Y-137107670D01*
X183422280Y-137410499D01*
X183517544Y-137703689D01*
X183517546Y-137703694D01*
X183648802Y-137982626D01*
X183648805Y-137982632D01*
X183813987Y-138242919D01*
X183813990Y-138242923D01*
X183899799Y-138346647D01*
X184398381Y-137848064D01*
X184481457Y-137956331D01*
X184643669Y-138118543D01*
X184751933Y-138201617D01*
X184250767Y-138702783D01*
X184250768Y-138702785D01*
X184484617Y-138872685D01*
X184484635Y-138872697D01*
X184754778Y-139021209D01*
X184754786Y-139021213D01*
X185041406Y-139134693D01*
X185340008Y-139211361D01*
X185340017Y-139211363D01*
X185645847Y-139249999D01*
X185645861Y-139250000D01*
X185954139Y-139250000D01*
X185954152Y-139249999D01*
X186259982Y-139211363D01*
X186259991Y-139211361D01*
X186558593Y-139134693D01*
X186845213Y-139021213D01*
X186845221Y-139021209D01*
X187115364Y-138872697D01*
X187115382Y-138872685D01*
X187349230Y-138702785D01*
X187349231Y-138702783D01*
X186848065Y-138201617D01*
X186956331Y-138118543D01*
X187118543Y-137956331D01*
X187201617Y-137848065D01*
X187700199Y-138346647D01*
X187786014Y-138242916D01*
X187951194Y-137982632D01*
X187951197Y-137982626D01*
X188082453Y-137703694D01*
X188082455Y-137703689D01*
X188177719Y-137410499D01*
X188235487Y-137107670D01*
X188235488Y-137107663D01*
X188254844Y-136800005D01*
X188254844Y-136799994D01*
X188235488Y-136492336D01*
X188235487Y-136492329D01*
X188177719Y-136189500D01*
X188082455Y-135896310D01*
X188082453Y-135896305D01*
X187951197Y-135617373D01*
X187951194Y-135617367D01*
X187786017Y-135357088D01*
X187700198Y-135253351D01*
X187201616Y-135751933D01*
X187118543Y-135643669D01*
X186956331Y-135481457D01*
X186848064Y-135398381D01*
X187349231Y-134897215D01*
X187349230Y-134897214D01*
X187115382Y-134727314D01*
X187115364Y-134727302D01*
X186845221Y-134578790D01*
X186845213Y-134578786D01*
X186558593Y-134465306D01*
X186259991Y-134388638D01*
X186259982Y-134388636D01*
X185954152Y-134350000D01*
X185645847Y-134350000D01*
X185340017Y-134388636D01*
X185340008Y-134388638D01*
X185041406Y-134465306D01*
X184754786Y-134578786D01*
X184754778Y-134578790D01*
X184484632Y-134727304D01*
X184484627Y-134727307D01*
X184250768Y-134897214D01*
X184250768Y-134897215D01*
X184751934Y-135398381D01*
X184643669Y-135481457D01*
X184481457Y-135643669D01*
X184398382Y-135751934D01*
X183899799Y-135253351D01*
X183813985Y-135357083D01*
X183648805Y-135617367D01*
X183648802Y-135617373D01*
X183517546Y-135896305D01*
X183517544Y-135896310D01*
X183422280Y-136189500D01*
X183364512Y-136492329D01*
X183364511Y-136492336D01*
X183345156Y-136799994D01*
X179700006Y-136799994D01*
X183500000Y-133000000D01*
X189697266Y-133000000D01*
X189697178Y-133459695D01*
X189696404Y-137480149D01*
X189696395Y-137480285D01*
X189696395Y-137533492D01*
X189696227Y-137539953D01*
X189679446Y-137861590D01*
X189678101Y-137874438D01*
X189628457Y-138189358D01*
X189625784Y-138201998D01*
X189543638Y-138510062D01*
X189539664Y-138522353D01*
X189425914Y-138820199D01*
X189420682Y-138832011D01*
X189276566Y-139116395D01*
X189270134Y-139127599D01*
X189097208Y-139395453D01*
X189089645Y-139405927D01*
X188889788Y-139654337D01*
X188881177Y-139663966D01*
X188656564Y-139890231D01*
X188646997Y-139898913D01*
X188400063Y-140100580D01*
X188389645Y-140108219D01*
X188123062Y-140283105D01*
X188111906Y-140289619D01*
X187828585Y-140435815D01*
X187816812Y-140441133D01*
X187519807Y-140557062D01*
X187507544Y-140561126D01*
X187200105Y-140645522D01*
X187187486Y-140648289D01*
X186887436Y-140697844D01*
X186867237Y-140699501D01*
X60766220Y-140706639D01*
X60759753Y-140706471D01*
X60438130Y-140689693D01*
X60425282Y-140688349D01*
X60110341Y-140638704D01*
X60097702Y-140636030D01*
X59789647Y-140553890D01*
X59777354Y-140549916D01*
X59479502Y-140436165D01*
X59467690Y-140430933D01*
X59183305Y-140286819D01*
X59172102Y-140280388D01*
X59000000Y-140169281D01*
X59000000Y-136599994D01*
X59145156Y-136599994D01*
X59145156Y-136600005D01*
X59164511Y-136907663D01*
X59164512Y-136907670D01*
X59222280Y-137210499D01*
X59317544Y-137503689D01*
X59317546Y-137503694D01*
X59448802Y-137782626D01*
X59448805Y-137782632D01*
X59613987Y-138042919D01*
X59613990Y-138042923D01*
X59699799Y-138146647D01*
X60198381Y-137648064D01*
X60281457Y-137756331D01*
X60443669Y-137918543D01*
X60551933Y-138001617D01*
X60050767Y-138502783D01*
X60050768Y-138502785D01*
X60284617Y-138672685D01*
X60284635Y-138672697D01*
X60554778Y-138821209D01*
X60554786Y-138821213D01*
X60841406Y-138934693D01*
X61140008Y-139011361D01*
X61140017Y-139011363D01*
X61445847Y-139049999D01*
X61445861Y-139050000D01*
X61754139Y-139050000D01*
X61754152Y-139049999D01*
X62059982Y-139011363D01*
X62059991Y-139011361D01*
X62358593Y-138934693D01*
X62645213Y-138821213D01*
X62645221Y-138821209D01*
X62915364Y-138672697D01*
X62915382Y-138672685D01*
X63149230Y-138502785D01*
X63149231Y-138502783D01*
X62648065Y-138001617D01*
X62756331Y-137918543D01*
X62918543Y-137756331D01*
X63001617Y-137648065D01*
X63500199Y-138146647D01*
X63586014Y-138042916D01*
X63751194Y-137782632D01*
X63751197Y-137782626D01*
X63882453Y-137503694D01*
X63882455Y-137503689D01*
X63977719Y-137210499D01*
X64035487Y-136907670D01*
X64035488Y-136907663D01*
X64054844Y-136600005D01*
X64054844Y-136599994D01*
X64035488Y-136292336D01*
X64035487Y-136292329D01*
X63977719Y-135989500D01*
X63882455Y-135696310D01*
X63882453Y-135696305D01*
X63751197Y-135417373D01*
X63751194Y-135417367D01*
X63586017Y-135157088D01*
X63500198Y-135053351D01*
X63001616Y-135551933D01*
X62918543Y-135443669D01*
X62756331Y-135281457D01*
X62648064Y-135198381D01*
X63149231Y-134697215D01*
X63149230Y-134697214D01*
X62915382Y-134527314D01*
X62915364Y-134527302D01*
X62645221Y-134378790D01*
X62645213Y-134378786D01*
X62358593Y-134265306D01*
X62059991Y-134188638D01*
X62059982Y-134188636D01*
X61754152Y-134150000D01*
X61445847Y-134150000D01*
X61140017Y-134188636D01*
X61140008Y-134188638D01*
X60841406Y-134265306D01*
X60554786Y-134378786D01*
X60554778Y-134378790D01*
X60284632Y-134527304D01*
X60284627Y-134527307D01*
X60050768Y-134697214D01*
X60050768Y-134697215D01*
X60551934Y-135198381D01*
X60443669Y-135281457D01*
X60281457Y-135443669D01*
X60198382Y-135551934D01*
X59699799Y-135053351D01*
X59613985Y-135157083D01*
X59448805Y-135417367D01*
X59448802Y-135417373D01*
X59317546Y-135696305D01*
X59317544Y-135696310D01*
X59222280Y-135989500D01*
X59164512Y-136292329D01*
X59164511Y-136292336D01*
X59145156Y-136599994D01*
X59000000Y-136599994D01*
X59000000Y-113937563D01*
X59008094Y-113951582D01*
X59021393Y-113974617D01*
X59161082Y-114156661D01*
X59161090Y-114156670D01*
X59323331Y-114318911D01*
X59323339Y-114318918D01*
X59323340Y-114318919D01*
X59373963Y-114357764D01*
X59505383Y-114458607D01*
X59505386Y-114458608D01*
X59505389Y-114458611D01*
X59704113Y-114573344D01*
X59704118Y-114573346D01*
X59704124Y-114573349D01*
X59795481Y-114611190D01*
X59916114Y-114661158D01*
X60137763Y-114720548D01*
X60365267Y-114750500D01*
X60365274Y-114750500D01*
X60594728Y-114750500D01*
X60594735Y-114750500D01*
X60822239Y-114720548D01*
X61043888Y-114661158D01*
X61255889Y-114573344D01*
X61454613Y-114458611D01*
X61636662Y-114318919D01*
X61636666Y-114318914D01*
X61636671Y-114318911D01*
X61798912Y-114156670D01*
X61798915Y-114156665D01*
X61798920Y-114156661D01*
X61938612Y-113974612D01*
X61968113Y-113923513D01*
X62018679Y-113875298D01*
X62087286Y-113862074D01*
X62152151Y-113888042D01*
G37*
%TD.AperFunction*%
%TA.AperFunction,Conductor*%
G36*
X186488649Y-66553596D02*
G01*
X186488743Y-66553605D01*
X186499138Y-66553605D01*
X186543492Y-66553605D01*
X186549952Y-66553773D01*
X186592156Y-66555974D01*
X186871596Y-66570553D01*
X186884429Y-66571897D01*
X187199371Y-66621544D01*
X187211980Y-66624211D01*
X187520069Y-66706363D01*
X187532350Y-66710334D01*
X187830209Y-66824089D01*
X187842002Y-66829313D01*
X188107591Y-66963903D01*
X188126395Y-66973433D01*
X188137599Y-66979865D01*
X188405453Y-67152791D01*
X188415925Y-67160353D01*
X188664342Y-67360215D01*
X188673961Y-67368817D01*
X188900235Y-67593440D01*
X188908908Y-67602997D01*
X189013445Y-67730998D01*
X189110580Y-67849936D01*
X189118219Y-67860354D01*
X189293105Y-68126937D01*
X189299619Y-68138093D01*
X189445815Y-68421414D01*
X189451133Y-68433187D01*
X189567062Y-68730192D01*
X189571126Y-68742455D01*
X189655522Y-69049894D01*
X189658289Y-69062513D01*
X189707837Y-69362514D01*
X189709494Y-69382744D01*
X189709086Y-71499916D01*
X187884891Y-71496193D01*
X187977719Y-71210499D01*
X188035487Y-70907670D01*
X188035488Y-70907663D01*
X188054844Y-70600005D01*
X188054844Y-70599994D01*
X188035488Y-70292336D01*
X188035487Y-70292329D01*
X187977719Y-69989500D01*
X187882455Y-69696310D01*
X187882453Y-69696305D01*
X187751197Y-69417373D01*
X187751194Y-69417367D01*
X187586017Y-69157088D01*
X187500198Y-69053351D01*
X187001616Y-69551932D01*
X186918543Y-69443669D01*
X186756331Y-69281457D01*
X186648064Y-69198381D01*
X187149231Y-68697215D01*
X187149230Y-68697214D01*
X186915382Y-68527314D01*
X186915364Y-68527302D01*
X186645221Y-68378790D01*
X186645213Y-68378786D01*
X186358593Y-68265306D01*
X186059991Y-68188638D01*
X186059982Y-68188636D01*
X185754152Y-68150000D01*
X185445847Y-68150000D01*
X185140017Y-68188636D01*
X185140008Y-68188638D01*
X184841406Y-68265306D01*
X184554786Y-68378786D01*
X184554778Y-68378790D01*
X184284632Y-68527304D01*
X184284627Y-68527307D01*
X184050768Y-68697214D01*
X184050768Y-68697215D01*
X184551934Y-69198381D01*
X184443669Y-69281457D01*
X184281457Y-69443669D01*
X184198382Y-69551934D01*
X183699799Y-69053351D01*
X183613985Y-69157083D01*
X183448805Y-69417367D01*
X183448802Y-69417373D01*
X183317546Y-69696305D01*
X183317544Y-69696310D01*
X183222280Y-69989500D01*
X183164512Y-70292329D01*
X183164511Y-70292336D01*
X183145156Y-70599994D01*
X183145156Y-70600005D01*
X183164511Y-70907663D01*
X183164512Y-70907670D01*
X183222280Y-71210499D01*
X183312076Y-71486861D01*
X159322672Y-71437903D01*
X156169256Y-68284487D01*
X155897001Y-68067372D01*
X155896999Y-68067371D01*
X155602130Y-67882092D01*
X155288381Y-67730998D01*
X154959682Y-67615982D01*
X154959684Y-67615982D01*
X154705048Y-67557863D01*
X154620171Y-67538491D01*
X154620167Y-67538490D01*
X154620158Y-67538489D01*
X154274124Y-67499500D01*
X154274120Y-67499500D01*
X126774120Y-67499500D01*
X126425880Y-67499500D01*
X126425875Y-67499500D01*
X126079841Y-67538489D01*
X126079829Y-67538491D01*
X125740316Y-67615982D01*
X125411618Y-67730998D01*
X125097869Y-67882092D01*
X124803000Y-68067371D01*
X124802998Y-68067372D01*
X124530743Y-68284487D01*
X124530739Y-68284491D01*
X121454607Y-71360621D01*
X67250000Y-71250000D01*
X67365909Y-100459090D01*
X67198960Y-100497195D01*
X67198954Y-100497197D01*
X67030624Y-100556098D01*
X66929003Y-100591656D01*
X66897784Y-100598231D01*
X66856061Y-100601516D01*
X66856056Y-100601516D01*
X66856052Y-100601517D01*
X66856049Y-100601517D01*
X66856047Y-100601518D01*
X66611089Y-100660326D01*
X66378340Y-100756733D01*
X66163546Y-100888360D01*
X66163543Y-100888361D01*
X65971976Y-101051976D01*
X65808361Y-101243543D01*
X65808360Y-101243546D01*
X65676733Y-101458340D01*
X65610326Y-101618661D01*
X65583446Y-101658889D01*
X62857901Y-104384435D01*
X62675791Y-104612794D01*
X62528172Y-104847730D01*
X62520395Y-104860106D01*
X62393665Y-105123261D01*
X62297197Y-105398953D01*
X62297196Y-105398955D01*
X62232202Y-105683714D01*
X62232199Y-105683728D01*
X62199500Y-105973952D01*
X62199500Y-112014486D01*
X62179815Y-112081525D01*
X62127011Y-112127280D01*
X62057853Y-112137224D01*
X61994297Y-112108199D01*
X61968113Y-112076486D01*
X61967763Y-112075880D01*
X61938612Y-112025388D01*
X61938609Y-112025385D01*
X61938608Y-112025382D01*
X61798919Y-111843338D01*
X61798912Y-111843330D01*
X61636671Y-111681089D01*
X61636662Y-111681081D01*
X61454618Y-111541392D01*
X61424854Y-111524208D01*
X61255889Y-111426656D01*
X61255877Y-111426650D01*
X61043888Y-111338842D01*
X60822239Y-111279452D01*
X60784216Y-111274446D01*
X60594742Y-111249500D01*
X60594735Y-111249500D01*
X60365267Y-111249500D01*
X60365259Y-111249500D01*
X60148716Y-111278009D01*
X60137763Y-111279452D01*
X60044077Y-111304554D01*
X59916113Y-111338842D01*
X59704124Y-111426650D01*
X59704110Y-111426657D01*
X59505383Y-111541392D01*
X59323339Y-111681081D01*
X59161082Y-111843338D01*
X59021393Y-112025382D01*
X59000000Y-112062436D01*
X59000000Y-70599994D01*
X59345156Y-70599994D01*
X59345156Y-70600005D01*
X59364511Y-70907663D01*
X59364512Y-70907670D01*
X59422280Y-71210499D01*
X59517544Y-71503689D01*
X59517546Y-71503694D01*
X59648802Y-71782626D01*
X59648805Y-71782632D01*
X59813987Y-72042919D01*
X59813990Y-72042923D01*
X59899799Y-72146647D01*
X60398381Y-71648064D01*
X60481457Y-71756331D01*
X60643669Y-71918543D01*
X60751933Y-72001617D01*
X60250767Y-72502783D01*
X60250768Y-72502785D01*
X60484617Y-72672685D01*
X60484635Y-72672697D01*
X60754778Y-72821209D01*
X60754786Y-72821213D01*
X61041406Y-72934693D01*
X61340008Y-73011361D01*
X61340017Y-73011363D01*
X61645847Y-73049999D01*
X61645861Y-73050000D01*
X61954139Y-73050000D01*
X61954152Y-73049999D01*
X62259982Y-73011363D01*
X62259991Y-73011361D01*
X62558593Y-72934693D01*
X62845213Y-72821213D01*
X62845221Y-72821209D01*
X63115364Y-72672697D01*
X63115382Y-72672685D01*
X63349230Y-72502785D01*
X63349231Y-72502783D01*
X62848065Y-72001617D01*
X62956331Y-71918543D01*
X63118543Y-71756331D01*
X63201617Y-71648065D01*
X63700199Y-72146647D01*
X63786014Y-72042916D01*
X63951194Y-71782632D01*
X63951197Y-71782626D01*
X64082453Y-71503694D01*
X64082455Y-71503689D01*
X64177719Y-71210499D01*
X64235487Y-70907670D01*
X64235488Y-70907663D01*
X64254844Y-70600005D01*
X64254844Y-70599994D01*
X64235488Y-70292336D01*
X64235487Y-70292329D01*
X64177719Y-69989500D01*
X64082455Y-69696310D01*
X64082453Y-69696305D01*
X63951197Y-69417373D01*
X63951194Y-69417367D01*
X63786017Y-69157088D01*
X63700198Y-69053351D01*
X63201616Y-69551933D01*
X63118543Y-69443669D01*
X62956331Y-69281457D01*
X62848064Y-69198381D01*
X63349231Y-68697215D01*
X63349230Y-68697214D01*
X63115382Y-68527314D01*
X63115364Y-68527302D01*
X62845221Y-68378790D01*
X62845213Y-68378786D01*
X62558593Y-68265306D01*
X62259991Y-68188638D01*
X62259982Y-68188636D01*
X61954152Y-68150000D01*
X61645847Y-68150000D01*
X61340017Y-68188636D01*
X61340008Y-68188638D01*
X61041406Y-68265306D01*
X60754786Y-68378786D01*
X60754778Y-68378790D01*
X60484632Y-68527304D01*
X60484627Y-68527307D01*
X60250768Y-68697214D01*
X60250768Y-68697215D01*
X60751934Y-69198381D01*
X60643669Y-69281457D01*
X60481457Y-69443669D01*
X60398382Y-69551934D01*
X59899799Y-69053351D01*
X59813985Y-69157083D01*
X59648805Y-69417367D01*
X59648802Y-69417373D01*
X59517546Y-69696305D01*
X59517544Y-69696310D01*
X59422280Y-69989500D01*
X59364512Y-70292329D01*
X59364511Y-70292336D01*
X59345156Y-70599994D01*
X59000000Y-70599994D01*
X59000000Y-67061070D01*
X59163824Y-66953596D01*
X59174967Y-66947089D01*
X59458312Y-66800879D01*
X59470070Y-66795568D01*
X59767085Y-66679633D01*
X59779336Y-66675573D01*
X60086790Y-66591173D01*
X60099398Y-66588409D01*
X60399178Y-66538896D01*
X60419392Y-66537240D01*
X186488649Y-66553596D01*
G37*
%TD.AperFunction*%
%TD*%
%TA.AperFunction,Conductor*%
%TO.N,/ACN*%
G36*
X64324755Y-111696854D02*
G01*
X64391898Y-111813148D01*
X64486853Y-111908103D01*
X64603147Y-111975246D01*
X64662423Y-111991128D01*
X64103247Y-112550305D01*
X64167593Y-112595360D01*
X64367406Y-112688534D01*
X64367412Y-112688537D01*
X64580365Y-112745598D01*
X64580373Y-112745599D01*
X64799998Y-112764814D01*
X64800002Y-112764814D01*
X65019626Y-112745599D01*
X65019634Y-112745598D01*
X65232587Y-112688537D01*
X65232593Y-112688534D01*
X65432407Y-112595360D01*
X65432413Y-112595356D01*
X65604876Y-112474596D01*
X65671082Y-112452268D01*
X65738849Y-112469278D01*
X65786663Y-112520225D01*
X65800000Y-112576170D01*
X65800000Y-113122614D01*
X65780315Y-113189653D01*
X65727511Y-113235408D01*
X65662745Y-113245904D01*
X65607828Y-113240000D01*
X65050000Y-113240000D01*
X65050000Y-114055439D01*
X64996853Y-114024755D01*
X64867143Y-113990000D01*
X64732857Y-113990000D01*
X64603147Y-114024755D01*
X64550000Y-114055439D01*
X64550000Y-113240000D01*
X63992155Y-113240000D01*
X63932627Y-113246401D01*
X63932620Y-113246403D01*
X63789601Y-113299746D01*
X63788380Y-113296472D01*
X63736442Y-113307742D01*
X63670990Y-113283291D01*
X63632896Y-113233742D01*
X63632229Y-113234075D01*
X63630534Y-113230670D01*
X63630347Y-113230426D01*
X63630064Y-113229724D01*
X63630061Y-113229720D01*
X63630059Y-113229713D01*
X63532669Y-113067341D01*
X63515068Y-112999727D01*
X63531472Y-112941823D01*
X63630551Y-112769271D01*
X63720277Y-112533859D01*
X63739962Y-112466820D01*
X63785234Y-112265642D01*
X63790565Y-112197893D01*
X63815447Y-112132609D01*
X63826501Y-112119944D01*
X64308871Y-111637574D01*
X64324755Y-111696854D01*
G37*
%TD.AperFunction*%
%TA.AperFunction,Conductor*%
G36*
X66526534Y-103088834D02*
G01*
X66582467Y-103130706D01*
X66606884Y-103196170D01*
X66607200Y-103205016D01*
X66607200Y-103860644D01*
X66613601Y-103920172D01*
X66613603Y-103920179D01*
X66663845Y-104054886D01*
X66663849Y-104054893D01*
X66750009Y-104169987D01*
X66750012Y-104169990D01*
X66865106Y-104256150D01*
X66865113Y-104256154D01*
X66999820Y-104306396D01*
X66999827Y-104306398D01*
X67059355Y-104312799D01*
X67059372Y-104312800D01*
X67670000Y-104312800D01*
X67670000Y-103500909D01*
X67704311Y-103520719D01*
X67846433Y-103558800D01*
X67993567Y-103558800D01*
X68135689Y-103520719D01*
X68170000Y-103500909D01*
X68170000Y-104312800D01*
X68183369Y-104326169D01*
X68204877Y-104332485D01*
X68250632Y-104385289D01*
X68260576Y-104454447D01*
X68231551Y-104518003D01*
X68225519Y-104524481D01*
X66146451Y-106603547D01*
X66146445Y-106603554D01*
X66146441Y-106603558D01*
X66000000Y-106750000D01*
X66000000Y-106957107D01*
X66000000Y-106957113D01*
X66000000Y-109626000D01*
X65980315Y-109693039D01*
X65927511Y-109738794D01*
X65876000Y-109750000D01*
X65800000Y-109750000D01*
X65800000Y-110423831D01*
X65780315Y-110490870D01*
X65727511Y-110536625D01*
X65658353Y-110546569D01*
X65604876Y-110525406D01*
X65432406Y-110404641D01*
X65232593Y-110311467D01*
X65232587Y-110311464D01*
X65019634Y-110254403D01*
X65019626Y-110254402D01*
X64800002Y-110235188D01*
X64799998Y-110235188D01*
X64580373Y-110254402D01*
X64580366Y-110254403D01*
X64367404Y-110311467D01*
X64167593Y-110404641D01*
X64167589Y-110404643D01*
X64000123Y-110521904D01*
X63933917Y-110544231D01*
X63866150Y-110527221D01*
X63818337Y-110476272D01*
X63805000Y-110420329D01*
X63805000Y-106071070D01*
X63805778Y-106057205D01*
X63816733Y-105959968D01*
X63819054Y-105946303D01*
X63840831Y-105850896D01*
X63844678Y-105837544D01*
X63876990Y-105745199D01*
X63882310Y-105732356D01*
X63924760Y-105644210D01*
X63931481Y-105632048D01*
X63983534Y-105549205D01*
X63991578Y-105537871D01*
X64052575Y-105461381D01*
X64061833Y-105451020D01*
X66395520Y-103117333D01*
X66456842Y-103083850D01*
X66526534Y-103088834D01*
G37*
%TD.AperFunction*%
%TD*%
%TA.AperFunction,Conductor*%
%TO.N,+28V*%
G36*
X188170623Y-99751369D02*
G01*
X188289704Y-99769219D01*
X188324847Y-99779996D01*
X188374941Y-99803970D01*
X188425033Y-99827943D01*
X188455473Y-99848552D01*
X188537197Y-99923764D01*
X188560256Y-99952393D01*
X188621055Y-100056329D01*
X188629154Y-100072887D01*
X189462044Y-102155111D01*
X189465898Y-102166254D01*
X189487648Y-102240387D01*
X189492102Y-102263518D01*
X189499439Y-102340411D01*
X189500000Y-102352189D01*
X189500000Y-104137000D01*
X189480315Y-104204039D01*
X189427511Y-104249794D01*
X189358353Y-104259738D01*
X189294797Y-104230713D01*
X189257023Y-104171935D01*
X189253061Y-104153186D01*
X189250930Y-104137000D01*
X189240548Y-104058142D01*
X189181158Y-103836493D01*
X189113485Y-103673116D01*
X189093349Y-103624503D01*
X189093346Y-103624497D01*
X189093344Y-103624492D01*
X188978611Y-103425768D01*
X188978608Y-103425765D01*
X188978607Y-103425762D01*
X188867372Y-103280799D01*
X188838919Y-103243719D01*
X188838918Y-103243718D01*
X188838911Y-103243710D01*
X188676670Y-103081469D01*
X188676661Y-103081461D01*
X188494617Y-102941772D01*
X188295890Y-102827037D01*
X188295876Y-102827030D01*
X188083887Y-102739222D01*
X188070366Y-102735599D01*
X187862238Y-102679832D01*
X187824215Y-102674826D01*
X187634741Y-102649880D01*
X187634734Y-102649880D01*
X187405266Y-102649880D01*
X187405258Y-102649880D01*
X187188715Y-102678389D01*
X187177762Y-102679832D01*
X187084076Y-102704934D01*
X186956112Y-102739222D01*
X186744123Y-102827030D01*
X186744109Y-102827037D01*
X186545382Y-102941772D01*
X186363338Y-103081461D01*
X186201081Y-103243718D01*
X186061392Y-103425762D01*
X185946657Y-103624489D01*
X185946650Y-103624503D01*
X185858842Y-103836492D01*
X185799453Y-104058139D01*
X185799451Y-104058150D01*
X185769500Y-104285638D01*
X185769500Y-104515121D01*
X185784355Y-104627946D01*
X185799452Y-104742618D01*
X185799453Y-104742620D01*
X185858842Y-104964267D01*
X185946650Y-105176256D01*
X185946657Y-105176270D01*
X186061392Y-105374997D01*
X186201081Y-105557041D01*
X186201089Y-105557050D01*
X186363330Y-105719291D01*
X186363338Y-105719298D01*
X186363339Y-105719299D01*
X186413962Y-105758144D01*
X186545382Y-105858987D01*
X186545385Y-105858988D01*
X186545388Y-105858991D01*
X186744112Y-105973724D01*
X186744117Y-105973726D01*
X186744123Y-105973729D01*
X186835480Y-106011570D01*
X186956113Y-106061538D01*
X187177762Y-106120928D01*
X187405266Y-106150880D01*
X187405273Y-106150880D01*
X187634727Y-106150880D01*
X187634734Y-106150880D01*
X187862238Y-106120928D01*
X188083887Y-106061538D01*
X188295888Y-105973724D01*
X188494612Y-105858991D01*
X188676661Y-105719299D01*
X188676665Y-105719294D01*
X188676670Y-105719291D01*
X188838911Y-105557050D01*
X188838914Y-105557045D01*
X188838919Y-105557041D01*
X188978611Y-105374992D01*
X189093344Y-105176268D01*
X189181158Y-104964267D01*
X189240548Y-104742618D01*
X189253061Y-104647572D01*
X189281328Y-104583677D01*
X189339652Y-104545206D01*
X189409517Y-104544375D01*
X189468740Y-104581447D01*
X189498519Y-104644653D01*
X189500000Y-104663759D01*
X189500000Y-120836967D01*
X189480315Y-120904006D01*
X189427511Y-120949761D01*
X189358353Y-120959705D01*
X189294797Y-120930680D01*
X189257023Y-120871902D01*
X189253061Y-120853153D01*
X189248508Y-120818572D01*
X189240548Y-120758109D01*
X189181158Y-120536460D01*
X189093344Y-120324459D01*
X188978611Y-120125735D01*
X188978608Y-120125732D01*
X188978607Y-120125729D01*
X188838918Y-119943685D01*
X188838911Y-119943677D01*
X188676670Y-119781436D01*
X188676661Y-119781428D01*
X188494617Y-119641739D01*
X188295890Y-119527004D01*
X188295876Y-119526997D01*
X188083887Y-119439189D01*
X187862238Y-119379799D01*
X187824215Y-119374793D01*
X187634741Y-119349847D01*
X187634734Y-119349847D01*
X187405266Y-119349847D01*
X187405258Y-119349847D01*
X187188715Y-119378356D01*
X187177762Y-119379799D01*
X187084076Y-119404901D01*
X186956112Y-119439189D01*
X186744123Y-119526997D01*
X186744109Y-119527004D01*
X186545382Y-119641739D01*
X186363338Y-119781428D01*
X186201081Y-119943685D01*
X186061392Y-120125729D01*
X185946657Y-120324456D01*
X185946650Y-120324470D01*
X185858842Y-120536459D01*
X185799453Y-120758106D01*
X185799451Y-120758117D01*
X185769500Y-120985605D01*
X185769500Y-121215088D01*
X185788014Y-121355706D01*
X185799452Y-121442585D01*
X185831807Y-121563337D01*
X185858842Y-121664234D01*
X185946650Y-121876223D01*
X185946657Y-121876237D01*
X186061392Y-122074964D01*
X186201081Y-122257008D01*
X186201089Y-122257017D01*
X186363330Y-122419258D01*
X186363338Y-122419265D01*
X186545382Y-122558954D01*
X186545385Y-122558955D01*
X186545388Y-122558958D01*
X186744112Y-122673691D01*
X186744117Y-122673693D01*
X186744123Y-122673696D01*
X186797946Y-122695990D01*
X186956113Y-122761505D01*
X187177762Y-122820895D01*
X187405266Y-122850847D01*
X187405273Y-122850847D01*
X187634727Y-122850847D01*
X187634734Y-122850847D01*
X187862238Y-122820895D01*
X188083887Y-122761505D01*
X188295888Y-122673691D01*
X188494612Y-122558958D01*
X188676661Y-122419266D01*
X188676665Y-122419261D01*
X188676670Y-122419258D01*
X188838911Y-122257017D01*
X188838914Y-122257012D01*
X188838919Y-122257008D01*
X188978611Y-122074959D01*
X189093344Y-121876235D01*
X189181158Y-121664234D01*
X189240548Y-121442585D01*
X189253061Y-121347539D01*
X189281328Y-121283644D01*
X189339652Y-121245173D01*
X189409517Y-121244342D01*
X189468740Y-121281414D01*
X189498519Y-121344620D01*
X189500000Y-121363726D01*
X189500000Y-130823336D01*
X189498399Y-130843199D01*
X189477565Y-130971584D01*
X189465002Y-131009271D01*
X189404637Y-131124480D01*
X189394001Y-131141330D01*
X189241325Y-131344900D01*
X189185354Y-131386721D01*
X189142125Y-131394500D01*
X183499994Y-131394500D01*
X183248848Y-131414265D01*
X183003868Y-131473080D01*
X182771121Y-131569486D01*
X182771118Y-131569488D01*
X182556316Y-131701119D01*
X182556307Y-131701125D01*
X182364758Y-131864723D01*
X182364732Y-131864747D01*
X182265799Y-131963681D01*
X182204476Y-131997166D01*
X182178118Y-132000000D01*
X155250000Y-132000000D01*
X155121832Y-132088391D01*
X155121827Y-132088394D01*
X154016134Y-132850941D01*
X154016130Y-132850944D01*
X153800000Y-133000000D01*
X153800000Y-133262549D01*
X153800000Y-133262550D01*
X153800000Y-135011789D01*
X153782329Y-135075586D01*
X153286473Y-135902013D01*
X153123296Y-136173975D01*
X152895521Y-136553601D01*
X152877103Y-136584297D01*
X152825732Y-136631656D01*
X152770774Y-136644500D01*
X151970382Y-136644500D01*
X151844423Y-136649449D01*
X151844415Y-136649450D01*
X151595593Y-136688860D01*
X151355985Y-136766714D01*
X151292490Y-136799067D01*
X151141495Y-136876003D01*
X151072826Y-136888899D01*
X151008085Y-136862623D01*
X150967828Y-136805516D01*
X150961200Y-136765518D01*
X150961200Y-136240972D01*
X150961199Y-136240955D01*
X150954798Y-136181427D01*
X150954796Y-136181420D01*
X150904554Y-136046713D01*
X150904550Y-136046706D01*
X150818390Y-135931612D01*
X150818387Y-135931609D01*
X150703293Y-135845449D01*
X150703286Y-135845445D01*
X150568579Y-135795203D01*
X150568572Y-135795201D01*
X150509044Y-135788800D01*
X150000000Y-135788800D01*
X150000000Y-136616408D01*
X149926473Y-136573958D01*
X149810192Y-136542800D01*
X149689808Y-136542800D01*
X149573527Y-136573958D01*
X149500000Y-136616408D01*
X149500000Y-135788800D01*
X148990955Y-135788800D01*
X148931427Y-135795201D01*
X148931420Y-135795203D01*
X148796713Y-135845445D01*
X148796706Y-135845449D01*
X148681612Y-135931609D01*
X148681609Y-135931612D01*
X148595449Y-136046706D01*
X148595445Y-136046713D01*
X148545203Y-136181420D01*
X148545201Y-136181427D01*
X148538800Y-136240955D01*
X148538800Y-136769845D01*
X148519115Y-136836884D01*
X148466311Y-136882639D01*
X148397153Y-136892583D01*
X148350010Y-136875572D01*
X148258489Y-136819488D01*
X148258486Y-136819486D01*
X148025739Y-136723080D01*
X147966576Y-136708876D01*
X147780764Y-136664266D01*
X147780762Y-136664265D01*
X147780759Y-136664265D01*
X147529613Y-136644500D01*
X147529608Y-136644500D01*
X143455967Y-136644500D01*
X143394833Y-136628383D01*
X143262866Y-136553601D01*
X143214245Y-136503423D01*
X143200000Y-136445718D01*
X143200000Y-135908360D01*
X143202494Y-135883614D01*
X143210267Y-135845449D01*
X143252805Y-135636584D01*
X143263000Y-135477325D01*
X143262999Y-134022676D01*
X143252805Y-133863416D01*
X143214223Y-133673977D01*
X143202494Y-133616384D01*
X143200000Y-133591638D01*
X143200000Y-133207113D01*
X143200000Y-133207107D01*
X143200000Y-133000000D01*
X143053554Y-132853554D01*
X143053548Y-132853547D01*
X142746452Y-132546451D01*
X142746445Y-132546445D01*
X142600000Y-132400000D01*
X142392893Y-132400000D01*
X142392886Y-132400000D01*
X142174716Y-132400000D01*
X142132542Y-132392608D01*
X142074067Y-132371459D01*
X141914513Y-132313753D01*
X141649084Y-132259695D01*
X141601143Y-132256626D01*
X141515385Y-132251136D01*
X141449740Y-132227208D01*
X141435626Y-132215070D01*
X141387928Y-132167372D01*
X141387922Y-132167367D01*
X141169479Y-131999750D01*
X140931024Y-131862078D01*
X140931014Y-131862074D01*
X140676630Y-131756704D01*
X140543649Y-131721072D01*
X140410666Y-131685440D01*
X140410660Y-131685439D01*
X140410655Y-131685438D01*
X140137684Y-131649501D01*
X140137679Y-131649500D01*
X140137674Y-131649500D01*
X139393678Y-131649500D01*
X139106322Y-131649500D01*
X139106321Y-131649500D01*
X138970283Y-131668198D01*
X138969583Y-131668292D01*
X138839343Y-131685438D01*
X138835364Y-131686230D01*
X138835345Y-131686134D01*
X138825859Y-131688048D01*
X138821654Y-131688626D01*
X138821638Y-131688629D01*
X138695591Y-131723945D01*
X138694233Y-131724317D01*
X138573368Y-131756703D01*
X138573367Y-131756704D01*
X138569110Y-131758467D01*
X138555146Y-131763296D01*
X138544937Y-131766157D01*
X138544935Y-131766158D01*
X138430564Y-131815835D01*
X138428619Y-131816660D01*
X138318974Y-131862079D01*
X138318966Y-131862083D01*
X138309511Y-131867542D01*
X138296923Y-131873885D01*
X138281376Y-131880638D01*
X138180237Y-131942142D01*
X138177810Y-131943580D01*
X138080523Y-131999749D01*
X138080513Y-131999756D01*
X138066798Y-132010279D01*
X138055751Y-132017844D01*
X138035856Y-132029943D01*
X138035844Y-132029951D01*
X137948948Y-132100645D01*
X137946207Y-132102811D01*
X137909566Y-132130928D01*
X137862071Y-132167372D01*
X137845362Y-132184081D01*
X137835941Y-132192584D01*
X137812950Y-132211289D01*
X137812945Y-132211293D01*
X137740819Y-132288520D01*
X137737879Y-132291562D01*
X137665763Y-132363680D01*
X137604441Y-132397166D01*
X137578081Y-132400000D01*
X135571928Y-132400000D01*
X135562654Y-132399653D01*
X135494101Y-132394511D01*
X135494090Y-132394510D01*
X134001350Y-132399999D01*
X134000894Y-132400000D01*
X130995304Y-132400000D01*
X130980483Y-132399111D01*
X130884026Y-132387499D01*
X130855233Y-132380465D01*
X130771297Y-132348927D01*
X130744996Y-132335260D01*
X130664760Y-132280483D01*
X130653026Y-132271397D01*
X121577367Y-124330196D01*
X121563906Y-124316431D01*
X121483254Y-124220003D01*
X121463480Y-124187098D01*
X121419864Y-124079679D01*
X121411101Y-124042303D01*
X121402430Y-123926686D01*
X121405520Y-123888420D01*
X121432627Y-123775696D01*
X121447272Y-123740211D01*
X121512640Y-123632830D01*
X121523892Y-123617217D01*
X122868029Y-122028693D01*
X123135449Y-121712649D01*
X123147109Y-121700622D01*
X123153149Y-121695181D01*
X123228508Y-121627291D01*
X123256127Y-121608474D01*
X123346584Y-121563337D01*
X123378231Y-121552582D01*
X123477451Y-121533255D01*
X123510818Y-121531346D01*
X123611596Y-121539231D01*
X123644266Y-121546307D01*
X123747247Y-121583729D01*
X123762558Y-121590496D01*
X124855944Y-122164988D01*
X125238953Y-122366230D01*
X125289143Y-122414837D01*
X125305087Y-122482864D01*
X125281722Y-122548711D01*
X125226466Y-122591473D01*
X125181277Y-122600000D01*
X124750000Y-122600000D01*
X124750000Y-123566988D01*
X124692993Y-123534075D01*
X124565826Y-123500000D01*
X124434174Y-123500000D01*
X124307007Y-123534075D01*
X124250000Y-123566988D01*
X124250000Y-122600000D01*
X123552155Y-122600000D01*
X123492627Y-122606401D01*
X123492620Y-122606403D01*
X123357913Y-122656645D01*
X123357906Y-122656649D01*
X123242812Y-122742809D01*
X123242809Y-122742812D01*
X123156649Y-122857906D01*
X123156645Y-122857913D01*
X123106403Y-122992620D01*
X123106401Y-122992627D01*
X123100000Y-123052155D01*
X123100000Y-123750000D01*
X124066988Y-123750000D01*
X124034075Y-123807007D01*
X124000000Y-123934174D01*
X124000000Y-124065826D01*
X124034075Y-124192993D01*
X124066988Y-124250000D01*
X123100000Y-124250000D01*
X123100000Y-124947844D01*
X123106401Y-125007372D01*
X123106403Y-125007379D01*
X123156645Y-125142086D01*
X123156649Y-125142093D01*
X123242809Y-125257187D01*
X123242812Y-125257190D01*
X123357906Y-125343350D01*
X123357913Y-125343354D01*
X123492620Y-125393596D01*
X123492627Y-125393598D01*
X123552155Y-125399999D01*
X123552172Y-125400000D01*
X124250000Y-125400000D01*
X124250000Y-124433012D01*
X124307007Y-124465925D01*
X124434174Y-124500000D01*
X124565826Y-124500000D01*
X124692993Y-124465925D01*
X124750000Y-124433012D01*
X124750000Y-125400000D01*
X125447828Y-125400000D01*
X125447844Y-125399999D01*
X125507372Y-125393598D01*
X125507379Y-125393596D01*
X125642086Y-125343354D01*
X125642093Y-125343350D01*
X125757187Y-125257190D01*
X125757190Y-125257187D01*
X125843350Y-125142093D01*
X125843354Y-125142086D01*
X125893596Y-125007379D01*
X125893598Y-125007372D01*
X125899999Y-124947844D01*
X125900000Y-124947827D01*
X125900000Y-124250000D01*
X124933012Y-124250000D01*
X124965925Y-124192993D01*
X125000000Y-124065826D01*
X125000000Y-123934174D01*
X124965925Y-123807007D01*
X124933012Y-123750000D01*
X125900000Y-123750000D01*
X125900000Y-123052172D01*
X125899999Y-123052155D01*
X125893598Y-122992627D01*
X125893596Y-122992619D01*
X125875982Y-122945394D01*
X125870997Y-122875702D01*
X125904481Y-122814379D01*
X125965804Y-122780893D01*
X126035496Y-122785877D01*
X126049839Y-122792289D01*
X127358675Y-123479982D01*
X129190796Y-124442622D01*
X129190798Y-124442622D01*
X129300000Y-124500000D01*
X129423367Y-124500000D01*
X132398534Y-124500000D01*
X132465573Y-124519685D01*
X132511328Y-124572489D01*
X132521272Y-124641647D01*
X132492247Y-124705203D01*
X132478244Y-124718985D01*
X132441283Y-124750000D01*
X132321811Y-124850248D01*
X132321811Y-124850249D01*
X132085957Y-125100238D01*
X132085952Y-125100244D01*
X131880716Y-125375924D01*
X131708871Y-125673569D01*
X131708865Y-125673582D01*
X131572737Y-125989159D01*
X131474166Y-126318411D01*
X131474163Y-126318424D01*
X131414485Y-126656875D01*
X131414484Y-126656886D01*
X131394500Y-126999996D01*
X131394500Y-127000003D01*
X131414484Y-127343113D01*
X131414485Y-127343124D01*
X131474163Y-127681575D01*
X131474166Y-127681588D01*
X131572737Y-128010840D01*
X131708865Y-128326417D01*
X131708871Y-128326430D01*
X131880716Y-128624075D01*
X132085952Y-128899755D01*
X132085957Y-128899761D01*
X132207767Y-129028871D01*
X132321813Y-129149753D01*
X132321819Y-129149758D01*
X132321821Y-129149760D01*
X132585093Y-129370672D01*
X132585098Y-129370675D01*
X132872250Y-129559538D01*
X132974329Y-129610804D01*
X133179378Y-129713785D01*
X133179384Y-129713787D01*
X133179386Y-129713788D01*
X133502353Y-129831338D01*
X133836783Y-129910599D01*
X134178153Y-129950500D01*
X134178160Y-129950500D01*
X134521840Y-129950500D01*
X134521847Y-129950500D01*
X134863217Y-129910599D01*
X135197647Y-129831338D01*
X135520614Y-129713788D01*
X135520617Y-129713786D01*
X135520621Y-129713785D01*
X135624487Y-129661620D01*
X135827750Y-129559538D01*
X136114902Y-129370675D01*
X136378187Y-129149753D01*
X136614044Y-128899759D01*
X136819284Y-128624074D01*
X136991131Y-128326426D01*
X137127262Y-128010841D01*
X137225834Y-127681585D01*
X137285516Y-127343113D01*
X137305500Y-127000000D01*
X137285516Y-126656887D01*
X137253880Y-126477471D01*
X137225836Y-126318424D01*
X137225833Y-126318411D01*
X137127262Y-125989159D01*
X137053055Y-125817129D01*
X136991131Y-125673574D01*
X136906528Y-125527038D01*
X136819283Y-125375924D01*
X136614047Y-125100244D01*
X136614042Y-125100238D01*
X136454161Y-124930775D01*
X136378187Y-124850247D01*
X136221759Y-124718988D01*
X136183058Y-124660818D01*
X136181950Y-124590957D01*
X136218787Y-124531587D01*
X136281874Y-124501558D01*
X136301466Y-124500000D01*
X140957533Y-124500000D01*
X141024572Y-124519685D01*
X141070327Y-124572489D01*
X141080271Y-124641647D01*
X141051246Y-124705203D01*
X141003180Y-124739292D01*
X140904573Y-124778332D01*
X140904572Y-124778333D01*
X140634360Y-124926884D01*
X140634348Y-124926891D01*
X140384912Y-125108117D01*
X140384902Y-125108125D01*
X140160132Y-125319199D01*
X140093288Y-125400000D01*
X139973077Y-125545310D01*
X139963577Y-125556793D01*
X139798366Y-125817126D01*
X139798362Y-125817132D01*
X139667080Y-126096120D01*
X139667078Y-126096125D01*
X139571795Y-126389376D01*
X139514015Y-126692267D01*
X139514014Y-126692274D01*
X139494655Y-126999994D01*
X139494655Y-127000005D01*
X139514014Y-127307725D01*
X139514015Y-127307732D01*
X139571795Y-127610623D01*
X139667078Y-127903874D01*
X139667080Y-127903879D01*
X139798362Y-128182867D01*
X139798366Y-128182873D01*
X139963577Y-128443206D01*
X139963579Y-128443209D01*
X139963584Y-128443216D01*
X140160131Y-128680799D01*
X140345343Y-128854726D01*
X140384902Y-128891874D01*
X140384912Y-128891882D01*
X140634348Y-129073108D01*
X140634353Y-129073110D01*
X140634360Y-129073116D01*
X140904565Y-129221663D01*
X140904570Y-129221665D01*
X140904572Y-129221666D01*
X140904573Y-129221667D01*
X141191253Y-129335171D01*
X141191256Y-129335172D01*
X141329532Y-129370675D01*
X141489914Y-129411854D01*
X141554091Y-129419961D01*
X141795816Y-129450499D01*
X141795825Y-129450499D01*
X141795828Y-129450500D01*
X141795830Y-129450500D01*
X142104170Y-129450500D01*
X142104172Y-129450500D01*
X142104175Y-129450499D01*
X142104183Y-129450499D01*
X142286722Y-129427438D01*
X142410086Y-129411854D01*
X142708743Y-129335172D01*
X142708746Y-129335171D01*
X142995426Y-129221667D01*
X142995427Y-129221666D01*
X142995425Y-129221666D01*
X142995435Y-129221663D01*
X143265640Y-129073116D01*
X143515096Y-128891876D01*
X143739869Y-128680799D01*
X143936416Y-128443216D01*
X144101635Y-128182871D01*
X144131500Y-128119406D01*
X144232919Y-127903879D01*
X144232922Y-127903873D01*
X144328206Y-127610619D01*
X144385984Y-127307736D01*
X144399149Y-127098491D01*
X144405345Y-127000005D01*
X144405345Y-126999998D01*
X147695274Y-126999998D01*
X147695274Y-127000001D01*
X147714152Y-127263960D01*
X147770400Y-127522528D01*
X147862884Y-127770487D01*
X147989701Y-128002735D01*
X147989706Y-128002743D01*
X148077038Y-128119406D01*
X148077039Y-128119406D01*
X148687425Y-127509019D01*
X148773249Y-127637463D01*
X148912537Y-127776751D01*
X149040978Y-127862573D01*
X148430592Y-128472959D01*
X148430593Y-128472960D01*
X148547256Y-128560293D01*
X148547264Y-128560298D01*
X148779513Y-128687115D01*
X148779512Y-128687115D01*
X149027471Y-128779599D01*
X149286039Y-128835847D01*
X149549999Y-128854726D01*
X149550001Y-128854726D01*
X149813960Y-128835847D01*
X150072528Y-128779599D01*
X150320487Y-128687115D01*
X150552735Y-128560298D01*
X150552736Y-128560297D01*
X150669406Y-128472959D01*
X150059021Y-127862573D01*
X150187463Y-127776751D01*
X150326751Y-127637463D01*
X150412573Y-127509020D01*
X151022959Y-128119406D01*
X151110297Y-128002736D01*
X151110298Y-128002735D01*
X151237115Y-127770487D01*
X151329599Y-127522528D01*
X151385847Y-127263960D01*
X151404726Y-127000001D01*
X151404726Y-126999998D01*
X151385847Y-126736039D01*
X151329599Y-126477471D01*
X151237115Y-126229512D01*
X151110298Y-125997264D01*
X151110293Y-125997256D01*
X151022960Y-125880593D01*
X151022959Y-125880592D01*
X150412573Y-126490978D01*
X150326751Y-126362537D01*
X150187463Y-126223249D01*
X150059020Y-126137425D01*
X150669406Y-125527039D01*
X150669406Y-125527038D01*
X150552743Y-125439706D01*
X150552735Y-125439701D01*
X150320486Y-125312884D01*
X150320487Y-125312884D01*
X150072528Y-125220400D01*
X149813960Y-125164152D01*
X149550001Y-125145274D01*
X149549999Y-125145274D01*
X149286039Y-125164152D01*
X149027471Y-125220400D01*
X148779512Y-125312884D01*
X148547264Y-125439701D01*
X148430593Y-125527039D01*
X149040979Y-126137425D01*
X148912537Y-126223249D01*
X148773249Y-126362537D01*
X148687425Y-126490979D01*
X148077039Y-125880593D01*
X147989701Y-125997264D01*
X147862884Y-126229512D01*
X147770400Y-126477471D01*
X147714152Y-126736039D01*
X147695274Y-126999998D01*
X144405345Y-126999998D01*
X144405345Y-126999994D01*
X144385985Y-126692274D01*
X144385984Y-126692267D01*
X144385984Y-126692264D01*
X144328206Y-126389381D01*
X144232922Y-126096127D01*
X144232919Y-126096120D01*
X144101637Y-125817132D01*
X144101633Y-125817126D01*
X143936422Y-125556793D01*
X143936420Y-125556791D01*
X143936416Y-125556784D01*
X143739869Y-125319201D01*
X143515096Y-125108124D01*
X143515093Y-125108122D01*
X143515087Y-125108117D01*
X143265651Y-124926891D01*
X143265644Y-124926886D01*
X143265640Y-124926884D01*
X142995435Y-124778337D01*
X142995432Y-124778335D01*
X142995427Y-124778333D01*
X142995426Y-124778332D01*
X142896820Y-124739292D01*
X142841734Y-124696311D01*
X142818631Y-124630372D01*
X142834844Y-124562410D01*
X142885227Y-124514002D01*
X142942467Y-124500000D01*
X147000000Y-124500000D01*
X159422000Y-124500000D01*
X159489039Y-124519685D01*
X159534794Y-124572489D01*
X159544738Y-124641647D01*
X159518366Y-124702036D01*
X159333135Y-124930776D01*
X159127599Y-125247275D01*
X158956267Y-125583531D01*
X158821023Y-125935852D01*
X158723347Y-126300385D01*
X158723346Y-126300392D01*
X158664310Y-126673127D01*
X158644559Y-127049999D01*
X158644559Y-127050000D01*
X158664310Y-127426872D01*
X158723346Y-127799607D01*
X158723347Y-127799614D01*
X158821023Y-128164147D01*
X158956267Y-128516468D01*
X159127599Y-128852725D01*
X159333135Y-129169223D01*
X159467517Y-129335171D01*
X159570635Y-129462511D01*
X159837489Y-129729365D01*
X159837493Y-129729368D01*
X160130776Y-129966864D01*
X160447274Y-130172400D01*
X160447279Y-130172403D01*
X160783535Y-130343734D01*
X161135857Y-130478978D01*
X161500387Y-130576653D01*
X161873129Y-130635690D01*
X162229155Y-130654348D01*
X162249999Y-130655441D01*
X162250000Y-130655441D01*
X162250001Y-130655441D01*
X162269752Y-130654405D01*
X162626871Y-130635690D01*
X162999613Y-130576653D01*
X163364143Y-130478978D01*
X163716465Y-130343734D01*
X164052721Y-130172403D01*
X164369225Y-129966863D01*
X164662511Y-129729365D01*
X164929365Y-129462511D01*
X165166863Y-129169225D01*
X165372403Y-128852721D01*
X165543734Y-128516465D01*
X165678978Y-128164143D01*
X165776653Y-127799613D01*
X165835690Y-127426871D01*
X165855441Y-127050000D01*
X165835690Y-126673129D01*
X165776653Y-126300387D01*
X165678978Y-125935857D01*
X165543734Y-125583535D01*
X165372403Y-125247280D01*
X165354947Y-125220400D01*
X165166864Y-124930776D01*
X164981634Y-124702036D01*
X164954742Y-124637548D01*
X164966984Y-124568760D01*
X165014473Y-124517509D01*
X165078000Y-124500000D01*
X169500000Y-124500000D01*
X169501864Y-124495497D01*
X169501682Y-124495163D01*
X171380072Y-119094792D01*
X171387730Y-119077271D01*
X171446470Y-118966943D01*
X171469370Y-118936425D01*
X171551925Y-118855966D01*
X171583024Y-118833856D01*
X171686140Y-118782314D01*
X171722488Y-118770711D01*
X171794393Y-118759512D01*
X171833789Y-118753377D01*
X171852870Y-118751900D01*
X172068421Y-118751900D01*
X172135460Y-118771585D01*
X172181215Y-118824389D01*
X172191159Y-118893547D01*
X172167687Y-118950212D01*
X172095447Y-119046710D01*
X172095445Y-119046713D01*
X172045203Y-119181420D01*
X172045201Y-119181427D01*
X172038800Y-119240955D01*
X172038800Y-119750000D01*
X172866409Y-119750000D01*
X172823958Y-119823527D01*
X172792800Y-119939808D01*
X172792800Y-120060192D01*
X172823958Y-120176473D01*
X172866409Y-120250000D01*
X172038800Y-120250000D01*
X172038800Y-120759044D01*
X172045201Y-120818572D01*
X172045203Y-120818579D01*
X172095445Y-120953286D01*
X172095449Y-120953293D01*
X172181609Y-121068387D01*
X172181612Y-121068390D01*
X172296706Y-121154550D01*
X172296713Y-121154554D01*
X172431420Y-121204796D01*
X172431427Y-121204798D01*
X172490955Y-121211199D01*
X172490972Y-121211200D01*
X173000000Y-121211200D01*
X173000000Y-120383591D01*
X173073527Y-120426042D01*
X173189808Y-120457200D01*
X173310192Y-120457200D01*
X173426473Y-120426042D01*
X173500000Y-120383591D01*
X173500000Y-121211200D01*
X174009028Y-121211200D01*
X174009044Y-121211199D01*
X174068572Y-121204798D01*
X174068579Y-121204796D01*
X174203286Y-121154554D01*
X174203293Y-121154550D01*
X174318387Y-121068390D01*
X174318390Y-121068387D01*
X174404550Y-120953293D01*
X174404554Y-120953286D01*
X174454796Y-120818579D01*
X174454798Y-120818572D01*
X174461199Y-120759044D01*
X174461200Y-120759027D01*
X174461200Y-120250000D01*
X173633591Y-120250000D01*
X173676042Y-120176473D01*
X173707200Y-120060192D01*
X173707200Y-119939808D01*
X173676042Y-119823527D01*
X173633591Y-119750000D01*
X174461200Y-119750000D01*
X174461200Y-119240972D01*
X174461199Y-119240955D01*
X174454798Y-119181427D01*
X174454796Y-119181420D01*
X174404554Y-119046713D01*
X174404553Y-119046711D01*
X174340605Y-118961288D01*
X174316188Y-118895824D01*
X174331039Y-118827551D01*
X174380444Y-118778145D01*
X174448717Y-118763293D01*
X174456478Y-118764094D01*
X174468418Y-118765708D01*
X174500452Y-118774533D01*
X174592860Y-118813951D01*
X174621395Y-118830962D01*
X174700026Y-118893514D01*
X174723018Y-118917493D01*
X174782208Y-118998673D01*
X174798010Y-119027904D01*
X174836488Y-119129760D01*
X174841313Y-119145698D01*
X175428798Y-121691457D01*
X175500000Y-122000000D01*
X175510430Y-122028683D01*
X175510434Y-122028694D01*
X175860952Y-122992619D01*
X176375458Y-124407511D01*
X176380317Y-124420872D01*
X176380316Y-124420872D01*
X176380317Y-124420875D01*
X176500000Y-124750000D01*
X176850220Y-124750000D01*
X178310576Y-124750000D01*
X178377615Y-124769685D01*
X178403804Y-124792241D01*
X178527294Y-124933055D01*
X178612037Y-125007372D01*
X178759937Y-125137077D01*
X179017219Y-125308987D01*
X179017222Y-125308988D01*
X179017228Y-125308992D01*
X179294736Y-125445844D01*
X179294746Y-125445848D01*
X179587737Y-125545304D01*
X179587749Y-125545308D01*
X179891234Y-125605675D01*
X180200002Y-125625913D01*
X180508770Y-125605675D01*
X180812255Y-125545308D01*
X180953875Y-125497234D01*
X181105257Y-125445848D01*
X181105267Y-125445844D01*
X181382775Y-125308992D01*
X181382775Y-125308991D01*
X181382785Y-125308987D01*
X181640067Y-125137077D01*
X181872709Y-124933055D01*
X182076731Y-124700413D01*
X182248641Y-124443131D01*
X182298626Y-124341771D01*
X182345927Y-124290356D01*
X182413522Y-124272674D01*
X182479947Y-124294343D01*
X182480959Y-124295045D01*
X182567587Y-124355704D01*
X182567593Y-124355707D01*
X182767407Y-124448881D01*
X182767413Y-124448884D01*
X182980366Y-124505945D01*
X182980374Y-124505946D01*
X183199999Y-124525161D01*
X183200003Y-124525161D01*
X183419627Y-124505946D01*
X183419635Y-124505945D01*
X183632588Y-124448884D01*
X183632599Y-124448880D01*
X183832403Y-124355710D01*
X183832411Y-124355706D01*
X183896752Y-124310653D01*
X183337575Y-123751476D01*
X183396854Y-123735593D01*
X183513148Y-123668450D01*
X183608103Y-123573495D01*
X183675246Y-123457201D01*
X183691129Y-123397923D01*
X184250305Y-123957099D01*
X184250306Y-123957099D01*
X184295359Y-123892758D01*
X184295363Y-123892750D01*
X184388533Y-123692946D01*
X184388537Y-123692935D01*
X184445598Y-123479982D01*
X184445599Y-123479974D01*
X184464814Y-123260349D01*
X184464814Y-123260346D01*
X184445599Y-123040721D01*
X184445598Y-123040714D01*
X184388534Y-122827752D01*
X184295361Y-122627943D01*
X184295360Y-122627941D01*
X184250305Y-122563596D01*
X184250305Y-122563595D01*
X183691128Y-123122771D01*
X183675246Y-123063495D01*
X183608103Y-122947201D01*
X183513148Y-122852246D01*
X183396854Y-122785103D01*
X183337575Y-122769219D01*
X183896752Y-122210042D01*
X183832403Y-122164986D01*
X183632594Y-122071814D01*
X183632588Y-122071811D01*
X183419635Y-122014750D01*
X183419627Y-122014749D01*
X183200003Y-121995535D01*
X183199999Y-121995535D01*
X182980374Y-122014749D01*
X182980367Y-122014750D01*
X182767405Y-122071814D01*
X182567594Y-122164988D01*
X182567592Y-122164989D01*
X182480957Y-122225651D01*
X182414751Y-122247978D01*
X182346984Y-122230966D01*
X182299171Y-122180018D01*
X182298623Y-122178919D01*
X182248646Y-122077575D01*
X182248637Y-122077560D01*
X182082715Y-121829239D01*
X182061837Y-121762561D01*
X182080322Y-121695181D01*
X182082715Y-121691457D01*
X182125589Y-121627291D01*
X182248641Y-121443131D01*
X182298626Y-121341771D01*
X182345927Y-121290356D01*
X182413522Y-121272674D01*
X182479947Y-121294343D01*
X182480959Y-121295045D01*
X182567587Y-121355704D01*
X182567593Y-121355707D01*
X182767407Y-121448881D01*
X182767413Y-121448884D01*
X182980366Y-121505945D01*
X182980374Y-121505946D01*
X183199999Y-121525161D01*
X183200003Y-121525161D01*
X183419627Y-121505946D01*
X183419635Y-121505945D01*
X183632588Y-121448884D01*
X183632599Y-121448880D01*
X183832403Y-121355710D01*
X183832411Y-121355706D01*
X183896752Y-121310653D01*
X183337575Y-120751476D01*
X183396854Y-120735593D01*
X183513148Y-120668450D01*
X183608103Y-120573495D01*
X183675246Y-120457201D01*
X183691129Y-120397923D01*
X184250305Y-120957099D01*
X184250306Y-120957099D01*
X184295359Y-120892758D01*
X184295363Y-120892750D01*
X184388533Y-120692946D01*
X184388537Y-120692935D01*
X184445598Y-120479982D01*
X184445599Y-120479974D01*
X184464814Y-120260349D01*
X184464814Y-120260346D01*
X184445599Y-120040721D01*
X184445598Y-120040714D01*
X184388534Y-119827752D01*
X184295361Y-119627943D01*
X184295360Y-119627941D01*
X184250305Y-119563596D01*
X184250305Y-119563595D01*
X183691128Y-120122771D01*
X183675246Y-120063495D01*
X183608103Y-119947201D01*
X183513148Y-119852246D01*
X183396854Y-119785103D01*
X183337575Y-119769219D01*
X183896752Y-119210042D01*
X183832403Y-119164986D01*
X183632594Y-119071814D01*
X183632588Y-119071811D01*
X183419635Y-119014750D01*
X183419627Y-119014749D01*
X183200003Y-118995535D01*
X183199999Y-118995535D01*
X182980374Y-119014749D01*
X182980367Y-119014750D01*
X182767405Y-119071814D01*
X182567594Y-119164988D01*
X182567592Y-119164989D01*
X182480957Y-119225651D01*
X182414751Y-119247978D01*
X182346984Y-119230966D01*
X182299171Y-119180018D01*
X182298623Y-119178919D01*
X182248646Y-119077575D01*
X182248637Y-119077560D01*
X182193830Y-118995535D01*
X182082714Y-118829238D01*
X182061837Y-118762561D01*
X182080322Y-118695181D01*
X182082693Y-118691490D01*
X182248641Y-118443132D01*
X182298626Y-118341772D01*
X182345927Y-118290357D01*
X182413522Y-118272675D01*
X182479947Y-118294344D01*
X182480959Y-118295046D01*
X182567587Y-118355705D01*
X182567593Y-118355708D01*
X182767407Y-118448882D01*
X182767413Y-118448885D01*
X182980366Y-118505946D01*
X182980374Y-118505947D01*
X183199999Y-118525162D01*
X183200003Y-118525162D01*
X183419627Y-118505947D01*
X183419635Y-118505946D01*
X183632588Y-118448885D01*
X183632599Y-118448881D01*
X183832403Y-118355711D01*
X183832411Y-118355707D01*
X183896752Y-118310654D01*
X183337575Y-117751477D01*
X183396854Y-117735594D01*
X183513148Y-117668451D01*
X183608103Y-117573496D01*
X183675246Y-117457202D01*
X183691129Y-117397924D01*
X184250305Y-117957100D01*
X184250306Y-117957100D01*
X184295359Y-117892759D01*
X184295363Y-117892751D01*
X184388533Y-117692947D01*
X184388537Y-117692936D01*
X184445598Y-117479983D01*
X184445599Y-117479975D01*
X184464814Y-117260350D01*
X184464814Y-117260347D01*
X184445599Y-117040722D01*
X184445598Y-117040715D01*
X184388534Y-116827753D01*
X184295361Y-116627944D01*
X184295360Y-116627942D01*
X184250305Y-116563597D01*
X184250305Y-116563596D01*
X183691128Y-117122772D01*
X183675246Y-117063496D01*
X183608103Y-116947202D01*
X183513148Y-116852247D01*
X183396854Y-116785104D01*
X183337575Y-116769220D01*
X183896752Y-116210043D01*
X183832403Y-116164987D01*
X183632594Y-116071815D01*
X183632588Y-116071812D01*
X183419635Y-116014751D01*
X183419627Y-116014750D01*
X183200003Y-115995536D01*
X183199999Y-115995536D01*
X182980374Y-116014750D01*
X182980367Y-116014751D01*
X182767405Y-116071815D01*
X182567594Y-116164989D01*
X182567592Y-116164990D01*
X182480957Y-116225652D01*
X182414751Y-116247979D01*
X182346984Y-116230967D01*
X182299171Y-116180019D01*
X182298623Y-116178920D01*
X182248646Y-116077576D01*
X182248633Y-116077554D01*
X182105496Y-115863333D01*
X182084618Y-115796656D01*
X182084605Y-115793261D01*
X182085320Y-115723903D01*
X182105693Y-115657075D01*
X182106088Y-115656478D01*
X182248641Y-115443133D01*
X182298626Y-115341773D01*
X182345927Y-115290358D01*
X182413522Y-115272676D01*
X182479947Y-115294345D01*
X182480959Y-115295047D01*
X182567587Y-115355706D01*
X182567593Y-115355709D01*
X182767407Y-115448883D01*
X182767413Y-115448886D01*
X182980366Y-115505947D01*
X182980374Y-115505948D01*
X183199999Y-115525163D01*
X183200003Y-115525163D01*
X183419627Y-115505948D01*
X183419635Y-115505947D01*
X183632588Y-115448886D01*
X183632599Y-115448882D01*
X183832403Y-115355712D01*
X183832411Y-115355708D01*
X183896752Y-115310655D01*
X183337575Y-114751478D01*
X183396854Y-114735595D01*
X183513148Y-114668452D01*
X183608103Y-114573497D01*
X183675246Y-114457203D01*
X183691129Y-114397925D01*
X184250305Y-114957101D01*
X184250306Y-114957101D01*
X184295359Y-114892760D01*
X184295363Y-114892752D01*
X184388533Y-114692948D01*
X184388537Y-114692937D01*
X184445598Y-114479984D01*
X184445599Y-114479976D01*
X184464814Y-114260351D01*
X184464814Y-114260348D01*
X184445599Y-114040723D01*
X184445598Y-114040716D01*
X184388534Y-113827754D01*
X184295361Y-113627945D01*
X184295360Y-113627943D01*
X184250305Y-113563598D01*
X184250305Y-113563597D01*
X183691128Y-114122773D01*
X183675246Y-114063497D01*
X183608103Y-113947203D01*
X183513148Y-113852248D01*
X183396854Y-113785105D01*
X183337575Y-113769221D01*
X183896752Y-113210044D01*
X183832403Y-113164988D01*
X183632594Y-113071816D01*
X183632588Y-113071813D01*
X183419635Y-113014752D01*
X183419627Y-113014751D01*
X183200003Y-112995537D01*
X183199999Y-112995537D01*
X182980374Y-113014751D01*
X182980367Y-113014752D01*
X182767405Y-113071816D01*
X182567594Y-113164990D01*
X182567592Y-113164991D01*
X182480957Y-113225653D01*
X182414751Y-113247980D01*
X182346984Y-113230968D01*
X182299171Y-113180020D01*
X182298623Y-113178921D01*
X182248646Y-113077577D01*
X182248643Y-113077573D01*
X182248641Y-113077568D01*
X182135952Y-112908916D01*
X182115075Y-112842242D01*
X182115062Y-112838905D01*
X182116732Y-112676889D01*
X182137105Y-112610063D01*
X182137425Y-112609580D01*
X182248641Y-112443134D01*
X182298626Y-112341774D01*
X182345927Y-112290359D01*
X182413522Y-112272677D01*
X182479947Y-112294346D01*
X182480959Y-112295048D01*
X182567587Y-112355707D01*
X182567593Y-112355710D01*
X182767407Y-112448884D01*
X182767413Y-112448887D01*
X182980366Y-112505948D01*
X182980374Y-112505949D01*
X183199999Y-112525164D01*
X183200003Y-112525164D01*
X183419627Y-112505949D01*
X183419635Y-112505948D01*
X183632588Y-112448887D01*
X183632599Y-112448883D01*
X183832403Y-112355713D01*
X183832411Y-112355709D01*
X183896752Y-112310656D01*
X183337575Y-111751479D01*
X183396854Y-111735596D01*
X183513148Y-111668453D01*
X183608103Y-111573498D01*
X183675246Y-111457204D01*
X183691129Y-111397926D01*
X184250305Y-111957102D01*
X184250306Y-111957102D01*
X184295359Y-111892761D01*
X184295363Y-111892753D01*
X184388533Y-111692949D01*
X184388537Y-111692938D01*
X184445598Y-111479985D01*
X184445599Y-111479977D01*
X184464814Y-111260352D01*
X184464814Y-111260349D01*
X184445599Y-111040724D01*
X184445598Y-111040717D01*
X184388534Y-110827755D01*
X184295361Y-110627946D01*
X184295360Y-110627944D01*
X184250305Y-110563599D01*
X184250305Y-110563598D01*
X183691128Y-111122774D01*
X183675246Y-111063498D01*
X183608103Y-110947204D01*
X183513148Y-110852249D01*
X183396854Y-110785106D01*
X183337575Y-110769222D01*
X183896752Y-110210045D01*
X183832403Y-110164989D01*
X183632594Y-110071817D01*
X183632588Y-110071814D01*
X183419635Y-110014753D01*
X183419627Y-110014752D01*
X183200003Y-109995538D01*
X183199999Y-109995538D01*
X182980374Y-110014752D01*
X182980367Y-110014753D01*
X182767405Y-110071817D01*
X182567594Y-110164991D01*
X182567592Y-110164992D01*
X182480957Y-110225654D01*
X182414751Y-110247981D01*
X182346984Y-110230969D01*
X182299171Y-110180021D01*
X182298623Y-110178922D01*
X182248646Y-110077578D01*
X182248643Y-110077574D01*
X182248641Y-110077569D01*
X182166410Y-109954500D01*
X182145533Y-109887827D01*
X182145520Y-109884477D01*
X182148145Y-109629879D01*
X182168518Y-109563051D01*
X182168835Y-109562573D01*
X182248641Y-109443135D01*
X182298626Y-109341775D01*
X182345927Y-109290360D01*
X182413522Y-109272678D01*
X182479947Y-109294347D01*
X182480959Y-109295049D01*
X182567587Y-109355708D01*
X182567593Y-109355711D01*
X182767407Y-109448885D01*
X182767413Y-109448888D01*
X182980366Y-109505949D01*
X182980374Y-109505950D01*
X183199999Y-109525165D01*
X183200003Y-109525165D01*
X183419627Y-109505950D01*
X183419635Y-109505949D01*
X183632588Y-109448888D01*
X183632599Y-109448884D01*
X183832403Y-109355714D01*
X183832411Y-109355710D01*
X183896752Y-109310657D01*
X183337575Y-108751480D01*
X183396854Y-108735597D01*
X183513148Y-108668454D01*
X183608103Y-108573499D01*
X183675246Y-108457205D01*
X183691129Y-108397927D01*
X184250305Y-108957103D01*
X184250306Y-108957103D01*
X184295359Y-108892762D01*
X184295363Y-108892754D01*
X184388533Y-108692950D01*
X184388537Y-108692939D01*
X184445598Y-108479986D01*
X184445599Y-108479978D01*
X184464814Y-108260353D01*
X184464814Y-108260350D01*
X184445599Y-108040725D01*
X184445598Y-108040718D01*
X184388534Y-107827756D01*
X184295361Y-107627947D01*
X184295360Y-107627945D01*
X184250305Y-107563600D01*
X184250305Y-107563599D01*
X183691128Y-108122775D01*
X183675246Y-108063499D01*
X183608103Y-107947205D01*
X183513148Y-107852250D01*
X183396854Y-107785107D01*
X183337575Y-107769223D01*
X183896752Y-107210046D01*
X183832403Y-107164990D01*
X183632594Y-107071818D01*
X183632588Y-107071815D01*
X183419635Y-107014754D01*
X183419627Y-107014753D01*
X183200003Y-106995539D01*
X183199999Y-106995539D01*
X182980374Y-107014753D01*
X182980367Y-107014754D01*
X182767405Y-107071818D01*
X182567594Y-107164992D01*
X182567592Y-107164993D01*
X182480957Y-107225655D01*
X182414751Y-107247982D01*
X182346984Y-107230970D01*
X182299171Y-107180022D01*
X182298623Y-107178923D01*
X182248646Y-107077579D01*
X182248643Y-107077575D01*
X182248641Y-107077570D01*
X182196868Y-107000086D01*
X182175991Y-106933411D01*
X182175978Y-106930049D01*
X182179557Y-106582869D01*
X182199930Y-106516042D01*
X182200264Y-106515536D01*
X182248641Y-106443136D01*
X182298626Y-106341776D01*
X182345927Y-106290361D01*
X182413522Y-106272679D01*
X182479947Y-106294348D01*
X182480959Y-106295050D01*
X182567587Y-106355709D01*
X182567593Y-106355712D01*
X182767407Y-106448886D01*
X182767413Y-106448889D01*
X182980366Y-106505950D01*
X182980374Y-106505951D01*
X183199999Y-106525166D01*
X183200003Y-106525166D01*
X183419627Y-106505951D01*
X183419635Y-106505950D01*
X183632588Y-106448889D01*
X183632599Y-106448885D01*
X183832403Y-106355715D01*
X183832411Y-106355711D01*
X183896752Y-106310658D01*
X183337575Y-105751481D01*
X183396854Y-105735598D01*
X183513148Y-105668455D01*
X183608103Y-105573500D01*
X183675246Y-105457206D01*
X183691129Y-105397928D01*
X184250305Y-105957104D01*
X184250306Y-105957104D01*
X184295359Y-105892763D01*
X184295363Y-105892755D01*
X184388533Y-105692951D01*
X184388537Y-105692940D01*
X184445598Y-105479987D01*
X184445599Y-105479979D01*
X184464814Y-105260354D01*
X184464814Y-105260351D01*
X184445599Y-105040726D01*
X184445598Y-105040719D01*
X184388534Y-104827757D01*
X184295361Y-104627948D01*
X184295360Y-104627946D01*
X184250305Y-104563601D01*
X184250305Y-104563600D01*
X183691128Y-105122776D01*
X183675246Y-105063500D01*
X183608103Y-104947206D01*
X183513148Y-104852251D01*
X183396854Y-104785108D01*
X183337575Y-104769224D01*
X183896752Y-104210047D01*
X183832403Y-104164991D01*
X183632594Y-104071819D01*
X183632588Y-104071816D01*
X183419635Y-104014755D01*
X183419627Y-104014754D01*
X183200003Y-103995540D01*
X183199999Y-103995540D01*
X182980374Y-104014754D01*
X182980367Y-104014755D01*
X182767405Y-104071819D01*
X182567594Y-104164993D01*
X182567592Y-104164994D01*
X182480957Y-104225656D01*
X182414751Y-104247983D01*
X182346984Y-104230971D01*
X182299171Y-104180023D01*
X182298623Y-104178924D01*
X182248645Y-104077578D01*
X182248642Y-104077574D01*
X182248641Y-104077571D01*
X182227325Y-104045670D01*
X182206449Y-103978997D01*
X182206436Y-103975621D01*
X182209921Y-103637522D01*
X182230295Y-103570694D01*
X182283568Y-103525486D01*
X182347170Y-103515516D01*
X182392156Y-103520353D01*
X182392173Y-103520354D01*
X182950001Y-103520354D01*
X182950001Y-102704914D01*
X183003148Y-102735599D01*
X183132858Y-102770354D01*
X183267144Y-102770354D01*
X183396854Y-102735599D01*
X183450001Y-102704914D01*
X183450001Y-103520354D01*
X184007829Y-103520354D01*
X184007845Y-103520353D01*
X184067373Y-103513952D01*
X184067380Y-103513950D01*
X184202087Y-103463708D01*
X184202094Y-103463704D01*
X184317188Y-103377544D01*
X184317191Y-103377541D01*
X184403351Y-103262447D01*
X184403355Y-103262440D01*
X184453597Y-103127733D01*
X184453599Y-103127726D01*
X184460000Y-103068198D01*
X184460001Y-103068181D01*
X184460001Y-102510354D01*
X183644561Y-102510354D01*
X183675246Y-102457207D01*
X183710001Y-102327497D01*
X183710001Y-102193211D01*
X183675246Y-102063501D01*
X183644561Y-102010354D01*
X184460001Y-102010354D01*
X184460001Y-101452526D01*
X184460000Y-101452509D01*
X184453599Y-101392981D01*
X184453597Y-101392974D01*
X184403355Y-101258267D01*
X184403351Y-101258260D01*
X184317191Y-101143166D01*
X184317188Y-101143163D01*
X184202094Y-101057003D01*
X184202087Y-101056999D01*
X184067380Y-101006757D01*
X184067373Y-101006755D01*
X184007845Y-101000354D01*
X183450001Y-101000354D01*
X183450001Y-101815793D01*
X183396854Y-101785109D01*
X183267144Y-101750354D01*
X183132858Y-101750354D01*
X183003148Y-101785109D01*
X182950001Y-101815793D01*
X182950001Y-101000354D01*
X182392165Y-101000354D01*
X182375619Y-101002133D01*
X182306860Y-100989726D01*
X182255724Y-100942114D01*
X182238375Y-100877568D01*
X182244814Y-100252915D01*
X182246026Y-100236857D01*
X182260770Y-100132502D01*
X182269358Y-100101516D01*
X182307269Y-100011957D01*
X182323533Y-99984228D01*
X182383202Y-99907427D01*
X182406049Y-99884815D01*
X182483455Y-99825945D01*
X182511356Y-99809965D01*
X182601297Y-99772980D01*
X182632367Y-99764712D01*
X182721757Y-99753022D01*
X182736867Y-99751047D01*
X182752945Y-99750000D01*
X188152243Y-99750000D01*
X188170623Y-99751369D01*
G37*
%TD.AperFunction*%
%TD*%
%TA.AperFunction,Conductor*%
%TO.N,/BoostP*%
G36*
X181515677Y-77519685D02*
G01*
X181536319Y-77536319D01*
X181713681Y-77713681D01*
X181747166Y-77775004D01*
X181750000Y-77801362D01*
X181750000Y-84408881D01*
X181730315Y-84475920D01*
X181677511Y-84521675D01*
X181608353Y-84531619D01*
X181580643Y-84524288D01*
X181509686Y-84496400D01*
X181474343Y-84485484D01*
X181396275Y-84467642D01*
X181240150Y-84431961D01*
X181240146Y-84431960D01*
X181240140Y-84431959D01*
X181137623Y-84416485D01*
X181137623Y-84416486D01*
X181120232Y-84413861D01*
X181000857Y-84400394D01*
X181000856Y-84400393D01*
X181000848Y-84400393D01*
X180995391Y-84399983D01*
X180982340Y-84399003D01*
X180862171Y-84394500D01*
X178148622Y-84394500D01*
X178141574Y-84394733D01*
X178042295Y-84398024D01*
X178025906Y-84399112D01*
X177919997Y-84409677D01*
X177842530Y-84420008D01*
X177813514Y-84423878D01*
X177813511Y-84423878D01*
X177813508Y-84423879D01*
X177605015Y-84465896D01*
X177573377Y-84474487D01*
X177372242Y-84543706D01*
X177372235Y-84543709D01*
X177280845Y-84582105D01*
X177280837Y-84582109D01*
X177090642Y-84677298D01*
X177062387Y-84693864D01*
X176886377Y-84813409D01*
X176808249Y-84874412D01*
X176649675Y-85016094D01*
X176649667Y-85016102D01*
X176626754Y-85039480D01*
X176626730Y-85039507D01*
X176488235Y-85200953D01*
X176428829Y-85280288D01*
X176428811Y-85280314D01*
X176312881Y-85458645D01*
X176312868Y-85458666D01*
X176296878Y-85487243D01*
X176296862Y-85487273D01*
X176205531Y-85679353D01*
X176186944Y-85726224D01*
X176186943Y-85726225D01*
X176165935Y-85779196D01*
X176130027Y-85879292D01*
X176124990Y-85894942D01*
X176095763Y-85997301D01*
X175971170Y-86495674D01*
X175945455Y-86598534D01*
X175943320Y-86607178D01*
X175942913Y-86608847D01*
X175940730Y-86617916D01*
X175938417Y-86627656D01*
X175934122Y-86646228D01*
X175933472Y-86649115D01*
X175929353Y-86667958D01*
X175927248Y-86677875D01*
X175925369Y-86686855D01*
X175925370Y-86686856D01*
X175925336Y-86687019D01*
X175925107Y-86688130D01*
X175923229Y-86697379D01*
X175866204Y-86982507D01*
X175725678Y-87685135D01*
X175475725Y-88934899D01*
X175475725Y-88934901D01*
X175446794Y-89079549D01*
X175442839Y-89094441D01*
X175210390Y-89791789D01*
X173647137Y-94481552D01*
X173639124Y-94505590D01*
X173599250Y-94562965D01*
X173534686Y-94589673D01*
X173465932Y-94577237D01*
X173463034Y-94575736D01*
X173397385Y-94540646D01*
X173397382Y-94540645D01*
X173202578Y-94481552D01*
X173202582Y-94481552D01*
X173000000Y-94461600D01*
X172797419Y-94481552D01*
X172602622Y-94540643D01*
X172466796Y-94613243D01*
X173087831Y-95234278D01*
X173036784Y-95220600D01*
X172963216Y-95220600D01*
X172892156Y-95239641D01*
X172828444Y-95276424D01*
X172776424Y-95328444D01*
X172739641Y-95392156D01*
X172720600Y-95463216D01*
X172720600Y-95536784D01*
X172734278Y-95587831D01*
X172113243Y-94966796D01*
X172040643Y-95102622D01*
X171981552Y-95297419D01*
X171961600Y-95500000D01*
X171981552Y-95702580D01*
X172040645Y-95897382D01*
X172040646Y-95897385D01*
X172131600Y-96067547D01*
X172145842Y-96135949D01*
X172120842Y-96201193D01*
X172064537Y-96242564D01*
X172022242Y-96250000D01*
X164000000Y-96250000D01*
X160301362Y-96250000D01*
X160234323Y-96230315D01*
X160213681Y-96213681D01*
X160036319Y-96036319D01*
X160002834Y-95974996D01*
X160000000Y-95948638D01*
X160000000Y-93999998D01*
X160894843Y-93999998D01*
X160894843Y-94000001D01*
X160915430Y-94235315D01*
X160915432Y-94235326D01*
X160976566Y-94463483D01*
X160976570Y-94463492D01*
X161076400Y-94677579D01*
X161076402Y-94677583D01*
X161135072Y-94761373D01*
X161135073Y-94761373D01*
X161767037Y-94129409D01*
X161784075Y-94192993D01*
X161849901Y-94307007D01*
X161942993Y-94400099D01*
X162057007Y-94465925D01*
X162120590Y-94482962D01*
X161488625Y-95114925D01*
X161572421Y-95173599D01*
X161786507Y-95273429D01*
X161786516Y-95273433D01*
X162014673Y-95334567D01*
X162014684Y-95334569D01*
X162249998Y-95355157D01*
X162250002Y-95355157D01*
X162485315Y-95334569D01*
X162485326Y-95334567D01*
X162713483Y-95273433D01*
X162713492Y-95273429D01*
X162927578Y-95173600D01*
X162927582Y-95173598D01*
X163011373Y-95114926D01*
X163011373Y-95114925D01*
X162379409Y-94482962D01*
X162442993Y-94465925D01*
X162557007Y-94400099D01*
X162650099Y-94307007D01*
X162715925Y-94192993D01*
X162732962Y-94129409D01*
X163364925Y-94761373D01*
X163364926Y-94761373D01*
X163423598Y-94677582D01*
X163423600Y-94677578D01*
X163523429Y-94463492D01*
X163523433Y-94463483D01*
X163584567Y-94235326D01*
X163584569Y-94235315D01*
X163605157Y-94000001D01*
X163605157Y-93999998D01*
X163584569Y-93764684D01*
X163584567Y-93764673D01*
X163523433Y-93536516D01*
X163523429Y-93536507D01*
X163423600Y-93322423D01*
X163423599Y-93322421D01*
X163364925Y-93238626D01*
X163364925Y-93238625D01*
X162732962Y-93870589D01*
X162715925Y-93807007D01*
X162650099Y-93692993D01*
X162557007Y-93599901D01*
X162442993Y-93534075D01*
X162379410Y-93517037D01*
X163011373Y-92885073D01*
X163011373Y-92885072D01*
X162927583Y-92826402D01*
X162927579Y-92826400D01*
X162713492Y-92726570D01*
X162713483Y-92726566D01*
X162485326Y-92665432D01*
X162485315Y-92665430D01*
X162250002Y-92644843D01*
X162249998Y-92644843D01*
X162014684Y-92665430D01*
X162014673Y-92665432D01*
X161786516Y-92726566D01*
X161786507Y-92726570D01*
X161572419Y-92826401D01*
X161488625Y-92885072D01*
X162120590Y-93517037D01*
X162057007Y-93534075D01*
X161942993Y-93599901D01*
X161849901Y-93692993D01*
X161784075Y-93807007D01*
X161767037Y-93870590D01*
X161135072Y-93238625D01*
X161076401Y-93322419D01*
X160976570Y-93536507D01*
X160976566Y-93536516D01*
X160915432Y-93764673D01*
X160915430Y-93764684D01*
X160894843Y-93999998D01*
X160000000Y-93999998D01*
X160000000Y-92526953D01*
X160011189Y-92475478D01*
X160177642Y-92110683D01*
X160209188Y-92068499D01*
X168500000Y-84875000D01*
X174634803Y-79552155D01*
X177600000Y-79552155D01*
X177600000Y-80250000D01*
X178566988Y-80250000D01*
X178534075Y-80307007D01*
X178500000Y-80434174D01*
X178500000Y-80565826D01*
X178534075Y-80692993D01*
X178566988Y-80750000D01*
X177600000Y-80750000D01*
X177600000Y-81447844D01*
X177606401Y-81507372D01*
X177606403Y-81507379D01*
X177656645Y-81642086D01*
X177656649Y-81642093D01*
X177742809Y-81757187D01*
X177742812Y-81757190D01*
X177857906Y-81843350D01*
X177857913Y-81843354D01*
X177992620Y-81893596D01*
X177992627Y-81893598D01*
X178052155Y-81899999D01*
X178052172Y-81900000D01*
X178750000Y-81900000D01*
X178750000Y-80933012D01*
X178807007Y-80965925D01*
X178934174Y-81000000D01*
X179065826Y-81000000D01*
X179192993Y-80965925D01*
X179250000Y-80933012D01*
X179250000Y-81900000D01*
X179947828Y-81900000D01*
X179947844Y-81899999D01*
X180007372Y-81893598D01*
X180007379Y-81893596D01*
X180142086Y-81843354D01*
X180142093Y-81843350D01*
X180257187Y-81757190D01*
X180257190Y-81757187D01*
X180343350Y-81642093D01*
X180343354Y-81642086D01*
X180393596Y-81507379D01*
X180393598Y-81507372D01*
X180399999Y-81447844D01*
X180400000Y-81447827D01*
X180400000Y-80750000D01*
X179433012Y-80750000D01*
X179465925Y-80692993D01*
X179500000Y-80565826D01*
X179500000Y-80434174D01*
X179465925Y-80307007D01*
X179433012Y-80250000D01*
X180400000Y-80250000D01*
X180400000Y-79552172D01*
X180399999Y-79552155D01*
X180393598Y-79492627D01*
X180393596Y-79492620D01*
X180343354Y-79357913D01*
X180343350Y-79357906D01*
X180257190Y-79242812D01*
X180257187Y-79242809D01*
X180142093Y-79156649D01*
X180142086Y-79156645D01*
X180007379Y-79106403D01*
X180007372Y-79106401D01*
X179947844Y-79100000D01*
X179250000Y-79100000D01*
X179250000Y-80066988D01*
X179192993Y-80034075D01*
X179065826Y-80000000D01*
X178934174Y-80000000D01*
X178807007Y-80034075D01*
X178750000Y-80066988D01*
X178750000Y-79100000D01*
X178052155Y-79100000D01*
X177992627Y-79106401D01*
X177992620Y-79106403D01*
X177857913Y-79156645D01*
X177857906Y-79156649D01*
X177742812Y-79242809D01*
X177742809Y-79242812D01*
X177656649Y-79357906D01*
X177656645Y-79357913D01*
X177606403Y-79492620D01*
X177606401Y-79492627D01*
X177600000Y-79552155D01*
X174634803Y-79552155D01*
X176794258Y-77678510D01*
X176832145Y-77656005D01*
X177229022Y-77507831D01*
X177272393Y-77500000D01*
X181448638Y-77500000D01*
X181515677Y-77519685D01*
G37*
%TD.AperFunction*%
%TA.AperFunction,Conductor*%
G36*
X173087681Y-95765872D02*
G01*
X173026358Y-95799357D01*
X172956666Y-95794373D01*
X172912319Y-95765872D01*
X172912168Y-95765721D01*
X172963216Y-95779400D01*
X173036784Y-95779400D01*
X173087831Y-95765721D01*
X173087681Y-95765872D01*
G37*
%TD.AperFunction*%
%TA.AperFunction,Conductor*%
G36*
X173265872Y-95412319D02*
G01*
X173299357Y-95473642D01*
X173294373Y-95543334D01*
X173265872Y-95587681D01*
X173265721Y-95587831D01*
X173279400Y-95536784D01*
X173279400Y-95463216D01*
X173265721Y-95412168D01*
X173265872Y-95412319D01*
G37*
%TD.AperFunction*%
%TD*%
%TA.AperFunction,Conductor*%
%TO.N,/BoostN*%
G36*
X180880676Y-86001389D02*
G01*
X180898058Y-86004012D01*
X181000540Y-86019480D01*
X181035892Y-86030399D01*
X181136611Y-86078977D01*
X181167171Y-86099849D01*
X181249055Y-86175979D01*
X181272097Y-86204943D01*
X181327867Y-86301852D01*
X181341333Y-86336327D01*
X181366017Y-86445378D01*
X181368710Y-86482292D01*
X181359385Y-86603151D01*
X181356577Y-86621495D01*
X180756878Y-89220192D01*
X180756025Y-89223658D01*
X180750106Y-89246310D01*
X180748103Y-89253161D01*
X180740883Y-89275458D01*
X180739735Y-89278838D01*
X178947287Y-94314763D01*
X175500000Y-104000000D01*
X175500000Y-104086323D01*
X175500000Y-114491874D01*
X175498939Y-114508060D01*
X175485093Y-114613224D01*
X175476715Y-114644491D01*
X175439259Y-114734918D01*
X175423074Y-114762951D01*
X175363491Y-114840601D01*
X175340601Y-114863491D01*
X175262951Y-114923074D01*
X175234918Y-114939259D01*
X175144491Y-114976715D01*
X175113224Y-114985093D01*
X175019398Y-114997446D01*
X175008058Y-114998939D01*
X174991874Y-115000000D01*
X169758126Y-115000000D01*
X169741941Y-114998939D01*
X169728917Y-114997224D01*
X169636775Y-114985093D01*
X169605508Y-114976715D01*
X169515081Y-114939259D01*
X169487048Y-114923074D01*
X169409398Y-114863491D01*
X169386508Y-114840601D01*
X169326925Y-114762951D01*
X169310740Y-114734918D01*
X169273284Y-114644491D01*
X169264906Y-114613223D01*
X169251061Y-114508059D01*
X169250000Y-114491874D01*
X169250000Y-112499998D01*
X172034173Y-112499998D01*
X172034173Y-112500001D01*
X172052643Y-112711120D01*
X172052645Y-112711131D01*
X172107493Y-112915829D01*
X172107497Y-112915838D01*
X172197062Y-113107912D01*
X172197063Y-113107914D01*
X172234733Y-113161712D01*
X172234734Y-113161713D01*
X172801983Y-112594463D01*
X172823958Y-112676473D01*
X172884149Y-112780727D01*
X172969273Y-112865851D01*
X173073527Y-112926042D01*
X173155535Y-112948016D01*
X172588285Y-113515265D01*
X172642087Y-113552937D01*
X172834161Y-113642502D01*
X172834170Y-113642506D01*
X173038868Y-113697354D01*
X173038879Y-113697356D01*
X173249998Y-113715827D01*
X173250002Y-113715827D01*
X173461120Y-113697356D01*
X173461131Y-113697354D01*
X173665829Y-113642506D01*
X173665838Y-113642502D01*
X173857913Y-113552937D01*
X173857917Y-113552935D01*
X173911713Y-113515266D01*
X173344464Y-112948016D01*
X173426473Y-112926042D01*
X173530727Y-112865851D01*
X173615851Y-112780727D01*
X173676042Y-112676473D01*
X173698016Y-112594463D01*
X174265266Y-113161713D01*
X174302935Y-113107917D01*
X174302937Y-113107913D01*
X174392502Y-112915838D01*
X174392506Y-112915829D01*
X174447354Y-112711131D01*
X174447356Y-112711120D01*
X174465827Y-112500001D01*
X174465827Y-112499998D01*
X174447356Y-112288879D01*
X174447354Y-112288868D01*
X174392506Y-112084170D01*
X174392502Y-112084161D01*
X174302934Y-111892083D01*
X174265266Y-111838286D01*
X174265265Y-111838285D01*
X173698016Y-112405535D01*
X173676042Y-112323527D01*
X173615851Y-112219273D01*
X173530727Y-112134149D01*
X173426473Y-112073958D01*
X173344464Y-112051983D01*
X173911713Y-111484734D01*
X173911712Y-111484733D01*
X173857914Y-111447063D01*
X173857912Y-111447062D01*
X173665838Y-111357497D01*
X173665829Y-111357493D01*
X173461131Y-111302645D01*
X173461120Y-111302643D01*
X173250002Y-111284173D01*
X173249998Y-111284173D01*
X173038879Y-111302643D01*
X173038868Y-111302645D01*
X172834170Y-111357493D01*
X172834161Y-111357497D01*
X172642088Y-111447062D01*
X172588286Y-111484733D01*
X173155536Y-112051983D01*
X173073527Y-112073958D01*
X172969273Y-112134149D01*
X172884149Y-112219273D01*
X172823958Y-112323527D01*
X172801983Y-112405536D01*
X172234733Y-111838286D01*
X172197062Y-111892088D01*
X172107497Y-112084161D01*
X172107493Y-112084170D01*
X172052645Y-112288868D01*
X172052643Y-112288879D01*
X172034173Y-112499998D01*
X169250000Y-112499998D01*
X169250000Y-105875790D01*
X169250000Y-105500000D01*
X168889031Y-105395509D01*
X168889029Y-105395508D01*
X168889026Y-105395507D01*
X161982195Y-103396161D01*
X160118654Y-102856715D01*
X160103635Y-102851297D01*
X160007849Y-102809589D01*
X159980499Y-102793210D01*
X159904849Y-102733463D01*
X159882578Y-102710651D01*
X159824660Y-102633588D01*
X159808942Y-102605856D01*
X159772582Y-102516567D01*
X159764458Y-102485751D01*
X159751029Y-102382145D01*
X159750000Y-102366207D01*
X159750000Y-101599998D01*
X160894843Y-101599998D01*
X160894843Y-101600001D01*
X160915430Y-101835315D01*
X160915432Y-101835326D01*
X160976566Y-102063483D01*
X160976570Y-102063492D01*
X161076400Y-102277579D01*
X161076402Y-102277583D01*
X161135072Y-102361373D01*
X161135073Y-102361373D01*
X161767037Y-101729409D01*
X161784075Y-101792993D01*
X161849901Y-101907007D01*
X161942993Y-102000099D01*
X162057007Y-102065925D01*
X162120590Y-102082962D01*
X161488625Y-102714925D01*
X161572421Y-102773599D01*
X161786507Y-102873429D01*
X161786516Y-102873433D01*
X162014673Y-102934567D01*
X162014684Y-102934569D01*
X162249998Y-102955157D01*
X162250002Y-102955157D01*
X162485315Y-102934569D01*
X162485326Y-102934567D01*
X162713483Y-102873433D01*
X162713492Y-102873429D01*
X162927578Y-102773600D01*
X162927582Y-102773598D01*
X163011373Y-102714926D01*
X163011373Y-102714925D01*
X162379409Y-102082962D01*
X162442993Y-102065925D01*
X162557007Y-102000099D01*
X162650099Y-101907007D01*
X162715925Y-101792993D01*
X162732962Y-101729409D01*
X163364925Y-102361373D01*
X163364926Y-102361373D01*
X163423598Y-102277582D01*
X163423600Y-102277578D01*
X163523429Y-102063492D01*
X163523433Y-102063483D01*
X163584567Y-101835326D01*
X163584569Y-101835315D01*
X163605157Y-101600001D01*
X163605157Y-101599998D01*
X163586500Y-101386755D01*
X172466796Y-101386755D01*
X172602619Y-101459355D01*
X172797421Y-101518447D01*
X172797417Y-101518447D01*
X173000000Y-101538399D01*
X173202580Y-101518447D01*
X173397380Y-101459355D01*
X173533203Y-101386756D01*
X173000001Y-100853553D01*
X173000000Y-100853553D01*
X172466796Y-101386755D01*
X163586500Y-101386755D01*
X163584569Y-101364684D01*
X163584567Y-101364673D01*
X163523433Y-101136516D01*
X163523429Y-101136507D01*
X163423600Y-100922423D01*
X163423599Y-100922421D01*
X163364925Y-100838626D01*
X163364925Y-100838625D01*
X162732962Y-101470589D01*
X162715925Y-101407007D01*
X162650099Y-101292993D01*
X162557007Y-101199901D01*
X162442993Y-101134075D01*
X162379410Y-101117037D01*
X162996446Y-100500000D01*
X171961600Y-100500000D01*
X171981552Y-100702580D01*
X172040644Y-100897381D01*
X172113243Y-101033202D01*
X172646447Y-100500000D01*
X172609663Y-100463216D01*
X172720600Y-100463216D01*
X172720600Y-100536784D01*
X172739641Y-100607844D01*
X172776424Y-100671556D01*
X172828444Y-100723576D01*
X172892156Y-100760359D01*
X172963216Y-100779400D01*
X173036784Y-100779400D01*
X173107844Y-100760359D01*
X173171556Y-100723576D01*
X173223576Y-100671556D01*
X173260359Y-100607844D01*
X173279400Y-100536784D01*
X173279400Y-100499999D01*
X173353553Y-100499999D01*
X173353553Y-100500000D01*
X173886756Y-101033203D01*
X173959355Y-100897380D01*
X174018447Y-100702580D01*
X174038399Y-100500000D01*
X174018447Y-100297419D01*
X173959355Y-100102619D01*
X173886755Y-99966796D01*
X173353553Y-100499999D01*
X173279400Y-100499999D01*
X173279400Y-100463216D01*
X173260359Y-100392156D01*
X173223576Y-100328444D01*
X173171556Y-100276424D01*
X173107844Y-100239641D01*
X173036784Y-100220600D01*
X172963216Y-100220600D01*
X172892156Y-100239641D01*
X172828444Y-100276424D01*
X172776424Y-100328444D01*
X172739641Y-100392156D01*
X172720600Y-100463216D01*
X172609663Y-100463216D01*
X172113243Y-99966796D01*
X172040643Y-100102622D01*
X171981552Y-100297419D01*
X171961600Y-100500000D01*
X162996446Y-100500000D01*
X163011373Y-100485073D01*
X163011373Y-100485072D01*
X162927583Y-100426402D01*
X162927579Y-100426400D01*
X162713492Y-100326570D01*
X162713483Y-100326566D01*
X162485326Y-100265432D01*
X162485315Y-100265430D01*
X162250002Y-100244843D01*
X162249998Y-100244843D01*
X162014684Y-100265430D01*
X162014673Y-100265432D01*
X161786516Y-100326566D01*
X161786507Y-100326570D01*
X161572419Y-100426401D01*
X161488625Y-100485072D01*
X162120590Y-101117037D01*
X162057007Y-101134075D01*
X161942993Y-101199901D01*
X161849901Y-101292993D01*
X161784075Y-101407007D01*
X161767037Y-101470590D01*
X161135072Y-100838625D01*
X161076401Y-100922419D01*
X160976570Y-101136507D01*
X160976566Y-101136516D01*
X160915432Y-101364673D01*
X160915430Y-101364684D01*
X160894843Y-101599998D01*
X159750000Y-101599998D01*
X159750000Y-99758125D01*
X159751061Y-99741940D01*
X159764906Y-99636776D01*
X159771211Y-99613243D01*
X172466796Y-99613243D01*
X173000000Y-100146447D01*
X173000001Y-100146447D01*
X173533202Y-99613243D01*
X173397381Y-99540644D01*
X173202578Y-99481552D01*
X173202582Y-99481552D01*
X173000000Y-99461600D01*
X172797419Y-99481552D01*
X172602622Y-99540643D01*
X172466796Y-99613243D01*
X159771211Y-99613243D01*
X159773284Y-99605508D01*
X159810740Y-99515079D01*
X159826923Y-99487050D01*
X159886513Y-99409392D01*
X159909392Y-99386513D01*
X159987050Y-99326923D01*
X160015079Y-99310740D01*
X160105509Y-99273283D01*
X160136775Y-99264906D01*
X160241941Y-99251061D01*
X160258126Y-99250000D01*
X170179973Y-99250000D01*
X170250000Y-99250000D01*
X170317333Y-99230762D01*
X173588277Y-98296207D01*
X173588279Y-98296205D01*
X173750000Y-98250000D01*
X173850914Y-98115447D01*
X173850917Y-98115445D01*
X174444603Y-97323863D01*
X174444604Y-97323861D01*
X174500000Y-97250000D01*
X174586371Y-96947698D01*
X174614972Y-96897136D01*
X174659158Y-96849825D01*
X174827506Y-96611331D01*
X174961810Y-96352135D01*
X175059570Y-96077065D01*
X175059570Y-96077060D01*
X175059573Y-96077054D01*
X175098053Y-95891876D01*
X175118964Y-95791245D01*
X175138886Y-95500000D01*
X175118964Y-95208755D01*
X175117362Y-95201046D01*
X175121130Y-95136608D01*
X176990156Y-89529531D01*
X177000000Y-89500000D01*
X177050047Y-89249767D01*
X177300000Y-87999998D01*
X177644843Y-87999998D01*
X177644843Y-88000001D01*
X177665430Y-88235315D01*
X177665432Y-88235326D01*
X177726566Y-88463483D01*
X177726570Y-88463492D01*
X177826400Y-88677579D01*
X177826402Y-88677583D01*
X177885072Y-88761373D01*
X177885073Y-88761373D01*
X178517037Y-88129409D01*
X178534075Y-88192993D01*
X178599901Y-88307007D01*
X178692993Y-88400099D01*
X178807007Y-88465925D01*
X178870590Y-88482962D01*
X178238625Y-89114925D01*
X178322421Y-89173599D01*
X178536507Y-89273429D01*
X178536516Y-89273433D01*
X178764673Y-89334567D01*
X178764684Y-89334569D01*
X178999998Y-89355157D01*
X179000002Y-89355157D01*
X179235315Y-89334569D01*
X179235326Y-89334567D01*
X179463483Y-89273433D01*
X179463492Y-89273429D01*
X179677578Y-89173600D01*
X179677582Y-89173598D01*
X179761373Y-89114926D01*
X179761373Y-89114925D01*
X179129409Y-88482962D01*
X179192993Y-88465925D01*
X179307007Y-88400099D01*
X179400099Y-88307007D01*
X179465925Y-88192993D01*
X179482962Y-88129410D01*
X180114925Y-88761373D01*
X180114926Y-88761373D01*
X180173598Y-88677582D01*
X180173600Y-88677578D01*
X180273429Y-88463492D01*
X180273433Y-88463483D01*
X180334567Y-88235326D01*
X180334569Y-88235315D01*
X180355157Y-88000001D01*
X180355157Y-87999998D01*
X180334569Y-87764684D01*
X180334567Y-87764673D01*
X180273433Y-87536516D01*
X180273429Y-87536507D01*
X180173600Y-87322423D01*
X180173599Y-87322421D01*
X180114925Y-87238626D01*
X180114925Y-87238625D01*
X179482962Y-87870589D01*
X179465925Y-87807007D01*
X179400099Y-87692993D01*
X179307007Y-87599901D01*
X179192993Y-87534075D01*
X179129410Y-87517037D01*
X179761373Y-86885073D01*
X179761373Y-86885072D01*
X179677583Y-86826402D01*
X179677579Y-86826400D01*
X179463492Y-86726570D01*
X179463483Y-86726566D01*
X179235326Y-86665432D01*
X179235315Y-86665430D01*
X179000002Y-86644843D01*
X178999998Y-86644843D01*
X178764684Y-86665430D01*
X178764673Y-86665432D01*
X178536516Y-86726566D01*
X178536507Y-86726570D01*
X178322419Y-86826401D01*
X178238625Y-86885072D01*
X178870590Y-87517037D01*
X178807007Y-87534075D01*
X178692993Y-87599901D01*
X178599901Y-87692993D01*
X178534075Y-87807007D01*
X178517037Y-87870589D01*
X177885073Y-87238625D01*
X177885072Y-87238625D01*
X177826401Y-87322419D01*
X177726570Y-87536507D01*
X177726566Y-87536516D01*
X177665432Y-87764673D01*
X177665430Y-87764684D01*
X177644843Y-87999998D01*
X177300000Y-87999998D01*
X177497551Y-87012243D01*
X177497780Y-87011132D01*
X177499842Y-87001420D01*
X177500467Y-86998642D01*
X177502740Y-86989071D01*
X177503059Y-86987763D01*
X177528732Y-86885073D01*
X177653322Y-86386711D01*
X177658353Y-86371076D01*
X177679373Y-86318074D01*
X177697955Y-86271217D01*
X177713959Y-86242615D01*
X177773374Y-86163268D01*
X177796318Y-86139857D01*
X177874450Y-86078851D01*
X177902717Y-86062277D01*
X177994113Y-86023878D01*
X178025743Y-86015289D01*
X178132230Y-86001088D01*
X178148622Y-86000000D01*
X180862171Y-86000000D01*
X180880676Y-86001389D01*
G37*
%TD.AperFunction*%
%TD*%
%TA.AperFunction,Conductor*%
%TO.N,/ACN_FuseToChock*%
G36*
X85443039Y-92269685D02*
G01*
X85488794Y-92322489D01*
X85500000Y-92374000D01*
X85500000Y-94728313D01*
X85480315Y-94795352D01*
X85427511Y-94841107D01*
X85362750Y-94851603D01*
X85347840Y-94850000D01*
X84650000Y-94850000D01*
X84650000Y-95759252D01*
X84612292Y-95737482D01*
X84472409Y-95700000D01*
X84327591Y-95700000D01*
X84187708Y-95737482D01*
X84150000Y-95759252D01*
X84150000Y-94850000D01*
X83452155Y-94850000D01*
X83392627Y-94856401D01*
X83392620Y-94856403D01*
X83257913Y-94906645D01*
X83257906Y-94906649D01*
X83142812Y-94992809D01*
X83142809Y-94992812D01*
X83056649Y-95107906D01*
X83056645Y-95107913D01*
X83006403Y-95242620D01*
X83006401Y-95242627D01*
X83000000Y-95302155D01*
X83000000Y-96000000D01*
X83909252Y-96000000D01*
X83887482Y-96037708D01*
X83850000Y-96177591D01*
X83850000Y-96322409D01*
X83887482Y-96462292D01*
X83909252Y-96500000D01*
X83000000Y-96500000D01*
X83000000Y-97197844D01*
X83006401Y-97257372D01*
X83006403Y-97257379D01*
X83056645Y-97392086D01*
X83056649Y-97392093D01*
X83142809Y-97507187D01*
X83142812Y-97507190D01*
X83257906Y-97593350D01*
X83257913Y-97593354D01*
X83392620Y-97643596D01*
X83392627Y-97643598D01*
X83452155Y-97649999D01*
X83452172Y-97650000D01*
X84150000Y-97650000D01*
X84150000Y-96740747D01*
X84187708Y-96762518D01*
X84327591Y-96800000D01*
X84472409Y-96800000D01*
X84612292Y-96762518D01*
X84650000Y-96740747D01*
X84650000Y-97650000D01*
X85347828Y-97650000D01*
X85347841Y-97649999D01*
X85362743Y-97648397D01*
X85431503Y-97660801D01*
X85482641Y-97708411D01*
X85500000Y-97771686D01*
X85500000Y-99360637D01*
X85480315Y-99427676D01*
X85463681Y-99448318D01*
X85061362Y-99850636D01*
X85022973Y-99876737D01*
X84954320Y-99906478D01*
X84954290Y-99906492D01*
X84921385Y-99923795D01*
X84921382Y-99923796D01*
X84921376Y-99923800D01*
X84888902Y-99944132D01*
X84856884Y-99964180D01*
X84758715Y-100036475D01*
X84728929Y-100060191D01*
X84714791Y-100072347D01*
X84686893Y-100098220D01*
X81038768Y-103746346D01*
X79487314Y-105297799D01*
X79425991Y-105331284D01*
X79356299Y-105326300D01*
X79300366Y-105284428D01*
X79275949Y-105218964D01*
X79276105Y-105199310D01*
X79292318Y-105014000D01*
X79292318Y-105013998D01*
X79272685Y-104789596D01*
X79272683Y-104789585D01*
X79214384Y-104572008D01*
X79214381Y-104571999D01*
X79119180Y-104367842D01*
X79119179Y-104367840D01*
X79069978Y-104297574D01*
X79069978Y-104297573D01*
X78510233Y-104857318D01*
X78497050Y-104808115D01*
X78426826Y-104686485D01*
X78327515Y-104587174D01*
X78205885Y-104516950D01*
X78156680Y-104503765D01*
X78716425Y-103944021D01*
X78716424Y-103944020D01*
X78646159Y-103894820D01*
X78646157Y-103894819D01*
X78442000Y-103799618D01*
X78441991Y-103799615D01*
X78224414Y-103741316D01*
X78224403Y-103741314D01*
X78000002Y-103721682D01*
X77999998Y-103721682D01*
X77775596Y-103741314D01*
X77775585Y-103741316D01*
X77558008Y-103799615D01*
X77557999Y-103799618D01*
X77353838Y-103894821D01*
X77283573Y-103944019D01*
X77843319Y-104503765D01*
X77794115Y-104516950D01*
X77672485Y-104587174D01*
X77573174Y-104686485D01*
X77502950Y-104808115D01*
X77489765Y-104857319D01*
X76930019Y-104297573D01*
X76880821Y-104367838D01*
X76785618Y-104571999D01*
X76785615Y-104572008D01*
X76727316Y-104789585D01*
X76727314Y-104789596D01*
X76707682Y-105013998D01*
X76707682Y-105014001D01*
X76727314Y-105238403D01*
X76727316Y-105238414D01*
X76785615Y-105455991D01*
X76785618Y-105456000D01*
X76880819Y-105660157D01*
X76880820Y-105660159D01*
X76930020Y-105730424D01*
X76930021Y-105730425D01*
X77489765Y-105170680D01*
X77502950Y-105219885D01*
X77573174Y-105341515D01*
X77672485Y-105440826D01*
X77794115Y-105511050D01*
X77843318Y-105524233D01*
X77283573Y-106083978D01*
X77353840Y-106133179D01*
X77353842Y-106133180D01*
X77557999Y-106228381D01*
X77558008Y-106228384D01*
X77775585Y-106286683D01*
X77775596Y-106286685D01*
X77999998Y-106306318D01*
X78000001Y-106306318D01*
X78185309Y-106290105D01*
X78253809Y-106303871D01*
X78303992Y-106352487D01*
X78319926Y-106420515D01*
X78296551Y-106486359D01*
X78283798Y-106501314D01*
X73826934Y-110958181D01*
X73765611Y-110991666D01*
X73739253Y-110994500D01*
X70874000Y-110994500D01*
X70806961Y-110974815D01*
X70761206Y-110922011D01*
X70750000Y-110870500D01*
X70750000Y-110479025D01*
X72274526Y-110479025D01*
X72347513Y-110530132D01*
X72347521Y-110530136D01*
X72553668Y-110626264D01*
X72553682Y-110626269D01*
X72773389Y-110685139D01*
X72773400Y-110685141D01*
X72999998Y-110704966D01*
X73000002Y-110704966D01*
X73226599Y-110685141D01*
X73226610Y-110685139D01*
X73446317Y-110626269D01*
X73446331Y-110626264D01*
X73652478Y-110530136D01*
X73725471Y-110479024D01*
X73000000Y-109753553D01*
X72274526Y-110479025D01*
X70750000Y-110479025D01*
X70750000Y-109399997D01*
X71695034Y-109399997D01*
X71695034Y-109400002D01*
X71714858Y-109626599D01*
X71714860Y-109626610D01*
X71773730Y-109846317D01*
X71773735Y-109846331D01*
X71869863Y-110052478D01*
X71920974Y-110125472D01*
X72646447Y-109400000D01*
X72646447Y-109399999D01*
X72606952Y-109360504D01*
X72700000Y-109360504D01*
X72700000Y-109439496D01*
X72720444Y-109515796D01*
X72759940Y-109584205D01*
X72815795Y-109640060D01*
X72884204Y-109679556D01*
X72960504Y-109700000D01*
X73039496Y-109700000D01*
X73115796Y-109679556D01*
X73184205Y-109640060D01*
X73240060Y-109584205D01*
X73279556Y-109515796D01*
X73300000Y-109439496D01*
X73300000Y-109399999D01*
X73353553Y-109399999D01*
X73353553Y-109400000D01*
X74079024Y-110125471D01*
X74130136Y-110052478D01*
X74226264Y-109846331D01*
X74226269Y-109846317D01*
X74285139Y-109626610D01*
X74285141Y-109626599D01*
X74304966Y-109400002D01*
X74304966Y-109399997D01*
X74285141Y-109173400D01*
X74285139Y-109173389D01*
X74226269Y-108953682D01*
X74226264Y-108953668D01*
X74130136Y-108747521D01*
X74130132Y-108747513D01*
X74079025Y-108674526D01*
X73353553Y-109399999D01*
X73300000Y-109399999D01*
X73300000Y-109360504D01*
X73279556Y-109284204D01*
X73240060Y-109215795D01*
X73184205Y-109159940D01*
X73115796Y-109120444D01*
X73039496Y-109100000D01*
X72960504Y-109100000D01*
X72884204Y-109120444D01*
X72815795Y-109159940D01*
X72759940Y-109215795D01*
X72720444Y-109284204D01*
X72700000Y-109360504D01*
X72606952Y-109360504D01*
X71920974Y-108674526D01*
X71920973Y-108674526D01*
X71869868Y-108747512D01*
X71869866Y-108747516D01*
X71773734Y-108953673D01*
X71773730Y-108953682D01*
X71714860Y-109173389D01*
X71714858Y-109173400D01*
X71695034Y-109399997D01*
X70750000Y-109399997D01*
X70750000Y-108320973D01*
X72274526Y-108320973D01*
X72274526Y-108320974D01*
X73000000Y-109046447D01*
X73000001Y-109046447D01*
X73725472Y-108320974D01*
X73652478Y-108269863D01*
X73446331Y-108173735D01*
X73446317Y-108173730D01*
X73226610Y-108114860D01*
X73226599Y-108114858D01*
X73000002Y-108095034D01*
X72999998Y-108095034D01*
X72773400Y-108114858D01*
X72773389Y-108114860D01*
X72553682Y-108173730D01*
X72553673Y-108173734D01*
X72347516Y-108269866D01*
X72347512Y-108269868D01*
X72274526Y-108320973D01*
X70750000Y-108320973D01*
X70750000Y-102999999D01*
X71682185Y-102999999D01*
X71682185Y-103000000D01*
X71702205Y-103228831D01*
X71702207Y-103228841D01*
X71761656Y-103450711D01*
X71761660Y-103450720D01*
X71858738Y-103658906D01*
X71858739Y-103658908D01*
X71911783Y-103734663D01*
X72469026Y-103177419D01*
X72479281Y-103215689D01*
X72552849Y-103343111D01*
X72656889Y-103447151D01*
X72784311Y-103520719D01*
X72822579Y-103530972D01*
X72265335Y-104088215D01*
X72341092Y-104141260D01*
X72549279Y-104238339D01*
X72549288Y-104238343D01*
X72771158Y-104297792D01*
X72771168Y-104297794D01*
X72999999Y-104317815D01*
X73000001Y-104317815D01*
X73228831Y-104297794D01*
X73228841Y-104297792D01*
X73450711Y-104238343D01*
X73450725Y-104238338D01*
X73658903Y-104141263D01*
X73658911Y-104141259D01*
X73734663Y-104088216D01*
X73177420Y-103530973D01*
X73215689Y-103520719D01*
X73343111Y-103447151D01*
X73447151Y-103343111D01*
X73520719Y-103215689D01*
X73530973Y-103177420D01*
X74088216Y-103734663D01*
X74141259Y-103658911D01*
X74141263Y-103658903D01*
X74238338Y-103450725D01*
X74238343Y-103450711D01*
X74297792Y-103228841D01*
X74297794Y-103228831D01*
X74317815Y-103000000D01*
X74317815Y-102999999D01*
X74297794Y-102771168D01*
X74297792Y-102771158D01*
X74238343Y-102549288D01*
X74238339Y-102549279D01*
X74141261Y-102341094D01*
X74141260Y-102341092D01*
X74088215Y-102265336D01*
X74088215Y-102265335D01*
X73530972Y-102822578D01*
X73520719Y-102784311D01*
X73447151Y-102656889D01*
X73343111Y-102552849D01*
X73215689Y-102479281D01*
X73177420Y-102469027D01*
X73734663Y-101911783D01*
X73734663Y-101911782D01*
X73658908Y-101858739D01*
X73658906Y-101858738D01*
X73450720Y-101761660D01*
X73450711Y-101761656D01*
X73228841Y-101702207D01*
X73228831Y-101702205D01*
X73000001Y-101682185D01*
X72999999Y-101682185D01*
X72771168Y-101702205D01*
X72771158Y-101702207D01*
X72549288Y-101761656D01*
X72549279Y-101761660D01*
X72341090Y-101858740D01*
X72265335Y-101911782D01*
X72822579Y-102469026D01*
X72784311Y-102479281D01*
X72656889Y-102552849D01*
X72552849Y-102656889D01*
X72479281Y-102784311D01*
X72469026Y-102822579D01*
X71911782Y-102265335D01*
X71858740Y-102341090D01*
X71761660Y-102549279D01*
X71761656Y-102549288D01*
X71702207Y-102771158D01*
X71702205Y-102771168D01*
X71682185Y-102999999D01*
X70750000Y-102999999D01*
X70750000Y-92374000D01*
X70769685Y-92306961D01*
X70822489Y-92261206D01*
X70874000Y-92250000D01*
X85376000Y-92250000D01*
X85443039Y-92269685D01*
G37*
%TD.AperFunction*%
%TD*%
%TA.AperFunction,Conductor*%
%TO.N,GNDPWR*%
G36*
X158000000Y-122500000D02*
G01*
X129500000Y-122500000D01*
X129500000Y-83000000D01*
X158000000Y-83000000D01*
X158000000Y-122500000D01*
G37*
%TD.AperFunction*%
%TD*%
M02*
