M48
; DRILL file {KiCad 8.0.4} date 2024-11-06T13:18:38+0530
; FORMAT={-:-/ absolute / inch / decimal}
; #@! TF.CreationDate,2024-11-06T13:18:38+05:30
; #@! TF.GenerationSoftware,Kicad,Pcbnew,8.0.4
; #@! TF.FileFunction,Plated,1,2,PTH
FMAT,2
INCH
; #@! TA.AperFunction,Plated,PTH,ViaDrill
T1C0.0118
; #@! TA.AperFunction,Plated,PTH,ComponentDrill
T2C0.0220
; #@! TA.AperFunction,Plated,PTH,ViaDrill
T3C0.0236
; #@! TA.AperFunction,Plated,PTH,ComponentDrill
T4C0.0236
; #@! TA.AperFunction,Plated,PTH,ComponentDrill
T5C0.0335
; #@! TA.AperFunction,Plated,PTH,ComponentDrill
T6C0.0360
; #@! TA.AperFunction,Plated,PTH,ComponentDrill
T7C0.0394
; #@! TA.AperFunction,Plated,PTH,ComponentDrill
T8C0.0402
; #@! TA.AperFunction,Plated,PTH,ComponentDrill
T9C0.0420
; #@! TA.AperFunction,Plated,PTH,ComponentDrill
T10C0.0433
; #@! TA.AperFunction,Plated,PTH,ComponentDrill
T11C0.0440
; #@! TA.AperFunction,Plated,PTH,ComponentDrill
T12C0.0787
; #@! TA.AperFunction,Plated,PTH,ComponentDrill
T13C0.1378
%
G90
G05
T1
X5.4823Y-5.2657
X5.4823Y-5.3248
X6.3976Y-5.342
T2
X6.811Y-3.7598
X6.811Y-3.9567
T3
X5.1181Y-3.4449
X5.1181Y-3.6417
X5.1181Y-3.8386
X5.1181Y-4.0354
X5.1181Y-4.2323
X5.1181Y-4.4291
X5.1181Y-4.626
X5.315Y-3.4449
X5.315Y-3.6417
X5.315Y-3.8386
X5.315Y-4.0354
X5.315Y-4.2323
X5.315Y-4.4291
X5.315Y-4.626
X5.5118Y-3.4449
X5.5118Y-3.6417
X5.5118Y-3.8386
X5.5118Y-4.0354
X5.5118Y-4.2323
X5.5118Y-4.4291
X5.5118Y-4.626
X5.7087Y-3.4449
X5.7087Y-3.6417
X5.7087Y-3.8386
X5.7087Y-4.0354
X5.7087Y-4.2323
X5.7087Y-4.4291
X5.7087Y-4.626
X5.9055Y-3.4449
X5.9055Y-3.6417
X5.9055Y-3.8386
X5.9055Y-4.0354
X5.9055Y-4.2323
X5.9055Y-4.4291
X5.9055Y-4.626
X6.1024Y-3.4449
X6.1024Y-3.6417
X6.1024Y-3.8386
X6.1024Y-4.0354
X6.1024Y-4.2323
X6.1024Y-4.4291
X6.1024Y-4.626
T4
X2.7953Y-4.5039
X2.874Y-4.3071
T5
X4.8327Y-4.2224
X4.8327Y-4.4193
T6
X3.3465Y-4.4685
X3.3465Y-4.7638
X3.5827Y-4.4685
X3.5827Y-4.7638
X3.8287Y-4.4685
X3.8287Y-4.7638
X3.9764Y-4.9705
X4.0748Y-4.4685
X4.0748Y-4.7638
X4.2717Y-4.9705
X4.5866Y-4.1634
X4.5866Y-4.4587
X5.8957Y-5.3937
X6.1909Y-5.3937
X6.8209Y-4.4291
X6.8209Y-4.7244
T7
X4.6063Y-4.8819
X4.9016Y-4.8819
X5.5886Y-5.0
X5.8878Y-3.0984
X6.3878Y-3.0984
X6.3878Y-3.7008
X6.3878Y-4.0
X7.0472Y-3.1693
X7.0472Y-3.4646
T8
X2.5512Y-4.3898
X2.5512Y-4.5079
X2.6693Y-4.3898
X2.6693Y-4.5079
X7.0945Y-4.026
X7.0945Y-4.1441
X7.0945Y-4.2622
X7.0945Y-4.3803
X7.0945Y-4.4984
X7.0945Y-4.6165
X7.0945Y-4.7347
X7.0945Y-4.8528
X7.2126Y-4.026
X7.2126Y-4.1441
X7.2126Y-4.2622
X7.2126Y-4.3803
X7.2126Y-4.4984
X7.2126Y-4.6165
X7.2126Y-4.7347
X7.2126Y-4.8528
T9
X3.0709Y-4.1344
X3.0709Y-4.7244
X3.9764Y-3.6226
X3.9764Y-4.2126
X4.3209Y-4.1535
X4.3209Y-4.7435
T10
X3.3228Y-3.7894
X3.3228Y-4.0846
X3.7441Y-3.7894
X3.7441Y-4.0846
T11
X2.674Y-4.0551
X2.874Y-4.0551
X4.24Y-3.622
X5.0Y-3.622
T12
X5.2894Y-5.0
X5.8878Y-5.0
T13
X2.4252Y-5.378
X2.4331Y-2.7795
X7.3071Y-2.7795
X7.315Y-5.3858
M30
