%TF.GenerationSoftware,KiCad,Pcbnew,8.0.4*%
%TF.CreationDate,2024-11-06T13:18:38+05:30*%
%TF.ProjectId,PS_CARD,50535f43-4152-4442-9e6b-696361645f70,rev?*%
%TF.SameCoordinates,Original*%
%TF.FileFunction,Other,Comment*%
%FSLAX46Y46*%
G04 Gerber Fmt 4.6, Leading zero omitted, Abs format (unit mm)*
G04 Created by KiCad (PCBNEW 8.0.4) date 2024-11-06 13:18:38*
%MOMM*%
%LPD*%
G01*
G04 APERTURE LIST*
%ADD10C,0.150000*%
%ADD11C,0.100000*%
G04 APERTURE END LIST*
D10*
X119851190Y-54804819D02*
X119279762Y-54804819D01*
X119565476Y-54804819D02*
X119565476Y-53804819D01*
X119565476Y-53804819D02*
X119470238Y-53947676D01*
X119470238Y-53947676D02*
X119375000Y-54042914D01*
X119375000Y-54042914D02*
X119279762Y-54090533D01*
X120184524Y-53804819D02*
X120803571Y-53804819D01*
X120803571Y-53804819D02*
X120470238Y-54185771D01*
X120470238Y-54185771D02*
X120613095Y-54185771D01*
X120613095Y-54185771D02*
X120708333Y-54233390D01*
X120708333Y-54233390D02*
X120755952Y-54281009D01*
X120755952Y-54281009D02*
X120803571Y-54376247D01*
X120803571Y-54376247D02*
X120803571Y-54614342D01*
X120803571Y-54614342D02*
X120755952Y-54709580D01*
X120755952Y-54709580D02*
X120708333Y-54757200D01*
X120708333Y-54757200D02*
X120613095Y-54804819D01*
X120613095Y-54804819D02*
X120327381Y-54804819D01*
X120327381Y-54804819D02*
X120232143Y-54757200D01*
X120232143Y-54757200D02*
X120184524Y-54709580D01*
X121422619Y-53804819D02*
X121517857Y-53804819D01*
X121517857Y-53804819D02*
X121613095Y-53852438D01*
X121613095Y-53852438D02*
X121660714Y-53900057D01*
X121660714Y-53900057D02*
X121708333Y-53995295D01*
X121708333Y-53995295D02*
X121755952Y-54185771D01*
X121755952Y-54185771D02*
X121755952Y-54423866D01*
X121755952Y-54423866D02*
X121708333Y-54614342D01*
X121708333Y-54614342D02*
X121660714Y-54709580D01*
X121660714Y-54709580D02*
X121613095Y-54757200D01*
X121613095Y-54757200D02*
X121517857Y-54804819D01*
X121517857Y-54804819D02*
X121422619Y-54804819D01*
X121422619Y-54804819D02*
X121327381Y-54757200D01*
X121327381Y-54757200D02*
X121279762Y-54709580D01*
X121279762Y-54709580D02*
X121232143Y-54614342D01*
X121232143Y-54614342D02*
X121184524Y-54423866D01*
X121184524Y-54423866D02*
X121184524Y-54185771D01*
X121184524Y-54185771D02*
X121232143Y-53995295D01*
X121232143Y-53995295D02*
X121279762Y-53900057D01*
X121279762Y-53900057D02*
X121327381Y-53852438D01*
X121327381Y-53852438D02*
X121422619Y-53804819D01*
X122184524Y-54709580D02*
X122232143Y-54757200D01*
X122232143Y-54757200D02*
X122184524Y-54804819D01*
X122184524Y-54804819D02*
X122136905Y-54757200D01*
X122136905Y-54757200D02*
X122184524Y-54709580D01*
X122184524Y-54709580D02*
X122184524Y-54804819D01*
X122565476Y-53804819D02*
X123232142Y-53804819D01*
X123232142Y-53804819D02*
X122803571Y-54804819D01*
X124089285Y-53804819D02*
X123613095Y-53804819D01*
X123613095Y-53804819D02*
X123565476Y-54281009D01*
X123565476Y-54281009D02*
X123613095Y-54233390D01*
X123613095Y-54233390D02*
X123708333Y-54185771D01*
X123708333Y-54185771D02*
X123946428Y-54185771D01*
X123946428Y-54185771D02*
X124041666Y-54233390D01*
X124041666Y-54233390D02*
X124089285Y-54281009D01*
X124089285Y-54281009D02*
X124136904Y-54376247D01*
X124136904Y-54376247D02*
X124136904Y-54614342D01*
X124136904Y-54614342D02*
X124089285Y-54709580D01*
X124089285Y-54709580D02*
X124041666Y-54757200D01*
X124041666Y-54757200D02*
X123946428Y-54804819D01*
X123946428Y-54804819D02*
X123708333Y-54804819D01*
X123708333Y-54804819D02*
X123613095Y-54757200D01*
X123613095Y-54757200D02*
X123565476Y-54709580D01*
X124755952Y-53804819D02*
X124851190Y-53804819D01*
X124851190Y-53804819D02*
X124946428Y-53852438D01*
X124946428Y-53852438D02*
X124994047Y-53900057D01*
X124994047Y-53900057D02*
X125041666Y-53995295D01*
X125041666Y-53995295D02*
X125089285Y-54185771D01*
X125089285Y-54185771D02*
X125089285Y-54423866D01*
X125089285Y-54423866D02*
X125041666Y-54614342D01*
X125041666Y-54614342D02*
X124994047Y-54709580D01*
X124994047Y-54709580D02*
X124946428Y-54757200D01*
X124946428Y-54757200D02*
X124851190Y-54804819D01*
X124851190Y-54804819D02*
X124755952Y-54804819D01*
X124755952Y-54804819D02*
X124660714Y-54757200D01*
X124660714Y-54757200D02*
X124613095Y-54709580D01*
X124613095Y-54709580D02*
X124565476Y-54614342D01*
X124565476Y-54614342D02*
X124517857Y-54423866D01*
X124517857Y-54423866D02*
X124517857Y-54185771D01*
X124517857Y-54185771D02*
X124565476Y-53995295D01*
X124565476Y-53995295D02*
X124613095Y-53900057D01*
X124613095Y-53900057D02*
X124660714Y-53852438D01*
X124660714Y-53852438D02*
X124755952Y-53804819D01*
X125708333Y-53804819D02*
X125803571Y-53804819D01*
X125803571Y-53804819D02*
X125898809Y-53852438D01*
X125898809Y-53852438D02*
X125946428Y-53900057D01*
X125946428Y-53900057D02*
X125994047Y-53995295D01*
X125994047Y-53995295D02*
X126041666Y-54185771D01*
X126041666Y-54185771D02*
X126041666Y-54423866D01*
X126041666Y-54423866D02*
X125994047Y-54614342D01*
X125994047Y-54614342D02*
X125946428Y-54709580D01*
X125946428Y-54709580D02*
X125898809Y-54757200D01*
X125898809Y-54757200D02*
X125803571Y-54804819D01*
X125803571Y-54804819D02*
X125708333Y-54804819D01*
X125708333Y-54804819D02*
X125613095Y-54757200D01*
X125613095Y-54757200D02*
X125565476Y-54709580D01*
X125565476Y-54709580D02*
X125517857Y-54614342D01*
X125517857Y-54614342D02*
X125470238Y-54423866D01*
X125470238Y-54423866D02*
X125470238Y-54185771D01*
X125470238Y-54185771D02*
X125517857Y-53995295D01*
X125517857Y-53995295D02*
X125565476Y-53900057D01*
X125565476Y-53900057D02*
X125613095Y-53852438D01*
X125613095Y-53852438D02*
X125708333Y-53804819D01*
X127232143Y-54804819D02*
X127232143Y-54138152D01*
X127232143Y-54233390D02*
X127279762Y-54185771D01*
X127279762Y-54185771D02*
X127375000Y-54138152D01*
X127375000Y-54138152D02*
X127517857Y-54138152D01*
X127517857Y-54138152D02*
X127613095Y-54185771D01*
X127613095Y-54185771D02*
X127660714Y-54281009D01*
X127660714Y-54281009D02*
X127660714Y-54804819D01*
X127660714Y-54281009D02*
X127708333Y-54185771D01*
X127708333Y-54185771D02*
X127803571Y-54138152D01*
X127803571Y-54138152D02*
X127946428Y-54138152D01*
X127946428Y-54138152D02*
X128041667Y-54185771D01*
X128041667Y-54185771D02*
X128089286Y-54281009D01*
X128089286Y-54281009D02*
X128089286Y-54804819D01*
X128565476Y-54804819D02*
X128565476Y-54138152D01*
X128565476Y-54233390D02*
X128613095Y-54185771D01*
X128613095Y-54185771D02*
X128708333Y-54138152D01*
X128708333Y-54138152D02*
X128851190Y-54138152D01*
X128851190Y-54138152D02*
X128946428Y-54185771D01*
X128946428Y-54185771D02*
X128994047Y-54281009D01*
X128994047Y-54281009D02*
X128994047Y-54804819D01*
X128994047Y-54281009D02*
X129041666Y-54185771D01*
X129041666Y-54185771D02*
X129136904Y-54138152D01*
X129136904Y-54138152D02*
X129279761Y-54138152D01*
X129279761Y-54138152D02*
X129375000Y-54185771D01*
X129375000Y-54185771D02*
X129422619Y-54281009D01*
X129422619Y-54281009D02*
X129422619Y-54804819D01*
D11*
X189750000Y-66000000D02*
X189750000Y-54913580D01*
X59000000Y-66000000D02*
X59000000Y-54913580D01*
X189750000Y-55500000D02*
X59000000Y-55500000D01*
X189750000Y-55500000D02*
X59000000Y-55500000D01*
X189750000Y-55500000D02*
X188623496Y-56086421D01*
X189750000Y-55500000D02*
X188623496Y-54913579D01*
X59000000Y-55500000D02*
X60126504Y-54913579D01*
X59000000Y-55500000D02*
X60126504Y-56086421D01*
D10*
X213054819Y-108291665D02*
X213054819Y-107624999D01*
X213054819Y-107624999D02*
X214054819Y-108053570D01*
X213388152Y-106815475D02*
X214054819Y-106815475D01*
X213007200Y-107053570D02*
X213721485Y-107291665D01*
X213721485Y-107291665D02*
X213721485Y-106672618D01*
X213959580Y-106291665D02*
X214007200Y-106244046D01*
X214007200Y-106244046D02*
X214054819Y-106291665D01*
X214054819Y-106291665D02*
X214007200Y-106339284D01*
X214007200Y-106339284D02*
X213959580Y-106291665D01*
X213959580Y-106291665D02*
X214054819Y-106291665D01*
X213054819Y-105910713D02*
X213054819Y-105244047D01*
X213054819Y-105244047D02*
X214054819Y-105672618D01*
X213054819Y-104386904D02*
X213054819Y-104863094D01*
X213054819Y-104863094D02*
X213531009Y-104910713D01*
X213531009Y-104910713D02*
X213483390Y-104863094D01*
X213483390Y-104863094D02*
X213435771Y-104767856D01*
X213435771Y-104767856D02*
X213435771Y-104529761D01*
X213435771Y-104529761D02*
X213483390Y-104434523D01*
X213483390Y-104434523D02*
X213531009Y-104386904D01*
X213531009Y-104386904D02*
X213626247Y-104339285D01*
X213626247Y-104339285D02*
X213864342Y-104339285D01*
X213864342Y-104339285D02*
X213959580Y-104386904D01*
X213959580Y-104386904D02*
X214007200Y-104434523D01*
X214007200Y-104434523D02*
X214054819Y-104529761D01*
X214054819Y-104529761D02*
X214054819Y-104767856D01*
X214054819Y-104767856D02*
X214007200Y-104863094D01*
X214007200Y-104863094D02*
X213959580Y-104910713D01*
X213054819Y-103720237D02*
X213054819Y-103624999D01*
X213054819Y-103624999D02*
X213102438Y-103529761D01*
X213102438Y-103529761D02*
X213150057Y-103482142D01*
X213150057Y-103482142D02*
X213245295Y-103434523D01*
X213245295Y-103434523D02*
X213435771Y-103386904D01*
X213435771Y-103386904D02*
X213673866Y-103386904D01*
X213673866Y-103386904D02*
X213864342Y-103434523D01*
X213864342Y-103434523D02*
X213959580Y-103482142D01*
X213959580Y-103482142D02*
X214007200Y-103529761D01*
X214007200Y-103529761D02*
X214054819Y-103624999D01*
X214054819Y-103624999D02*
X214054819Y-103720237D01*
X214054819Y-103720237D02*
X214007200Y-103815475D01*
X214007200Y-103815475D02*
X213959580Y-103863094D01*
X213959580Y-103863094D02*
X213864342Y-103910713D01*
X213864342Y-103910713D02*
X213673866Y-103958332D01*
X213673866Y-103958332D02*
X213435771Y-103958332D01*
X213435771Y-103958332D02*
X213245295Y-103910713D01*
X213245295Y-103910713D02*
X213150057Y-103863094D01*
X213150057Y-103863094D02*
X213102438Y-103815475D01*
X213102438Y-103815475D02*
X213054819Y-103720237D01*
X213054819Y-102767856D02*
X213054819Y-102672618D01*
X213054819Y-102672618D02*
X213102438Y-102577380D01*
X213102438Y-102577380D02*
X213150057Y-102529761D01*
X213150057Y-102529761D02*
X213245295Y-102482142D01*
X213245295Y-102482142D02*
X213435771Y-102434523D01*
X213435771Y-102434523D02*
X213673866Y-102434523D01*
X213673866Y-102434523D02*
X213864342Y-102482142D01*
X213864342Y-102482142D02*
X213959580Y-102529761D01*
X213959580Y-102529761D02*
X214007200Y-102577380D01*
X214007200Y-102577380D02*
X214054819Y-102672618D01*
X214054819Y-102672618D02*
X214054819Y-102767856D01*
X214054819Y-102767856D02*
X214007200Y-102863094D01*
X214007200Y-102863094D02*
X213959580Y-102910713D01*
X213959580Y-102910713D02*
X213864342Y-102958332D01*
X213864342Y-102958332D02*
X213673866Y-103005951D01*
X213673866Y-103005951D02*
X213435771Y-103005951D01*
X213435771Y-103005951D02*
X213245295Y-102958332D01*
X213245295Y-102958332D02*
X213150057Y-102910713D01*
X213150057Y-102910713D02*
X213102438Y-102863094D01*
X213102438Y-102863094D02*
X213054819Y-102767856D01*
X214054819Y-101244046D02*
X213388152Y-101244046D01*
X213483390Y-101244046D02*
X213435771Y-101196427D01*
X213435771Y-101196427D02*
X213388152Y-101101189D01*
X213388152Y-101101189D02*
X213388152Y-100958332D01*
X213388152Y-100958332D02*
X213435771Y-100863094D01*
X213435771Y-100863094D02*
X213531009Y-100815475D01*
X213531009Y-100815475D02*
X214054819Y-100815475D01*
X213531009Y-100815475D02*
X213435771Y-100767856D01*
X213435771Y-100767856D02*
X213388152Y-100672618D01*
X213388152Y-100672618D02*
X213388152Y-100529761D01*
X213388152Y-100529761D02*
X213435771Y-100434522D01*
X213435771Y-100434522D02*
X213531009Y-100386903D01*
X213531009Y-100386903D02*
X214054819Y-100386903D01*
X214054819Y-99910713D02*
X213388152Y-99910713D01*
X213483390Y-99910713D02*
X213435771Y-99863094D01*
X213435771Y-99863094D02*
X213388152Y-99767856D01*
X213388152Y-99767856D02*
X213388152Y-99624999D01*
X213388152Y-99624999D02*
X213435771Y-99529761D01*
X213435771Y-99529761D02*
X213531009Y-99482142D01*
X213531009Y-99482142D02*
X214054819Y-99482142D01*
X213531009Y-99482142D02*
X213435771Y-99434523D01*
X213435771Y-99434523D02*
X213388152Y-99339285D01*
X213388152Y-99339285D02*
X213388152Y-99196428D01*
X213388152Y-99196428D02*
X213435771Y-99101189D01*
X213435771Y-99101189D02*
X213531009Y-99053570D01*
X213531009Y-99053570D02*
X214054819Y-99053570D01*
D11*
X190500000Y-66250000D02*
X215336420Y-66250000D01*
X190500000Y-141000000D02*
X215336420Y-141000000D01*
X214750000Y-66250000D02*
X214750000Y-141000000D01*
X214750000Y-66250000D02*
X214750000Y-141000000D01*
X214750000Y-66250000D02*
X215336421Y-67376504D01*
X214750000Y-66250000D02*
X214163579Y-67376504D01*
X214750000Y-141000000D02*
X214163579Y-139873496D01*
X214750000Y-141000000D02*
X215336421Y-139873496D01*
D10*
%TO.C,MH4*%
X189100000Y-70600000D02*
G75*
G02*
X182100000Y-70600000I-3500000J0D01*
G01*
X182100000Y-70600000D02*
G75*
G02*
X189100000Y-70600000I3500000J0D01*
G01*
%TO.C,MH2*%
X65100000Y-136600000D02*
G75*
G02*
X58100000Y-136600000I-3500000J0D01*
G01*
X58100000Y-136600000D02*
G75*
G02*
X65100000Y-136600000I3500000J0D01*
G01*
%TO.C,MH3*%
X189300000Y-136800000D02*
G75*
G02*
X182300000Y-136800000I-3500000J0D01*
G01*
X182300000Y-136800000D02*
G75*
G02*
X189300000Y-136800000I3500000J0D01*
G01*
%TO.C,MH1*%
X65300000Y-70600000D02*
G75*
G02*
X58300000Y-70600000I-3500000J0D01*
G01*
X58300000Y-70600000D02*
G75*
G02*
X65300000Y-70600000I3500000J0D01*
G01*
%TD*%
M02*
